<svg xmlns="http://www.w3.org/2000/svg" width="210mm" height="210mm" viewBox="0 0 210 210">
    <path d="M0 0h210v210H0z" style="opacity:1;fill:#fff;fill-opacity:1;stroke:#fff;stroke-width:1;stroke-linecap:round;stroke-linejoin:round;stroke-dasharray:none;stroke-opacity:.735192;paint-order:normal"/>
    <g style="display:inline">
        <path d="m4.56 112.17 22.616-2.736s.548-1.788.616-2.713c.083-1.133-.094-2.274-.262-3.397-.71-4.729-3.143-13.997-3.143-13.997-.03.008-2.988-5.4-4.871-7.07-1.264-1.12-2.742-2.132-4.378-2.553-2.414-.62-7.478.183-7.478.183l-.73 13.132s-1.825 8.333-2.241 12.568c-.215 2.184-.13 6.583-.13 6.583" style="fill:#347269;fill-opacity:1;stroke:#fff;stroke-width:1;stroke-linecap:round;stroke-linejoin:round;stroke-dasharray:none;stroke-opacity:1;paint-order:normal" transform="translate(-2.886 -24.101)"/>
        <path d="m4.56 112.17 22.616-2.736 3.648 7.66 3.1 10.944L22.07 138.31l-8.755 8.514-6.566-29.365zM30.32 96.12l11.995-.758 11.207-.496s1.689-3.085 2.112-4.792c1.111-4.48 2.931-16.766 2.931-16.766s-.036-3.414-.516-5.03c-.455-1.53-1.165-3.034-2.192-4.256-1.146-1.362-2.599-2.576-4.256-3.224a7.46 7.46 0 0 0-3.998-.387c-1.229.228-3.354 1.677-3.354 1.677l-5.287 12.639s-4.07 4.681-5.61 7.35c-.978 1.695-1.788 3.519-2.257 5.418-.693 2.802-.774 8.625-.774 8.625" style="fill:#347269;fill-opacity:1;stroke:#fff;stroke-width:1;stroke-linecap:round;stroke-linejoin:round;stroke-dasharray:none;stroke-opacity:1;paint-order:normal" transform="translate(-2.886 -24.101)"/>
        <path d="M30.32 96.12c7.726-.576 15.464-.912 23.202-1.254-.143 5.222-.225 10.447-.329 15.67l-.702 5.536-12.51 7.48-6.875 1.596-2.282-8.054-1.824-3.83z" style="fill:#347269;fill-opacity:1;stroke:#fff;stroke-width:1;stroke-linecap:round;stroke-linejoin:round;stroke-dasharray:none;stroke-opacity:1;paint-order:normal" transform="translate(-2.886 -24.101)"/>
        <path d="m39.98 123.553 15.074-1.161 7.367 7.867s-3.635.276-5.333.88c-1.847.656-3.729 1.523-5.107 2.918-.88.89-2.284 3.014-2.284 3.014l-8.294-3.561h-3.83l-3.648-5.472-.82-2.89zM56.815 95.116l19.537 1.55s1.14-1.387 1.529-2.188c1.057-2.182 3.009-8.116 3.009-8.116l2.553-9.12.821-1.55s.491-1.808.547-2.736c.048-.791-.047-1.59-.182-2.371-.177-1.025-.359-2.078-.82-3.01-.733-1.476-1.605-2.999-2.828-4.103-.901-.815-2.105-1.434-3.283-1.733-1.062-.27-2.237-.145-3.283.182-1.22.382-3.267 2.007-3.267 2.007l-5.617 14.28s-1.976 1.744-2.789 2.773c-1.192 1.51-2.059 2.737-2.91 4.462-.822 1.665-1.564 3.752-2.106 5.66-.374 1.32-.911 4.013-.911 4.013" style="fill:#347269;fill-opacity:1;stroke:#fff;stroke-width:1;stroke-linecap:round;stroke-linejoin:round;stroke-dasharray:none;stroke-opacity:1;paint-order:normal" transform="translate(-2.886 -24.101)"/>
        <path d="m56.815 95.116 19.537 1.55.16 1.825-2.006 15.776-10.852 4.743-12.494.09 1.33-3.028.703-5.536z" style="fill:#347269;fill-opacity:1;stroke:#fff;stroke-width:1;stroke-linecap:round;stroke-linejoin:round;stroke-dasharray:none;stroke-opacity:1;paint-order:normal" transform="translate(-2.886 -24.101)"/>
        <path d="m51.16 119.1 12.494-.09 13.359 2.188 3.239 7.113 1.459 4.195-.02 3.281s-6.019-3.304-9.282-4.284c-2.71-.813-5.567-1.092-8.39-1.276-.532-.035-1.598.032-1.598.032l-7.367-7.867-2.434-.64zM75.464 114.94l13.636 1.32 3.588-.537 4.982-7.566s1.879-3.059 2.462-4.742a11.6 11.6 0 0 0 .636-3.83c-.005-1.085-.173-2.39-.498-3.426-.387-1.234-.883-2.244-1.597-3.322-.44-.664-.966-1.313-1.641-1.733-1.217-.757-4.104-1.277-4.104-1.277l-7.66 10.488s-3.581 2.02-5.108 3.374c-.984.873-1.94 1.845-2.553 3.01-1.454 2.759-2.143 8.24-2.143 8.24" style="fill:#347269;fill-opacity:1;stroke:#fff;stroke-width:1;stroke-linecap:round;stroke-linejoin:round;stroke-dasharray:none;stroke-opacity:1;paint-order:normal" transform="translate(-2.886 -24.101)"/>
        <path d="m75.464 114.94 13.636 1.32 3.588-.537.057 6.843-1.368 3.648-11.125 2.097-3.24-7.113-2.367-.547zM80.252 128.311l10.76.5 2.416 1.055 3.239 4.83 1.48 4.65-7.92 1.33-8.536-4.889.02-3.28zM90.228 140.677l7.919-1.33 4.447 1.367 3.648 1.277 9.758 6.292-10.396 3.83-6.019-2.37c-2.484-3.625-6.072-6.211-9.357-9.066" style="fill:#347269;fill-opacity:1;stroke:#fff;stroke-width:1;stroke-linecap:round;stroke-linejoin:round;stroke-dasharray:none;stroke-opacity:1;paint-order:normal" transform="translate(-2.886 -24.101)"/>
        <path d="m102.718 128.012 10.396-3.83 5.655-1.095 8.007.42-4.676 2.731-1.645 3.824-6.023.774-9.707-1.73z" style="fill:#347269;fill-opacity:1;stroke:#fff;stroke-width:1;stroke-linecap:round;stroke-linejoin:round;stroke-dasharray:none;stroke-opacity:1;paint-order:fill markers stroke"/>
    </g>
    <g style="stroke-width:.961626;stroke-dasharray:none">
        <path d="m85.968 167.268-18.46-14.593 24.752-51.7" style="fill:#347269;fill-opacity:1;stroke:#fff;stroke-width:.586307;stroke-linecap:round;stroke-linejoin:round;stroke-dasharray:none" transform="matrix(1.25537 0 0 .79475 14.586 -17.961)"/>
        <path d="m92.26 100.974 36.932 54.011-43.224 12.283" style="fill:#347269;fill-opacity:1;stroke:#fff;stroke-width:.586307;stroke-linecap:round;stroke-linejoin:round;stroke-dasharray:none;paint-order:fill markers stroke" transform="matrix(1.25537 0 0 .79475 14.586 -17.961)"/>
        <path d="m82.526 119.63 1.807-.339 1.132-2.03 5.14-.629 12.523 4.211 1.158-3.796-12.166-16.025z" style="opacity:1;fill:#83b4ad;fill-opacity:1;stroke:#fff;stroke-width:.586307;stroke-linecap:round;stroke-linejoin:round;stroke-dasharray:none;stroke-opacity:1" transform="matrix(1.25537 0 0 .79475 14.586 -17.961)"/>
        <path d="m85.968 167.268 6.292-66.294z" style="opacity:1;fill:#e2e2c1;fill-opacity:1;stroke:#fff;stroke-width:.586307;stroke-linecap:round;stroke-linejoin:round;stroke-dasharray:none;stroke-opacity:1" transform="matrix(1.25537 0 0 .79475 14.586 -17.961)"/>
    </g>
    <path d="m49.697 137.071-8.294-3.561h-3.83l-15.504 4.8-8.755 8.514 38.302 28.088 12.22 11.126 7.296 2.189s29.764 7.287 44.686 10.76c7.829 1.823 15.825 2.992 23.528 5.29 1.991.594 4.042 1.14 5.837 2.189 1.713 1 3.47 2.17 4.56 3.83 1.635 2.492 2.021 5.638 2.553 8.572.945 5.217 1.035 15.818 1.035 15.818l60.212.073v-38.554c-6.317-14.09-10.445-20.361-13.442-25.824s-6.94-11.686-10.233-15.897c-1.511-1.933-3.4-3.609-5.472-4.924-3.174-2.015-6.75-3.458-10.396-4.377-4.323-1.09-8.857-1.371-13.314-1.277-8.407.177-16.595 2.94-24.988 3.465-4.672.292-3.693.252-6.036.237s-5.717-.578-8.008-.42c-2.29.16-5.654 1.095-5.654 1.095l-10.396 3.83 9.628 15.205" style="display:inline;opacity:1;fill:#347269;fill-opacity:1;stroke:#fff;stroke-width:1;stroke-linecap:round;stroke-linejoin:round;stroke-dasharray:none;stroke-opacity:1;paint-order:normal" transform="translate(-2.886 -24.101)"/>
    <path d="m124.572 156.673-16.962-3.465-8.025-3.466s-.693-1.329-1.168-2c-.515-.725-1.87-2.236-2.369-2.636-3.718-2.988-6-4.705-9.366-6.71-4.487-2.672-9.27-5.39-14.273-6.893a30.4 30.4 0 0 0-8.39-1.276c-2.33-.024-4.723.167-6.93.911-1.859.627-3.73 1.524-5.108 2.919-1.76 1.78-2.85 4.082-3.357 6.534-.248 1.196.038 2.963.397 4.131.75 2.445 1.812 4.236 3.325 6.297a33 33 0 0 0 6.201 6.384c2.83 2.222 10.305 5.927 10.305 5.927s4.97 6.238 8.025 8.755c1.844 1.518 4.43 3.36 6.818 3.926 3.828.909 10.054 2.184 10.054 2.184l16.05 5.837 19.698 11.673" style="display:inline;opacity:1;fill:#347269;fill-opacity:1;stroke:#fff;stroke-width:1;stroke-linecap:round;stroke-linejoin:round;stroke-dasharray:none;stroke-opacity:1;paint-order:normal" transform="translate(-2.886 -24.101)"/>
</svg>
