<svg xmlns="http://www.w3.org/2000/svg" fill="none" stroke-linecap="square" stroke-miterlimit="10" viewBox="0 0 960 460"><clipPath id="a"><path d="M0 0h960v460H0V0z"/></clipPath><g clip-path="url(#a)"><path fill="#fff" fill-rule="evenodd" d="M0 0h960v460H0z"/><path fill="#d0e0e3" fill-rule="evenodd" d="M0 236.38h960v222.961H0z"/><path fill="#d9d2e9" fill-rule="evenodd" d="M0 0h960v236.346H0z"/><path fill="#fff" fill-rule="evenodd" d="m31.068 260.907 13.173-52.693h121.914l-13.173 52.693z"/><path stroke="#000" stroke-linecap="butt" stroke-linejoin="round" d="m31.068 260.907 13.173-52.693h121.914l-13.173 52.693z"/><path fill="#000" d="M69.358 241.48h-2.562v-4.937q0-1.563-.172-2.016-.156-.469-.531-.719-.36-.265-.875-.265-.672 0-1.204.375-.53.36-.734.969-.187.593-.187 2.218v4.375h-2.547v-9.672h2.375v1.422q1.265-1.64 3.187-1.64.844 0 1.547.312.703.297 1.063.781.359.47.5 1.079.14.593.14 1.703v6.015zm8.959 0v-1.453q-.532.781-1.391 1.235-.86.437-1.812.437-.97 0-1.75-.422-.766-.437-1.125-1.203-.344-.781-.344-2.14v-6.126h2.562v4.438q0 2.047.14 2.516.142.453.517.718.375.266.953.266.656 0 1.172-.36.515-.359.703-.89.203-.531.203-2.61v-4.078h2.547v9.672h-2.375zm4.833-9.672h2.36v1.313q1.265-1.531 3.015-1.531.938 0 1.61.39.687.375 1.124 1.141.641-.766 1.375-1.14.75-.391 1.579-.391 1.062 0 1.796.437.75.422 1.11 1.266.265.625.265 2v6.187h-2.562v-5.53q0-1.438-.266-1.86-.343-.547-1.093-.547-.532 0-1.016.328-.469.328-.672.969-.203.625-.203 2v4.64h-2.563v-5.297q0-1.421-.14-1.828-.14-.406-.422-.609-.281-.203-.781-.203-.594 0-1.063.328-.469.312-.687.922-.203.594-.203 1.984v4.703H83.15v-9.672zm16.682 9.672v-13.359h2.563v4.812q1.172-1.343 2.797-1.343 1.765 0 2.922 1.281 1.156 1.281 1.156 3.672 0 2.484-1.188 3.828-1.172 1.328-2.86 1.328-.827 0-1.64-.406-.797-.422-1.375-1.235v1.422h-2.375zm2.532-5.047q0 1.5.484 2.22.656 1.03 1.766 1.03.843 0 1.437-.718.594-.735.594-2.297 0-1.656-.61-2.39-.593-.735-1.53-.735-.923 0-1.532.719-.61.718-.61 2.171zm14.567 1.97 2.547.421q-.484 1.406-1.547 2.14-1.062.735-2.656.735-2.516 0-3.734-1.656-.953-1.313-.953-3.328 0-2.407 1.25-3.766 1.265-1.36 3.187-1.36 2.156 0 3.406 1.423 1.25 1.421 1.188 4.375h-6.406q.03 1.14.609 1.78.594.626 1.484.626.594 0 1-.328.422-.328.625-1.063zm.157-2.595q-.032-1.109-.579-1.687-.546-.578-1.328-.578-.843 0-1.39.61-.547.609-.532 1.655h3.829zm7.078 5.672h-2.562v-9.672h2.375v1.375q.61-.984 1.094-1.28.484-.313 1.11-.313.874 0 1.687.484l-.797 2.234q-.64-.421-1.203-.421-.532 0-.907.296-.375.297-.593 1.079-.204.765-.204 3.234v2.984zm3.901-2.765 2.563-.39q.172.75.672 1.14.5.39 1.406.39.984 0 1.484-.375.344-.25.344-.672 0-.296-.187-.484-.188-.187-.86-.344-3.094-.687-3.922-1.25-1.14-.78-1.14-2.172 0-1.265.984-2.109 1-.86 3.078-.86 1.985 0 2.953.657.97.64 1.328 1.906l-2.406.438q-.156-.563-.594-.86-.421-.297-1.234-.297-1 0-1.437.282-.297.203-.297.515 0 .266.25.47.343.25 2.39.718 2.047.453 2.86 1.14.797.672.797 1.891 0 1.344-1.11 2.297-1.11.953-3.281.953-1.984 0-3.14-.797-1.141-.812-1.5-2.187z"/><path fill="#fff" fill-rule="evenodd" d="m747.013 259.27 13.173-52.693h168.276l-13.173 52.693z"/><path stroke="#000" stroke-linecap="butt" stroke-linejoin="round" d="m747.013 259.27 13.173-52.693h168.276l-13.173 52.693z"/><path fill="#000" d="m792.561 222.031-2.531.454q-.125-.75-.578-1.125-.453-.391-1.172-.391-.953 0-1.531.656-.563.656-.563 2.203 0 1.735.578 2.438.578.703 1.547.703.735 0 1.203-.406.469-.422.657-1.422l2.515.422q-.39 1.734-1.515 2.625-1.11.875-2.97.875-2.124 0-3.39-1.328-1.25-1.344-1.25-3.72 0-2.39 1.266-3.718 1.265-1.344 3.422-1.344 1.765 0 2.797.766 1.046.75 1.515 2.312zm1.345 1.844q0-1.281.625-2.469.625-1.203 1.78-1.828 1.157-.625 2.579-.625 2.188 0 3.594 1.422 1.406 1.422 1.406 3.61 0 2.187-1.422 3.64-1.422 1.438-3.562 1.438-1.328 0-2.547-.594-1.203-.61-1.828-1.766-.625-1.172-.625-2.828zm2.625.125q0 1.453.672 2.219.687.75 1.687.75t1.672-.75q.687-.766.687-2.234 0-1.422-.687-2.188-.672-.766-1.672-.766-1 0-1.687.766-.672.766-.672 2.203zm9.161-4.828h2.36v1.313q1.265-1.532 3.015-1.532.938 0 1.61.39.687.376 1.125 1.142.64-.766 1.375-1.141.75-.39 1.578-.39 1.062 0 1.797.437.75.422 1.109 1.265.266.625.266 2v6.188h-2.563v-5.531q0-1.438-.265-1.86-.344-.547-1.094-.547-.531 0-1.016.329-.469.328-.672.968-.203.625-.203 2v4.64h-2.562v-5.296q0-1.422-.141-1.828-.14-.406-.422-.61-.281-.203-.781-.203-.594 0-1.063.329-.468.312-.687.921-.203.594-.203 1.985v4.703h-2.563v-9.672zm16.714 0h2.39v1.422q.469-.734 1.25-1.188.797-.453 1.766-.453 1.687 0 2.86 1.328 1.171 1.313 1.171 3.672 0 2.422-1.187 3.766-1.188 1.344-2.86 1.344-.812 0-1.468-.313-.641-.328-1.36-1.094v4.875h-2.562v-13.359zm2.53 4.672q0 1.625.642 2.406.656.781 1.578.781.906 0 1.484-.718.594-.72.594-2.344 0-1.516-.61-2.25-.609-.75-1.515-.75-.938 0-1.563.734-.61.719-.61 2.14zm11.397 5h-2.563v-9.672h2.375v1.375q.61-.984 1.094-1.281.485-.313 1.11-.313.875 0 1.687.485l-.797 2.234q-.64-.422-1.203-.422-.531 0-.906.297t-.594 1.078q-.203.766-.203 3.235v2.984zm10.4-3.078 2.548.422q-.485 1.406-1.547 2.14-1.063.735-2.656.735-2.516 0-3.735-1.657-.953-1.312-.953-3.328 0-2.406 1.25-3.765 1.266-1.36 3.188-1.36 2.156 0 3.406 1.422t1.187 4.375h-6.406q.031 1.14.61 1.781.593.625 1.484.625.594 0 1-.328.422-.328.625-1.062zm.157-2.594q-.031-1.11-.578-1.687-.547-.579-1.328-.579-.844 0-1.39.61-.548.61-.532 1.656h3.828zm3.72 2.906 2.562-.39q.172.75.672 1.14.5.39 1.406.39.984 0 1.484-.374.344-.25.344-.672 0-.297-.187-.484-.188-.188-.86-.344-3.093-.688-3.922-1.25-1.14-.781-1.14-2.172 0-1.266.984-2.11 1-.859 3.078-.859 1.985 0 2.953.657.97.64 1.329 1.906l-2.407.437q-.156-.562-.593-.86-.422-.296-1.235-.296-1 0-1.437.281-.297.203-.297.516 0 .266.25.469.344.25 2.39.718 2.047.454 2.86 1.141.797.672.797 1.89 0 1.344-1.11 2.298-1.109.953-3.28.953-1.985 0-3.142-.797-1.14-.813-1.5-2.188zm10.375 0 2.563-.39q.172.75.672 1.14.5.39 1.406.39.984 0 1.484-.374.344-.25.344-.672 0-.297-.188-.484-.187-.188-.859-.344-3.094-.688-3.922-1.25-1.14-.781-1.14-2.172 0-1.266.984-2.11 1-.859 3.078-.859 1.984 0 2.953.657.969.64 1.328 1.906l-2.406.437q-.156-.562-.594-.86-.422-.296-1.234-.296-1 0-1.438.281-.296.203-.296.516 0 .266.25.469.343.25 2.39.718 2.047.454 2.86 1.141.796.672.796 1.89 0 1.344-1.109 2.298-1.11.953-3.281.953-1.985 0-3.14-.797-1.141-.813-1.5-2.188zm16.876-.312 2.547.422q-.485 1.406-1.547 2.14-1.063.735-2.656.735-2.516 0-3.735-1.657-.953-1.312-.953-3.328 0-2.406 1.25-3.765 1.266-1.36 3.188-1.36 2.156 0 3.406 1.422t1.187 4.375h-6.406q.031 1.14.61 1.781.593.625 1.484.625.594 0 1-.328.422-.328.625-1.062zm.156-2.594q-.031-1.11-.578-1.687-.547-.579-1.328-.579-.844 0-1.39.61-.548.61-.532 1.656h3.828zm13.5 5.672h-2.39v-1.422q-.593.828-1.406 1.234-.797.407-1.61.407-1.671 0-2.859-1.344-1.187-1.344-1.187-3.75 0-2.453 1.156-3.734 1.156-1.282 2.922-1.282 1.625 0 2.812 1.344v-4.812h2.563v13.359zm-6.843-5.047q0 1.547.438 2.234.609 1.016 1.718 1.016.891 0 1.5-.75.625-.766.625-2.25 0-1.672-.609-2.406-.594-.735-1.531-.735-.906 0-1.531.735-.61.719-.61 2.156zM814.604 250.844v-13.36h2.563v4.813q1.171-1.344 2.796-1.344 1.766 0 2.922 1.282 1.157 1.28 1.157 3.671 0 2.485-1.188 3.829-1.172 1.328-2.86 1.328-.827 0-1.64-.407-.797-.421-1.375-1.234v1.422h-2.375zm2.531-5.047q0 1.5.485 2.219.656 1.031 1.765 1.031.844 0 1.438-.719.594-.734.594-2.297 0-1.656-.61-2.39-.594-.735-1.531-.735-.922 0-1.531.72-.61.718-.61 2.171zm7.756-4.625h2.718l2.328 6.86 2.25-6.86h2.657l-3.422 9.313-.61 1.687q-.328.844-.64 1.281-.313.453-.703.719-.39.281-.969.438-.578.156-1.313.156-.734 0-1.453-.156l-.218-2q.593.125 1.078.125.89 0 1.312-.532.438-.515.672-1.328l-3.687-9.703zm16.032 0v2.031h-1.75v3.907q0 1.187.046 1.39.047.188.22.313.187.125.437.125.359 0 1.03-.25l.22 2q-.891.375-2.016.375-.703 0-1.266-.235-.546-.234-.812-.593-.25-.375-.344-1-.094-.454-.094-1.813v-4.219h-1.171v-2.031h1.171v-1.922l2.579-1.5v3.422h1.75zm7.368 6.594 2.547.422q-.484 1.406-1.547 2.14-1.062.735-2.656.735-2.515 0-3.734-1.657-.953-1.312-.953-3.328 0-2.406 1.25-3.765 1.265-1.36 3.187-1.36 2.156 0 3.406 1.422t1.188 4.375h-6.406q.031 1.14.61 1.781.593.625 1.483.625.594 0 1-.328.422-.328.625-1.062zm.157-2.594q-.032-1.11-.578-1.687-.547-.579-1.329-.579-.843 0-1.39.61-.547.61-.531 1.656h3.828zm3.72 2.906 2.562-.39q.172.75.672 1.14.5.39 1.406.39.984 0 1.484-.374.344-.25.344-.672 0-.297-.188-.484-.187-.188-.859-.344-3.094-.688-3.922-1.25-1.14-.781-1.14-2.172 0-1.266.984-2.11 1-.859 3.078-.859 1.984 0 2.953.657.969.64 1.328 1.906l-2.406.437q-.156-.562-.594-.86-.422-.296-1.234-.296-1 0-1.438.281-.296.203-.296.516 0 .266.25.469.343.25 2.39.718 2.047.454 2.86 1.141.796.672.796 1.89 0 1.344-1.109 2.298-1.11.953-3.281.953-1.985 0-3.14-.797-1.141-.813-1.5-2.188z"/><path fill="#fff" fill-rule="evenodd" d="M191.323 76.8h135.086v52.693H191.323z"/><path stroke="#000" stroke-linecap="butt" stroke-linejoin="round" d="M191.323 76.8h135.086v52.693H191.323z"/><path fill="#000" d="M236.767 110.067v-9.672h1.468v1.36q.453-.72 1.203-1.141.766-.438 1.72-.438 1.077 0 1.765.453.687.438.969 1.235 1.156-1.688 2.984-1.688 1.453 0 2.219.797.78.797.78 2.453v6.641h-1.64v-6.094q0-.984-.156-1.406-.156-.438-.578-.703-.422-.266-.984-.266-1.016 0-1.688.688-.672.672-.672 2.156v5.625h-1.64v-6.281q0-1.094-.407-1.64-.406-.548-1.312-.548-.688 0-1.281.36-.594.359-.86 1.062-.25.703-.25 2.031v5.016h-1.64zm14.931-4.844q0-2.687 1.484-3.969 1.25-1.078 3.047-1.078 2 0 3.266 1.313 1.265 1.297 1.265 3.61 0 1.859-.562 2.937-.563 1.062-1.64 1.656-1.063.594-2.329.594-2.031 0-3.281-1.297-1.25-1.313-1.25-3.766zm1.687 0q0 1.86.797 2.797.813.922 2.047.922 1.219 0 2.031-.922.813-.937.813-2.844 0-1.797-.813-2.718-.812-.922-2.03-.922-1.235 0-2.048.922-.797.906-.797 2.765zm15.564 4.844v-1.219q-.907 1.438-2.703 1.438-1.157 0-2.125-.64-.97-.642-1.5-1.782-.532-1.14-.532-2.625 0-1.453.485-2.625.484-1.188 1.437-1.813.969-.625 2.172-.625.875 0 1.547.375.687.36 1.11.953v-4.796h1.64v13.359h-1.531zm-5.172-4.828q0 1.86.781 2.781.781.922 1.844.922 1.078 0 1.828-.875.75-.89.75-2.688 0-1.984-.766-2.906-.765-.937-1.89-.937-1.078 0-1.813.89-.734.891-.734 2.813zm15.907 1.719 1.687.203q-.406 1.484-1.484 2.312-1.078.813-2.766.813-2.125 0-3.375-1.297-1.234-1.313-1.234-3.672 0-2.453 1.25-3.797 1.266-1.344 3.266-1.344 1.937 0 3.156 1.328 1.234 1.313 1.234 3.704v.437H274.2q.094 1.594.907 2.453.812.844 2.015.844.907 0 1.547-.469.64-.484 1.016-1.515zm-5.39-2.657h5.405q-.109-1.218-.625-1.828-.78-.953-2.03-.953-1.126 0-1.907.766-.766.75-.844 2.015z"/><path fill="#fff" fill-rule="evenodd" d="M239.953 168.774h135.086v25.197H239.953z"/><path stroke="#000" stroke-linecap="butt" stroke-linejoin="round" d="M239.953 168.774h135.086v25.197H239.953z"/><path fill="#000" d="M281.2 188.293v-13.36h1.64v13.36h-1.64zm10.504-1.188q-.921.766-1.765 1.094-.828.312-1.797.312-1.594 0-2.453-.78-.86-.782-.86-1.985 0-.719.329-1.297.328-.594.843-.938.532-.359 1.188-.546.469-.125 1.453-.25 1.984-.235 2.922-.563.015-.344.015-.422 0-1-.468-1.422-.625-.547-1.875-.547-1.157 0-1.703.407-.547.406-.813 1.422l-1.61-.22q.22-1.015.72-1.64.5-.64 1.453-.984.953-.344 2.187-.344 1.25 0 2.016.297.78.281 1.14.734.375.438.516 1.11.078.422.078 1.515v2.188q0 2.281.11 2.89.109.594.406 1.157h-1.703q-.266-.516-.329-1.188zm-.14-3.672q-.89.375-2.672.625-1.016.141-1.438.328-.421.188-.656.532-.219.343-.219.78 0 .657.5 1.095.5.437 1.454.437.937 0 1.671-.406.75-.422 1.094-1.14.266-.563.266-1.641v-.61zm7.782 3.391.234 1.453q-.687.14-1.234.14-.89 0-1.39-.28-.485-.282-.688-.735-.203-.469-.203-1.937v-5.579h-1.204v-1.265h1.204v-2.39l1.625-.985v3.375h1.656v1.265h-1.656v5.672q0 .688.078.891.093.203.28.328.204.11.579.11.266 0 .719-.063zm8.23-1.64 1.687.202q-.406 1.485-1.484 2.313-1.078.812-2.766.812-2.125 0-3.375-1.296-1.234-1.313-1.234-3.672 0-2.453 1.25-3.797 1.266-1.344 3.266-1.344 1.937 0 3.156 1.328 1.234 1.313 1.234 3.703v.438h-7.218q.093 1.594.906 2.453.812.844 2.015.844.907 0 1.547-.47.64-.483 1.016-1.515zm-5.39-2.657h5.406q-.11-1.219-.625-1.828-.782-.953-2.032-.953-1.125 0-1.906.765-.766.75-.844 2.016zm9.14 5.766v-9.672h1.47v1.375q1.062-1.594 3.078-1.594.875 0 1.609.313.734.312 1.094.828.375.5.515 1.203.094.453.094 1.594v5.953h-1.64v-5.89q0-1-.204-1.485-.187-.5-.672-.797-.484-.297-1.14-.297-1.047 0-1.813.672-.75.656-.75 2.515v5.282h-1.64zm13.954-1.47.235 1.454q-.688.14-1.235.14-.89 0-1.39-.28-.485-.282-.688-.735-.203-.469-.203-1.937v-5.579h-1.203v-1.265H322v-2.39l1.625-.985v3.375h1.656v1.265h-1.656v5.672q0 .688.078.891.094.203.282.328.203.11.578.11.265 0 .718-.063zm.95-1.42 1.624-.25q.125.968.75 1.5.625.515 1.75.515t1.672-.453q.547-.47.547-1.094 0-.547-.484-.875-.328-.219-1.672-.547-1.813-.469-2.516-.797-.687-.328-1.047-.906-.359-.594-.359-1.313 0-.64.297-1.187.297-.563.812-.922.375-.281 1.032-.469.672-.203 1.422-.203 1.14 0 2 .328.859.328 1.265.89.422.563.578 1.5l-1.61.22q-.108-.75-.64-1.172-.515-.422-1.468-.422-1.141 0-1.625.375-.47.375-.47.875 0 .312.188.578.203.266.64.437.235.094 1.438.422 1.75.453 2.438.75.687.297 1.078.86.39.562.39 1.406 0 .828-.484 1.547-.468.719-1.375 1.125-.906.39-2.047.39-1.875 0-2.875-.78-.984-.782-1.25-2.329z"/><path fill="#fff" fill-rule="evenodd" d="M239.953 193.971h135.086v25.197H239.953z"/><path stroke="#666" stroke-linecap="butt" stroke-linejoin="round" d="M239.953 193.971h135.086v25.197H239.953z"/><path fill="#fff" fill-rule="evenodd" d="M573.194 77.95h135.087v25.197H573.194z"/><path stroke="#000" stroke-linecap="butt" stroke-linejoin="round" d="M573.194 77.95h135.087v25.197H573.194z"/><path fill="#000" d="M626.36 97.469h-1.516v-13.36h1.64v4.766q1.048-1.297 2.657-1.297.89 0 1.687.36.797.359 1.313 1.015.516.64.797 1.562.297.922.297 1.97 0 2.484-1.235 3.843-1.218 1.36-2.953 1.36-1.703 0-2.687-1.438v1.219zm-.016-4.907q0 1.735.484 2.516.766 1.266 2.094 1.266 1.078 0 1.86-.938.78-.937.78-2.781 0-1.89-.75-2.797-.75-.906-1.827-.906-1.063 0-1.86.937-.78.938-.78 2.703zM635.235 86v-1.89h1.641V86h-1.64zm0 11.469v-9.672h1.641v9.672h-1.64zm4.145 0v-9.672h1.469v1.375q1.062-1.594 3.078-1.594.875 0 1.61.312.734.313 1.093.829.375.5.516 1.203.094.453.094 1.593v5.954h-1.641v-5.891q0-1-.203-1.484-.188-.5-.672-.797-.484-.297-1.14-.297-1.048 0-1.813.672-.75.656-.75 2.515v5.282h-1.64zm9.72-2.891 1.625-.25q.125.969.75 1.5.625.516 1.75.516t1.672-.454q.546-.468.546-1.093 0-.547-.484-.875-.328-.22-1.672-.547-1.812-.469-2.515-.797-.688-.328-1.047-.906-.36-.594-.36-1.313 0-.64.297-1.187.297-.563.813-.922.375-.281 1.031-.469.672-.203 1.422-.203 1.14 0 2 .328.86.328 1.265.89.422.563.579 1.5l-1.61.22q-.11-.75-.64-1.172-.516-.422-1.47-.422-1.14 0-1.624.375-.469.375-.469.875 0 .312.188.578.203.265.64.437.235.094 1.438.422 1.75.453 2.437.75.688.297 1.078.86.391.562.391 1.406 0 .828-.484 1.547-.47.718-1.375 1.125-.907.39-2.047.39-1.875 0-2.875-.781-.985-.781-1.25-2.328z"/><path fill="#fff" fill-rule="evenodd" d="M573.194 103.147h135.087v25.197H573.194z"/><path stroke="#666" stroke-linecap="butt" stroke-linejoin="round" d="M573.194 103.147h135.087v25.197H573.194z"/><path fill="#fff" fill-rule="evenodd" d="M412.457 168.774h135.086v25.197H412.457z"/><path stroke="#000" stroke-linecap="butt" stroke-linejoin="round" d="M412.457 168.774h135.086v25.197H412.457z"/><path fill="#000" d="M437.197 188.293v-1.22q-.906 1.438-2.703 1.438-1.156 0-2.125-.64-.969-.64-1.5-1.781t-.531-2.625q0-1.454.484-2.625.485-1.188 1.438-1.813.969-.625 2.172-.625.875 0 1.547.375.687.36 1.109.953v-4.797h1.64v13.36h-1.53zm-5.172-4.828q0 1.859.782 2.78.781.923 1.843.923 1.079 0 1.829-.875.75-.89.75-2.688 0-1.984-.766-2.906-.766-.938-1.89-.938-1.079 0-1.813.891-.735.89-.735 2.813zm15.907 1.718 1.688.203q-.406 1.485-1.484 2.313-1.079.812-2.766.812-2.125 0-3.375-1.296-1.234-1.313-1.234-3.672 0-2.453 1.25-3.797 1.265-1.344 3.265-1.344 1.938 0 3.156 1.328 1.235 1.313 1.235 3.703v.438h-7.219q.094 1.594.906 2.453.813.844 2.016.844.906 0 1.547-.47.64-.483 1.015-1.515zm-5.39-2.656h5.406q-.11-1.219-.625-1.828-.781-.953-2.031-.953-1.125 0-1.906.765-.766.75-.844 2.016zm9.094 5.766v-13.36h1.64v13.36h-1.64zm7.77-1.47.235 1.454q-.688.14-1.235.14-.89 0-1.39-.28-.485-.282-.688-.735-.203-.469-.203-1.937v-5.579h-1.203v-1.265h1.203v-2.39l1.625-.985v3.375h1.656v1.265h-1.656v5.672q0 .688.078.891.094.203.281.328.203.11.578.11.266 0 .72-.063zm7.918.282q-.922.766-1.766 1.094-.828.312-1.797.312-1.593 0-2.453-.78-.86-.782-.86-1.985 0-.719.329-1.297.328-.594.844-.938.53-.359 1.187-.546.469-.125 1.453-.25 1.985-.235 2.922-.563.016-.344.016-.422 0-1-.469-1.422-.625-.547-1.875-.547-1.156 0-1.703.407-.547.406-.813 1.422l-1.609-.22q.219-1.015.719-1.64.5-.64 1.453-.984.953-.344 2.187-.344 1.25 0 2.016.297.781.281 1.14.734.376.438.516 1.11.078.422.078 1.515v2.188q0 2.281.11 2.89.11.594.406 1.157h-1.703q-.266-.516-.328-1.188zm-.14-3.672q-.891.375-2.673.625-1.015.141-1.437.328-.422.188-.656.532-.22.343-.22.78 0 .657.5 1.095.5.437 1.454.437.937 0 1.672-.406.75-.422 1.094-1.14.265-.563.265-1.641v-.61zm9.34 4.86v-13.36h1.64v13.36h-1.64zm10.504-1.188q-.922.766-1.766 1.094-.828.312-1.797.312-1.594 0-2.453-.78-.86-.782-.86-1.985 0-.719.329-1.297.328-.594.843-.938.532-.359 1.188-.546.469-.125 1.453-.25 1.984-.235 2.922-.563.016-.344.016-.422 0-1-.47-1.422-.624-.547-1.874-.547-1.156 0-1.703.407-.547.406-.813 1.422l-1.61-.22q.22-1.015.72-1.64.5-.64 1.453-.984.953-.344 2.187-.344 1.25 0 2.016.297.781.281 1.14.734.375.438.516 1.11.078.422.078 1.515v2.188q0 2.281.11 2.89.109.594.406 1.157h-1.703q-.266-.516-.328-1.188zm-.141-3.672q-.89.375-2.672.625-1.016.141-1.437.328-.422.188-.657.532-.218.343-.218.78 0 .657.5 1.095.5.437 1.453.437.937 0 1.672-.406.75-.422 1.093-1.14.266-.563.266-1.641v-.61zm7.782 3.391.234 1.453q-.687.14-1.234.14-.89 0-1.39-.28-.485-.282-.688-.735-.203-.469-.203-1.937v-5.579h-1.203v-1.265h1.203v-2.39l1.625-.985v3.375h1.656v1.265h-1.656v5.672q0 .688.078.891.094.203.281.328.203.11.578.11.266 0 .719-.063zm8.23-1.64 1.688.202q-.407 1.485-1.485 2.313-1.078.812-2.765.812-2.125 0-3.375-1.296-1.235-1.313-1.235-3.672 0-2.453 1.25-3.797 1.266-1.344 3.266-1.344 1.937 0 3.156 1.328 1.235 1.313 1.235 3.703v.438h-7.22q.095 1.594.907 2.453.813.844 2.016.844.906 0 1.547-.47.64-.483 1.015-1.515zm-5.39-2.657h5.406q-.11-1.219-.625-1.828-.781-.953-2.031-.953-1.125 0-1.907.765-.765.75-.843 2.016zm9.14 5.766v-9.672h1.47v1.375q1.062-1.594 3.078-1.594.875 0 1.61.313.733.312 1.093.828.375.5.515 1.203.094.453.094 1.594v5.953h-1.64v-5.89q0-1-.204-1.485-.187-.5-.671-.797-.485-.297-1.141-.297-1.047 0-1.813.672-.75.656-.75 2.515v5.282h-1.64zm13.955-1.47.234 1.454q-.687.14-1.234.14-.89 0-1.39-.28-.485-.282-.688-.735-.204-.469-.204-1.937v-5.579h-1.203v-1.265h1.203v-2.39l1.625-.985v3.375h1.657v1.265h-1.657v5.672q0 .688.079.891.093.203.28.328.204.11.579.11.266 0 .719-.063zm.949-1.42 1.625-.25q.125.968.75 1.5.625.515 1.75.515t1.671-.453q.547-.47.547-1.094 0-.547-.484-.875-.328-.219-1.672-.547-1.812-.469-2.516-.797-.687-.328-1.046-.906-.36-.594-.36-1.313 0-.64.297-1.187.297-.563.813-.922.375-.281 1.03-.469.673-.203 1.423-.203 1.14 0 2 .328.86.328 1.265.89.422.563.578 1.5l-1.609.22q-.11-.75-.64-1.172-.516-.422-1.47-.422-1.14 0-1.624.375-.469.375-.469.875 0 .312.187.578.204.266.641.437.234.094 1.438.422 1.75.453 2.437.75.688.297 1.078.86.39.562.39 1.406 0 .828-.484 1.547-.468.719-1.375 1.125-.906.39-2.046.39-1.875 0-2.875-.78-.985-.782-1.25-2.329z"/><path fill="#fff" fill-rule="evenodd" d="M412.457 193.971h135.086v25.197H412.457z"/><path stroke="#666" stroke-linecap="butt" stroke-linejoin="round" d="M412.457 193.971h135.086v25.197H412.457z"/><path fill="none" d="m159.568 234.56 31.748-131.401"/><path stroke="#000" stroke-linecap="butt" stroke-linejoin="round" stroke-width="2" d="m159.568 234.56 28.93-119.737"/><path fill="#000" fill-rule="evenodd" stroke="#000" stroke-linecap="butt" stroke-width="2" d="m191.71 115.599-1.08-9.598-5.343 8.046z"/><path fill="none" d="m159.568 234.56 80.378-53.196"/><path stroke="#000" stroke-dasharray="2.0,6.0" stroke-linecap="butt" stroke-linejoin="round" stroke-width="2" d="m159.568 234.56 70.371-46.574"/><path fill="#000" fill-rule="evenodd" stroke="#000" stroke-linecap="butt" stroke-width="2" d="m231.763 190.741 5.745-7.764-9.392 2.255z"/><path fill="none" d="m258.866 129.493 48.63 39.276"/><path stroke="#000" stroke-dasharray="2.0,6.0" stroke-linecap="butt" stroke-linejoin="round" stroke-width="2" d="m258.866 129.493 39.295 31.736"/><path fill="#000" fill-rule="evenodd" stroke="#000" stroke-linecap="butt" stroke-width="2" d="m296.085 163.8 9.136 3.132-4.985-8.273z"/><path fill="none" d="m547.543 181.373 25.638-90.835"/><path stroke="#000" stroke-linecap="butt" stroke-linejoin="round" stroke-width="2" d="m547.543 181.373 22.379-79.286"/><path fill="#000" fill-rule="evenodd" stroke="#000" stroke-linecap="butt" stroke-width="2" d="m573.1 102.984-.713-9.632-5.645 7.838z"/><path fill="none" d="M375.04 181.373h37.417"/><path stroke="#000" stroke-dasharray="2.0,6.0" stroke-linecap="butt" stroke-linejoin="round" stroke-width="2" d="M375.04 181.373h25.417"/><path fill="#000" fill-rule="evenodd" stroke="#000" stroke-linecap="butt" stroke-width="2" d="m400.457 184.676 9.076-3.303-9.076-3.304z"/><path fill="none" d="M375.04 206.57h37.417"/><path stroke="#666" stroke-dasharray="2.0,6.0" stroke-linecap="butt" stroke-linejoin="round" stroke-width="2" d="M375.04 206.57h25.417"/><path fill="#666" fill-rule="evenodd" stroke="#666" stroke-linecap="butt" stroke-width="2" d="m400.457 209.873 9.076-3.303-9.076-3.304z"/><path fill="none" d="m547.543 206.57 25.638-90.835"/><path stroke="#666" stroke-linecap="butt" stroke-linejoin="round" stroke-width="2" d="m547.543 206.57 22.379-79.286"/><path fill="#666" fill-rule="evenodd" stroke="#666" stroke-linecap="butt" stroke-width="2" d="m573.1 128.181-.713-9.632-5.645 7.837z"/><path fill="none" d="m708.28 90.549 61.922 51.527"/><path stroke="#000" stroke-dasharray="8.0,6.0" stroke-linecap="butt" stroke-linejoin="round" stroke-width="2" d="m708.28 90.549 52.698 43.851"/><path fill="#000" fill-rule="evenodd" stroke="#000" stroke-linecap="butt" stroke-width="2" d="m758.865 136.94 9.09 3.266-4.864-8.345z"/><path fill="none" d="m708.28 115.745 61.922 26.331"/><path stroke="#666" stroke-dasharray="8.0,6.0" stroke-linecap="butt" stroke-linejoin="round" stroke-width="2" d="m708.28 115.745 50.879 21.635"/><path fill="#666" fill-rule="evenodd" stroke="#666" stroke-linecap="butt" stroke-width="2" d="m757.866 140.42 9.645.512-7.06-6.592z"/><path fill="none" d="m547.543 181.373 222.646-39.276"/><path stroke="#000" stroke-dasharray="8.0,6.0" stroke-linecap="butt" stroke-linejoin="round" stroke-width="2" d="m547.543 181.373 210.828-37.191"/><path fill="#000" fill-rule="evenodd" stroke="#000" stroke-linecap="butt" stroke-width="2" d="m758.945 147.435 8.365-4.83-9.512-1.676z"/><path fill="none" d="m547.543 206.57 222.646-64.473"/><path stroke="#666" stroke-dasharray="8.0,6.0" stroke-linecap="butt" stroke-linejoin="round" stroke-width="2" d="m547.543 206.57 211.12-61.135"/><path fill="#666" fill-rule="evenodd" stroke="#666" stroke-linecap="butt" stroke-width="2" d="m759.581 148.608 7.8-5.698-9.637-.648z"/><path fill="none" d="M837.738 168.436v38.141"/><path stroke="#000" stroke-dasharray="2.0,6.0" stroke-linecap="butt" stroke-linejoin="round" stroke-width="2" d="M837.738 168.436v26.141"/><path fill="#000" fill-rule="evenodd" stroke="#000" stroke-linecap="butt" stroke-width="2" d="m834.434 194.577 3.304 9.077 3.303-9.077z"/><path fill="#fff" fill-rule="evenodd" d="M412.457 254.623h135.086v25.197H412.457z"/><path stroke="#000" stroke-linecap="butt" stroke-linejoin="round" d="M412.457 254.623h135.086v25.197H412.457z"/><path fill="#000" d="M437.197 274.142v-1.219q-.906 1.438-2.703 1.438-1.156 0-2.125-.641-.969-.64-1.5-1.781t-.531-2.625q0-1.453.484-2.625.485-1.188 1.438-1.813.969-.625 2.172-.625.875 0 1.547.375.687.36 1.109.953v-4.797h1.64v13.36h-1.53zm-5.172-4.828q0 1.859.782 2.78.781.923 1.843.923 1.079 0 1.829-.875.75-.89.75-2.688 0-1.984-.766-2.906-.766-.937-1.89-.937-1.079 0-1.813.89-.735.89-.735 2.813zm15.907 1.718 1.688.204q-.406 1.484-1.484 2.312-1.079.813-2.766.813-2.125 0-3.375-1.297-1.234-1.313-1.234-3.672 0-2.453 1.25-3.797 1.265-1.344 3.265-1.344 1.938 0 3.156 1.328 1.235 1.313 1.235 3.703v.438h-7.219q.094 1.594.906 2.453.813.844 2.016.844.906 0 1.547-.469.64-.484 1.015-1.516zm-5.39-2.656h5.406q-.11-1.219-.625-1.828-.781-.953-2.031-.953-1.125 0-1.906.766-.766.75-.844 2.015zm9.094 5.766v-13.36h1.64v13.36h-1.64zm7.77-1.469.235 1.453q-.688.14-1.235.14-.89 0-1.39-.28-.485-.282-.688-.735-.203-.469-.203-1.937v-5.578h-1.203v-1.266h1.203v-2.39l1.625-.985v3.375h1.656v1.266h-1.656v5.671q0 .688.078.891.094.203.281.328.203.11.578.11.266 0 .72-.063zm7.918.281q-.922.766-1.766 1.094-.828.313-1.797.313-1.593 0-2.453-.782-.86-.781-.86-1.984 0-.719.329-1.297.328-.594.844-.937.53-.36 1.187-.547.469-.125 1.453-.25 1.985-.235 2.922-.563.016-.344.016-.422 0-1-.469-1.422-.625-.546-1.875-.546-1.156 0-1.703.406-.547.406-.813 1.422l-1.609-.22q.219-1.015.719-1.64.5-.64 1.453-.984.953-.344 2.187-.344 1.25 0 2.016.297.781.281 1.14.734.376.438.516 1.11.078.422.078 1.515v2.188q0 2.281.11 2.89.11.594.406 1.157h-1.703q-.266-.516-.328-1.188zm-.14-3.672q-.891.375-2.673.625-1.015.141-1.437.329-.422.187-.656.53-.22.345-.22.782 0 .656.5 1.094.5.437 1.454.437.937 0 1.672-.406.75-.422 1.094-1.14.265-.563.265-1.641v-.61zm9.34 4.86v-13.36h1.64v13.36h-1.64zm10.504-1.188q-.922.766-1.766 1.094-.828.313-1.797.313-1.594 0-2.453-.782-.86-.781-.86-1.984 0-.719.329-1.297.328-.594.843-.937.532-.36 1.188-.547.469-.125 1.453-.25 1.984-.235 2.922-.563.016-.344.016-.422 0-1-.47-1.422-.624-.546-1.874-.546-1.156 0-1.703.406-.547.406-.813 1.422l-1.61-.22q.22-1.015.72-1.64.5-.64 1.453-.984.953-.344 2.187-.344 1.25 0 2.016.297.781.281 1.14.734.375.438.516 1.11.078.422.078 1.515v2.188q0 2.281.11 2.89.109.594.406 1.157h-1.703q-.266-.516-.328-1.188zm-.141-3.672q-.89.375-2.672.625-1.016.141-1.437.329-.422.187-.657.53-.218.345-.218.782 0 .656.5 1.094.5.437 1.453.437.937 0 1.672-.406.75-.422 1.093-1.14.266-.563.266-1.641v-.61zm7.782 3.391.234 1.453q-.687.14-1.234.14-.89 0-1.39-.28-.485-.282-.688-.735-.203-.469-.203-1.937v-5.578h-1.203v-1.266h1.203v-2.39l1.625-.985v3.375h1.656v1.266h-1.656v5.671q0 .688.078.891.094.203.281.328.203.11.578.11.266 0 .719-.063zm8.23-1.64 1.688.203q-.407 1.484-1.485 2.312-1.078.813-2.765.813-2.125 0-3.375-1.297-1.235-1.313-1.235-3.672 0-2.453 1.25-3.797 1.266-1.344 3.266-1.344 1.937 0 3.156 1.328 1.235 1.313 1.235 3.703v.438h-7.22q.095 1.594.907 2.453.813.844 2.016.844.906 0 1.547-.469.64-.484 1.015-1.516zm-5.39-2.657h5.406q-.11-1.219-.625-1.828-.781-.953-2.031-.953-1.125 0-1.907.766-.765.75-.843 2.015zm9.14 5.766v-9.672h1.47v1.375q1.062-1.594 3.078-1.594.875 0 1.61.313.733.312 1.093.828.375.5.515 1.203.094.453.094 1.594v5.953h-1.64v-5.89q0-1-.204-1.485-.187-.5-.671-.797-.485-.297-1.141-.297-1.047 0-1.813.672-.75.656-.75 2.516v5.28h-1.64zm13.955-1.469.234 1.453q-.687.14-1.234.14-.89 0-1.39-.28-.485-.282-.688-.735-.204-.469-.204-1.937v-5.578h-1.203v-1.266h1.203v-2.39l1.625-.985v3.375h1.657v1.266h-1.657v5.671q0 .688.079.891.093.203.28.328.204.11.579.11.266 0 .719-.063zm.949-1.422 1.625-.25q.125.969.75 1.5.625.516 1.75.516t1.671-.453q.547-.47.547-1.094 0-.547-.484-.875-.328-.219-1.672-.547-1.812-.469-2.516-.797-.687-.328-1.046-.906-.36-.594-.36-1.313 0-.64.297-1.187.297-.563.813-.922.375-.281 1.03-.469.673-.203 1.423-.203 1.14 0 2 .328.86.328 1.265.89.422.563.578 1.5l-1.609.22q-.11-.75-.64-1.172-.516-.422-1.47-.422-1.14 0-1.624.375-.469.375-.469.875 0 .312.187.578.204.266.641.438.234.093 1.438.421 1.75.454 2.437.75.688.297 1.078.86.39.562.39 1.406 0 .828-.484 1.547-.468.719-1.375 1.125-.906.39-2.046.39-1.875 0-2.875-.78-.985-.782-1.25-2.329z"/><path fill="#fff" fill-rule="evenodd" d="M412.457 279.82h135.086v25.197H412.457z"/><path stroke="#666" stroke-linecap="butt" stroke-linejoin="round" d="M412.457 279.82h135.086v25.197H412.457z"/><path fill="#fff" fill-rule="evenodd" d="M239.953 254.623h135.086v25.197H239.953z"/><path stroke="#000" stroke-linecap="butt" stroke-linejoin="round" d="M239.953 254.623h135.086v25.197H239.953z"/><path fill="#000" d="M281.2 274.142v-13.36h1.64v13.36h-1.64zm10.504-1.188q-.921.766-1.765 1.094-.828.313-1.797.313-1.594 0-2.453-.782-.86-.781-.86-1.984 0-.719.329-1.297.328-.594.843-.937.532-.36 1.188-.547.469-.125 1.453-.25 1.984-.235 2.922-.563.015-.344.015-.422 0-1-.468-1.422-.625-.546-1.875-.546-1.157 0-1.703.406-.547.406-.813 1.422l-1.61-.22q.22-1.015.72-1.64.5-.64 1.453-.984.953-.344 2.187-.344 1.25 0 2.016.297.78.281 1.14.734.375.438.516 1.11.078.422.078 1.515v2.188q0 2.281.11 2.89.109.594.406 1.157h-1.703q-.266-.516-.329-1.188zm-.14-3.672q-.89.375-2.672.625-1.016.141-1.438.329-.421.187-.656.53-.219.345-.219.782 0 .656.5 1.094.5.437 1.454.437.937 0 1.671-.406.75-.422 1.094-1.14.266-.563.266-1.641v-.61zm7.782 3.391.234 1.453q-.687.14-1.234.14-.89 0-1.39-.28-.485-.282-.688-.735-.203-.469-.203-1.937v-5.578h-1.204v-1.266h1.204v-2.39l1.625-.985v3.375h1.656v1.266h-1.656v5.671q0 .688.078.891.093.203.28.328.204.11.579.11.266 0 .719-.063zm8.23-1.64 1.687.203q-.406 1.484-1.484 2.312-1.078.813-2.766.813-2.125 0-3.375-1.297-1.234-1.313-1.234-3.672 0-2.453 1.25-3.797 1.266-1.344 3.266-1.344 1.937 0 3.156 1.328 1.234 1.313 1.234 3.703v.438h-7.218q.093 1.594.906 2.453.812.844 2.015.844.907 0 1.547-.469.64-.484 1.016-1.516zm-5.39-2.657h5.406q-.11-1.219-.625-1.828-.782-.953-2.032-.953-1.125 0-1.906.766-.766.75-.844 2.015zm9.14 5.766v-9.672h1.47v1.375q1.062-1.594 3.078-1.594.875 0 1.609.313.734.312 1.094.828.375.5.515 1.203.094.453.094 1.594v5.953h-1.64v-5.89q0-1-.204-1.485-.187-.5-.672-.797-.484-.297-1.14-.297-1.047 0-1.813.672-.75.656-.75 2.516v5.28h-1.64zm13.954-1.469.235 1.453q-.688.14-1.235.14-.89 0-1.39-.28-.485-.282-.688-.735-.203-.469-.203-1.937v-5.578h-1.203v-1.266H322v-2.39l1.625-.985v3.375h1.656v1.266h-1.656v5.671q0 .688.078.891.094.203.282.328.203.11.578.11.265 0 .718-.063zm.95-1.422 1.624-.25q.125.969.75 1.5.625.516 1.75.516t1.672-.453q.547-.47.547-1.094 0-.547-.484-.875-.328-.219-1.672-.547-1.813-.469-2.516-.797-.687-.328-1.047-.906-.359-.594-.359-1.313 0-.64.297-1.187.297-.563.812-.922.375-.281 1.032-.469.672-.203 1.422-.203 1.14 0 2 .328.859.328 1.265.89.422.563.578 1.5l-1.61.22q-.108-.75-.64-1.172-.515-.422-1.468-.422-1.141 0-1.625.375-.47.375-.47.875 0 .312.188.578.203.266.64.438.235.093 1.438.421 1.75.454 2.438.75.687.297 1.078.86.39.562.39 1.406 0 .828-.484 1.547-.468.719-1.375 1.125-.906.39-2.047.39-1.875 0-2.875-.78-.984-.782-1.25-2.329z"/><path fill="#fff" fill-rule="evenodd" d="M239.953 279.82h135.086v25.197H239.953z"/><path stroke="#666" stroke-linecap="butt" stroke-linejoin="round" d="M239.953 279.82h135.086v25.197H239.953z"/><path fill="none" d="M412.457 292.419h-37.418"/><path stroke="#666" stroke-dasharray="2.0,6.0" stroke-linecap="butt" stroke-linejoin="round" stroke-width="2" d="M412.457 292.419h-25.418"/><path fill="#666" fill-rule="evenodd" stroke="#666" stroke-linecap="butt" stroke-width="2" d="m387.04 289.115-9.077 3.304 9.076 3.303z"/><path fill="none" d="M412.457 267.222h-37.418"/><path stroke="#000" stroke-dasharray="2.0,6.0" stroke-linecap="butt" stroke-linejoin="round" stroke-width="2" d="M412.457 267.222h-25.418"/><path fill="#000" fill-rule="evenodd" stroke="#000" stroke-linecap="butt" stroke-width="2" d="m387.04 263.918-9.077 3.304 9.076 3.303z"/><path fill="none" d="M831.15 259.27 547.53 292.404"/><path stroke="#666" stroke-dasharray="2.0,6.0" stroke-linecap="butt" stroke-linejoin="round" stroke-width="2" d="m831.15 259.27-271.702 31.742"/><path fill="#666" fill-rule="evenodd" stroke="#666" stroke-linecap="butt" stroke-width="2" d="m559.065 287.73-8.632 4.335 9.398 2.228z"/><path fill="none" d="m831.15 259.27-283.621 7.937"/><path stroke="#000" stroke-dasharray="2.0,6.0" stroke-linecap="butt" stroke-linejoin="round" stroke-width="2" d="m831.15 259.27-271.626 7.602"/><path fill="#000" fill-rule="evenodd" stroke="#000" stroke-linecap="butt" stroke-width="2" d="m559.432 263.57-8.98 3.556 9.165 3.048z"/><path fill="none" d="m239.953 267.222-80.378-32.662"/><path stroke="#000" stroke-dasharray="2.0,6.0" stroke-linecap="butt" stroke-linejoin="round" stroke-width="2" d="m239.953 267.222-69.261-28.144"/><path fill="#000" fill-rule="evenodd" stroke="#000" stroke-linecap="butt" stroke-width="2" d="m171.936 236.017-9.652-.356 7.164 6.477z"/><path fill="none" d="m239.953 292.419-80.378-57.859"/><path stroke="#666" stroke-dasharray="2.0,6.0" stroke-linecap="butt" stroke-linejoin="round" stroke-width="2" d="m239.953 292.419-70.639-50.848"/><path fill="#666" fill-rule="evenodd" stroke="#666" stroke-linecap="butt" stroke-width="2" d="m171.244 238.89-9.296-2.622 5.436 7.984z"/><path fill="none" d="M5.354 351.921h253.512v58.173H5.354z"/><path fill="#000" d="M23.423 391.641v-22.906h7.89q2.672 0 4.078.328 1.97.453 3.36 1.64 1.812 1.532 2.703 3.923.906 2.375.906 5.437 0 2.61-.61 4.625-.609 2.016-1.562 3.344-.953 1.312-2.093 2.078-1.125.75-2.735 1.14-1.594.391-3.672.391h-8.265zm3.031-2.703h4.89q2.266 0 3.547-.422 1.297-.422 2.063-1.187 1.078-1.078 1.672-2.89.61-1.829.61-4.423 0-3.593-1.188-5.515-1.172-1.938-2.86-2.594-1.218-.469-3.922-.469h-4.812v17.5zm31.078-2.64 2.906.359q-.687 2.547-2.547 3.953-1.859 1.406-4.75 1.406-3.64 0-5.78-2.234-2.126-2.25-2.126-6.297 0-4.187 2.156-6.5 2.157-2.312 5.594-2.312 3.328 0 5.438 2.265 2.11 2.266 2.11 6.375 0 .25-.017.75H48.141q.157 2.735 1.547 4.188 1.391 1.453 3.47 1.453 1.546 0 2.64-.813 1.093-.812 1.734-2.593zm-9.234-4.547h9.265q-.187-2.094-1.062-3.141-1.344-1.625-3.485-1.625-1.937 0-3.265 1.297-1.313 1.297-1.453 3.469zm26.5 3.812 2.765.36q-.453 2.859-2.328 4.484-1.86 1.61-4.578 1.61-3.406 0-5.484-2.22-2.063-2.234-2.063-6.39 0-2.688.89-4.703.891-2.016 2.704-3.016 1.828-1.015 3.969-1.015 2.703 0 4.422 1.375 1.718 1.359 2.203 3.875l-2.735.421q-.39-1.671-1.39-2.515-.985-.844-2.39-.844-2.126 0-3.454 1.531-1.328 1.516-1.328 4.813 0 3.344 1.281 4.86 1.281 1.515 3.344 1.515 1.656 0 2.765-1.016 1.11-1.015 1.407-3.125zm4.125-2.219q0-4.609 2.562-6.828 2.14-1.843 5.219-1.843 3.422 0 5.594 2.25 2.172 2.234 2.172 6.187 0 3.203-.97 5.047-.952 1.828-2.796 2.844-1.828 1.015-4 1.015-3.484 0-5.64-2.234-2.141-2.234-2.141-6.438zm2.89 0q0 3.188 1.391 4.782 1.39 1.578 3.5 1.578 2.094 0 3.484-1.594 1.391-1.594 1.391-4.86 0-3.077-1.406-4.656-1.39-1.593-3.469-1.593-2.11 0-3.5 1.578-1.39 1.578-1.39 4.765zm15.953 8.297v-16.593h2.516v2.328q.781-1.22 2.078-1.953 1.297-.75 2.953-.75 1.844 0 3.016.765 1.187.766 1.672 2.14 1.969-2.905 5.125-2.905 2.469 0 3.797 1.375 1.328 1.359 1.328 4.203v11.39h-2.797v-10.453q0-1.687-.281-2.422-.266-.75-.985-1.203-.718-.453-1.687-.453-1.75 0-2.906 1.172-1.157 1.156-1.157 3.719v9.64h-2.812V380.86q0-1.875-.688-2.812-.687-.938-2.25-.938-1.187 0-2.203.625-1 .625-1.453 1.828-.453 1.203-.453 3.469v8.61h-2.813zm26.657 6.36v-22.953h2.562v2.156q.906-1.266 2.047-1.89 1.14-.641 2.766-.641 2.125 0 3.75 1.093 1.625 1.094 2.453 3.094.828 1.984.828 4.36 0 2.546-.922 4.593-.906 2.031-2.656 3.125-1.735 1.078-3.656 1.078-1.407 0-2.532-.593-1.109-.594-1.828-1.5V398h-2.812zm2.547-14.563q0 3.203 1.296 4.735 1.297 1.53 3.141 1.53 1.875 0 3.203-1.577 1.344-1.594 1.344-4.922 0-3.172-1.313-4.75-1.296-1.578-3.109-1.578-1.797 0-3.187 1.687-1.375 1.672-1.375 4.875zm15.218 8.203v-16.593h2.532v2.515q.968-1.765 1.78-2.328.829-.562 1.813-.562 1.422 0 2.891.906l-.969 2.61q-1.031-.61-2.062-.61-.922 0-1.657.562-.734.547-1.046 1.532-.47 1.5-.47 3.28v8.688h-2.812zm22.047-5.343 2.906.359q-.687 2.547-2.546 3.953-1.86 1.406-4.75 1.406-3.641 0-5.782-2.234-2.125-2.25-2.125-6.297 0-4.187 2.157-6.5 2.156-2.312 5.593-2.312 3.328 0 5.438 2.265 2.11 2.266 2.11 6.375 0 .25-.016.75h-12.375q.156 2.735 1.546 4.188 1.391 1.453 3.47 1.453 1.546 0 2.64-.813 1.094-.812 1.734-2.593zm-9.234-4.547h9.265q-.187-2.094-1.062-3.141-1.344-1.625-3.484-1.625-1.938 0-3.266 1.297-1.313 1.297-1.453 3.469zm14.547 4.937 2.781-.437q.234 1.672 1.297 2.562 1.078.89 3 .89 1.937 0 2.875-.78.937-.797.937-1.86 0-.953-.828-1.5-.578-.375-2.875-.953-3.094-.781-4.297-1.344-1.187-.578-1.812-1.578-.61-1.015-.61-2.234 0-1.11.5-2.047.516-.953 1.391-1.578.656-.485 1.781-.813 1.141-.343 2.438-.343 1.953 0 3.422.562 1.484.563 2.187 1.531.703.953.969 2.563l-2.75.375q-.188-1.281-1.094-2-.89-.719-2.531-.719-1.938 0-2.766.64-.828.641-.828 1.5 0 .548.344.985.344.453 1.078.75.422.156 2.484.719 2.985.797 4.157 1.312 1.187.5 1.86 1.469.671.969.671 2.406 0 1.407-.828 2.657-.813 1.234-2.36 1.921-1.546.672-3.5.672-3.234 0-4.937-1.343-1.688-1.344-2.156-3.985zm16 0 2.781-.437q.234 1.672 1.297 2.562 1.078.89 3 .89 1.937 0 2.875-.78.937-.797.937-1.86 0-.953-.828-1.5-.578-.375-2.875-.953-3.094-.781-4.297-1.344-1.187-.578-1.812-1.578-.61-1.015-.61-2.234 0-1.11.5-2.047.516-.953 1.391-1.578.656-.485 1.781-.813 1.141-.343 2.438-.343 1.953 0 3.422.562 1.484.563 2.187 1.531.703.953.969 2.563l-2.75.375q-.188-1.281-1.094-2-.89-.719-2.531-.719-1.938 0-2.766.64-.828.641-.828 1.5 0 .548.344.985.344.453 1.078.75.422.156 2.484.719 2.985.797 4.157 1.312 1.187.5 1.86 1.469.671.969.671 2.406 0 1.407-.828 2.657-.813 1.234-2.36 1.921-1.546.672-3.5.672-3.234 0-4.937-1.343-1.688-1.344-2.156-3.985zm17.14-14.719v-3.234h2.813v3.234h-2.813zm0 19.672v-16.593h2.813v16.593h-2.813zm6.047-8.297q0-4.609 2.563-6.828 2.14-1.843 5.218-1.843 3.422 0 5.594 2.25 2.172 2.234 2.172 6.187 0 3.203-.969 5.047-.953 1.828-2.797 2.844-1.828 1.015-4 1.015-3.484 0-5.64-2.234-2.14-2.234-2.14-6.438zm2.89 0q0 3.188 1.391 4.782 1.391 1.578 3.5 1.578 2.094 0 3.485-1.594 1.39-1.594 1.39-4.86 0-3.077-1.406-4.656-1.39-1.593-3.469-1.593-2.109 0-3.5 1.578-1.39 1.578-1.39 4.765zm15.954 8.297v-16.593h2.531v2.359q1.828-2.734 5.281-2.734 1.5 0 2.75.546 1.266.532 1.891 1.407t.875 2.078q.156.781.156 2.734v10.203h-2.812v-10.093q0-1.72-.328-2.563-.328-.86-1.172-1.36-.828-.515-1.953-.515-1.797 0-3.11 1.14-1.297 1.141-1.297 4.329v9.062h-2.812z"/><path fill="none" d="M5.354 5.52h253.512v58.173H5.354z"/><path fill="#000" d="m56.665 37.208 3.031.766q-.953 3.734-3.437 5.703-2.47 1.953-6.047 1.953-3.703 0-6.031-1.5-2.313-1.515-3.532-4.375-1.203-2.86-1.203-6.14 0-3.578 1.36-6.235 1.375-2.672 3.89-4.047 2.531-1.39 5.563-1.39 3.437 0 5.78 1.75 2.345 1.75 3.267 4.922l-2.985.703q-.797-2.5-2.312-3.64-1.516-1.141-3.813-1.141-2.64 0-4.422 1.265-1.765 1.266-2.484 3.406-.719 2.125-.719 4.391 0 2.922.844 5.11.86 2.171 2.656 3.25 1.797 1.078 3.89 1.078 2.548 0 4.313-1.47 1.766-1.468 2.39-4.359zm5.36-.265q0-4.61 2.562-6.828 2.14-1.844 5.219-1.844 3.421 0 5.593 2.25 2.172 2.234 2.172 6.187 0 3.204-.969 5.047-.953 1.828-2.796 2.844-1.829 1.016-4 1.016-3.485 0-5.641-2.235-2.14-2.234-2.14-6.437zm2.89 0q0 3.187 1.39 4.781 1.391 1.578 3.5 1.578 2.094 0 3.485-1.594 1.39-1.593 1.39-4.859 0-3.078-1.406-4.656-1.39-1.594-3.468-1.594-2.11 0-3.5 1.578-1.391 1.578-1.391 4.766zm15.953 8.297V28.646h2.516v2.328q.78-1.219 2.078-1.953 1.297-.75 2.953-.75 1.844 0 3.016.766 1.187.765 1.671 2.14 1.97-2.906 5.125-2.906 2.47 0 3.797 1.375 1.328 1.36 1.328 4.203v11.39h-2.796V34.788q0-1.688-.282-2.422-.265-.75-.984-1.203-.719-.454-1.688-.454-1.75 0-2.906 1.172-1.156 1.157-1.156 3.72v9.64h-2.813V34.458q0-1.875-.687-2.812-.688-.938-2.25-.938-1.188 0-2.203.625-1 .625-1.453 1.829-.453 1.203-.453 3.468v8.61h-2.813zm26.656 6.36V28.645h2.563v2.156q.906-1.265 2.047-1.89 1.14-.641 2.765-.641 2.125 0 3.75 1.094 1.625 1.093 2.453 3.093.829 1.985.829 4.36 0 2.547-.922 4.594-.907 2.03-2.657 3.125-1.734 1.078-3.656 1.078-1.406 0-2.531-.594-1.11-.594-1.828-1.5v8.078h-2.813zm2.547-14.563q0 3.203 1.297 4.734 1.297 1.531 3.14 1.531 1.876 0 3.204-1.578 1.344-1.594 1.344-4.922 0-3.172-1.313-4.75-1.297-1.578-3.11-1.578-1.796 0-3.187 1.688-1.375 1.671-1.375 4.875zm15.219 8.203V28.646h2.531v2.516q.969-1.766 1.781-2.329.829-.562 1.813-.562 1.422 0 2.89.906l-.968 2.61q-1.031-.61-2.063-.61-.922 0-1.656.563-.734.547-1.047 1.53-.469 1.5-.469 3.282v8.688h-2.812zm22.047-5.344 2.906.36q-.687 2.546-2.547 3.952-1.86 1.407-4.75 1.407-3.64 0-5.781-2.235-2.125-2.25-2.125-6.297 0-4.187 2.156-6.5 2.156-2.312 5.594-2.312 3.328 0 5.437 2.266 2.11 2.265 2.11 6.375 0 .25-.016.75h-12.375q.156 2.734 1.547 4.187 1.39 1.453 3.469 1.453 1.547 0 2.64-.812 1.094-.813 1.735-2.594zm-9.235-4.547h9.266q-.187-2.094-1.062-3.14-1.344-1.626-3.485-1.626-1.937 0-3.265 1.297-1.313 1.297-1.454 3.47zm14.547 4.938 2.782-.438q.234 1.672 1.296 2.563 1.079.89 3 .89 1.938 0 2.875-.781.938-.797.938-1.86 0-.953-.828-1.5-.578-.374-2.875-.953-3.094-.78-4.297-1.343-1.188-.578-1.813-1.578-.609-1.016-.609-2.235 0-1.11.5-2.047.516-.953 1.39-1.578.657-.484 1.782-.812 1.14-.344 2.437-.344 1.954 0 3.422.562 1.485.563 2.188 1.532.703.953.969 2.562l-2.75.375q-.188-1.281-1.094-2-.89-.719-2.531-.719-1.938 0-2.766.641-.828.64-.828 1.5 0 .547.344.984.343.454 1.078.75.422.157 2.484.72 2.984.796 4.156 1.312 1.188.5 1.86 1.468.672.97.672 2.407 0 1.406-.829 2.656-.812 1.234-2.359 1.922-1.547.672-3.5.672-3.234 0-4.937-1.344-1.688-1.344-2.157-3.984zm16 0 2.782-.438q.234 1.672 1.296 2.563 1.079.89 3 .89 1.938 0 2.875-.781.938-.797.938-1.86 0-.953-.828-1.5-.578-.374-2.875-.953-3.094-.78-4.297-1.343-1.188-.578-1.813-1.578-.609-1.016-.609-2.235 0-1.11.5-2.047.516-.953 1.39-1.578.657-.484 1.782-.812 1.14-.344 2.437-.344 1.954 0 3.422.562 1.485.563 2.188 1.532.703.953.969 2.562l-2.75.375q-.188-1.281-1.094-2-.89-.719-2.531-.719-1.938 0-2.766.641-.828.64-.828 1.5 0 .547.344.984.343.454 1.078.75.422.157 2.484.72 2.984.796 4.156 1.312 1.188.5 1.86 1.468.672.97.672 2.407 0 1.406-.829 2.656-.812 1.234-2.359 1.922-1.547.672-3.5.672-3.234 0-4.937-1.344-1.688-1.344-2.157-3.984zm17.14-14.72v-3.234h2.813v3.235h-2.812zm0 19.673V28.646h2.813V45.24h-2.812zm6.048-8.297q0-4.61 2.562-6.828 2.14-1.844 5.219-1.844 3.422 0 5.594 2.25 2.172 2.234 2.172 6.187 0 3.204-.97 5.047-.952 1.828-2.796 2.844-1.828 1.016-4 1.016-3.484 0-5.64-2.235-2.141-2.234-2.141-6.437zm2.89 0q0 3.187 1.391 4.781 1.39 1.578 3.5 1.578 2.094 0 3.484-1.594 1.391-1.593 1.391-4.859 0-3.078-1.406-4.656-1.39-1.594-3.469-1.594-2.11 0-3.5 1.578-1.39 1.578-1.39 4.766zm15.954 8.297V28.646h2.53v2.36q1.829-2.735 5.282-2.735 1.5 0 2.75.547 1.266.531 1.89 1.406.626.875.876 2.078.156.781.156 2.735V45.24h-2.813V35.146q0-1.719-.328-2.563-.328-.859-1.172-1.359-.828-.516-1.953-.516-1.797 0-3.11 1.141-1.296 1.14-1.296 4.328v9.063h-2.812z"/><path fill="#fce5cd" fill-rule="evenodd" d="M684.88 331.024h275.086v128.315H684.879z"/><path fill="none" d="M694.73 387.04h89.165"/><path stroke="#000" stroke-linecap="butt" stroke-linejoin="round" stroke-width="2" d="M694.73 387.04h77.165"/><path fill="#000" fill-rule="evenodd" stroke="#000" stroke-linecap="butt" stroke-width="2" d="m771.895 390.343 9.076-3.304-9.076-3.303z"/><path fill="none" d="M694.73 416.126h89.165"/><path stroke="#000" stroke-dasharray="8.0,6.0" stroke-linecap="butt" stroke-linejoin="round" stroke-width="2" d="M694.73 416.126h77.165"/><path fill="#000" fill-rule="evenodd" stroke="#000" stroke-linecap="butt" stroke-width="2" d="m771.895 419.43 9.076-3.304-9.076-3.303z"/><path fill="none" d="M694.73 445.213h89.165"/><path stroke="#000" stroke-dasharray="2.0,6.0" stroke-linecap="butt" stroke-linejoin="round" stroke-width="2" d="M694.73 445.213h77.165"/><path fill="#000" fill-rule="evenodd" stroke="#000" stroke-linecap="butt" stroke-width="2" d="m771.895 448.516 9.076-3.303-9.076-3.304z"/><path fill="none" d="M745.134 323.772h189.764v42.015H745.134z"/><path fill="#000" d="M763.37 345.848q0-2.688 1.484-3.969 1.25-1.078 3.047-1.078 2 0 3.265 1.313 1.266 1.296 1.266 3.609 0 1.86-.563 2.937-.562 1.063-1.64 1.657-1.063.593-2.328.593-2.032 0-3.282-1.296-1.25-1.313-1.25-3.766zm1.687 0q0 1.86.797 2.797.812.922 2.047.922 1.218 0 2.031-.922.812-.938.812-2.844 0-1.797-.812-2.719-.813-.922-2.031-.922-1.235 0-2.047.922-.797.907-.797 2.766zm9.298 4.844v-9.672h1.468v1.375q1.063-1.594 3.078-1.594.875 0 1.61.313.734.312 1.094.828.375.5.515 1.203.094.453.094 1.594v5.953h-1.64V344.8q0-1-.204-1.484-.187-.5-.672-.797-.484-.297-1.14-.297-1.047 0-1.813.672-.75.656-.75 2.515v5.282h-1.64zm17-3.11 1.688.203q-.407 1.485-1.485 2.313-1.078.812-2.765.812-2.125 0-3.375-1.296-1.235-1.313-1.235-3.672 0-2.453 1.25-3.797 1.266-1.344 3.266-1.344 1.937 0 3.156 1.328 1.235 1.313 1.235 3.703v.438h-7.22q.095 1.594.907 2.453.813.844 2.016.844.906 0 1.547-.47.64-.483 1.015-1.515zm-5.39-2.656h5.406q-.11-1.219-.625-1.828-.781-.953-2.031-.953-1.125 0-1.907.765-.765.75-.843 2.016zm12.809 9.469v-1.188h10.859v1.188h-10.86zm10.375 0v-1.188h10.86v1.188h-10.86zm10.376 0v-1.188h10.86v1.188h-10.86zm10.376 0v-1.188h10.86v1.188H829.9zm23.387-4.89q-.922.765-1.766 1.093-.828.312-1.797.312-1.593 0-2.453-.78-.859-.782-.859-1.985 0-.719.328-1.297.328-.594.844-.938.531-.359 1.187-.546.47-.125 1.453-.25 1.985-.235 2.922-.563.016-.344.016-.422 0-1-.469-1.422-.625-.547-1.875-.547-1.156 0-1.703.407-.547.406-.812 1.422l-1.61-.22q.219-1.015.719-1.64.5-.64 1.453-.984.953-.344 2.188-.344 1.25 0 2.015.297.781.281 1.14.734.376.438.516 1.11.079.422.079 1.515v2.188q0 2.281.109 2.89.11.594.406 1.157h-1.703q-.266-.516-.328-1.188zm-.14-3.673q-.891.375-2.673.625-1.015.14-1.437.328-.422.188-.656.532-.219.343-.219.78 0 .657.5 1.095.5.437 1.453.437.938 0 1.672-.406.75-.422 1.094-1.14.265-.563.265-1.641v-.61zm7.781 3.39.235 1.454q-.688.14-1.235.14-.89 0-1.39-.28-.485-.282-.688-.735-.203-.469-.203-1.937v-5.579h-1.203v-1.265h1.203v-2.39l1.625-.985v3.375h1.656v1.265h-1.656v5.672q0 .688.078.89.094.204.281.329.204.11.579.11.265 0 .718-.063zm13.101.282q-.922.766-1.765 1.094-.828.312-1.797.312-1.594 0-2.453-.78-.86-.782-.86-1.985 0-.719.328-1.297.329-.594.844-.938.531-.359 1.188-.546.468-.125 1.453-.25 1.984-.235 2.922-.563.015-.344.015-.422 0-1-.468-1.422-.625-.547-1.875-.547-1.157 0-1.704.407-.546.406-.812 1.422l-1.61-.22q.22-1.015.72-1.64.5-.64 1.452-.984.954-.344 2.188-.344 1.25 0 2.016.297.78.281 1.14.734.375.438.516 1.11.078.422.078 1.515v2.188q0 2.281.11 2.89.109.594.406 1.157h-1.704q-.265-.516-.328-1.188zm-.14-3.672q-.891.375-2.672.625-1.016.14-1.438.328-.422.188-.656.532-.219.343-.219.78 0 .657.5 1.095.5.437 1.453.437.938 0 1.672-.406.75-.422 1.094-1.14.266-.563.266-1.641v-.61zm12.965 3.39.234 1.454q-.687.14-1.234.14-.89 0-1.39-.28-.485-.282-.688-.735-.203-.469-.203-1.937v-5.579h-1.203v-1.265h1.203v-2.39l1.625-.985v3.375h1.656v1.265h-1.656v5.672q0 .688.078.89.094.204.281.329.203.11.578.11.266 0 .719-.063zm1.605-10v-1.89h1.64v1.89h-1.64zm0 11.47v-9.672h1.64v9.672h-1.64zm4.145 0v-9.672h1.469v1.36q.453-.72 1.203-1.141.765-.438 1.719-.438 1.078 0 1.765.453.688.438.969 1.235 1.156-1.688 2.984-1.688 1.453 0 2.219.797.781.797.781 2.453v6.64h-1.64v-6.093q0-.984-.157-1.406-.156-.438-.578-.703-.422-.266-.984-.266-1.016 0-1.688.687-.671.672-.671 2.157v5.625h-1.641v-6.282q0-1.093-.406-1.64-.407-.547-1.313-.547-.687 0-1.281.36-.594.359-.86 1.062-.25.703-.25 2.031v5.016h-1.64zm22.166-3.11 1.687.203q-.406 1.485-1.484 2.313-1.078.812-2.766.812-2.125 0-3.375-1.296-1.234-1.313-1.234-3.672 0-2.453 1.25-3.797 1.265-1.344 3.265-1.344 1.938 0 3.157 1.328 1.234 1.313 1.234 3.703v.438h-7.219q.094 1.594.907 2.453.812.844 2.015.844.906 0 1.547-.47.64-.483 1.016-1.515zm-5.39-2.656h5.405q-.11-1.219-.625-1.828-.78-.953-2.03-.953-1.126 0-1.907.765-.766.75-.844 2.016z"/><path fill="none" d="M783.895 365.165h80.378v42.016h-80.378z"/><path fill="#000" d="m800.442 388.538 1.61.22q-.266 1.655-1.36 2.609-1.078.937-2.672.937-1.984 0-3.187-1.297-1.204-1.297-1.204-3.719 0-1.578.516-2.75.516-1.171 1.578-1.75 1.063-.593 2.313-.593 1.578 0 2.578.797 1 .796 1.281 2.265l-1.594.235q-.234-.97-.812-1.454-.578-.5-1.39-.5-1.235 0-2.016.891-.782.89-.782 2.813 0 1.953.75 2.843.75.875 1.953.875.97 0 1.61-.593.656-.594.828-1.829zm3.016 3.547v-13.359h1.64v4.797q1.14-1.328 2.89-1.328 1.079 0 1.86.422.797.421 1.14 1.171.345.75.345 2.172v6.125h-1.641v-6.125q0-1.234-.531-1.797-.532-.562-1.516-.562-.719 0-1.36.39-.64.376-.921 1.016-.266.64-.266 1.781v5.297h-1.64zm16.703 0v-1.422q-1.125 1.641-3.062 1.641-.86 0-1.61-.328-.734-.328-1.093-.828-.36-.5-.5-1.219-.11-.469-.11-1.531v-5.985h1.641v5.36q0 1.281.11 1.734.156.64.656 1.016.5.375 1.234.375t1.375-.375q.656-.39.922-1.031.266-.657.266-1.891v-5.188h1.64v9.672h-1.469zm4.048 0v-9.672h1.469v1.375q1.062-1.593 3.078-1.593.875 0 1.61.312.734.313 1.093.828.375.5.516 1.203.093.454.093 1.594v5.953h-1.64v-5.89q0-1-.203-1.485-.188-.5-.672-.797-.485-.296-1.14-.296-1.048 0-1.813.671-.75.657-.75 2.516v5.281h-1.641zm10.376 0v-13.359h1.64v7.625l3.89-3.938h2.11l-3.687 3.594 4.062 6.078h-2.015l-3.203-4.953-1.157 1.125v3.828h-1.64z"/><path fill="none" d="M783.895 395.118h80.378v42.016h-80.378z"/><path fill="#000" d="M794.13 425.741v-13.375h1.484v1.25q.531-.734 1.187-1.094.672-.375 1.625-.375 1.235 0 2.172.641.953.625 1.438 1.797.484 1.156.484 2.547 0 1.484-.531 2.672-.531 1.187-1.547 1.828-1.016.625-2.14.625-.813 0-1.47-.344-.656-.344-1.062-.875v4.703h-1.64zm1.484-8.484q0 1.86.75 2.765.765.891 1.828.891 1.094 0 1.875-.922.781-.937.781-2.875 0-1.844-.765-2.765-.75-.922-1.813-.922-1.047 0-1.86.984-.796.969-.796 2.844zm15.204 3.594q-.922.765-1.766 1.093-.828.313-1.797.313-1.594 0-2.453-.781-.86-.782-.86-1.985 0-.719.329-1.297.328-.593.844-.937.53-.36 1.187-.547.469-.125 1.453-.25 1.985-.234 2.922-.563.016-.343.016-.421 0-1-.47-1.422-.624-.547-1.874-.547-1.156 0-1.703.406-.547.406-.813 1.422l-1.61-.219q.22-1.015.72-1.64.5-.641 1.453-.985.953-.344 2.187-.344 1.25 0 2.016.297.781.282 1.14.735.376.437.516 1.11.078.421.078 1.515v2.187q0 2.281.11 2.89.109.595.406 1.157h-1.703q-.266-.516-.328-1.187zm-.141-3.672q-.89.375-2.672.625-1.015.14-1.437.328-.422.187-.657.531-.218.344-.218.781 0 .657.5 1.094.5.438 1.453.438.937 0 1.672-.407.75-.422 1.093-1.14.266-.563.266-1.64v-.61zm3.891 5.656 1.594.234q.11.75.563 1.078.609.454 1.671.454 1.141 0 1.75-.454.625-.453.844-1.265.125-.5.11-2.11-1.063 1.266-2.672 1.266-2 0-3.094-1.437-1.094-1.438-1.094-3.454 0-1.39.5-2.562.516-1.172 1.453-1.797.953-.64 2.25-.64 1.703 0 2.813 1.374v-1.156h1.515v8.36q0 2.265-.468 3.203-.453.937-1.453 1.484-.985.547-2.454.547-1.718 0-2.796-.781-1.063-.766-1.032-2.344zm1.36-5.813q0 1.907.75 2.782.765.875 1.906.875 1.125 0 1.89-.86.766-.875.766-2.734 0-1.781-.797-2.672-.78-.906-1.89-.906-1.094 0-1.86.89-.765.875-.765 2.625zm15.954 1.907 1.687.203q-.406 1.484-1.484 2.312-1.078.813-2.766.813-2.125 0-3.375-1.297-1.234-1.313-1.234-3.672 0-2.453 1.25-3.797 1.265-1.344 3.265-1.344 1.938 0 3.157 1.329 1.234 1.312 1.234 3.703v.437h-7.219q.094 1.594.906 2.453.813.844 2.016.844.906 0 1.547-.469.64-.484 1.016-1.515zm-5.391-2.657h5.406q-.11-1.218-.625-1.828-.781-.953-2.031-.953-1.125 0-1.906.766-.766.75-.844 2.015z"/><path fill="none" d="M783.895 425.07h196.85v42.017h-196.85z"/><path fill="#000" d="M795.63 451.99h-1.516v-13.358h1.64v4.765q1.047-1.297 2.657-1.297.89 0 1.687.36.797.359 1.313 1.015.515.64.797 1.563.296.922.296 1.969 0 2.484-1.234 3.843-1.219 1.36-2.953 1.36-1.703 0-2.688-1.438v1.219zm-.016-4.905q0 1.734.484 2.515.766 1.266 2.094 1.266 1.078 0 1.86-.938.78-.937.78-2.78 0-1.891-.75-2.798-.75-.906-1.828-.906-1.062 0-1.859.938-.781.937-.781 2.703zm15.204 3.718q-.922.766-1.766 1.094-.828.313-1.797.313-1.594 0-2.453-.782-.86-.78-.86-1.984 0-.719.329-1.297.328-.594.844-.937.53-.36 1.187-.547.469-.125 1.453-.25 1.985-.235 2.922-.563.016-.343.016-.422 0-1-.47-1.421-.624-.547-1.874-.547-1.156 0-1.703.406-.547.406-.813 1.422l-1.61-.219q.22-1.016.72-1.64.5-.641 1.453-.985.953-.344 2.187-.344 1.25 0 2.016.297.781.281 1.14.735.376.437.516 1.109.078.422.078 1.516v2.187q0 2.281.11 2.89.109.594.406 1.157h-1.703q-.266-.516-.328-1.188zm-.141-3.671q-.89.375-2.672.625-1.015.14-1.437.328-.422.187-.657.53-.218.345-.218.782 0 .656.5 1.094.5.437 1.453.437.937 0 1.672-.406.75-.422 1.093-1.14.266-.563.266-1.641v-.61zm7.782 3.39.234 1.453q-.687.14-1.234.14-.89 0-1.39-.28-.485-.282-.688-.735-.203-.468-.203-1.937v-5.578h-1.203v-1.266h1.203v-2.39l1.625-.985v3.375h1.656v1.266h-1.656v5.672q0 .687.078.89.094.203.281.328.203.11.578.11.266 0 .719-.063zm7.918-2.078 1.609.219q-.266 1.656-1.36 2.61-1.077.937-2.671.937-1.985 0-3.188-1.297t-1.203-3.719q0-1.578.516-2.75.515-1.172 1.578-1.75 1.062-.594 2.312-.594 1.579 0 2.579.797 1 .797 1.28 2.266l-1.593.234q-.234-.969-.812-1.453-.579-.5-1.391-.5-1.234 0-2.016.89-.781.891-.781 2.813 0 1.953.75 2.844.75.875 1.953.875.969 0 1.61-.594.656-.594.828-1.828zm3.015 3.547v-13.36h1.64v4.797q1.142-1.328 2.892-1.328 1.078 0 1.859.422.797.422 1.14 1.172.344.75.344 2.172v6.125h-1.64v-6.125q0-1.234-.532-1.797-.53-.562-1.515-.562-.719 0-1.36.39-.64.375-.921 1.016-.266.64-.266 1.781v5.297h-1.64z"/><path fill="none" d="m159.568 234.56 80.378-28"/><path stroke="#666" stroke-dasharray="2.0,6.0" stroke-linecap="butt" stroke-linejoin="round" stroke-width="2" d="m159.568 234.56 69.046-24.052"/><path fill="#666" fill-rule="evenodd" stroke="#666" stroke-linecap="butt" stroke-width="2" d="m229.7 213.628 7.485-6.106-9.658-.134z"/><path fill="none" d="m576.585 193.02 173.229-47.055 16.976 62.362-173.228 47.055z"/><path fill="#000" d="m602.845 213.782-1.462.397-3.51-12.89 1.584-.43 1.252 4.598q.67-1.525 2.222-1.947.86-.234 1.723-.096.864.138 1.534.636.666.483 1.18 1.299.528.811.803 1.822.652 2.397-.182 4.032-.819 1.631-2.493 2.086-1.643.446-2.97-.683l.32 1.176zm-1.303-4.73q.455 1.674 1.128 2.3 1.071 1.021 2.353.673 1.04-.283 1.548-1.392.507-1.11.023-2.888-.496-1.825-1.458-2.503-.962-.677-2.002-.395-1.026.279-1.549 1.392-.507 1.11-.043 2.813zm6.856-8.663-.496-1.824 1.583-.43.497 1.824-1.584.43zm3.013 11.066-2.54-9.332 1.582-.43 2.54 9.332-1.582.43zm4-1.086-2.54-9.332 1.416-.385.362 1.326q.606-1.816 2.552-2.344.844-.23 1.635-.12.79.108 1.273.512.493.384.813 1.025.21.413.51 1.514l1.563 5.744-1.583.43-1.547-5.684q-.263-.965-.586-1.379-.313-.433-.858-.593-.545-.16-1.179.013-1.01.274-1.572 1.123-.552.83-.063 2.624l1.387 5.096-1.583.43zm10.012-2.72-2.54-9.332 1.417-.385.362 1.327q.606-1.817 2.551-2.345.845-.23 1.636-.12.79.109 1.273.512.493.384.813 1.026.21.412.51 1.513l1.563 5.744-1.583.43-1.548-5.684q-.262-.965-.585-1.379-.313-.433-.858-.593-.546-.16-1.179.013-1.01.274-1.573 1.123-.55.83-.062 2.624l1.387 5.096-1.584.43zm7-13.786-.496-1.824 1.584-.43.496 1.824-1.583.43zm3.013 11.066-2.54-9.332 1.583-.43 2.54 9.332-1.583.43zm4-1.086-2.54-9.333 1.417-.385.361 1.327q.607-1.816 2.552-2.345.845-.229 1.635-.12.791.11 1.273.512.494.385.814 1.026.21.413.51 1.513l1.563 5.745-1.583.43-1.548-5.684q-.262-.965-.586-1.38-.312-.433-.857-.592-.546-.16-1.18.013-1.01.274-1.572 1.123-.551.83-.063 2.624l1.387 5.096-1.583.43zm9.92-1.87 1.6-.19q.303.694.826.892.708.277 1.733-.001 1.1-.3 1.57-.896.484-.601.481-1.442-.01-.516-.448-2.064-.693 1.5-2.246 1.921-1.93.524-3.363-.576t-1.963-3.045q-.365-1.342-.19-2.604.19-1.266.93-2.114.752-.868 2.003-1.208 1.644-.447 3.075.59l-.303-1.117 1.462-.397 2.196 8.066q.595 2.186.389 3.214-.191 1.023-1.012 1.813-.807.785-2.224 1.17-1.659.451-2.904-.02-1.227-.46-1.611-1.991zm-.214-5.964q.5 1.84 1.454 2.487.969.644 2.07.345 1.085-.295 1.598-1.325.51-1.045.021-2.84-.468-1.718-1.47-2.369-.993-.67-2.063-.378-1.056.286-1.56 1.346-.51 1.045-.05 2.734zm21.102-1.765q-.689.98-1.417 1.518-.717.519-1.652.772-1.538.418-2.572-.11-1.035-.529-1.35-1.69-.19-.693-.025-1.337.16-.659.568-1.126.418-.486 1.003-.839.42-.243 1.336-.622 1.854-.746 2.672-1.309-.075-.335-.096-.41-.262-.966-.825-1.25-.747-.364-1.954-.036-1.115.303-1.536.838-.421.536-.411 1.585l-1.61.211q-.056-1.037.262-1.771.314-.75 1.144-1.331.83-.582 2.02-.905 1.207-.328 2.024-.242.828.067 1.293.41.477.323.79.935.186.386.473 1.442l.574 2.11q.6 2.202.865 2.76.262.545.696 1.01l-1.644.447q-.391-.428-.628-1.06zm-1.1-3.506q-.761.595-2.415 1.303-.943.402-1.3.694-.359.291-.494.684-.121.39-.006.811.172.634.77.925.597.29 1.517.04.904-.245 1.506-.83.613-.603.756-1.387.109-.612-.174-1.652l-.16-.588zm5.333 3.586-2.54-9.332 1.417-.385.361 1.327q.607-1.816 2.552-2.345.844-.23 1.635-.12.79.109 1.273.512.493.384.814 1.026.21.413.509 1.513l1.563 5.744-1.583.43-1.547-5.684q-.263-.964-.586-1.379-.312-.433-.858-.592-.545-.16-1.178.012-1.01.275-1.573 1.124-.551.83-.063 2.624l1.387 5.095-1.583.43zm16.06-4.362-.32-1.176q-.498 1.625-2.232 2.096-1.116.303-2.219-.061-1.103-.365-1.915-1.326-.812-.961-1.202-2.393-.382-1.403-.222-2.66.155-1.273.91-2.126.771-.857 1.932-1.172.845-.23 1.592-.044.758.167 1.32.629l-1.26-4.629 1.584-.43 3.509 12.89-1.478.402zm-6.26-3.303q.489 1.794 1.485 2.479.996.685 2.021.406 1.04-.282 1.534-1.323.49-1.056.018-2.79-.521-1.915-1.502-2.604-.985-.703-2.07-.408-1.041.282-1.516 1.334-.475 1.052.03 2.906zm18.295-1.488.608 1.34q-.627.316-1.154.46-.86.233-1.416.093-.542-.145-.857-.528-.319-.4-.705-1.817l-1.465-5.382-1.16.315-.333-1.22 1.16-.316-.627-2.307 1.31-1.376.886 3.257 1.598-.434.333 1.22-1.599.435 1.49 5.473q.18.663.31.839.143.171.357.243.225.052.587-.046.256-.07.677-.25zm.713 1.328 1.437-14.234 1.84-.5 8.786 11.457-1.945.529-2.556-3.5-5.398 1.467-.354 4.29-1.81.491zm2.284-6.304 4.373-1.187-2.33-3.205q-1.046-1.464-1.63-2.423.08 1.306-.026 2.646l-.387 4.17zm11.127 2.661-3.509-12.89 1.75-.475 9.523 8.277-2.753-10.116 1.628-.443 3.51 12.89-1.75.476-9.528-8.293 2.758 10.132-1.629.442zm11.315-7.526 1.562-.57q.383.932.958 1.44.591.503 1.572.658.992.135 2.093-.164.965-.262 1.641-.754.676-.49.903-1.087.222-.61.058-1.214-.164-.603-.65-.957-.47-.358-1.355-.457-.58-.053-2.475.008-1.883.042-2.695-.142-1.066-.229-1.71-.814-.65-.601-.892-1.49-.263-.965.065-1.961.324-1.011 1.26-1.735.952-.728 2.249-1.08 1.432-.39 2.645-.217 1.224.153 2.058.898.83.73 1.184 1.848l-1.596.563q-.468-1.184-1.406-1.593-.926-.429-2.404-.027-1.553.422-2.105 1.187-.553.765-.336 1.564.19.694.82.992.606.321 2.819.238 2.208-.098 3.071.04 1.27.206 2.016.861.76.652 1.043 1.692.28 1.026-.058 2.105-.342 1.064-1.303 1.876-.966.796-2.353 1.173-1.749.475-3.08.286-1.315-.193-2.273-1.034-.942-.845-1.326-2.133zM634.809 216.427l-.497-1.824 1.583-.43.497 1.824-1.583.43zm3.012 11.066-2.54-9.332 1.583-.43 2.54 9.332-1.583.43zm4-1.086-2.54-9.333 1.417-.385.361 1.327q.607-1.816 2.552-2.345.844-.229 1.635-.12.791.11 1.273.512.493.385.814 1.026.21.413.509 1.513l1.564 5.744-1.584.43-1.547-5.683q-.263-.965-.586-1.38-.312-.433-.857-.592-.546-.16-1.18.012-1.01.275-1.572 1.124-.551.83-.063 2.624l1.387 5.096-1.583.43zm15-4.075L654.28 213l1.417-.385.386 1.417q.272-1.142.638-1.582.381-.444.939-.595.8-.217 1.768.07l-.145 1.61q-.682-.187-1.255-.031-.528.143-.849.57-.32.427-.354 1.02-.042.917.233 1.927l1.33 4.885-1.568.426zm11.587-6.37 1.682-.246q-.002 1.539-.825 2.62-.827 1.067-2.456 1.51-2.05.557-3.597-.367-1.536-.943-2.156-3.22-.644-2.366.209-3.99.868-1.629 2.798-2.153 1.87-.508 3.395.454 1.536.943 2.164 3.25l.115.422-6.966 1.892q.509 1.513 1.519 2.13 1.005.6 2.166.285.875-.238 1.37-.858.491-.635.582-1.728zm-5.9-1.15 5.217-1.416q-.425-1.148-1.083-1.6-1.004-.715-2.21-.388-1.086.295-1.639 1.239-.542.924-.285 2.166zm12.93 2.463-6.1-8.366 1.675-.454 3.528 5.048q.563.819 1.112 1.706-.005-.792.108-1.924l.514-6.26 1.628-.442-.987 10.29-1.478.402zm11.985-6.478 1.682-.246q-.002 1.539-.825 2.62-.827 1.067-2.456 1.51-2.05.557-3.597-.367-1.536-.943-2.156-3.22-.645-2.367.209-3.99.868-1.63 2.798-2.153 1.87-.508 3.395.454 1.536.943 2.164 3.25l.115.421-6.966 1.893q.509 1.513 1.518 2.13 1.006.6 2.167.285.875-.238 1.37-.858.49-.635.582-1.729zm-5.9-1.15 5.217-1.417q-.425-1.147-1.083-1.6-1.004-.715-2.21-.387-1.086.295-1.64 1.239-.541.924-.284 2.166zm10.321 3.172-2.54-9.333 1.417-.385.386 1.417q.272-1.142.638-1.582.381-.443.94-.595.798-.217 1.767.07l-.145 1.61q-.682-.187-1.255-.03-.528.142-.849.57-.32.427-.354 1.019-.041.918.233 1.928l1.33 4.885-1.568.426zm4.618-4.25 1.502-.667q.376.902 1.118 1.25.739.334 1.825.04 1.085-.296 1.494-.876.405-.596.24-1.2-.143-.527-.697-.716-.374-.125-1.757-.09-1.872.023-2.637-.11-.75-.136-1.248-.6-.503-.478-.692-1.171-.168-.619-.025-1.224.139-.62.542-1.103.288-.37.872-.722.595-.372 1.319-.569 1.1-.299 2.016-.208.915.092 1.455.528.555.432.952 1.296l-1.496.633q-.302-.695-.926-.963-.608-.272-1.528-.022-1.1.299-1.47.788-.353.484-.222.967.082.301.333.509.266.203.733.254.25.029 1.498.03 1.808-.022 2.55.085.74.106 1.265.546.525.44.747 1.255.217.799-.061 1.62-.264.816-1.032 1.445-.772.615-1.873.914-1.809.491-2.98 0-1.154-.496-1.817-1.92zm15.971-4.565 1.682-.247q-.002 1.54-.825 2.62-.827 1.067-2.456 1.51-2.05.557-3.597-.367-1.536-.943-2.156-3.22-.644-2.366.21-3.99.867-1.629 2.798-2.153 1.87-.508 3.394.454 1.536.943 2.164 3.25l.115.422-6.966 1.892q.509 1.513 1.519 2.13 1.005.6 2.166.285.875-.237 1.37-.858.491-.635.582-1.728zm-5.9-1.15 5.217-1.417q-.425-1.148-1.083-1.6-1.004-.715-2.21-.388-1.086.295-1.639 1.239-.542.924-.285 2.166z"/><path fill="#fff" fill-rule="evenodd" d="M449.874 332.505h135.087v52.693H449.874z"/><path stroke="#000" stroke-linecap="butt" stroke-linejoin="round" d="M449.874 332.505h135.087v52.693H449.874z"/><path fill="#000" d="m476.743 351.225 1.61.219q-.266 1.656-1.36 2.609-1.078.937-2.672.937-1.984 0-3.187-1.296-1.203-1.297-1.203-3.72 0-1.577.515-2.75.516-1.171 1.578-1.75 1.063-.593 2.313-.593 1.578 0 2.578.797 1 .797 1.281 2.266l-1.594.234q-.234-.969-.812-1.453-.578-.5-1.39-.5-1.235 0-2.016.89-.782.891-.782 2.813 0 1.953.75 2.844.75.875 1.954.875.968 0 1.609-.594.656-.594.828-1.828zm3.016 3.547v-13.36h1.64v4.797q1.14-1.328 2.89-1.328 1.08 0 1.86.422.797.422 1.14 1.172.345.75.345 2.172v6.125h-1.64v-6.125q0-1.235-.532-1.797-.531-.563-1.516-.563-.719 0-1.36.39-.64.376-.921 1.017-.266.64-.266 1.78v5.298h-1.64zm16.704 0v-1.422q-1.125 1.64-3.063 1.64-.86 0-1.61-.328-.734-.328-1.093-.828-.36-.5-.5-1.219-.11-.468-.11-1.53V345.1h1.641v5.36q0 1.28.11 1.734.156.64.656 1.015.5.375 1.234.375.735 0 1.375-.375.656-.39.922-1.031.266-.656.266-1.89V345.1h1.64v9.672h-1.468zm4.047 0V345.1h1.469v1.375q1.062-1.594 3.078-1.594.875 0 1.61.313.734.312 1.093.828.375.5.516 1.203.094.453.094 1.594v5.953h-1.641v-5.89q0-1-.203-1.485-.188-.5-.672-.797-.484-.297-1.14-.297-1.048 0-1.813.672-.75.656-.75 2.515v5.282h-1.64zm10.376 0v-13.36h1.64v7.625l3.891-3.937h2.11l-3.688 3.594 4.062 6.078h-2.015l-3.203-4.953-1.157 1.125v3.828h-1.64zm14.511 0V345.1h1.469v1.36q.453-.72 1.203-1.141.766-.438 1.719-.438 1.078 0 1.766.453.687.438.968 1.235 1.157-1.688 2.985-1.688 1.453 0 2.218.797.782.797.782 2.453v6.64h-1.641v-6.093q0-.984-.156-1.406-.156-.438-.578-.703-.422-.266-.985-.266-1.015 0-1.687.687-.672.672-.672 2.157v5.625h-1.64v-6.282q0-1.093-.407-1.64-.406-.547-1.312-.547-.688 0-1.282.36-.593.359-.86 1.062-.25.703-.25 2.031v5.016h-1.64zm22.166-3.11 1.688.203q-.407 1.485-1.485 2.313-1.078.812-2.765.812-2.125 0-3.375-1.296-1.235-1.313-1.235-3.672 0-2.453 1.25-3.797 1.266-1.344 3.266-1.344 1.937 0 3.156 1.328 1.234 1.313 1.234 3.703v.438h-7.218q.093 1.594.906 2.453.812.844 2.016.844.906 0 1.546-.47.641-.483 1.016-1.515zm-5.39-2.656h5.406q-.11-1.219-.625-1.828-.782-.953-2.032-.953-1.125 0-1.906.765-.765.75-.844 2.016zm12.719 4.297.234 1.453q-.687.14-1.234.14-.89 0-1.39-.28-.485-.282-.688-.735-.203-.469-.203-1.937v-5.579h-1.203V345.1h1.203v-2.39l1.625-.985v3.375h1.656v1.265h-1.656v5.672q0 .688.078.89.094.204.281.33.203.108.578.108.266 0 .719-.062zm7.918.281q-.922.766-1.766 1.094-.828.312-1.797.312-1.594 0-2.453-.78-.86-.782-.86-1.985 0-.719.329-1.297.328-.594.844-.938.53-.359 1.187-.546.469-.125 1.453-.25 1.985-.235 2.922-.563.016-.344.016-.422 0-1-.47-1.422-.624-.547-1.874-.547-1.156 0-1.703.407-.547.406-.813 1.422l-1.61-.22q.22-1.015.72-1.64.5-.64 1.453-.984.953-.344 2.187-.344 1.25 0 2.016.297.781.281 1.14.734.376.438.516 1.11.078.422.078 1.515v2.188q0 2.281.11 2.89.109.594.406 1.157h-1.703q-.266-.516-.328-1.188zm-.141-3.672q-.89.375-2.672.625-1.015.14-1.437.328-.422.188-.657.532-.218.343-.218.78 0 .657.5 1.095.5.437 1.453.437.937 0 1.672-.406.75-.422 1.093-1.14.266-.563.266-1.641v-.61zM469.935 380.694q-1.36-1.704-2.297-4-.938-2.297-.938-4.766 0-2.156.703-4.14.828-2.313 2.532-4.594h1.171q-1.093 1.89-1.453 2.703-.547 1.25-.875 2.625-.39 1.703-.39 3.422 0 4.375 2.718 8.75h-1.171zm4.587-3.922h-1.515v-13.36h1.64v4.766q1.047-1.297 2.656-1.297.891 0 1.688.36.797.359 1.312 1.015.516.64.797 1.563.297.921.297 1.968 0 2.485-1.234 3.844-1.219 1.36-2.953 1.36-1.703 0-2.688-1.438v1.219zm-.015-4.907q0 1.735.484 2.516.766 1.266 2.094 1.266 1.078 0 1.86-.938.78-.937.78-2.781 0-1.89-.75-2.797-.75-.906-1.828-.906-1.062 0-1.86.937-.78.938-.78 2.703zm8.89-6.562v-1.89h1.642v1.89h-1.641zm0 11.469V367.1h1.642v9.672h-1.641zm4.146 0V367.1h1.469v1.375q1.062-1.594 3.078-1.594.875 0 1.609.313.734.312 1.094.828.375.5.515 1.203.094.453.094 1.594v5.953h-1.64v-5.89q0-1-.204-1.485-.187-.5-.671-.797-.485-.297-1.141-.297-1.047 0-1.813.672-.75.656-.75 2.515v5.282h-1.64zm9.72-2.89 1.624-.25q.125.968.75 1.5.625.515 1.75.515t1.672-.453q.547-.47.547-1.094 0-.547-.484-.875-.329-.219-1.672-.547-1.813-.469-2.516-.797-.687-.328-1.047-.906-.36-.594-.36-1.313 0-.64.298-1.187.297-.563.812-.922.375-.281 1.031-.469.672-.203 1.422-.203 1.141 0 2 .328.86.328 1.266.89.422.563.578 1.5l-1.61.22q-.109-.75-.64-1.172-.516-.422-1.469-.422-1.14 0-1.625.375-.468.375-.468.875 0 .312.187.578.203.266.64.437.235.094 1.438.422 1.75.453 2.438.75.687.297 1.078.86.39.562.39 1.406 0 .828-.484 1.547-.469.719-1.375 1.125-.906.39-2.047.39-1.875 0-2.875-.78-.984-.782-1.25-2.329zm10.405 2.89v-1.875h1.875v1.875q0 1.03-.375 1.656-.359.64-1.156.984l-.453-.703q.516-.219.766-.672.25-.437.281-1.265h-.938zm9.945 0V367.1h1.469v1.36q.453-.72 1.203-1.141.766-.438 1.719-.438 1.078 0 1.765.453.688.438.97 1.235 1.155-1.688 2.984-1.688 1.453 0 2.218.797.782.797.782 2.453v6.64h-1.641v-6.093q0-.984-.156-1.406-.157-.438-.578-.703-.422-.266-.985-.266-1.015 0-1.687.687-.672.672-.672 2.157v5.625h-1.64v-6.282q0-1.093-.407-1.64-.406-.547-1.313-.547-.687 0-1.28.36-.595.359-.86 1.062-.25.703-.25 2.031v5.016h-1.64zm14.932-4.844q0-2.688 1.484-3.969 1.25-1.078 3.047-1.078 2 0 3.265 1.313 1.266 1.296 1.266 3.609 0 1.86-.562 2.937-.563 1.063-1.641 1.657-1.063.593-2.328.593-2.031 0-3.281-1.296-1.25-1.313-1.25-3.766zm1.687 0q0 1.86.797 2.797.812.922 2.047.922 1.219 0 2.031-.922.813-.938.813-2.844 0-1.797-.813-2.719-.812-.922-2.031-.922-1.235 0-2.047.922-.797.907-.797 2.766zm15.563 4.844v-1.22q-.906 1.438-2.703 1.438-1.156 0-2.125-.64-.969-.64-1.5-1.781t-.531-2.625q0-1.454.484-2.625.485-1.188 1.438-1.813.969-.625 2.172-.625.875 0 1.547.375.687.36 1.109.953v-4.797h1.64v13.36h-1.53zm-5.172-4.828q0 1.859.782 2.78.781.923 1.843.923 1.079 0 1.829-.875.75-.89.75-2.688 0-1.984-.766-2.906-.766-.938-1.89-.938-1.079 0-1.813.891-.735.89-.735 2.813zm15.907 1.718 1.688.203q-.406 1.485-1.484 2.313-1.079.812-2.766.812-2.125 0-3.375-1.296-1.234-1.313-1.234-3.672 0-2.453 1.25-3.797 1.265-1.344 3.265-1.344 1.938 0 3.156 1.328 1.235 1.313 1.235 3.703v.438h-7.219q.094 1.594.906 2.453.813.844 2.016.844.906 0 1.547-.47.64-.483 1.015-1.515zm-5.39-2.656h5.406q-.11-1.219-.625-1.828-.781-.953-2.031-.953-1.125 0-1.906.765-.766.75-.844 2.016zm10.22 9.688h-1.188q2.734-4.375 2.734-8.75 0-1.72-.39-3.391-.313-1.375-.875-2.625-.36-.828-1.47-2.734h1.188q1.703 2.28 2.532 4.593.687 1.985.687 4.14 0 2.47-.937 4.767-.938 2.296-2.282 4z"/><path fill="none" d="m831.15 259.27-246.204 99.59"/><path stroke="#000" stroke-dasharray="2.0,6.0" stroke-linecap="butt" stroke-linejoin="round" stroke-width="2" d="m831.15 259.27-235.08 95.091"/><path fill="#000" fill-rule="evenodd" stroke="#000" stroke-linecap="butt" stroke-width="2" d="m594.832 351.299-7.175 6.466 9.652-.342z"/><path fill="none" d="M517.417 332.505 480 305.01"/><path stroke="#000" stroke-dasharray="2.0,6.0" stroke-linecap="butt" stroke-linejoin="round" stroke-width="2" d="m517.417 332.505-27.747-20.39"/><path fill="#000" fill-rule="evenodd" stroke="#000" stroke-linecap="butt" stroke-width="2" d="m491.626 309.453-9.27-2.712 5.358 8.036z"/><path fill="none" d="m449.874 358.852-142.362-53.827"/><path stroke="#000" stroke-dasharray="2.0,6.0" stroke-linecap="butt" stroke-linejoin="round" stroke-width="2" d="m449.874 358.852-131.138-49.583"/><path fill="#000" fill-rule="evenodd" stroke="#000" stroke-linecap="butt" stroke-width="2" d="m319.905 306.179-9.658-.12 7.321 6.3z"/><path fill="none" d="M449.874 358.852c-122.937 0-209.587-31.071-245.875-62.142-36.287-31.07-22.212-62.142-44.424-62.142"/><path stroke="#000" stroke-dasharray="2.0,6.0" stroke-linecap="butt" stroke-linejoin="round" stroke-width="2" d="M449.874 358.852c-122.937 0-209.587-31.071-245.875-62.142-18.143-15.535-23.696-31.07-27.49-42.722-1.897-5.826-3.354-10.681-5.725-14.08-.074-.106-.15-.21-.225-.314l-.054-.072"/><path fill="#000" fill-rule="evenodd" stroke="#000" stroke-linecap="butt" stroke-width="2" d="m171.868 236.513-9.63-.738 6.903 6.756z"/><path fill="#fff" fill-rule="evenodd" d="M770.194 114.241h135.087v25.197H770.194z"/><path stroke="#000" stroke-linecap="butt" stroke-linejoin="round" d="M770.194 114.241h135.087v25.197H770.194z"/><path fill="#000" d="M805.83 133.76v-1.219q-.906 1.438-2.703 1.438-1.157 0-2.125-.641-.969-.64-1.5-1.781-.532-1.14-.532-2.625 0-1.453.485-2.625.484-1.188 1.437-1.813.97-.625 2.172-.625.875 0 1.547.375.688.36 1.11.953v-4.796h1.64v13.359h-1.531zm-5.172-4.828q0 1.86.781 2.781.781.922 1.844.922 1.078 0 1.828-.875.75-.89.75-2.688 0-1.984-.766-2.906-.765-.937-1.89-.937-1.078 0-1.813.89-.734.89-.734 2.813zm9.282-6.64V120.4h1.64v1.89h-1.64zm0 11.468v-9.672h1.64v9.672h-1.64zm3.489-2.89 1.625-.25q.125.968.75 1.5.625.515 1.75.515t1.671-.453q.547-.469.547-1.094 0-.547-.484-.875-.328-.219-1.672-.547-1.812-.469-2.516-.797-.687-.328-1.046-.906-.36-.594-.36-1.312 0-.641.297-1.188.297-.562.813-.922.375-.281 1.03-.469.673-.203 1.423-.203 1.14 0 2 .328.859.329 1.265.891.422.563.578 1.5l-1.609.219q-.11-.75-.64-1.172-.516-.422-1.47-.422-1.14 0-1.624.375-.47.375-.47.875 0 .313.188.578.204.266.641.438.234.093 1.438.422 1.75.453 2.437.75.688.296 1.078.859.39.562.39 1.406 0 .828-.484 1.547-.468.719-1.375 1.125-.906.39-2.046.39-1.875 0-2.875-.78-.985-.782-1.25-2.329zm9.328 0 1.625-.25q.125.968.75 1.5.625.515 1.75.515t1.672-.453q.546-.469.546-1.094 0-.547-.484-.875-.328-.219-1.672-.547-1.812-.469-2.515-.797-.688-.328-1.047-.906-.36-.594-.36-1.312 0-.641.297-1.188.297-.562.813-.922.375-.281 1.03-.469.673-.203 1.423-.203 1.14 0 2 .328.86.329 1.265.891.422.563.579 1.5l-1.61.219q-.11-.75-.64-1.172-.516-.422-1.47-.422-1.14 0-1.624.375-.469.375-.469.875 0 .313.188.578.203.266.64.438.235.093 1.438.422 1.75.453 2.437.75.688.296 1.078.859.39.562.39 1.406 0 .828-.483 1.547-.47.719-1.375 1.125-.907.39-2.047.39-1.875 0-2.875-.78-.985-.782-1.25-2.329zm16.609-.22 1.688.204q-.407 1.484-1.485 2.312-1.078.813-2.765.813-2.125 0-3.375-1.297-1.235-1.313-1.235-3.672 0-2.453 1.25-3.797 1.266-1.344 3.266-1.344 1.937 0 3.156 1.328 1.234 1.313 1.234 3.704v.437h-7.218q.093 1.594.906 2.453.812.844 2.016.844.906 0 1.546-.469.641-.484 1.016-1.515zm-5.39-2.656h5.406q-.11-1.218-.625-1.828-.782-.953-2.032-.953-1.125 0-1.906.766-.765.75-.844 2.015zm15.453 2.219 1.61.219q-.266 1.656-1.36 2.61-1.078.937-2.672.937-1.984 0-3.187-1.297-1.203-1.297-1.203-3.719 0-1.578.515-2.75.516-1.172 1.578-1.75 1.063-.594 2.313-.594 1.578 0 2.578.797 1 .797 1.281 2.266l-1.593.234q-.235-.969-.813-1.453-.578-.5-1.39-.5-1.235 0-2.016.89-.781.891-.781 2.813 0 1.953.75 2.844.75.875 1.953.875.968 0 1.61-.594.655-.594.827-1.828zm6.594 2.078.234 1.453q-.687.14-1.234.14-.89 0-1.39-.28-.485-.282-.688-.735-.203-.468-.203-1.937v-5.578h-1.203v-1.266h1.203v-2.39l1.625-.985v3.375h1.656v1.266h-1.656v5.672q0 .687.078.89.094.203.281.328.203.11.578.11.266 0 .719-.063zm8.23-1.64 1.688.203q-.407 1.484-1.485 2.312-1.078.813-2.765.813-2.125 0-3.375-1.297-1.235-1.313-1.235-3.672 0-2.453 1.25-3.797 1.266-1.344 3.266-1.344 1.937 0 3.156 1.328 1.235 1.313 1.235 3.704v.437h-7.22q.095 1.594.907 2.453.813.844 2.016.844.906 0 1.547-.469.64-.484 1.015-1.515zm-5.39-2.657h5.406q-.11-1.218-.625-1.828-.781-.953-2.031-.953-1.125 0-1.907.766-.765.75-.843 2.015zm15.406 5.766v-1.219q-.906 1.438-2.703 1.438-1.156 0-2.125-.641-.968-.64-1.5-1.781-.53-1.14-.53-2.625 0-1.453.483-2.625.485-1.188 1.438-1.813.969-.625 2.172-.625.875 0 1.547.375.687.36 1.11.953v-4.796h1.64v13.359h-1.532zm-5.171-4.828q0 1.86.78 2.781.782.922 1.845.922 1.078 0 1.828-.875.75-.89.75-2.688 0-1.984-.766-2.906-.766-.937-1.89-.937-1.079 0-1.813.89t-.734 2.813z"/><path fill="#fff" fill-rule="evenodd" d="M770.194 139.438h135.087v25.197H770.194z"/><path stroke="#666" stroke-linecap="butt" stroke-linejoin="round" d="M770.194 139.438h135.087v25.197H770.194z"/><path fill="#000" d="M811.442 158.957v-13.36h1.64v13.36h-1.64zm10.504-1.188q-.922.766-1.766 1.094-.828.312-1.797.312-1.593 0-2.453-.78-.86-.782-.86-1.985 0-.719.329-1.297.328-.594.844-.938.531-.359 1.187-.546.469-.125 1.453-.25 1.985-.235 2.922-.563.016-.344.016-.422 0-1-.469-1.422-.625-.547-1.875-.547-1.156 0-1.703.407-.547.406-.813 1.422l-1.609-.22q.219-1.015.719-1.64.5-.64 1.453-.984.953-.344 2.187-.344 1.25 0 2.016.297.781.281 1.14.734.376.438.516 1.11.078.422.078 1.515v2.188q0 2.281.11 2.89.11.594.406 1.157h-1.703q-.266-.516-.328-1.188zm-.14-3.672q-.891.375-2.673.625-1.015.141-1.437.328-.422.188-.656.532-.22.343-.22.781 0 .656.5 1.094.5.437 1.454.437.937 0 1.672-.406.75-.422 1.094-1.14.265-.563.265-1.641v-.61zm7.781 3.391.235 1.453q-.688.14-1.235.14-.89 0-1.39-.28-.485-.282-.688-.735-.203-.469-.203-1.937v-5.579h-1.203v-1.265h1.203v-2.39l1.625-.985v3.375h1.656v1.265h-1.656v5.672q0 .688.078.891.094.203.281.328.203.11.578.11.266 0 .72-.063zm8.23-1.64 1.688.202q-.406 1.485-1.485 2.313-1.078.812-2.765.812-2.125 0-3.375-1.296-1.235-1.313-1.235-3.672 0-2.453 1.25-3.797 1.266-1.344 3.266-1.344 1.938 0 3.156 1.328 1.235 1.313 1.235 3.703v.438h-7.219q.094 1.594.906 2.453.813.844 2.016.844.906 0 1.547-.469.64-.484 1.015-1.516zm-5.39-2.657h5.406q-.11-1.219-.625-1.828-.781-.953-2.031-.953-1.125 0-1.907.765-.765.75-.843 2.016zm9.141 5.766v-9.672h1.469v1.375q1.062-1.594 3.078-1.594.875 0 1.61.313.734.312 1.093.828.375.5.516 1.203.093.453.093 1.594v5.953h-1.64v-5.89q0-1-.203-1.485-.188-.5-.672-.797-.485-.297-1.14-.297-1.048 0-1.813.672-.75.656-.75 2.515v5.282h-1.64zm13.954-1.469.234 1.453q-.687.14-1.234.14-.89 0-1.39-.28-.485-.282-.688-.735-.203-.469-.203-1.937v-5.579h-1.203v-1.265h1.203v-2.39l1.625-.985v3.375h1.656v1.265h-1.656v5.672q0 .688.078.891.094.203.281.328.203.11.578.11.266 0 .719-.063zm.949-1.422 1.625-.25q.125.969.75 1.5.625.516 1.75.516t1.672-.453q.547-.47.547-1.094 0-.547-.485-.875-.328-.219-1.672-.547-1.812-.469-2.515-.797-.688-.328-1.047-.906-.36-.594-.36-1.313 0-.64.297-1.187.297-.563.813-.922.375-.281 1.031-.469.672-.203 1.422-.203 1.14 0 2 .328.86.328 1.266.89.421.563.578 1.5l-1.61.22q-.109-.75-.64-1.172-.516-.422-1.469-.422-1.14 0-1.625.375-.469.375-.469.875 0 .312.188.578.203.266.64.437.235.094 1.438.422 1.75.453 2.437.75.688.297 1.078.86.391.562.391 1.406 0 .828-.484 1.547-.469.719-1.375 1.125-.907.39-2.047.39-1.875 0-2.875-.78-.985-.782-1.25-2.329z"/></g></svg>