<svg xmlns="http://www.w3.org/2000/svg" xmlns:xlink="http://www.w3.org/1999/xlink" width="960" height="288" viewBox="0 0 720 216">
    <defs>
        <style>
            *{stroke-linejoin:round;stroke-linecap:butt}
        </style>
    </defs>
    <g id="figure_1">
        <path id="patch_1" d="M0 216h720V0H0z" style="fill:#fff"/>
        <g id="axes_1">
            <path id="patch_2" d="M90 192.24h164.118V25.92H90z" style="fill:#fff"/>
            <path id="patch_3" d="M90 192.24h82.059V25.92H90z" clip-path="url(#pe9f51aa217)" style="fill:#0a5"/>
            <path id="patch_4" d="M172.059 192.24h82.059V99.156h-82.06z" clip-path="url(#pe9f51aa217)" style="fill:#e90"/>
            <g id="matplotlib.axis_2">
                <g id="text_1">
                    <g transform="matrix(.1 0 0 -.1 9.983 95.802)">
                        <defs>
                            <path id="DejaVuSans-Bold-63" d="M3366 3391v-913q-228 156-458 231t-477 75q-468 0-729-273t-261-764q0-491 261-765 261-273 729-273 263 0 499 78 236 79 436 232V103Q3103 6 2833-42q-270-49-542-49-947 0-1482 486-534 486-534 1352t534 1351q535 486 1482 486 275 0 542-48t533-145z" transform="scale(.01563)"/>
                            <path id="DejaVuSans-Bold-6f" d="M2203 2784q-372 0-567-267t-195-770q0-503 195-771 195-267 567-267 366 0 559 267 194 268 194 771t-194 770q-193 267-559 267zm0 800q903 0 1411-488 508-487 508-1349 0-863-508-1351Q3106-91 2203-91q-906 0-1417 487-511 488-511 1351 0 862 511 1349 511 488 1417 488z" transform="scale(.01563)"/>
                            <path id="DejaVuSans-Bold-6d" d="M3781 2919q213 325 505 495t642 170q603 0 919-372 316-371 316-1081V0H5038v1825q3 41 4 84 2 44 2 125 0 372-110 539-109 168-353 168-318 0-492-263-173-262-180-759V0H2784v1825q0 581-100 748-100 168-356 168-322 0-497-264t-175-755V0H531v3500h1125v-512q207 296 474 446t589 150q362 0 640-175 279-175 422-490z" transform="scale(.01563)"/>
                            <path id="DejaVuSans-Bold-70" d="M1656 506v-1837H538v4831h1118v-512q232 306 513 451t647 145q647 0 1062-514 416-514 416-1323T3878 423Q3463-91 2816-91q-366 0-647 145-281 146-513 452zm744 2266q-359 0-552-264-192-264-192-761t192-761q193-264 552-264t548 262q190 263 190 763t-190 762q-189 263-548 263z" transform="scale(.01563)"/>
                            <path id="DejaVuSans-Bold-72" d="M3138 2547q-147 69-293 101-145 33-292 33-431 0-664-277-233-276-233-791V0H538v3500h1118v-575q216 344 495 501 280 158 671 158 56 0 121-5 66-4 191-20l4-1012z" transform="scale(.01563)"/>
                            <path id="DejaVuSans-Bold-65" d="M4031 1759v-318H1416q40-394 284-591t681-197q353 0 723 105 371 105 762 317V213Q3469 63 3072-14t-794-77q-950 0-1477 483-526 483-526 1355 0 856 517 1346 517 491 1424 491 825 0 1320-497 495-496 495-1328zm-1150 372q0 319-186 514-186 196-486 196-325 0-528-183t-253-527h1453z" transform="scale(.01563)"/>
                            <path id="DejaVuSans-Bold-73" d="M3272 3391v-850q-359 150-694 225-334 75-631 75-319 0-474-80-154-80-154-245 0-135 117-207 117-71 420-106l197-28q860-109 1156-359 297-250 297-785 0-559-413-841Q2681-91 1863-91q-347 0-718 55-370 55-761 164v850q335-162 686-244 352-81 714-81 329 0 494 90 166 91 166 270 0 150-114 223t-455 114l-197 25q-747 94-1047 347t-300 769q0 556 381 824 382 269 1169 269 310 0 650-47 341-46 741-146z" transform="scale(.01563)"/>
                            <path id="DejaVuSans-Bold-69" d="M538 3500h1118V0H538v3500zm0 1363h1118v-913H538v913z" transform="scale(.01563)"/>
                            <path id="DejaVuSans-Bold-6e" d="M4056 2131V0H2931v1631q0 453-20 625t-70 253q-66 110-179 171-112 61-256 61-350 0-550-271-200-270-200-748V0H538v3500h1118v-512q253 306 537 451 285 145 629 145 606 0 920-372 314-371 314-1081z" transform="scale(.01563)"/>
                        </defs>
                        <use xlink:href="#DejaVuSans-Bold-63"/>
                        <use xlink:href="#DejaVuSans-Bold-6f" x="59.277"/>
                        <use xlink:href="#DejaVuSans-Bold-6d" x="127.979"/>
                        <use xlink:href="#DejaVuSans-Bold-70" x="232.178"/>
                        <use xlink:href="#DejaVuSans-Bold-72" x="303.76"/>
                        <use xlink:href="#DejaVuSans-Bold-65" x="353.076"/>
                        <use xlink:href="#DejaVuSans-Bold-73" x="420.898"/>
                        <use xlink:href="#DejaVuSans-Bold-73" x="480.42"/>
                        <use xlink:href="#DejaVuSans-Bold-69" x="539.941"/>
                        <use xlink:href="#DejaVuSans-Bold-6f" x="574.219"/>
                        <use xlink:href="#DejaVuSans-Bold-6e" x="642.92"/>
                    </g>
                    <g transform="matrix(.1 0 0 -.1 8.16 107)">
                        <defs>
                            <path id="DejaVuSans-Bold-64" d="M2919 2988v1875h1125V0H2919v506q-231-309-510-453-278-144-643-144-647 0-1063 514-415 515-415 1324t415 1323q416 514 1063 514 362 0 642-145t511-451zM2181 722q360 0 549 262 189 263 189 763t-189 762q-189 263-549 263-356 0-545-263-189-262-189-762t189-763q189-262 545-262z" transform="scale(.01563)"/>
                            <path id="DejaVuSans-Bold-2f" d="M1644 4666h694L691-594H0l1644 5260z" transform="scale(.01563)"/>
                            <path id="DejaVuSans-Bold-4d" d="M588 4666h1531l1062-2497 1069 2497h1528V0H4641v3413L3566 897h-763L1728 3413V0H588v4666z" transform="scale(.01563)"/>
                            <path id="DejaVuSans-Bold-42" d="M2456 2859q285 0 431 125 147 125 147 369 0 241-147 367-146 127-431 127h-665v-988h665zm41-2040q362 0 545 153t183 462q0 304-181 455-181 152-547 152h-706V819h706zm1119 1678q387-113 599-416 213-303 213-743 0-675-456-1007Q3516 0 2584 0H588v4666h1806q972 0 1408-294t436-941q0-340-160-579-159-239-462-355z" transform="scale(.01563)"/>
                        </defs>
                        <use xlink:href="#DejaVuSans-Bold-73"/>
                        <use xlink:href="#DejaVuSans-Bold-70" x="59.521"/>
                        <use xlink:href="#DejaVuSans-Bold-65" x="131.104"/>
                        <use xlink:href="#DejaVuSans-Bold-65" x="198.926"/>
                        <use xlink:href="#DejaVuSans-Bold-64" x="266.748"/>
                        <use xlink:href="#DejaVuSans-Bold-20" x="338.33"/>
                        <use xlink:href="#DejaVuSans-Bold-2f" x="373.145"/>
                        <use xlink:href="#DejaVuSans-Bold-20" x="409.668"/>
                        <use xlink:href="#DejaVuSans-Bold-4d" x="444.482"/>
                        <use xlink:href="#DejaVuSans-Bold-69" x="543.994"/>
                        <use xlink:href="#DejaVuSans-Bold-42" x="578.271"/>
                        <use xlink:href="#DejaVuSans-Bold-2f" x="654.492"/>
                        <use xlink:href="#DejaVuSans-Bold-73" x="691.016"/>
                    </g>
                </g>
            </g>
            <path id="patch_5" d="M90 192.24h164.118" style="fill:none;stroke:#000;stroke-width:.8;stroke-linejoin:miter;stroke-linecap:square"/>
            <g id="text_2" style="fill:#fff" transform="matrix(.24 0 0 -.24 108.124 115.703)">
                <defs>
                    <path id="DejaVuSans-34" d="M2419 4116 825 1625h1594v2491zm-166 550h794V1625h666v-525h-666V0h-628v1100H313v609l1940 2957z" transform="scale(.01563)"/>
                    <path id="DejaVuSans-36" d="M2113 2584q-425 0-674-291-248-290-248-796 0-503 248-796 249-292 674-292t673 292q248 293 248 796 0 506-248 796-248 291-673 291zm1253 1979v-575q-238 112-480 171-242 60-480 60-625 0-955-422-329-422-376-1275 184 272 462 417 279 145 613 145 703 0 1111-427 408-426 408-1160 0-719-425-1154Q2819-91 2113-91q-810 0-1238 620-428 621-428 1799 0 1106 525 1764t1409 658q238 0 480-47t505-140z" transform="scale(.01563)"/>
                </defs>
                <use xlink:href="#DejaVuSans-34"/>
                <use xlink:href="#DejaVuSans-36" x="63.623"/>
                <use xlink:href="#DejaVuSans-34" x="127.246"/>
            </g>
            <g id="text_3" style="fill:#fff" transform="matrix(.24 0 0 -.24 190.183 152.32)">
                <defs>
                    <path id="DejaVuSans-32" d="M1228 531h2203V0H469v531q359 372 979 998 621 627 780 809 303 340 423 576 121 236 121 464 0 372-261 606-261 235-680 235-297 0-627-103-329-103-704-313v638q381 153 712 231 332 78 607 78 725 0 1156-363 431-362 431-968 0-288-108-546-107-257-392-607-78-91-497-524-418-433-1181-1211z" transform="scale(.01563)"/>
                    <path id="DejaVuSans-30" d="M2034 4250q-487 0-733-480-245-479-245-1442 0-959 245-1439 246-480 733-480 491 0 736 480 246 480 246 1439 0 963-246 1442-245 480-736 480zm0 500q785 0 1199-621 414-620 414-1801 0-1178-414-1799Q2819-91 2034-91q-784 0-1198 620-414 621-414 1799 0 1181 414 1801 414 621 1198 621z" transform="scale(.01563)"/>
                </defs>
                <use xlink:href="#DejaVuSans-32"/>
                <use xlink:href="#DejaVuSans-36" x="63.623"/>
                <use xlink:href="#DejaVuSans-30" x="127.246"/>
            </g>
        </g>
        <g id="axes_2">
            <path id="patch_6" d="M286.941 192.24H451.06V25.92H286.94z" style="fill:#fff"/>
            <path id="patch_7" d="M286.941 192.24H369V75.466h-82.059z" clip-path="url(#p5d80b8d94a)" style="fill:#0a5"/>
            <path id="patch_8" d="M369 192.24h82.059V63.118H369z" clip-path="url(#p5d80b8d94a)" style="fill:#e90"/>
            <path id="patch_9" d="M286.941 192.24H451.06" style="fill:none;stroke:#000;stroke-width:.8;stroke-linejoin:miter;stroke-linecap:square"/>
            <g id="text_4" style="fill:#fff" transform="matrix(.24 0 0 -.24 305.066 140.475)">
                <defs>
                    <path id="DejaVuSans-33" d="M2597 2516q453-97 707-404 255-306 255-756 0-690-475-1069Q2609-91 1734-91q-293 0-604 58T488 141v609q262-153 574-231 313-78 654-78 593 0 904 234t311 681q0 413-289 645-289 233-804 233h-544v519h569q465 0 712 186t247 536q0 359-255 551-254 193-729 193-260 0-557-57-297-56-653-174v562q360 100 674 150t592 50q719 0 1137-327 419-326 419-882 0-388-222-655t-631-370z" transform="scale(.01563)"/>
                </defs>
                <use xlink:href="#DejaVuSans-33"/>
                <use xlink:href="#DejaVuSans-32" x="63.623"/>
                <use xlink:href="#DejaVuSans-36" x="127.246"/>
            </g>
            <g id="text_5" style="fill:#fff" transform="matrix(.24 0 0 -.24 387.124 134.301)">
                <use xlink:href="#DejaVuSans-33"/>
                <use xlink:href="#DejaVuSans-36" x="63.623"/>
                <use xlink:href="#DejaVuSans-30" x="127.246"/>
            </g>
        </g>
        <g id="axes_3">
            <path id="patch_10" d="M483.882 192.24H648V25.92H483.882z" style="fill:#fff"/>
            <path id="patch_11" d="M483.882 192.24h82.06V78.28h-82.06z" clip-path="url(#pd450f92a67)" style="fill:#0a5"/>
            <path id="patch_12" d="M565.941 192.24H648v-90.004h-82.059z" clip-path="url(#pd450f92a67)" style="fill:#e90"/>
            <path id="patch_13" d="M483.882 192.24H648" style="fill:none;stroke:#000;stroke-width:.8;stroke-linejoin:miter;stroke-linecap:square"/>
            <g id="text_6" style="fill:#fff" transform="matrix(.24 0 0 -.24 502.007 141.882)">
                <defs>
                    <path id="DejaVuSans-31" d="M794 531h1031v3560L703 3866v575l1116 225h631V531h1031V0H794v531z" transform="scale(.01563)"/>
                    <path id="DejaVuSans-38" d="M2034 2216q-450 0-708-241-257-241-257-662 0-422 257-663 258-241 708-241t709 242q260 243 260 662 0 421-258 662-257 241-711 241zm-631 268q-406 100-633 378-226 279-226 679 0 559 398 884 399 325 1092 325 697 0 1094-325t397-884q0-400-227-679-226-278-629-378 456-106 710-416 255-309 255-755 0-679-414-1042Q2806-91 2034-91q-771 0-1186 362-414 363-414 1042 0 446 256 755 257 310 713 416zm-231 997q0-362 226-565 227-203 636-203 407 0 636 203 230 203 230 565 0 363-230 566-229 203-636 203-409 0-636-203-226-203-226-566z" transform="scale(.01563)"/>
                </defs>
                <use xlink:href="#DejaVuSans-33"/>
                <use xlink:href="#DejaVuSans-31" x="63.623"/>
                <use xlink:href="#DejaVuSans-38" x="127.246"/>
            </g>
            <g id="text_7" style="fill:#fff" transform="matrix(.24 0 0 -.24 584.066 153.86)">
                <defs>
                    <path id="DejaVuSans-35" d="M691 4666h2478v-532H1269V2991q137 47 274 70 138 23 276 23 781 0 1237-428 457-428 457-1159 0-753-469-1171Q2575-91 1722-91q-294 0-599 50Q819 9 494 109v635q281-153 581-228t634-75q541 0 856 284 316 284 316 772 0 487-316 771-315 285-856 285-253 0-505-56-251-56-513-175v2344z" transform="scale(.01563)"/>
                </defs>
                <use xlink:href="#DejaVuSans-32"/>
                <use xlink:href="#DejaVuSans-35" x="63.623"/>
                <use xlink:href="#DejaVuSans-31" x="127.246"/>
            </g>
        </g>
    </g>
    <defs>
        <clipPath id="pe9f51aa217">
            <path d="M90 25.92h164.118v166.32H90z"/>
        </clipPath>
        <clipPath id="p5d80b8d94a">
            <path d="M286.941 25.92h164.118v166.32H286.941z"/>
        </clipPath>
        <clipPath id="pd450f92a67">
            <path d="M483.882 25.92H648v166.32H483.882z"/>
        </clipPath>
    </defs>
</svg>
