<svg xmlns="http://www.w3.org/2000/svg" xmlns:xlink="http://www.w3.org/1999/xlink" width="960" height="768" viewBox="0 0 720 576"><defs><style>*{stroke-linejoin:round;stroke-linecap:butt}</style></defs><g id="figure_1"><path id="patch_1" d="M0 576h720V0H0z" style="fill:#fff"/><g id="axes_1"><path id="patch_2" d="M90 199.567h164.118V69.12H90z" style="fill:#fff"/><path id="patch_3" d="M90 199.567h82.059v-32.214H90z" clip-path="url(#p56ed93fe0d)" style="fill:#0a5"/><path id="patch_4" d="M172.059 199.567h82.059V69.12h-82.06z" clip-path="url(#p56ed93fe0d)" style="fill:#e90"/><g id="matplotlib.axis_2"><g id="ytick_1"><g id="line2d_1"><defs><path id="m843902de0d" d="M0 0h-3.5" style="stroke:#000;stroke-width:.8"/></defs><use xlink:href="#m843902de0d" x="90" y="199.567" style="stroke:#000;stroke-width:.8"/></g><g id="text_1" transform="matrix(.1 0 0 -.1 76.638 203.366)"><defs><path id="DejaVuSans-30" d="M2034 4250q-487 0-733-480-245-479-245-1442 0-959 245-1439 246-480 733-480 491 0 736 480 246 480 246 1439 0 963-246 1442-245 480-736 480zm0 500q785 0 1199-621 414-620 414-1801 0-1178-414-1799Q2819-91 2034-91q-784 0-1198 620-414 621-414 1799 0 1181 414 1801 414 621 1198 621z" transform="scale(.01563)"/></defs><use xlink:href="#DejaVuSans-30"/></g></g><g id="ytick_2"><use xlink:href="#m843902de0d" id="line2d_2" x="90" y="160.435" style="stroke:#000;stroke-width:.8"/><g id="text_2" transform="matrix(.1 0 0 -.1 76.638 164.234)"><defs><path id="DejaVuSans-35" d="M691 4666h2478v-532H1269V2991q137 47 274 70 138 23 276 23 781 0 1237-428 457-428 457-1159 0-753-469-1171Q2575-91 1722-91q-294 0-599 50Q819 9 494 109v635q281-153 581-228t634-75q541 0 856 284 316 284 316 772 0 487-316 771-315 285-856 285-253 0-505-56-251-56-513-175v2344z" transform="scale(.01563)"/></defs><use xlink:href="#DejaVuSans-35"/></g></g><g id="ytick_3"><use xlink:href="#m843902de0d" id="line2d_3" x="90" y="121.302" style="stroke:#000;stroke-width:.8"/><g id="text_3" transform="matrix(.1 0 0 -.1 70.275 125.101)"><defs><path id="DejaVuSans-31" d="M794 531h1031v3560L703 3866v575l1116 225h631V531h1031V0H794v531z" transform="scale(.01563)"/></defs><use xlink:href="#DejaVuSans-31"/><use xlink:href="#DejaVuSans-30" x="63.623"/></g></g><g id="ytick_4"><use xlink:href="#m843902de0d" id="line2d_4" x="90" y="82.169" style="stroke:#000;stroke-width:.8"/><g id="text_4" transform="matrix(.1 0 0 -.1 70.275 85.969)"><use xlink:href="#DejaVuSans-31"/><use xlink:href="#DejaVuSans-35" x="63.623"/></g></g><g id="text_5" transform="matrix(0 -.1 -.1 0 64.195 196.851)"><defs><path id="DejaVuSans-Bold-63" d="M3366 3391v-913q-228 156-458 231t-477 75q-468 0-729-273t-261-764q0-491 261-765 261-273 729-273 263 0 499 78 236 79 436 232V103Q3103 6 2833-42q-270-49-542-49-947 0-1482 486-534 486-534 1352t534 1351q535 486 1482 486 275 0 542-48t533-145z" transform="scale(.01563)"/><path id="DejaVuSans-Bold-6f" d="M2203 2784q-372 0-567-267t-195-770q0-503 195-771 195-267 567-267 366 0 559 267 194 268 194 771t-194 770q-193 267-559 267zm0 800q903 0 1411-488 508-487 508-1349 0-863-508-1351Q3106-91 2203-91q-906 0-1417 487-511 488-511 1351 0 862 511 1349 511 488 1417 488z" transform="scale(.01563)"/><path id="DejaVuSans-Bold-6d" d="M3781 2919q213 325 505 495t642 170q603 0 919-372 316-371 316-1081V0H5038v1825q3 41 4 84 2 44 2 125 0 372-110 539-109 168-353 168-318 0-492-263-173-262-180-759V0H2784v1825q0 581-100 748-100 168-356 168-322 0-497-264t-175-755V0H531v3500h1125v-512q207 296 474 446t589 150q362 0 640-175 279-175 422-490z" transform="scale(.01563)"/><path id="DejaVuSans-Bold-70" d="M1656 506v-1837H538v4831h1118v-512q232 306 513 451t647 145q647 0 1062-514 416-514 416-1323T3878 423Q3463-91 2816-91q-366 0-647 145-281 146-513 452zm744 2266q-359 0-552-264-192-264-192-761t192-761q193-264 552-264t548 262q190 263 190 763t-190 762q-189 263-548 263z" transform="scale(.01563)"/><path id="DejaVuSans-Bold-72" d="M3138 2547q-147 69-293 101-145 33-292 33-431 0-664-277-233-276-233-791V0H538v3500h1118v-575q216 344 495 501 280 158 671 158 56 0 121-5 66-4 191-20l4-1012z" transform="scale(.01563)"/><path id="DejaVuSans-Bold-65" d="M4031 1759v-318H1416q40-394 284-591t681-197q353 0 723 105 371 105 762 317V213Q3469 63 3072-14t-794-77q-950 0-1477 483-526 483-526 1355 0 856 517 1346 517 491 1424 491 825 0 1320-497 495-496 495-1328zm-1150 372q0 319-186 514-186 196-486 196-325 0-528-183t-253-527h1453z" transform="scale(.01563)"/><path id="DejaVuSans-Bold-73" d="M3272 3391v-850q-359 150-694 225-334 75-631 75-319 0-474-80-154-80-154-245 0-135 117-207 117-71 420-106l197-28q860-109 1156-359 297-250 297-785 0-559-413-841Q2681-91 1863-91q-347 0-718 55-370 55-761 164v850q335-162 686-244 352-81 714-81 329 0 494 90 166 91 166 270 0 150-114 223t-455 114l-197 25q-747 94-1047 347t-300 769q0 556 381 824 382 269 1169 269 310 0 650-47 341-46 741-146z" transform="scale(.01563)"/><path id="DejaVuSans-Bold-64" d="M2919 2988v1875h1125V0H2919v506q-231-309-510-453-278-144-643-144-647 0-1063 514-415 515-415 1324t415 1323q416 514 1063 514 362 0 642-145t511-451zM2181 722q360 0 549 262 189 263 189 763t-189 762q-189 263-549 263-356 0-545-263-189-262-189-762t189-763q189-262 545-262z" transform="scale(.01563)"/><path id="DejaVuSans-Bold-69" d="M538 3500h1118V0H538v3500zm0 1363h1118v-913H538v913z" transform="scale(.01563)"/><path id="DejaVuSans-Bold-7a" d="M366 3500h3053v-781L1575 800h1844V0H288v781l1843 1919H366v800z" transform="scale(.01563)"/><path id="DejaVuSans-Bold-2f" d="M1644 4666h694L691-594H0l1644 5260z" transform="scale(.01563)"/><path id="DejaVuSans-Bold-4d" d="M588 4666h1531l1062-2497 1069 2497h1528V0H4641v3413L3566 897h-763L1728 3413V0H588v4666z" transform="scale(.01563)"/><path id="DejaVuSans-Bold-42" d="M2456 2859q285 0 431 125 147 125 147 369 0 241-147 367-146 127-431 127h-665v-988h665zm41-2040q362 0 545 153t183 462q0 304-181 455-181 152-547 152h-706V819h706zm1119 1678q387-113 599-416 213-303 213-743 0-675-456-1007Q3516 0 2584 0H588v4666h1806q972 0 1408-294t436-941q0-340-160-579-159-239-462-355z" transform="scale(.01563)"/></defs><use xlink:href="#DejaVuSans-Bold-63"/><use xlink:href="#DejaVuSans-Bold-6f" x="59.277"/><use xlink:href="#DejaVuSans-Bold-6d" x="127.979"/><use xlink:href="#DejaVuSans-Bold-70" x="232.178"/><use xlink:href="#DejaVuSans-Bold-72" x="303.76"/><use xlink:href="#DejaVuSans-Bold-65" x="353.076"/><use xlink:href="#DejaVuSans-Bold-73" x="420.898"/><use xlink:href="#DejaVuSans-Bold-73" x="480.42"/><use xlink:href="#DejaVuSans-Bold-65" x="539.941"/><use xlink:href="#DejaVuSans-Bold-64" x="607.764"/><use xlink:href="#DejaVuSans-Bold-20" x="679.346"/><use xlink:href="#DejaVuSans-Bold-73" x="714.16"/><use xlink:href="#DejaVuSans-Bold-69" x="773.682"/><use xlink:href="#DejaVuSans-Bold-7a" x="807.959"/><use xlink:href="#DejaVuSans-Bold-65" x="866.162"/><use xlink:href="#DejaVuSans-Bold-20" x="933.984"/><use xlink:href="#DejaVuSans-Bold-2f" x="968.799"/><use xlink:href="#DejaVuSans-Bold-20" x="1005.322"/><use xlink:href="#DejaVuSans-Bold-4d" x="1040.137"/><use xlink:href="#DejaVuSans-Bold-69" x="1139.648"/><use xlink:href="#DejaVuSans-Bold-42" x="1173.926"/></g></g><path id="patch_5" d="M90 199.567V69.12" style="fill:none;stroke:#000;stroke-width:.8;stroke-linejoin:miter;stroke-linecap:square"/><path id="patch_6" d="M90 199.567h164.118" style="fill:none;stroke:#000;stroke-width:.8;stroke-linejoin:miter;stroke-linecap:square"/><g id="legend_1"><path id="patch_7" d="M97 106.476h95.077q2 0 2-2V76.12q0-2-2-2H97q-2 0-2 2v28.356q0 2 2 2z" style="fill:#fff;opacity:.8;stroke:#ccc;stroke-linejoin:miter"/><path id="patch_8" d="M99 85.718h20v-7H99z" style="fill:#0a5"/><g id="text_6" transform="matrix(.1 0 0 -.1 127 85.718)"><defs><path id="DejaVuSans-70" d="M1159 525v-1856H581v4831h578v-531q182 312 458 463 277 152 661 152 638 0 1036-506 399-506 399-1331T3314 415Q2916-91 2278-91q-384 0-661 152-276 152-458 464zm1957 1222q0 634-261 995t-717 361q-457 0-718-361t-261-995q0-634 261-995t718-361q456 0 717 361t261 995z" transform="scale(.01563)"/><path id="DejaVuSans-63" d="M3122 3366v-538q-244 135-489 202t-495 67q-560 0-870-355-309-354-309-995t309-996q310-354 870-354 250 0 495 67t489 202V134Q2881 22 2623-34q-257-57-548-57-791 0-1257 497-465 497-465 1341 0 856 470 1346 471 491 1290 491 265 0 518-55 253-54 491-163z" transform="scale(.01563)"/><path id="DejaVuSans-6f" d="M1959 3097q-462 0-731-361t-269-989q0-628 267-989 268-361 733-361 460 0 728 362 269 363 269 988 0 622-269 986-268 364-728 364zm0 487q750 0 1178-488 429-487 429-1349 0-859-429-1349Q2709-91 1959-91q-753 0-1180 489-426 490-426 1349 0 862 426 1349 427 488 1180 488z" transform="scale(.01563)"/></defs><use xlink:href="#DejaVuSans-70"/><use xlink:href="#DejaVuSans-63" x="63.477"/><use xlink:href="#DejaVuSans-6f" x="118.457"/></g><path id="patch_9" d="M99 100.397h20v-7H99z" style="fill:#e90"/><g id="text_7" transform="matrix(.1 0 0 -.1 127 100.397)"><defs><path id="DejaVuSans-7a" d="M353 3500h2731v-525L922 459h2162V0H275v525l2163 2516H353v459z" transform="scale(.01563)"/><path id="DejaVuSans-73" d="M2834 3397v-544q-243 125-506 187-262 63-544 63-428 0-642-131t-214-394q0-200 153-314t616-217l197-44q612-131 870-370t258-667q0-488-386-773Q2250-91 1575-91q-281 0-586 55T347 128v594q319-166 628-249 309-82 613-82 406 0 624 139 219 139 219 392 0 234-158 359-157 125-692 241l-200 47q-534 112-772 345-237 233-237 639 0 494 350 762 350 269 994 269 318 0 599-47 282-46 519-140z" transform="scale(.01563)"/><path id="DejaVuSans-74" d="M1172 4494v-994h1184v-447H1172V1153q0-428 117-550t477-122h590V0h-590q-666 0-919 248-253 249-253 905v1900H172v447h422v994h578z" transform="scale(.01563)"/><path id="DejaVuSans-64" d="M2906 2969v1894h575V0h-575v525q-181-312-458-464-276-152-664-152-634 0-1033 506-398 507-398 1332t398 1331q399 506 1033 506 388 0 664-152 277-151 458-463zM947 1747q0-634 261-995t717-361q456 0 718 361 263 361 263 995t-263 995q-262 361-718 361t-717-361q-261-361-261-995z" transform="scale(.01563)"/><path id="DejaVuSans-2e" d="M684 794h660V0H684v794z" transform="scale(.01563)"/><path id="DejaVuSans-61" d="M2194 1759q-697 0-966-159t-269-544q0-306 202-486 202-179 548-179 479 0 768 339t289 901v128h-572zm1147 238V0h-575v531q-197-318-491-470T1556-91q-537 0-855 302-317 302-317 808 0 590 395 890 396 300 1180 300h807v57q0 397-261 614t-733 217q-300 0-585-72-284-72-546-216v532q315 122 612 182 297 61 578 61 760 0 1135-394 375-393 375-1193z" transform="scale(.01563)"/><path id="DejaVuSans-72" d="M2631 2963q-97 56-211 82-114 27-251 27-488 0-749-317t-261-911V0H581v3500h578v-544q182 319 472 473 291 155 707 155 59 0 131-8 72-7 159-23l3-590z" transform="scale(.01563)"/><path id="DejaVuSans-71" d="M947 1747q0-634 261-995t717-361q456 0 718 361 263 361 263 995t-263 995q-262 361-718 361t-717-361q-261-361-261-995zM2906 525q-181-312-458-464-276-152-664-152-634 0-1033 506-398 507-398 1332t398 1331q399 506 1033 506 388 0 664-152 277-151 458-463v531h575v-4831h-575V525z" transform="scale(.01563)"/><path id="DejaVuSans-75" d="M544 1381v2119h575V1403q0-497 193-746 194-248 582-248 465 0 735 297 271 297 271 810v1984h575V0h-575v538q-209-319-486-474-276-155-642-155-603 0-916 375-312 375-312 1097zm1447 2203z" transform="scale(.01563)"/><path id="DejaVuSans-65" d="M3597 1894v-281H953q38-594 358-905t892-311q331 0 642 81t618 244V178Q3153 47 2828-22t-659-69q-838 0-1327 487-489 488-489 1320 0 859 464 1363 464 505 1252 505 706 0 1117-455 411-454 411-1235zm-575 169q-6 471-264 752-258 282-683 282-481 0-770-272t-333-766l2050 4z" transform="scale(.01563)"/></defs><use xlink:href="#DejaVuSans-7a"/><use xlink:href="#DejaVuSans-73" x="52.49"/><use xlink:href="#DejaVuSans-74" x="104.59"/><use xlink:href="#DejaVuSans-64" x="143.799"/><use xlink:href="#DejaVuSans-2e" x="207.275"/><use xlink:href="#DejaVuSans-70" x="239.063"/><use xlink:href="#DejaVuSans-61" x="302.539"/><use xlink:href="#DejaVuSans-72" x="363.818"/><use xlink:href="#DejaVuSans-71" x="403.182"/><use xlink:href="#DejaVuSans-75" x="466.658"/><use xlink:href="#DejaVuSans-65" x="530.037"/><use xlink:href="#DejaVuSans-74" x="591.561"/></g></g></g><g id="axes_2"><path id="patch_10" d="M286.941 199.567H451.06V69.12H286.94z" style="fill:#fff"/><path id="patch_11" d="M286.941 199.567H369v-98.785h-82.059z" clip-path="url(#p23d560de2c)" style="fill:#0a5"/><path id="patch_12" d="M369 199.567h82.059V69.12H369z" clip-path="url(#p23d560de2c)" style="fill:#e90"/><g id="matplotlib.axis_4"><g id="ytick_5"><use xlink:href="#m843902de0d" id="line2d_5" x="286.941" y="199.567" style="stroke:#000;stroke-width:.8"/><use xlink:href="#DejaVuSans-30" id="text_8" transform="matrix(.1 0 0 -.1 273.579 203.366)"/></g><g id="ytick_6"><use xlink:href="#m843902de0d" id="line2d_6" x="286.941" y="171.817" style="stroke:#000;stroke-width:.8"/><g id="text_9" transform="matrix(.1 0 0 -.1 260.854 175.616)"><use xlink:href="#DejaVuSans-31"/><use xlink:href="#DejaVuSans-30" x="63.623"/><use xlink:href="#DejaVuSans-30" x="127.246"/></g></g><g id="ytick_7"><use xlink:href="#m843902de0d" id="line2d_7" x="286.941" y="144.067" style="stroke:#000;stroke-width:.8"/><g id="text_10" transform="matrix(.1 0 0 -.1 260.854 147.866)"><defs><path id="DejaVuSans-32" d="M1228 531h2203V0H469v531q359 372 979 998 621 627 780 809 303 340 423 576 121 236 121 464 0 372-261 606-261 235-680 235-297 0-627-103-329-103-704-313v638q381 153 712 231 332 78 607 78 725 0 1156-363 431-362 431-968 0-288-108-546-107-257-392-607-78-91-497-524-418-433-1181-1211z" transform="scale(.01563)"/></defs><use xlink:href="#DejaVuSans-32"/><use xlink:href="#DejaVuSans-30" x="63.623"/><use xlink:href="#DejaVuSans-30" x="127.246"/></g></g><g id="ytick_8"><use xlink:href="#m843902de0d" id="line2d_8" x="286.941" y="116.317" style="stroke:#000;stroke-width:.8"/><g id="text_11" transform="matrix(.1 0 0 -.1 260.854 120.116)"><defs><path id="DejaVuSans-33" d="M2597 2516q453-97 707-404 255-306 255-756 0-690-475-1069Q2609-91 1734-91q-293 0-604 58T488 141v609q262-153 574-231 313-78 654-78 593 0 904 234t311 681q0 413-289 645-289 233-804 233h-544v519h569q465 0 712 186t247 536q0 359-255 551-254 193-729 193-260 0-557-57-297-56-653-174v562q360 100 674 150t592 50q719 0 1137-327 419-326 419-882 0-388-222-655t-631-370z" transform="scale(.01563)"/></defs><use xlink:href="#DejaVuSans-33"/><use xlink:href="#DejaVuSans-30" x="63.623"/><use xlink:href="#DejaVuSans-30" x="127.246"/></g></g><g id="ytick_9"><use xlink:href="#m843902de0d" id="line2d_9" x="286.941" y="88.567" style="stroke:#000;stroke-width:.8"/><g id="text_12" transform="matrix(.1 0 0 -.1 260.854 92.366)"><defs><path id="DejaVuSans-34" d="M2419 4116 825 1625h1594v2491zm-166 550h794V1625h666v-525h-666V0h-628v1100H313v609l1940 2957z" transform="scale(.01563)"/></defs><use xlink:href="#DejaVuSans-34"/><use xlink:href="#DejaVuSans-30" x="63.623"/><use xlink:href="#DejaVuSans-30" x="127.246"/></g></g></g><path id="patch_13" d="M286.941 199.567V69.12" style="fill:none;stroke:#000;stroke-width:.8;stroke-linejoin:miter;stroke-linecap:square"/><path id="patch_14" d="M286.941 199.567H451.06" style="fill:none;stroke:#000;stroke-width:.8;stroke-linejoin:miter;stroke-linecap:square"/></g><g id="axes_3"><path id="patch_15" d="M483.882 199.567H648V69.12H483.882z" style="fill:#fff"/><path id="patch_16" d="M483.882 199.567h82.06v-76.199h-82.06z" clip-path="url(#pe4c75bd2f4)" style="fill:#0a5"/><path id="patch_17" d="M565.941 199.567H648V69.12h-82.059z" clip-path="url(#pe4c75bd2f4)" style="fill:#e90"/><g id="matplotlib.axis_6"><g id="ytick_10"><use xlink:href="#m843902de0d" id="line2d_10" x="483.882" y="199.567" style="stroke:#000;stroke-width:.8"/><use xlink:href="#DejaVuSans-30" id="text_13" transform="matrix(.1 0 0 -.1 470.52 203.366)"/></g><g id="ytick_11"><use xlink:href="#m843902de0d" id="line2d_11" x="483.882" y="175.701" style="stroke:#000;stroke-width:.8"/><g id="text_14" transform="matrix(.1 0 0 -.1 457.795 179.5)"><use xlink:href="#DejaVuSans-32"/><use xlink:href="#DejaVuSans-30" x="63.623"/><use xlink:href="#DejaVuSans-30" x="127.246"/></g></g><g id="ytick_12"><use xlink:href="#m843902de0d" id="line2d_12" x="483.882" y="151.835" style="stroke:#000;stroke-width:.8"/><g id="text_15" transform="matrix(.1 0 0 -.1 457.795 155.634)"><use xlink:href="#DejaVuSans-34"/><use xlink:href="#DejaVuSans-30" x="63.623"/><use xlink:href="#DejaVuSans-30" x="127.246"/></g></g><g id="ytick_13"><use xlink:href="#m843902de0d" id="line2d_13" x="483.882" y="127.969" style="stroke:#000;stroke-width:.8"/><g id="text_16" transform="matrix(.1 0 0 -.1 457.795 131.768)"><defs><path id="DejaVuSans-36" d="M2113 2584q-425 0-674-291-248-290-248-796 0-503 248-796 249-292 674-292t673 292q248 293 248 796 0 506-248 796-248 291-673 291zm1253 1979v-575q-238 112-480 171-242 60-480 60-625 0-955-422-329-422-376-1275 184 272 462 417 279 145 613 145 703 0 1111-427 408-426 408-1160 0-719-425-1154Q2819-91 2113-91q-810 0-1238 620-428 621-428 1799 0 1106 525 1764t1409 658q238 0 480-47t505-140z" transform="scale(.01563)"/></defs><use xlink:href="#DejaVuSans-36"/><use xlink:href="#DejaVuSans-30" x="63.623"/><use xlink:href="#DejaVuSans-30" x="127.246"/></g></g><g id="ytick_14"><use xlink:href="#m843902de0d" id="line2d_14" x="483.882" y="104.103" style="stroke:#000;stroke-width:.8"/><g id="text_17" transform="matrix(.1 0 0 -.1 457.795 107.902)"><defs><path id="DejaVuSans-38" d="M2034 2216q-450 0-708-241-257-241-257-662 0-422 257-663 258-241 708-241t709 242q260 243 260 662 0 421-258 662-257 241-711 241zm-631 268q-406 100-633 378-226 279-226 679 0 559 398 884 399 325 1092 325 697 0 1094-325t397-884q0-400-227-679-226-278-629-378 456-106 710-416 255-309 255-755 0-679-414-1042Q2806-91 2034-91q-771 0-1186 362-414 363-414 1042 0 446 256 755 257 310 713 416zm-231 997q0-362 226-565 227-203 636-203 407 0 636 203 230 203 230 565 0 363-230 566-229 203-636 203-409 0-636-203-226-203-226-566z" transform="scale(.01563)"/></defs><use xlink:href="#DejaVuSans-38"/><use xlink:href="#DejaVuSans-30" x="63.623"/><use xlink:href="#DejaVuSans-30" x="127.246"/></g></g><g id="ytick_15"><use xlink:href="#m843902de0d" id="line2d_15" x="483.882" y="80.237" style="stroke:#000;stroke-width:.8"/><g id="text_18" transform="matrix(.1 0 0 -.1 451.432 84.036)"><use xlink:href="#DejaVuSans-31"/><use xlink:href="#DejaVuSans-30" x="63.623"/><use xlink:href="#DejaVuSans-30" x="127.246"/><use xlink:href="#DejaVuSans-30" x="190.869"/></g></g></g><path id="patch_18" d="M483.882 199.567V69.12" style="fill:none;stroke:#000;stroke-width:.8;stroke-linejoin:miter;stroke-linecap:square"/><path id="patch_19" d="M483.882 199.567H648" style="fill:none;stroke:#000;stroke-width:.8;stroke-linejoin:miter;stroke-linecap:square"/></g><g id="axes_4"><path id="patch_20" d="M90 356.104h164.118V225.656H90z" style="fill:#fff"/><path id="patch_21" d="M90 356.104h82.059V252.523H90z" clip-path="url(#pcbba9a0df7)" style="fill:#0a5"/><path id="patch_22" d="M172.059 356.104h82.059V225.656h-82.06z" clip-path="url(#pcbba9a0df7)" style="fill:#e90"/><g id="matplotlib.axis_8"><g id="ytick_16"><use xlink:href="#m843902de0d" id="line2d_16" x="90" y="356.104" style="stroke:#000;stroke-width:.8"/><g id="text_19" transform="matrix(.1 0 0 -.1 60.734 359.903)"><use xlink:href="#DejaVuSans-30"/><use xlink:href="#DejaVuSans-2e" x="63.623"/><use xlink:href="#DejaVuSans-30" x="95.41"/><use xlink:href="#DejaVuSans-30" x="159.033"/></g></g><g id="ytick_17"><use xlink:href="#m843902de0d" id="line2d_17" x="90" y="321.429" style="stroke:#000;stroke-width:.8"/><g id="text_20" transform="matrix(.1 0 0 -.1 60.734 325.228)"><use xlink:href="#DejaVuSans-30"/><use xlink:href="#DejaVuSans-2e" x="63.623"/><use xlink:href="#DejaVuSans-30" x="95.41"/><use xlink:href="#DejaVuSans-35" x="159.033"/></g></g><g id="ytick_18"><use xlink:href="#m843902de0d" id="line2d_18" x="90" y="286.754" style="stroke:#000;stroke-width:.8"/><g id="text_21" transform="matrix(.1 0 0 -.1 60.734 290.553)"><use xlink:href="#DejaVuSans-30"/><use xlink:href="#DejaVuSans-2e" x="63.623"/><use xlink:href="#DejaVuSans-31" x="95.41"/><use xlink:href="#DejaVuSans-30" x="159.033"/></g></g><g id="ytick_19"><use xlink:href="#m843902de0d" id="line2d_19" x="90" y="252.079" style="stroke:#000;stroke-width:.8"/><g id="text_22" transform="matrix(.1 0 0 -.1 60.734 255.878)"><use xlink:href="#DejaVuSans-30"/><use xlink:href="#DejaVuSans-2e" x="63.623"/><use xlink:href="#DejaVuSans-31" x="95.41"/><use xlink:href="#DejaVuSans-35" x="159.033"/></g></g><g id="text_23" transform="matrix(0 -.1 -.1 0 54.655 349.315)"><defs><path id="DejaVuSans-Bold-6e" d="M4056 2131V0H2931v1631q0 453-20 625t-70 253q-66 110-179 171-112 61-256 61-350 0-550-271-200-270-200-748V0H538v3500h1118v-512q253 306 537 451 285 145 629 145 606 0 920-372 314-371 314-1081z" transform="scale(.01563)"/><path id="DejaVuSans-Bold-74" d="M1759 4494v-994h1154v-800H1759V1216q0-244 97-330t385-86h575V0h-960q-662 0-939 276-276 277-276 940v1484H84v800h557v994h1118z" transform="scale(.01563)"/></defs><use xlink:href="#DejaVuSans-Bold-63"/><use xlink:href="#DejaVuSans-Bold-6f" x="59.277"/><use xlink:href="#DejaVuSans-Bold-6d" x="127.979"/><use xlink:href="#DejaVuSans-Bold-70" x="232.178"/><use xlink:href="#DejaVuSans-Bold-72" x="303.76"/><use xlink:href="#DejaVuSans-Bold-65" x="353.076"/><use xlink:href="#DejaVuSans-Bold-73" x="420.898"/><use xlink:href="#DejaVuSans-Bold-73" x="480.42"/><use xlink:href="#DejaVuSans-Bold-69" x="539.941"/><use xlink:href="#DejaVuSans-Bold-6f" x="574.219"/><use xlink:href="#DejaVuSans-Bold-6e" x="642.92"/><use xlink:href="#DejaVuSans-Bold-20" x="714.111"/><use xlink:href="#DejaVuSans-Bold-74" x="748.926"/><use xlink:href="#DejaVuSans-Bold-69" x="796.729"/><use xlink:href="#DejaVuSans-Bold-6d" x="831.006"/><use xlink:href="#DejaVuSans-Bold-65" x="935.205"/><use xlink:href="#DejaVuSans-Bold-20" x="1003.027"/><use xlink:href="#DejaVuSans-Bold-2f" x="1037.842"/><use xlink:href="#DejaVuSans-Bold-20" x="1074.365"/><use xlink:href="#DejaVuSans-Bold-73" x="1109.18"/></g></g><path id="patch_23" d="M90 356.104V225.656" style="fill:none;stroke:#000;stroke-width:.8;stroke-linejoin:miter;stroke-linecap:square"/><path id="patch_24" d="M90 356.104h164.118" style="fill:none;stroke:#000;stroke-width:.8;stroke-linejoin:miter;stroke-linecap:square"/></g><g id="axes_5"><path id="patch_25" d="M286.941 356.104H451.06V225.656H286.94z" style="fill:#fff"/><path id="patch_26" d="M286.941 356.104H369V225.656h-82.059z" clip-path="url(#pbfafd5174a)" style="fill:#0a5"/><path id="patch_27" d="M369 356.104h82.059v-90.807H369z" clip-path="url(#pbfafd5174a)" style="fill:#e90"/><g id="matplotlib.axis_10"><g id="ytick_20"><use xlink:href="#m843902de0d" id="line2d_20" x="286.941" y="356.104" style="stroke:#000;stroke-width:.8"/><use xlink:href="#DejaVuSans-30" id="text_24" transform="matrix(.1 0 0 -.1 273.579 359.903)"/></g><g id="ytick_21"><use xlink:href="#m843902de0d" id="line2d_21" x="286.941" y="322.611" style="stroke:#000;stroke-width:.8"/><use xlink:href="#DejaVuSans-32" id="text_25" transform="matrix(.1 0 0 -.1 273.579 326.41)"/></g><g id="ytick_22"><use xlink:href="#m843902de0d" id="line2d_22" x="286.941" y="289.119" style="stroke:#000;stroke-width:.8"/><use xlink:href="#DejaVuSans-34" id="text_26" transform="matrix(.1 0 0 -.1 273.579 292.918)"/></g><g id="ytick_23"><use xlink:href="#m843902de0d" id="line2d_23" x="286.941" y="255.627" style="stroke:#000;stroke-width:.8"/><use xlink:href="#DejaVuSans-36" id="text_27" transform="matrix(.1 0 0 -.1 273.579 259.426)"/></g></g><path id="patch_28" d="M286.941 356.104V225.656" style="fill:none;stroke:#000;stroke-width:.8;stroke-linejoin:miter;stroke-linecap:square"/><path id="patch_29" d="M286.941 356.104H451.06" style="fill:none;stroke:#000;stroke-width:.8;stroke-linejoin:miter;stroke-linecap:square"/></g><g id="axes_6"><path id="patch_30" d="M483.882 356.104H648V225.656H483.882z" style="fill:#fff"/><path id="patch_31" d="M483.882 356.104h82.06V238.25h-82.06z" clip-path="url(#p0ea597acbd)" style="fill:#0a5"/><path id="patch_32" d="M565.941 356.104H648V225.656h-82.059z" clip-path="url(#p0ea597acbd)" style="fill:#e90"/><g id="matplotlib.axis_12"><g id="ytick_24"><use xlink:href="#m843902de0d" id="line2d_24" x="483.882" y="356.104" style="stroke:#000;stroke-width:.8"/><use xlink:href="#DejaVuSans-30" id="text_28" transform="matrix(.1 0 0 -.1 470.52 359.903)"/></g><g id="ytick_25"><use xlink:href="#m843902de0d" id="line2d_25" x="483.882" y="316.074" style="stroke:#000;stroke-width:.8"/><use xlink:href="#DejaVuSans-35" id="text_29" transform="matrix(.1 0 0 -.1 470.52 319.873)"/></g><g id="ytick_26"><use xlink:href="#m843902de0d" id="line2d_26" x="483.882" y="276.044" style="stroke:#000;stroke-width:.8"/><g id="text_30" transform="matrix(.1 0 0 -.1 464.157 279.844)"><use xlink:href="#DejaVuSans-31"/><use xlink:href="#DejaVuSans-30" x="63.623"/></g></g><g id="ytick_27"><use xlink:href="#m843902de0d" id="line2d_27" x="483.882" y="236.015" style="stroke:#000;stroke-width:.8"/><g id="text_31" transform="matrix(.1 0 0 -.1 464.157 239.814)"><use xlink:href="#DejaVuSans-31"/><use xlink:href="#DejaVuSans-35" x="63.623"/></g></g></g><path id="patch_33" d="M483.882 356.104V225.656" style="fill:none;stroke:#000;stroke-width:.8;stroke-linejoin:miter;stroke-linecap:square"/><path id="patch_34" d="M483.882 356.104H648" style="fill:none;stroke:#000;stroke-width:.8;stroke-linejoin:miter;stroke-linecap:square"/></g><g id="axes_7"><path id="patch_35" d="M90 512.64h164.118V382.193H90z" style="fill:#fff"/><path id="patch_36" d="M90 512.64h82.059v-99.734H90z" clip-path="url(#pefaccbbef7)" style="fill:#0a5"/><path id="patch_37" d="M172.059 512.64h82.059V382.193h-82.06z" clip-path="url(#pefaccbbef7)" style="fill:#e90"/><g id="matplotlib.axis_13"><g id="text_32"><g transform="matrix(.1 0 0 -.1 143.174 524.238)"><defs><path id="DejaVuSans-Bold-61" d="M2106 1575q-350 0-527-119-176-118-176-350 0-212 142-333 143-120 396-120 315 0 531 226 216 227 216 568v128h-582zm1710 422V0H2688v519q-225-319-507-465-281-145-684-145-544 0-883 317-339 318-339 824 0 616 423 903 424 288 1330 288h660v87q0 266-210 389-209 124-653 124-359 0-669-72-309-72-575-216v853q360 88 722 133 363 45 725 45 947 0 1367-373 421-373 421-1214z" transform="scale(.01563)"/><path id="DejaVuSans-Bold-71" d="M2181 2772q-356 0-545-263-189-262-189-762t189-763q189-262 545-262 360 0 549 262 189 263 189 763t-189 762q-189 263-549 263zm738-2266q-231-309-510-453-278-144-643-144-647 0-1063 514-415 515-415 1324t415 1320q416 511 1063 511 365 0 643-144 279-143 510-453v519h1125v-4831H2919V506z" transform="scale(.01563)"/><path id="DejaVuSans-Bold-75" d="M500 1363v2137h1125v-350q0-284-3-714t-3-573q0-422 22-608t75-271q68-109 179-169 111-59 255-59 350 0 550 269t200 747v1728h1119V0H2900v506q-253-306-536-452-283-145-623-145-607 0-924 372T500 1363z" transform="scale(.01563)"/><path id="DejaVuSans-Bold-6c" d="M538 4863h1118V0H538v4863z" transform="scale(.01563)"/><path id="DejaVuSans-Bold-79" d="M78 3500h1119l941-2375 800 2375h1118L2584-331q-221-585-517-817-295-233-779-233H641v734h350q284 0 413 91 130 90 202 325l32 97L78 3500z" transform="scale(.01563)"/></defs><use xlink:href="#DejaVuSans-Bold-61"/><use xlink:href="#DejaVuSans-Bold-69" x="67.48"/><use xlink:href="#DejaVuSans-Bold-72" x="101.758"/><use xlink:href="#DejaVuSans-Bold-20" x="151.074"/><use xlink:href="#DejaVuSans-Bold-71" x="185.889"/><use xlink:href="#DejaVuSans-Bold-75" x="257.471"/><use xlink:href="#DejaVuSans-Bold-61" x="328.662"/><use xlink:href="#DejaVuSans-Bold-6c" x="396.143"/><use xlink:href="#DejaVuSans-Bold-69" x="430.42"/><use xlink:href="#DejaVuSans-Bold-74" x="464.697"/><use xlink:href="#DejaVuSans-Bold-79" x="512.5"/></g><g transform="matrix(.1 0 0 -.1 150.585 535.514)"><use xlink:href="#DejaVuSans-Bold-64"/><use xlink:href="#DejaVuSans-Bold-61" x="71.582"/><use xlink:href="#DejaVuSans-Bold-74" x="139.063"/><use xlink:href="#DejaVuSans-Bold-61" x="186.865"/><use xlink:href="#DejaVuSans-Bold-73" x="254.346"/><use xlink:href="#DejaVuSans-Bold-65" x="313.867"/><use xlink:href="#DejaVuSans-Bold-74" x="381.689"/></g></g></g><g id="matplotlib.axis_14"><g id="ytick_28"><use xlink:href="#m843902de0d" id="line2d_28" x="90" y="512.64" style="stroke:#000;stroke-width:.8"/><g id="text_33" transform="matrix(.1 0 0 -.1 60.734 516.44)"><use xlink:href="#DejaVuSans-30"/><use xlink:href="#DejaVuSans-2e" x="63.623"/><use xlink:href="#DejaVuSans-30" x="95.41"/><use xlink:href="#DejaVuSans-30" x="159.033"/></g></g><g id="ytick_29"><use xlink:href="#m843902de0d" id="line2d_29" x="90" y="474.635" style="stroke:#000;stroke-width:.8"/><g id="text_34" transform="matrix(.1 0 0 -.1 60.734 478.434)"><use xlink:href="#DejaVuSans-30"/><use xlink:href="#DejaVuSans-2e" x="63.623"/><use xlink:href="#DejaVuSans-30" x="95.41"/><use xlink:href="#DejaVuSans-31" x="159.033"/></g></g><g id="ytick_30"><use xlink:href="#m843902de0d" id="line2d_30" x="90" y="436.63" style="stroke:#000;stroke-width:.8"/><g id="text_35" transform="matrix(.1 0 0 -.1 60.734 440.43)"><use xlink:href="#DejaVuSans-30"/><use xlink:href="#DejaVuSans-2e" x="63.623"/><use xlink:href="#DejaVuSans-30" x="95.41"/><use xlink:href="#DejaVuSans-32" x="159.033"/></g></g><g id="ytick_31"><use xlink:href="#m843902de0d" id="line2d_31" x="90" y="398.625" style="stroke:#000;stroke-width:.8"/><g id="text_36" transform="matrix(.1 0 0 -.1 60.734 402.425)"><use xlink:href="#DejaVuSans-30"/><use xlink:href="#DejaVuSans-2e" x="63.623"/><use xlink:href="#DejaVuSans-30" x="95.41"/><use xlink:href="#DejaVuSans-33" x="159.033"/></g></g><g id="text_37" transform="matrix(0 -.1 -.1 0 54.655 512.822)"><use xlink:href="#DejaVuSans-Bold-64"/><use xlink:href="#DejaVuSans-Bold-65" x="71.582"/><use xlink:href="#DejaVuSans-Bold-63" x="139.404"/><use xlink:href="#DejaVuSans-Bold-6f" x="198.682"/><use xlink:href="#DejaVuSans-Bold-6d" x="267.383"/><use xlink:href="#DejaVuSans-Bold-70" x="371.582"/><use xlink:href="#DejaVuSans-Bold-72" x="443.164"/><use xlink:href="#DejaVuSans-Bold-65" x="492.48"/><use xlink:href="#DejaVuSans-Bold-73" x="560.303"/><use xlink:href="#DejaVuSans-Bold-73" x="619.824"/><use xlink:href="#DejaVuSans-Bold-69" x="679.346"/><use xlink:href="#DejaVuSans-Bold-6f" x="713.623"/><use xlink:href="#DejaVuSans-Bold-6e" x="782.324"/><use xlink:href="#DejaVuSans-Bold-20" x="853.516"/><use xlink:href="#DejaVuSans-Bold-74" x="888.33"/><use xlink:href="#DejaVuSans-Bold-69" x="936.133"/><use xlink:href="#DejaVuSans-Bold-6d" x="970.41"/><use xlink:href="#DejaVuSans-Bold-65" x="1074.609"/><use xlink:href="#DejaVuSans-Bold-20" x="1142.432"/><use xlink:href="#DejaVuSans-Bold-2f" x="1177.246"/><use xlink:href="#DejaVuSans-Bold-20" x="1213.77"/><use xlink:href="#DejaVuSans-Bold-73" x="1248.584"/></g></g><path id="patch_38" d="M90 512.64V382.193" style="fill:none;stroke:#000;stroke-width:.8;stroke-linejoin:miter;stroke-linecap:square"/><path id="patch_39" d="M90 512.64h164.118" style="fill:none;stroke:#000;stroke-width:.8;stroke-linejoin:miter;stroke-linecap:square"/></g><g id="axes_8"><path id="patch_40" d="M286.941 512.64H451.06V382.193H286.94z" style="fill:#fff"/><path id="patch_41" d="M286.941 512.64H369v-106.2h-82.059z" clip-path="url(#p011bdc87a2)" style="fill:#0a5"/><path id="patch_42" d="M369 512.64h82.059V382.193H369z" clip-path="url(#p011bdc87a2)" style="fill:#e90"/><g id="matplotlib.axis_15"><g id="text_38"><g transform="matrix(.1 0 0 -.1 358.297 524.238)"><defs><path id="DejaVuSans-Bold-78" d="M1422 1791 159 3500h1185l715-1037 725 1037h1185L2706 1797 4031 0H2847l-788 1106L1281 0H97l1325 1791z" transform="scale(.01563)"/></defs><use xlink:href="#DejaVuSans-Bold-74"/><use xlink:href="#DejaVuSans-Bold-61" x="47.803"/><use xlink:href="#DejaVuSans-Bold-78" x="115.283"/><use xlink:href="#DejaVuSans-Bold-69" x="179.785"/></g><g transform="matrix(.1 0 0 -.1 347.526 535.436)"><use xlink:href="#DejaVuSans-Bold-64"/><use xlink:href="#DejaVuSans-Bold-61" x="71.582"/><use xlink:href="#DejaVuSans-Bold-74" x="139.063"/><use xlink:href="#DejaVuSans-Bold-61" x="186.865"/><use xlink:href="#DejaVuSans-Bold-73" x="254.346"/><use xlink:href="#DejaVuSans-Bold-65" x="313.867"/><use xlink:href="#DejaVuSans-Bold-74" x="381.689"/></g></g></g><g id="matplotlib.axis_16"><g id="ytick_32"><use xlink:href="#m843902de0d" id="line2d_32" x="286.941" y="512.64" style="stroke:#000;stroke-width:.8"/><g id="text_39" transform="matrix(.1 0 0 -.1 257.676 516.44)"><use xlink:href="#DejaVuSans-30"/><use xlink:href="#DejaVuSans-2e" x="63.623"/><use xlink:href="#DejaVuSans-30" x="95.41"/><use xlink:href="#DejaVuSans-30" x="159.033"/></g></g><g id="ytick_33"><use xlink:href="#m843902de0d" id="line2d_33" x="286.941" y="487.37" style="stroke:#000;stroke-width:.8"/><g id="text_40" transform="matrix(.1 0 0 -.1 257.676 491.17)"><use xlink:href="#DejaVuSans-30"/><use xlink:href="#DejaVuSans-2e" x="63.623"/><use xlink:href="#DejaVuSans-32" x="95.41"/><use xlink:href="#DejaVuSans-35" x="159.033"/></g></g><g id="ytick_34"><use xlink:href="#m843902de0d" id="line2d_34" x="286.941" y="462.101" style="stroke:#000;stroke-width:.8"/><g id="text_41" transform="matrix(.1 0 0 -.1 257.676 465.9)"><use xlink:href="#DejaVuSans-30"/><use xlink:href="#DejaVuSans-2e" x="63.623"/><use xlink:href="#DejaVuSans-35" x="95.41"/><use xlink:href="#DejaVuSans-30" x="159.033"/></g></g><g id="ytick_35"><use xlink:href="#m843902de0d" id="line2d_35" x="286.941" y="436.831" style="stroke:#000;stroke-width:.8"/><g id="text_42" transform="matrix(.1 0 0 -.1 257.676 440.63)"><defs><path id="DejaVuSans-37" d="M525 4666h3000v-269L1831 0h-659l1594 4134H525v532z" transform="scale(.01563)"/></defs><use xlink:href="#DejaVuSans-30"/><use xlink:href="#DejaVuSans-2e" x="63.623"/><use xlink:href="#DejaVuSans-37" x="95.41"/><use xlink:href="#DejaVuSans-35" x="159.033"/></g></g><g id="ytick_36"><use xlink:href="#m843902de0d" id="line2d_36" x="286.941" y="411.561" style="stroke:#000;stroke-width:.8"/><g id="text_43" transform="matrix(.1 0 0 -.1 257.676 415.36)"><use xlink:href="#DejaVuSans-31"/><use xlink:href="#DejaVuSans-2e" x="63.623"/><use xlink:href="#DejaVuSans-30" x="95.41"/><use xlink:href="#DejaVuSans-30" x="159.033"/></g></g><g id="ytick_37"><use xlink:href="#m843902de0d" id="line2d_37" x="286.941" y="386.291" style="stroke:#000;stroke-width:.8"/><g id="text_44" transform="matrix(.1 0 0 -.1 257.676 390.09)"><use xlink:href="#DejaVuSans-31"/><use xlink:href="#DejaVuSans-2e" x="63.623"/><use xlink:href="#DejaVuSans-32" x="95.41"/><use xlink:href="#DejaVuSans-35" x="159.033"/></g></g></g><path id="patch_43" d="M286.941 512.64V382.193" style="fill:none;stroke:#000;stroke-width:.8;stroke-linejoin:miter;stroke-linecap:square"/><path id="patch_44" d="M286.941 512.64H451.06" style="fill:none;stroke:#000;stroke-width:.8;stroke-linejoin:miter;stroke-linecap:square"/></g><g id="axes_9"><path id="patch_45" d="M483.882 512.64H648V382.193H483.882z" style="fill:#fff"/><path id="patch_46" d="M483.882 512.64h82.06V400.814h-82.06z" clip-path="url(#p2103611833)" style="fill:#0a5"/><path id="patch_47" d="M565.941 512.64H648V382.193h-82.059z" clip-path="url(#p2103611833)" style="fill:#e90"/><g id="matplotlib.axis_17"><g id="text_45"><g transform="matrix(.1 0 0 -.1 546.626 524.238)"><use xlink:href="#DejaVuSans-Bold-72"/><use xlink:href="#DejaVuSans-Bold-2f" x="49.316"/><use xlink:href="#DejaVuSans-Bold-70" x="85.84"/><use xlink:href="#DejaVuSans-Bold-6c" x="157.422"/><use xlink:href="#DejaVuSans-Bold-61" x="191.699"/><use xlink:href="#DejaVuSans-Bold-63" x="259.18"/><use xlink:href="#DejaVuSans-Bold-65" x="318.457"/></g><g transform="matrix(.1 0 0 -.1 544.467 535.436)"><use xlink:href="#DejaVuSans-Bold-64"/><use xlink:href="#DejaVuSans-Bold-61" x="71.582"/><use xlink:href="#DejaVuSans-Bold-74" x="139.063"/><use xlink:href="#DejaVuSans-Bold-61" x="186.865"/><use xlink:href="#DejaVuSans-Bold-73" x="254.346"/><use xlink:href="#DejaVuSans-Bold-65" x="313.867"/><use xlink:href="#DejaVuSans-Bold-74" x="381.689"/></g></g></g><g id="matplotlib.axis_18"><g id="ytick_38"><use xlink:href="#m843902de0d" id="line2d_38" x="483.882" y="512.64" style="stroke:#000;stroke-width:.8"/><g id="text_46" transform="matrix(.1 0 0 -.1 460.98 516.44)"><use xlink:href="#DejaVuSans-30"/><use xlink:href="#DejaVuSans-2e" x="63.623"/><use xlink:href="#DejaVuSans-30" x="95.41"/></g></g><g id="ytick_39"><use xlink:href="#m843902de0d" id="line2d_39" x="483.882" y="487.702" style="stroke:#000;stroke-width:.8"/><g id="text_47" transform="matrix(.1 0 0 -.1 460.98 491.501)"><use xlink:href="#DejaVuSans-30"/><use xlink:href="#DejaVuSans-2e" x="63.623"/><use xlink:href="#DejaVuSans-35" x="95.41"/></g></g><g id="ytick_40"><use xlink:href="#m843902de0d" id="line2d_40" x="483.882" y="462.764" style="stroke:#000;stroke-width:.8"/><g id="text_48" transform="matrix(.1 0 0 -.1 460.98 466.564)"><use xlink:href="#DejaVuSans-31"/><use xlink:href="#DejaVuSans-2e" x="63.623"/><use xlink:href="#DejaVuSans-30" x="95.41"/></g></g><g id="ytick_41"><use xlink:href="#m843902de0d" id="line2d_41" x="483.882" y="437.826" style="stroke:#000;stroke-width:.8"/><g id="text_49" transform="matrix(.1 0 0 -.1 460.98 441.626)"><use xlink:href="#DejaVuSans-31"/><use xlink:href="#DejaVuSans-2e" x="63.623"/><use xlink:href="#DejaVuSans-35" x="95.41"/></g></g><g id="ytick_42"><use xlink:href="#m843902de0d" id="line2d_42" x="483.882" y="412.889" style="stroke:#000;stroke-width:.8"/><g id="text_50" transform="matrix(.1 0 0 -.1 460.98 416.688)"><use xlink:href="#DejaVuSans-32"/><use xlink:href="#DejaVuSans-2e" x="63.623"/><use xlink:href="#DejaVuSans-30" x="95.41"/></g></g><g id="ytick_43"><use xlink:href="#m843902de0d" id="line2d_43" x="483.882" y="387.951" style="stroke:#000;stroke-width:.8"/><g id="text_51" transform="matrix(.1 0 0 -.1 460.98 391.75)"><use xlink:href="#DejaVuSans-32"/><use xlink:href="#DejaVuSans-2e" x="63.623"/><use xlink:href="#DejaVuSans-35" x="95.41"/></g></g></g><path id="patch_48" d="M483.882 512.64V382.193" style="fill:none;stroke:#000;stroke-width:.8;stroke-linejoin:miter;stroke-linecap:square"/><path id="patch_49" d="M483.882 512.64H648" style="fill:none;stroke:#000;stroke-width:.8;stroke-linejoin:miter;stroke-linecap:square"/></g></g><defs><clipPath id="p56ed93fe0d"><path d="M90 69.12h164.118v130.447H90z"/></clipPath><clipPath id="p23d560de2c"><path d="M286.941 69.12h164.118v130.447H286.941z"/></clipPath><clipPath id="pe4c75bd2f4"><path d="M483.882 69.12H648v130.447H483.882z"/></clipPath><clipPath id="pcbba9a0df7"><path d="M90 225.656h164.118v130.447H90z"/></clipPath><clipPath id="pbfafd5174a"><path d="M286.941 225.656h164.118v130.447H286.941z"/></clipPath><clipPath id="p0ea597acbd"><path d="M483.882 225.656H648v130.447H483.882z"/></clipPath><clipPath id="pefaccbbef7"><path d="M90 382.193h164.118V512.64H90z"/></clipPath><clipPath id="p011bdc87a2"><path d="M286.941 382.193h164.118V512.64H286.941z"/></clipPath><clipPath id="p2103611833"><path d="M483.882 382.193H648V512.64H483.882z"/></clipPath></defs></svg>