<svg xmlns="http://www.w3.org/2000/svg" xmlns:xlink="http://www.w3.org/1999/xlink" width="1248" height="288" viewBox="0 0 936 216">
    <defs>
        <style>
            *{stroke-linejoin:round;stroke-linecap:butt}
        </style>
    </defs>
    <g id="figure_1">
        <path id="patch_1" d="M0 216h936V0H0z" style="fill:#fff"/>
        <g id="axes_1">
            <path id="patch_2" d="M117 192.24h213.353V25.92H117z" style="fill:#fff"/>
            <path id="patch_3" d="M117 192.24h71.118V25.92H117z" clip-path="url(#p2bf14fc452)" style="fill:#347269"/>
            <path id="patch_4" d="M188.118 192.24h71.117v-63.85h-71.117z" clip-path="url(#p2bf14fc452)" style="fill:#b70"/>
            <path id="patch_5" d="M259.235 192.24h71.118v-84.51h-71.118z" clip-path="url(#p2bf14fc452)" style="fill:#53c"/>
            <g id="matplotlib.axis_2">
                <g id="text_1">
                    <g transform="matrix(.1 0 0 -.1 23.69 95.802)">
                        <defs>
                            <path id="DejaVuSans-Bold-63" d="M3366 3391v-913q-228 156-458 231t-477 75q-468 0-729-273t-261-764 261-765q261-273 729-273 263 0 499 78 236 79 436 232V103Q3103 6 2833-42q-270-49-542-49-947 0-1482 486-534 486-534 1352t534 1351q535 486 1482 486 275 0 542-48t533-145" transform="scale(.01563)"/>
                            <path id="DejaVuSans-Bold-6f" d="M2203 2784q-372 0-567-267t-195-770 195-771q195-267 567-267 366 0 559 267 194 268 194 771t-194 770q-193 267-559 267m0 800q903 0 1411-488 508-487 508-1349 0-863-508-1351Q3106-91 2203-91q-906 0-1417 487-511 488-511 1351 0 862 511 1349 511 488 1417 488" transform="scale(.01563)"/>
                            <path id="DejaVuSans-Bold-6d" d="M3781 2919q213 325 505 495t642 170q603 0 919-372 316-371 316-1081V0H5038v1825q3 41 4 84 2 44 2 125 0 372-110 539-109 168-353 168-318 0-492-263-173-262-180-759V0H2784v1825q0 581-100 748-100 168-356 168-322 0-497-264t-175-755V0H531v3500h1125v-512q207 296 474 446t589 150q362 0 640-175 279-175 422-490" transform="scale(.01563)"/>
                            <path id="DejaVuSans-Bold-70" d="M1656 506v-1837H538v4831h1118v-512q232 306 513 451t647 145q647 0 1062-514 416-514 416-1323T3878 423Q3463-91 2816-91q-366 0-647 145-281 146-513 452m744 2266q-359 0-552-264-192-264-192-761t192-761q193-264 552-264t548 262q190 263 190 763t-190 762q-189 263-548 263" transform="scale(.01563)"/>
                            <path id="DejaVuSans-Bold-72" d="M3138 2547q-147 69-293 101-145 33-292 33-431 0-664-277-233-276-233-791V0H538v3500h1118v-575q216 344 495 501 280 158 671 158 56 0 121-5 66-4 191-20z" transform="scale(.01563)"/>
                            <path id="DejaVuSans-Bold-65" d="M4031 1759v-318H1416q40-394 284-591t681-197q353 0 723 105 371 105 762 317V213Q3469 63 3072-14t-794-77q-950 0-1477 483-526 483-526 1355 0 856 517 1346 517 491 1424 491 825 0 1320-497 495-496 495-1328m-1150 372q0 319-186 514-186 196-486 196-325 0-528-183t-253-527z" transform="scale(.01563)"/>
                            <path id="DejaVuSans-Bold-73" d="M3272 3391v-850q-359 150-694 225-334 75-631 75-319 0-474-80-154-80-154-245 0-135 117-207 117-71 420-106l197-28q860-109 1156-359 297-250 297-785 0-559-413-841Q2681-91 1863-91q-347 0-718 55-370 55-761 164v850q335-162 686-244 352-81 714-81 329 0 494 90 166 91 166 270 0 150-114 223t-455 114l-197 25q-747 94-1047 347t-300 769q0 556 381 824 382 269 1169 269 310 0 650-47 341-46 741-146" transform="scale(.01563)"/>
                            <path id="DejaVuSans-Bold-69" d="M538 3500h1118V0H538zm0 1363h1118v-913H538z" transform="scale(.01563)"/>
                            <path id="DejaVuSans-Bold-6e" d="M4056 2131V0H2931v1631q0 453-20 625t-70 253q-66 110-179 171-112 61-256 61-350 0-550-271-200-270-200-748V0H538v3500h1118v-512q253 306 537 451 285 145 629 145 606 0 920-372 314-371 314-1081" transform="scale(.01563)"/>
                        </defs>
                        <use xlink:href="#DejaVuSans-Bold-63"/>
                        <use xlink:href="#DejaVuSans-Bold-6f" x="59.277"/>
                        <use xlink:href="#DejaVuSans-Bold-6d" x="127.979"/>
                        <use xlink:href="#DejaVuSans-Bold-70" x="232.178"/>
                        <use xlink:href="#DejaVuSans-Bold-72" x="303.76"/>
                        <use xlink:href="#DejaVuSans-Bold-65" x="353.076"/>
                        <use xlink:href="#DejaVuSans-Bold-73" x="420.898"/>
                        <use xlink:href="#DejaVuSans-Bold-73" x="480.42"/>
                        <use xlink:href="#DejaVuSans-Bold-69" x="539.941"/>
                        <use xlink:href="#DejaVuSans-Bold-6f" x="574.219"/>
                        <use xlink:href="#DejaVuSans-Bold-6e" x="642.92"/>
                    </g>
                    <g transform="matrix(.1 0 0 -.1 46.016 107)">
                        <defs>
                            <path id="DejaVuSans-Bold-61" d="M2106 1575q-350 0-527-119-176-118-176-350 0-212 142-333 143-120 396-120 315 0 531 226 216 227 216 568v128zm1710 422V0H2688v519q-225-319-507-465-281-145-684-145-544 0-883 317-339 318-339 824 0 616 423 903 424 288 1330 288h660v87q0 266-210 389-209 124-653 124-359 0-669-72-309-72-575-216v853q360 88 722 133 363 45 725 45 947 0 1367-373 421-373 421-1214" transform="scale(.01563)"/>
                            <path id="DejaVuSans-Bold-74" d="M1759 4494v-994h1154v-800H1759V1216q0-244 97-330t385-86h575V0h-960q-662 0-939 276-276 277-276 940v1484H84v800h557v994z" transform="scale(.01563)"/>
                        </defs>
                        <use xlink:href="#DejaVuSans-Bold-72"/>
                        <use xlink:href="#DejaVuSans-Bold-61" x="49.316"/>
                        <use xlink:href="#DejaVuSans-Bold-74" x="116.797"/>
                        <use xlink:href="#DejaVuSans-Bold-69" x="164.6"/>
                        <use xlink:href="#DejaVuSans-Bold-6f" x="198.877"/>
                    </g>
                </g>
            </g>
            <path id="patch_6" d="M117 192.24h213.353" style="fill:none;stroke:#000;stroke-width:.8;stroke-linejoin:miter;stroke-linecap:square"/>
            <g id="text_2" style="fill:#fff" transform="matrix(.24 0 0 -.24 118.205 115.703)">
                <defs>
                    <path id="DejaVuSans-31" d="M794 531h1031v3560L703 3866v575l1116 225h631V531h1031V0H794z" transform="scale(.01563)"/>
                    <path id="DejaVuSans-34" d="M2419 4116 825 1625h1594zm-166 550h794V1625h666v-525h-666V0h-628v1100H313v609z" transform="scale(.01563)"/>
                    <path id="DejaVuSans-2e" d="M684 794h660V0H684z" transform="scale(.01563)"/>
                    <path id="DejaVuSans-36" d="M2113 2584q-425 0-674-291-248-290-248-796 0-503 248-796 249-292 674-292t673 292q248 293 248 796 0 506-248 796-248 291-673 291m1253 1979v-575q-238 112-480 171-242 60-480 60-625 0-955-422-329-422-376-1275 184 272 462 417 279 145 613 145 703 0 1111-427 408-426 408-1160 0-719-425-1154Q2819-91 2113-91q-810 0-1238 620-428 621-428 1799 0 1106 525 1764t1409 658q238 0 480-47t505-140" transform="scale(.01563)"/>
                    <path id="DejaVuSans-32" d="M1228 531h2203V0H469v531q359 372 979 998 621 627 780 809 303 340 423 576 121 236 121 464 0 372-261 606-261 235-680 235-297 0-627-103-329-103-704-313v638q381 153 712 231 332 78 607 78 725 0 1156-363 431-362 431-968 0-288-108-546-107-257-392-607-78-91-497-524-418-433-1181-1211" transform="scale(.01563)"/>
                </defs>
                <use xlink:href="#DejaVuSans-31"/>
                <use xlink:href="#DejaVuSans-34" x="63.623"/>
                <use xlink:href="#DejaVuSans-2e" x="127.246"/>
                <use xlink:href="#DejaVuSans-36" x="159.033"/>
                <use xlink:href="#DejaVuSans-32" x="222.656"/>
            </g>
            <g id="text_3" style="fill:#fff" transform="matrix(.24 0 0 -.24 196.958 166.937)">
                <defs>
                    <path id="DejaVuSans-35" d="M691 4666h2478v-532H1269V2991q137 47 274 70 138 23 276 23 781 0 1237-428 457-428 457-1159 0-753-469-1171Q2575-91 1722-91q-294 0-599 50Q819 9 494 109v635q281-153 581-228t634-75q541 0 856 284 316 284 316 772 0 487-316 771-315 285-856 285-253 0-505-56-251-56-513-175z" transform="scale(.01563)"/>
                </defs>
                <use xlink:href="#DejaVuSans-35"/>
                <use xlink:href="#DejaVuSans-2e" x="63.623"/>
                <use xlink:href="#DejaVuSans-36" x="95.41"/>
                <use xlink:href="#DejaVuSans-31" x="159.033"/>
            </g>
            <g id="text_4" style="fill:#fff" transform="matrix(.24 0 0 -.24 268.075 156.607)">
                <defs>
                    <path id="DejaVuSans-37" d="M525 4666h3000v-269L1831 0h-659l1594 4134H525z" transform="scale(.01563)"/>
                    <path id="DejaVuSans-33" d="M2597 2516q453-97 707-404 255-306 255-756 0-690-475-1069Q2609-91 1734-91q-293 0-604 58T488 141v609q262-153 574-231 313-78 654-78 593 0 904 234t311 681q0 413-289 645-289 233-804 233h-544v519h569q465 0 712 186t247 536q0 359-255 551-254 193-729 193-260 0-557-57-297-56-653-174v562q360 100 674 150t592 50q719 0 1137-327 419-326 419-882 0-388-222-655t-631-370" transform="scale(.01563)"/>
                </defs>
                <use xlink:href="#DejaVuSans-37"/>
                <use xlink:href="#DejaVuSans-2e" x="63.623"/>
                <use xlink:href="#DejaVuSans-34" x="95.41"/>
                <use xlink:href="#DejaVuSans-33" x="159.033"/>
            </g>
            <g id="text_5" transform="matrix(.1 0 0 -.1 171.577 19.92)">
                <defs>
                    <path id="DejaVuSans-Bold-71" d="M2181 2772q-356 0-545-263-189-262-189-762t189-763q189-262 545-262 360 0 549 262 189 263 189 763t-189 762q-189 263-549 263m738-2266q-231-309-510-453-278-144-643-144-647 0-1063 514-415 515-415 1324t415 1320q416 511 1063 511 365 0 643-144 279-143 510-453v519h1125v-4831H2919z" transform="scale(.01563)"/>
                    <path id="DejaVuSans-Bold-75" d="M500 1363v2137h1125v-350q0-284-3-714t-3-573q0-422 22-608t75-271q68-109 179-169 111-59 255-59 350 0 550 269t200 747v1728h1119V0H2900v506q-253-306-536-452-283-145-623-145-607 0-924 372T500 1363" transform="scale(.01563)"/>
                    <path id="DejaVuSans-Bold-6c" d="M538 4863h1118V0H538z" transform="scale(.01563)"/>
                    <path id="DejaVuSans-Bold-79" d="M78 3500h1119l941-2375 800 2375h1118L2584-331q-221-585-517-817-295-233-779-233H641v734h350q284 0 413 91 130 90 202 325l32 97z" transform="scale(.01563)"/>
                    <path id="DejaVuSans-Bold-64" d="M2919 2988v1875h1125V0H2919v506q-231-309-510-453-278-144-643-144-647 0-1063 514-415 515-415 1324t415 1323q416 514 1063 514 362 0 642-145t511-451M2181 722q360 0 549 262 189 263 189 763t-189 762q-189 263-549 263-356 0-545-263-189-262-189-762t189-763q189-262 545-262" transform="scale(.01563)"/>
                </defs>
                <use xlink:href="#DejaVuSans-Bold-61"/>
                <use xlink:href="#DejaVuSans-Bold-69" x="67.48"/>
                <use xlink:href="#DejaVuSans-Bold-72" x="101.758"/>
                <use xlink:href="#DejaVuSans-Bold-71" x="185.889"/>
                <use xlink:href="#DejaVuSans-Bold-75" x="257.471"/>
                <use xlink:href="#DejaVuSans-Bold-61" x="328.662"/>
                <use xlink:href="#DejaVuSans-Bold-6c" x="396.143"/>
                <use xlink:href="#DejaVuSans-Bold-69" x="430.42"/>
                <use xlink:href="#DejaVuSans-Bold-74" x="464.697"/>
                <use xlink:href="#DejaVuSans-Bold-79" x="512.5"/>
                <use xlink:href="#DejaVuSans-Bold-64" x="612.5"/>
                <use xlink:href="#DejaVuSans-Bold-61" x="684.082"/>
                <use xlink:href="#DejaVuSans-Bold-74" x="751.563"/>
                <use xlink:href="#DejaVuSans-Bold-61" x="799.365"/>
                <use xlink:href="#DejaVuSans-Bold-73" x="866.846"/>
                <use xlink:href="#DejaVuSans-Bold-65" x="926.367"/>
                <use xlink:href="#DejaVuSans-Bold-74" x="994.189"/>
            </g>
            <g id="legend_1">
                <path id="patch_7" d="M223.075 89.152h100.278q2 0 2-2V32.92q0-2-2-2H223.075q-2 0-2 2v54.232q0 2 2 2z" style="fill:#fff;opacity:.8;stroke:#ccc;stroke-linejoin:miter"/>
                <path id="patch_8" d="M225.075 49.157h20v-7h-20z" style="fill:#347269"/>
                <g id="text_6">
                    <g transform="matrix(.1 0 0 -.1 253.075 42.518)">
                        <defs>
                            <path id="DejaVuSans-70" d="M1159 525v-1856H581v4831h578v-531q182 312 458 463 277 152 661 152 638 0 1036-506 399-506 399-1331T3314 415Q2916-91 2278-91q-384 0-661 152-276 152-458 464m1957 1222q0 634-261 995t-717 361q-457 0-718-361t-261-995 261-995 718-361q456 0 717 361t261 995" transform="scale(.01563)"/>
                            <path id="DejaVuSans-63" d="M3122 3366v-538q-244 135-489 202t-495 67q-560 0-870-355-309-354-309-995t309-996q310-354 870-354 250 0 495 67t489 202V134Q2881 22 2623-34q-257-57-548-57-791 0-1257 497-465 497-465 1341 0 856 470 1346 471 491 1290 491 265 0 518-55 253-54 491-163" transform="scale(.01563)"/>
                            <path id="DejaVuSans-6f" d="M1959 3097q-462 0-731-361t-269-989 267-989q268-361 733-361 460 0 728 362 269 363 269 988 0 622-269 986-268 364-728 364m0 487q750 0 1178-488 429-487 429-1349 0-859-429-1349Q2709-91 1959-91q-753 0-1180 489-426 490-426 1349 0 862 426 1349 427 488 1180 488" transform="scale(.01563)"/>
                        </defs>
                        <use xlink:href="#DejaVuSans-70"/>
                        <use xlink:href="#DejaVuSans-63" x="63.477"/>
                        <use xlink:href="#DejaVuSans-6f" x="118.457"/>
                    </g>
                    <g transform="matrix(.1 0 0 -.1 253.075 53.716)">
                        <defs>
                            <path id="DejaVuSans-76" d="M191 3500h609L1894 563l1094 2937h609L2284 0h-781z" transform="scale(.01563)"/>
                            <path id="DejaVuSans-30" d="M2034 4250q-487 0-733-480-245-479-245-1442 0-959 245-1439 246-480 733-480 491 0 736 480 246 480 246 1439 0 963-246 1442-245 480-736 480m0 500q785 0 1199-621 414-620 414-1801 0-1178-414-1799Q2819-91 2034-91q-784 0-1198 620-414 621-414 1799 0 1181 414 1801 414 621 1198 621" transform="scale(.01563)"/>
                        </defs>
                        <use xlink:href="#DejaVuSans-76"/>
                        <use xlink:href="#DejaVuSans-30" x="59.18"/>
                        <use xlink:href="#DejaVuSans-2e" x="122.803"/>
                        <use xlink:href="#DejaVuSans-33" x="154.59"/>
                        <use xlink:href="#DejaVuSans-2e" x="218.213"/>
                        <use xlink:href="#DejaVuSans-30" x="250"/>
                    </g>
                </g>
                <path id="patch_9" d="M225.075 68.394h20v-7h-20z" style="fill:#b70"/>
                <g id="text_7" transform="matrix(.1 0 0 -.1 253.075 68.394)">
                    <defs>
                        <path id="DejaVuSans-61" d="M2194 1759q-697 0-966-159t-269-544q0-306 202-486 202-179 548-179 479 0 768 339t289 901v128zm1147 238V0h-575v531q-197-318-491-470T1556-91q-537 0-855 302-317 302-317 808 0 590 395 890 396 300 1180 300h807v57q0 397-261 614t-733 217q-300 0-585-72-284-72-546-216v532q315 122 612 182 297 61 578 61 760 0 1135-394 375-393 375-1193" transform="scale(.01563)"/>
                        <path id="DejaVuSans-72" d="M2631 2963q-97 56-211 82-114 27-251 27-488 0-749-317t-261-911V0H581v3500h578v-544q182 319 472 473 291 155 707 155 59 0 131-8 72-7 159-23z" transform="scale(.01563)"/>
                        <path id="DejaVuSans-71" d="M947 1747q0-634 261-995t717-361 718 361q263 361 263 995t-263 995q-262 361-718 361t-717-361-261-995M2906 525q-181-312-458-464-276-152-664-152-634 0-1033 506-398 507-398 1332t398 1331q399 506 1033 506 388 0 664-152 277-151 458-463v531h575v-4831h-575z" transform="scale(.01563)"/>
                        <path id="DejaVuSans-75" d="M544 1381v2119h575V1403q0-497 193-746 194-248 582-248 465 0 735 297 271 297 271 810v1984h575V0h-575v538q-209-319-486-474-276-155-642-155-603 0-916 375-312 375-312 1097m1447 2203" transform="scale(.01563)"/>
                        <path id="DejaVuSans-65" d="M3597 1894v-281H953q38-594 358-905t892-311q331 0 642 81t618 244V178Q3153 47 2828-22t-659-69q-838 0-1327 487-489 488-489 1320 0 859 464 1363 464 505 1252 505 706 0 1117-455 411-454 411-1235m-575 169q-6 471-264 752-258 282-683 282-481 0-770-272t-333-766z" transform="scale(.01563)"/>
                        <path id="DejaVuSans-74" d="M1172 4494v-994h1184v-447H1172V1153q0-428 117-550t477-122h590V0h-590q-666 0-919 248-253 249-253 905v1900H172v447h422v994z" transform="scale(.01563)"/>
                        <path id="DejaVuSans-2b" d="M2944 4013V2272h1740v-531H2944V0h-525v1741H678v531h1741v1741z" transform="scale(.01563)"/>
                        <path id="DejaVuSans-7a" d="M353 3500h2731v-525L922 459h2162V0H275v525l2163 2516H353z" transform="scale(.01563)"/>
                        <path id="DejaVuSans-73" d="M2834 3397v-544q-243 125-506 187-262 63-544 63-428 0-642-131t-214-394q0-200 153-314t616-217l197-44q612-131 870-370t258-667q0-488-386-773Q2250-91 1575-91q-281 0-586 55T347 128v594q319-166 628-249 309-82 613-82 406 0 624 139 219 139 219 392 0 234-158 359-157 125-692 241l-200 47q-534 112-772 345-237 233-237 639 0 494 350 762 350 269 994 269 318 0 599-47 282-46 519-140" transform="scale(.01563)"/>
                        <path id="DejaVuSans-64" d="M2906 2969v1894h575V0h-575v525q-181-312-458-464-276-152-664-152-634 0-1033 506-398 507-398 1332t398 1331q399 506 1033 506 388 0 664-152 277-151 458-463M947 1747q0-634 261-995t717-361 718 361q263 361 263 995t-263 995q-262 361-718 361t-717-361-261-995" transform="scale(.01563)"/>
                    </defs>
                    <use xlink:href="#DejaVuSans-70"/>
                    <use xlink:href="#DejaVuSans-61" x="63.477"/>
                    <use xlink:href="#DejaVuSans-72" x="124.756"/>
                    <use xlink:href="#DejaVuSans-71" x="164.119"/>
                    <use xlink:href="#DejaVuSans-75" x="227.596"/>
                    <use xlink:href="#DejaVuSans-65" x="290.975"/>
                    <use xlink:href="#DejaVuSans-74" x="352.498"/>
                    <use xlink:href="#DejaVuSans-2b" x="391.707"/>
                    <use xlink:href="#DejaVuSans-7a" x="475.496"/>
                    <use xlink:href="#DejaVuSans-73" x="527.986"/>
                    <use xlink:href="#DejaVuSans-74" x="580.086"/>
                    <use xlink:href="#DejaVuSans-64" x="619.295"/>
                </g>
                <path id="patch_10" d="M225.075 83.073h20v-7h-20z" style="fill:#53c"/>
                <g id="text_8" transform="matrix(.1 0 0 -.1 253.075 83.073)">
                    <defs>
                        <path id="DejaVuSans-62" d="M3116 1747q0 634-261 995t-717 361q-457 0-718-361t-261-995 261-995 718-361q456 0 717 361t261 995M1159 2969q182 312 458 463 277 152 661 152 638 0 1036-506 399-506 399-1331T3314 415Q2916-91 2278-91q-384 0-661 152-276 152-458 464V0H581v4863h578z" transform="scale(.01563)"/>
                        <path id="DejaVuSans-6c" d="M603 4863h575V0H603z" transform="scale(.01563)"/>
                    </defs>
                    <use xlink:href="#DejaVuSans-62"/>
                    <use xlink:href="#DejaVuSans-6c" x="63.477"/>
                    <use xlink:href="#DejaVuSans-6f" x="91.26"/>
                    <use xlink:href="#DejaVuSans-73" x="152.441"/>
                    <use xlink:href="#DejaVuSans-63" x="204.541"/>
                    <use xlink:href="#DejaVuSans-2b" x="259.521"/>
                    <use xlink:href="#DejaVuSans-7a" x="343.311"/>
                    <use xlink:href="#DejaVuSans-73" x="395.801"/>
                    <use xlink:href="#DejaVuSans-74" x="447.9"/>
                    <use xlink:href="#DejaVuSans-64" x="487.109"/>
                </g>
            </g>
        </g>
        <g id="axes_2">
            <path id="patch_11" d="M373.024 192.24h213.352V25.92H373.024z" style="fill:#fff"/>
            <path id="patch_12" d="M373.024 192.24h71.117v-78.502h-71.117z" clip-path="url(#p677c1d30f3)" style="fill:#347269"/>
            <path id="patch_13" d="M444.141 192.24h71.118v-56.235H444.14z" clip-path="url(#p677c1d30f3)" style="fill:#b70"/>
            <path id="patch_14" d="M515.259 192.24h71.117v-31.08H515.26z" clip-path="url(#p677c1d30f3)" style="fill:#53c"/>
            <path id="patch_15" d="M373.024 192.24h213.352" style="fill:none;stroke:#000;stroke-width:.8;stroke-linejoin:miter;stroke-linecap:square"/>
            <g id="text_9" style="fill:#fff" transform="matrix(.24 0 0 -.24 381.864 159.611)">
                <defs>
                    <path id="DejaVuSans-39" d="M703 97v575q238-113 481-172 244-59 479-59 625 0 954 420 330 420 377 1277-181-269-460-413-278-144-615-144-700 0-1108 423-408 424-408 1159 0 718 425 1152 425 435 1131 435 810 0 1236-621 427-620 427-1801 0-1103-524-1761Q2575-91 1691-91q-238 0-482 47Q966 3 703 97m1256 1978q425 0 673 290 249 291 249 798 0 503-249 795-248 292-673 292t-673-292-248-795q0-507 248-798 248-290 673-290" transform="scale(.01563)"/>
                </defs>
                <use xlink:href="#DejaVuSans-36"/>
                <use xlink:href="#DejaVuSans-2e" x="63.623"/>
                <use xlink:href="#DejaVuSans-39" x="95.41"/>
                <use xlink:href="#DejaVuSans-30" x="159.033"/>
            </g>
            <g id="text_10" style="fill:#fff" transform="matrix(.24 0 0 -.24 452.981 170.745)">
                <use xlink:href="#DejaVuSans-34"/>
                <use xlink:href="#DejaVuSans-2e" x="63.623"/>
                <use xlink:href="#DejaVuSans-39" x="95.41"/>
                <use xlink:href="#DejaVuSans-34" x="159.033"/>
            </g>
            <g id="text_11" style="fill:#fff" transform="matrix(.24 0 0 -.24 524.099 183.323)">
                <use xlink:href="#DejaVuSans-32"/>
                <use xlink:href="#DejaVuSans-2e" x="63.623"/>
                <use xlink:href="#DejaVuSans-37" x="95.41"/>
                <use xlink:href="#DejaVuSans-33" x="159.033"/>
            </g>
            <g id="text_12" transform="matrix(.1 0 0 -.1 445.782 19.92)">
                <defs>
                    <path id="DejaVuSans-Bold-78" d="M1422 1791 159 3500h1185l715-1037 725 1037h1185L2706 1797 4031 0H2847l-788 1106L1281 0H97z" transform="scale(.01563)"/>
                </defs>
                <use xlink:href="#DejaVuSans-Bold-74"/>
                <use xlink:href="#DejaVuSans-Bold-61" x="47.803"/>
                <use xlink:href="#DejaVuSans-Bold-78" x="115.283"/>
                <use xlink:href="#DejaVuSans-Bold-69" x="179.785"/>
                <use xlink:href="#DejaVuSans-Bold-64" x="248.877"/>
                <use xlink:href="#DejaVuSans-Bold-61" x="320.459"/>
                <use xlink:href="#DejaVuSans-Bold-74" x="387.939"/>
                <use xlink:href="#DejaVuSans-Bold-61" x="435.742"/>
                <use xlink:href="#DejaVuSans-Bold-73" x="503.223"/>
                <use xlink:href="#DejaVuSans-Bold-65" x="562.744"/>
                <use xlink:href="#DejaVuSans-Bold-74" x="630.566"/>
            </g>
        </g>
        <g id="axes_3">
            <path id="patch_16" d="M629.047 192.24H842.4V25.92H629.047z" style="fill:#fff"/>
            <path id="patch_17" d="M629.047 192.24h71.118v-77.214h-71.118z" clip-path="url(#pb341d50da5)" style="fill:#347269"/>
            <path id="patch_18" d="M700.165 192.24h71.117v-53.123h-71.117z" clip-path="url(#pb341d50da5)" style="fill:#b70"/>
            <path id="patch_19" d="M771.282 192.24H842.4v-52.294h-71.118z" clip-path="url(#pb341d50da5)" style="fill:#53c"/>
            <path id="patch_20" d="M629.047 192.24H842.4" style="fill:none;stroke:#000;stroke-width:.8;stroke-linejoin:miter;stroke-linecap:square"/>
            <g id="text_13" style="fill:#fff" transform="matrix(.24 0 0 -.24 637.887 160.256)">
                <use xlink:href="#DejaVuSans-36"/>
                <use xlink:href="#DejaVuSans-2e" x="63.623"/>
                <use xlink:href="#DejaVuSans-37" x="95.41"/>
                <use xlink:href="#DejaVuSans-39" x="159.033"/>
            </g>
            <g id="text_14" style="fill:#fff" transform="matrix(.24 0 0 -.24 709.005 172.3)">
                <use xlink:href="#DejaVuSans-34"/>
                <use xlink:href="#DejaVuSans-2e" x="63.623"/>
                <use xlink:href="#DejaVuSans-36" x="95.41"/>
                <use xlink:href="#DejaVuSans-37" x="159.033"/>
            </g>
            <g id="text_15" style="fill:#fff" transform="matrix(.24 0 0 -.24 780.122 172.716)">
                <use xlink:href="#DejaVuSans-34"/>
                <use xlink:href="#DejaVuSans-2e" x="63.623"/>
                <use xlink:href="#DejaVuSans-36" x="95.41"/>
                <use xlink:href="#DejaVuSans-30" x="159.033"/>
            </g>
            <g id="text_16" transform="matrix(.1 0 0 -.1 693.194 19.92)">
                <defs>
                    <path id="DejaVuSans-Bold-2f" d="M1644 4666h694L691-594H0z" transform="scale(.01563)"/>
                </defs>
                <use xlink:href="#DejaVuSans-Bold-72"/>
                <use xlink:href="#DejaVuSans-Bold-2f" x="49.316"/>
                <use xlink:href="#DejaVuSans-Bold-70" x="85.84"/>
                <use xlink:href="#DejaVuSans-Bold-6c" x="157.422"/>
                <use xlink:href="#DejaVuSans-Bold-61" x="191.699"/>
                <use xlink:href="#DejaVuSans-Bold-63" x="259.18"/>
                <use xlink:href="#DejaVuSans-Bold-65" x="318.457"/>
                <use xlink:href="#DejaVuSans-Bold-64" x="421.094"/>
                <use xlink:href="#DejaVuSans-Bold-61" x="492.676"/>
                <use xlink:href="#DejaVuSans-Bold-74" x="560.156"/>
                <use xlink:href="#DejaVuSans-Bold-61" x="607.959"/>
                <use xlink:href="#DejaVuSans-Bold-73" x="675.439"/>
                <use xlink:href="#DejaVuSans-Bold-65" x="734.961"/>
                <use xlink:href="#DejaVuSans-Bold-74" x="802.783"/>
            </g>
        </g>
    </g>
    <defs>
        <clipPath id="p2bf14fc452">
            <path d="M117 25.92h213.353v166.32H117z"/>
        </clipPath>
        <clipPath id="p677c1d30f3">
            <path d="M373.024 25.92h213.353v166.32H373.024z"/>
        </clipPath>
        <clipPath id="pb341d50da5">
            <path d="M629.047 25.92H842.4v166.32H629.047z"/>
        </clipPath>
    </defs>
</svg>
