<svg xmlns="http://www.w3.org/2000/svg" fill="none" stroke-linecap="square" stroke-miterlimit="10" viewBox="0 0 740.593 433.664">
    <clipPath id="a">
        <path d="M0 0h740.593v433.664H0z"/>
    </clipPath>
    <g clip-path="url(#a)">
        <path fill="#fff" fill-rule="evenodd" d="M0 0h740.593v433.664H0z"/>
        <path fill="none" d="M182.173 0h82.52v47.15h-82.52z"/>
        <path fill="#000" d="M193.533 17.06h-1.516v9.86h1.61v-7.844q.046-.14.124-.265.094-.141.22-.235.155-.125.374-.187.219-.078.531-.078.266 0 .47.078.202.062.343.203.156.156.219.39.062.235.062.547v7.391h1.61v-7.563q.03-.218.109-.406.078-.187.219-.344.156-.125.375-.203.218-.093.515-.093.281 0 .485.078.218.062.375.218.14.157.203.391.078.234.078.547v7.375h1.594v-7.36q0-.718-.172-1.234-.157-.531-.453-.86-.282-.28-.704-.421-.406-.156-.921-.156-.36 0-.688.093-.312.094-.562.25-.204.125-.375.313-.172.187-.297.39-.11-.218-.25-.406-.14-.187-.313-.312-.234-.156-.547-.235-.312-.093-.703-.093-.687 0-1.187.297-.485.28-.782.812zm9.945 4.844v.203q0 1.063.313 1.97.312.905.89 1.593.578.672 1.407 1.062.843.375 1.89.375 1.031 0 1.86-.375.828-.39 1.406-1.062.578-.688.89-1.594t.313-1.969v-.203q0-1.062-.313-1.984-.312-.922-.89-1.594t-1.422-1.047q-.828-.39-1.875-.39-1.031 0-1.86.39-.828.375-1.406 1.047t-.89 1.594-.313 1.984m1.688.203v-.203q0-.718.172-1.375.171-.672.53-1.172.345-.5.86-.796.516-.297 1.219-.297t1.219.297q.53.296.89.796.344.5.516 1.172.187.657.187 1.375v.203q0 .72-.171 1.391-.172.656-.516 1.156-.36.5-.89.797-.516.281-1.204.281-.703 0-1.234-.28-.531-.298-.875-.798-.36-.5-.531-1.156-.172-.672-.172-1.39m9.664-.203v.203q0 1.047.281 1.97.282.905.797 1.593.5.672 1.219 1.062.734.375 1.625.375.922 0 1.594-.312.687-.313 1.187-.906l.063 1.031h1.547v-14h-1.688v5.125q-.469-.578-1.14-.86-.657-.296-1.547-.296-.891 0-1.625.375-.735.36-1.235 1.031-.515.656-.797 1.594-.281.922-.281 2.015m1.688.203v-.203q0-.718.156-1.359.156-.656.484-1.156.313-.5.813-.782.515-.296 1.218-.296.829 0 1.375.39.563.39.891.985v4.578q-.328.64-.89 1.031-.547.375-1.391.375-.703 0-1.203-.281-.5-.297-.813-.782-.328-.5-.484-1.14t-.156-1.36m14.18 5q1.437 0 2.421-.578.985-.578 1.47-1.328l-1.032-.797q-.469.594-1.172.97-.688.358-1.594.358-.687 0-1.25-.25-.562-.265-.969-.718-.39-.407-.609-.953-.219-.547-.281-1.266v-.078h7.031v-.75q0-1.031-.266-1.906-.25-.891-.78-1.547-.532-.64-1.329-1-.797-.375-1.86-.375-.843 0-1.656.343-.796.344-1.437.985-.625.656-1.016 1.61-.375.937-.375 2.124v.39q0 1.032.344 1.907t.969 1.5q.61.64 1.484 1 .875.36 1.906.36m-.22-8.843q.657 0 1.126.234t.765.625q.313.375.485.906.172.516.172.985v.078h-5.297q.093-.688.343-1.203.266-.532.625-.89.36-.36.813-.548.453-.187.969-.187"/>
        <path fill="none" d="M179.78 47.15h196.409V94.3h-196.41z"/>
        <path fill="#000" d="M190.045 69.054v.203q0 1.047.281 1.969.282.906.797 1.594.5.671 1.219 1.062.734.375 1.625.375.922 0 1.594-.312.687-.313 1.187-.907l.063 1.032h1.547v-14h-1.688v5.125q-.469-.579-1.14-.86-.657-.297-1.547-.297-.891 0-1.625.375-.735.36-1.235 1.032-.515.656-.797 1.593-.28.922-.28 2.016m1.688.203v-.203q0-.719.156-1.36.156-.656.484-1.156.313-.5.813-.78.515-.298 1.219-.298.828 0 1.375.39.562.391.89.985v4.578q-.328.641-.89 1.032-.547.375-1.391.375-.703 0-1.203-.282-.5-.297-.813-.78-.328-.5-.484-1.142-.156-.64-.156-1.359m14.18 5q1.437 0 2.421-.578.985-.578 1.47-1.328l-1.032-.797q-.469.594-1.172.969-.687.36-1.594.36-.687 0-1.25-.25-.562-.267-.968-.72-.391-.406-.61-.953t-.281-1.265v-.079h7.031v-.75q0-1.03-.265-1.906-.25-.89-.782-1.547-.53-.64-1.328-1-.797-.375-1.86-.375-.843 0-1.655.344-.797.344-1.438.984-.625.657-1.016 1.61-.375.937-.375 2.125v.39q0 1.032.344 1.907t.969 1.5q.61.64 1.484 1 .875.36 1.907.36m-.22-8.844q.657 0 1.126.235t.765.625q.313.375.485.906.172.516.172.984v.078h-5.297q.094-.687.344-1.203.265-.53.625-.89.359-.36.812-.547t.969-.188m7.321-5.343v1.468h3.36v11.078h-3.36v1.454h8.266v-1.454h-3.219V60.07zm14.93 1.75h-1.703v2.39h-2.578v1.313h2.578v5.343q0 .922.235 1.563.25.64.671 1.047t.985.594q.578.187 1.234.187.39 0 .781-.047.407-.031.75-.11.36-.062.657-.155.297-.094.515-.22l-.234-1.202q-.156.047-.406.093-.235.047-.516.094t-.578.078q-.281.032-.547.032-.375 0-.719-.094-.328-.094-.578-.313-.265-.218-.406-.593-.14-.375-.14-.954v-5.343h3.75V64.21h-3.75zm13.68 12.25h1.75v-.141q-.156-.422-.25-.969-.093-.547-.093-1.047v-4.578q0-.828-.297-1.437-.297-.625-.813-1.047-.531-.406-1.25-.61t-1.562-.203q-.922 0-1.657.25-.718.25-1.218.657-.5.421-.782.953-.265.515-.265 1.047h1.687q0-.313.14-.594.157-.281.438-.5.266-.203.657-.328.406-.14.906-.14.547 0 .969.14.437.14.734.39t.453.61q.172.343.172.797v.78h-1.828q-1.031 0-1.875.204-.828.187-1.422.594t-.922 1.015q-.312.61-.312 1.422 0 .625.234 1.156.25.532.688.907.437.406 1.062.64.64.22 1.438.22.468 0 .89-.11.438-.094.828-.266.375-.172.688-.39.312-.235.562-.5.032.312.094.609.063.281.156.469m-2.984-1.282q-.484 0-.86-.125-.374-.14-.624-.359-.235-.219-.36-.531t-.125-.672q0-.39.14-.688t.407-.515q.39-.313 1.031-.453.657-.157 1.532-.157h1.562v2q-.14.282-.406.563-.25.265-.594.469t-.781.343q-.422.125-.922.125m23.25 1.47q1.438 0 2.422-.579.985-.578 1.47-1.328l-1.032-.797q-.469.594-1.172.969-.688.36-1.594.36-.687 0-1.25-.25-.562-.267-.969-.72-.39-.406-.609-.953t-.281-1.265v-.079h7.031v-.75q0-1.03-.266-1.906-.25-.89-.78-1.547-.532-.64-1.329-1-.797-.375-1.86-.375-.843 0-1.656.344-.796.344-1.437.984-.625.657-1.016 1.61-.375.937-.375 2.125v.39q0 1.032.344 1.907t.969 1.5q.61.64 1.484 1 .875.36 1.906.36m-.218-8.845q.656 0 1.125.235t.765.625q.313.375.485.906.172.516.172.984v.078h-5.297q.093-.687.343-1.203.266-.53.625-.89.36-.36.813-.547t.969-.188m7.055 8.657h1.687v-7.063q.172-.328.406-.594t.516-.453q.328-.234.719-.36.406-.14.875-.14.547 0 .953.125.422.125.703.406.281.297.422.75.156.454.156 1.11v6.219h1.688v-6.266q0-.969-.25-1.688-.235-.718-.688-1.187-.437-.453-1.078-.672-.625-.219-1.406-.219-.563 0-1.078.172-.516.156-.953.438-.297.187-.563.453-.25.265-.469.562l-.125-1.453h-1.515zm15.398-1.188q-.797 0-1.328-.312-.531-.313-.844-.829-.328-.5-.468-1.125-.14-.64-.14-1.28v-.391q0-.625.14-1.25.14-.641.468-1.157.329-.5.86-.812t1.312-.313q.516 0 .953.172.438.172.766.485.313.296.5.687.188.39.203.844h1.594q0-.75-.313-1.406-.296-.657-.828-1.141-.53-.469-1.265-.734-.735-.282-1.61-.282-1.109 0-1.953.407-.844.39-1.39 1.062-.563.688-.86 1.578-.281.89-.281 1.86v.39q0 .985.281 1.875.297.875.86 1.563.546.672 1.39 1.078t1.953.406q.782 0 1.5-.266.72-.28 1.282-.734.562-.437.89-1.031.328-.61.344-1.266h-1.594q-.015.406-.219.766-.203.344-.546.61-.329.265-.766.405-.438.141-.89.141m6.524-3.828v.203q0 1.063.313 1.969.312.906.89 1.594.578.671 1.406 1.062.844.375 1.891.375 1.031 0 1.86-.375.828-.39 1.406-1.062.578-.688.89-1.594t.313-1.969v-.203q0-1.063-.313-1.984-.312-.922-.89-1.594t-1.422-1.047q-.828-.39-1.875-.39-1.031 0-1.86.39-.828.375-1.406 1.047t-.89 1.594-.313 1.984m1.688.203v-.203q0-.719.171-1.375.172-.672.532-1.172.343-.5.859-.797t1.219-.297 1.219.297q.53.297.89.797.344.5.516 1.172.187.656.187 1.375v.203q0 .719-.172 1.39-.171.657-.515 1.157-.36.5-.89.797-.516.281-1.204.281-.703 0-1.234-.281-.532-.297-.875-.797-.36-.5-.532-1.156-.171-.672-.171-1.39m9.664-.203v.203q0 1.047.281 1.969.281.906.797 1.594.5.671 1.219 1.062.734.375 1.625.375.922 0 1.594-.312.687-.313 1.187-.907l.063 1.032h1.546v-14h-1.687v5.125q-.469-.579-1.14-.86-.657-.297-1.548-.297-.89 0-1.625.375-.734.36-1.234 1.032-.516.656-.797 1.593-.281.922-.281 2.016m1.687.203v-.203q0-.719.157-1.36.156-.656.484-1.156.313-.5.813-.78.515-.298 1.218-.298.828 0 1.375.39.563.391.89.985v4.578q-.327.641-.89 1.032-.547.375-1.39.375-.703 0-1.203-.282-.5-.297-.813-.78-.328-.5-.484-1.142-.157-.64-.157-1.359m10.087-5.047v1.469h3.359v6.937h-3.36v1.454h8.266v-1.454h-3.219V64.21zm3.14-2.578q0 .406.25.688.25.265.766.265.5 0 .75-.265.25-.282.25-.688 0-.234-.078-.422-.063-.187-.203-.328-.125-.11-.313-.172-.172-.078-.406-.078-.25 0-.438.078-.172.063-.297.172-.14.14-.218.344-.063.187-.063.406m7.79 12.438h1.687v-7.063q.172-.328.406-.594t.516-.453q.328-.234.719-.36.406-.14.875-.14.547 0 .953.125.422.125.703.406.281.297.422.75.156.454.156 1.11v6.219h1.688v-6.266q0-.969-.25-1.688-.235-.718-.688-1.187-.437-.453-1.078-.672-.625-.219-1.406-.219-.563 0-1.078.172-.516.156-.954.438-.296.187-.562.453-.25.265-.469.562l-.125-1.453h-1.515zm10.898-5.016v.203q0 1.047.266 1.969.281.906.781 1.594.5.671 1.234 1.062.735.375 1.625.375.547 0 1-.125.47-.11.86-.312.234-.141.453-.313.219-.187.406-.406v.844q0 .64-.187 1.125-.172.5-.516.828t-.828.5-1.078.172q-.344 0-.688-.063-.328-.062-.672-.219-.328-.156-.656-.422-.328-.25-.64-.625l-.875 1q.343.485.812.813t.969.516q.5.203.984.28.5.095.89.095.923 0 1.688-.282.766-.265 1.328-.78.547-.532.844-1.298.313-.75.313-1.719V64.21h-1.532l-.078 1.078q-.172-.218-.375-.39-.187-.188-.406-.328-.406-.266-.906-.391-.5-.14-1.094-.14-.906 0-1.64.374-.735.36-1.235 1.032-.516.656-.781 1.593-.266.922-.266 2.016m1.672.203v-.203q0-.719.156-1.36.157-.656.485-1.156.312-.5.812-.78.516-.298 1.219-.298.422 0 .766.11.343.093.625.28.296.188.515.454.219.25.375.562v4.516q-.156.313-.375.578-.219.266-.5.453-.281.203-.64.313-.344.094-.782.094-.703 0-1.203-.282-.5-.297-.812-.78-.328-.5-.485-1.142-.156-.64-.156-1.359"/>
        <path fill="none" d="M0 130.627h134.205v47.15H0z"/>
        <path fill="#000" d="M14.781 156.36q-.797 0-1.328-.313-.531-.312-.844-.828-.328-.5-.468-1.125-.141-.64-.141-1.281v-.39q0-.626.14-1.25.141-.641.47-1.157.328-.5.859-.812t1.312-.313q.516 0 .953.172.438.172.766.484.313.297.5.688.188.39.203.844h1.594q0-.75-.313-1.407-.297-.656-.828-1.14-.531-.47-1.265-.735-.735-.28-1.61-.28-1.11 0-1.953.405-.844.39-1.39 1.063-.563.687-.86 1.578-.281.89-.281 1.86v.39q0 .984.281 1.875.297.875.86 1.562.546.672 1.39 1.079t1.953.406q.781 0 1.5-.266.719-.281 1.282-.734.562-.438.89-1.031.328-.61.344-1.266h-1.594q-.015.406-.219.766-.203.343-.547.609-.328.266-.765.406-.438.14-.89.14m8.68-7.203v-5.61h-1.687v14h1.687v-7.156q.188-.297.422-.531.234-.25.5-.422.344-.25.75-.375.422-.125.875-.125.563-.016.984.156.422.156.704.469.265.297.406.734.14.438.14 1.032v6.218h1.688v-6.203q0-1-.25-1.719-.234-.718-.688-1.203-.437-.468-1.078-.687-.625-.219-1.406-.219-.594 0-1.125.172-.516.156-.953.484-.266.188-.516.438t-.453.547m16.008 8.39h1.532v-9.86h-1.688v7.079q-.14.313-.344.578-.203.266-.484.469-.328.234-.781.375-.438.125-1 .125-.485 0-.86-.125-.36-.14-.625-.453-.25-.313-.375-.828-.125-.532-.125-1.344v-5.875h-1.687v5.86q0 1.109.234 1.89.25.781.688 1.297.453.515 1.078.765.625.235 1.406.235.969 0 1.703-.406t1.235-1.141zm4.696 0h1.687v-7.062q.172-.328.407-.594t.515-.453q.328-.234.719-.36.406-.14.875-.14.547 0 .953.125.422.125.703.406.281.297.422.75.156.453.156 1.11v6.218h1.688v-6.265q0-.97-.25-1.688-.235-.719-.688-1.187-.437-.453-1.078-.672-.625-.219-1.406-.219-.563 0-1.078.172-.516.156-.953.437-.297.188-.563.454-.25.265-.469.562l-.125-1.453h-1.515zm14.149-4.593 3.625 4.593h2.14l-4.61-5.75 4-4.11h-2.046l-3.234 3.25-1.11 1.188v-8.578h-1.687v14h1.687v-3.406zm20.219-5.266h-1.516v9.86h1.61v-7.844q.046-.141.125-.266.093-.14.218-.234.157-.125.375-.188.22-.078.532-.078.265 0 .468.078.203.063.344.203.156.156.219.39.062.235.062.548v7.39h1.61v-7.562q.03-.219.11-.406.077-.188.218-.344.156-.125.375-.203.219-.094.515-.094.282 0 .485.078.219.063.375.219.14.156.203.39.078.235.078.547v7.375h1.594v-7.36q0-.718-.172-1.233-.156-.532-.453-.86-.281-.281-.703-.422-.407-.156-.922-.156-.36 0-.688.094-.312.094-.562.25-.203.125-.375.312-.172.188-.297.39-.11-.218-.25-.405t-.313-.313q-.234-.156-.546-.234-.313-.094-.704-.094-.687 0-1.187.297-.484.281-.781.812zm14.774 10.047q1.437 0 2.421-.578.985-.578 1.47-1.328l-1.032-.797q-.469.593-1.172.968-.687.36-1.594.36-.687 0-1.25-.25-.562-.266-.968-.719-.391-.406-.61-.953t-.281-1.266v-.078h7.031v-.75q0-1.031-.265-1.906-.25-.89-.782-1.547-.531-.64-1.328-1-.797-.375-1.86-.375-.843 0-1.655.344-.797.344-1.438.984-.625.656-1.016 1.61-.375.937-.375 2.125v.39q0 1.031.344 1.906t.969 1.5q.61.641 1.484 1 .875.36 1.907.36m-.22-8.844q.657 0 1.126.234t.765.625q.313.375.485.907.172.515.172.984v.078h-5.297q.094-.687.344-1.203.265-.531.625-.89.359-.36.812-.547t.969-.188m11.056-3.594h-1.703v2.39H99.86V149h2.579v5.344q0 .922.234 1.563.25.64.672 1.047t.984.593q.578.188 1.235.188.39 0 .78-.047.407-.031.75-.11.36-.062.657-.156.297-.093.516-.218l-.235-1.204q-.156.047-.406.094-.234.047-.516.094-.28.047-.578.078-.28.031-.547.031-.375 0-.718-.093-.328-.094-.578-.313-.266-.219-.407-.594t-.14-.953V149h3.75v-1.312h-3.75zm13.68 12.25h1.75v-.14q-.157-.422-.25-.97-.094-.546-.094-1.046v-4.578q0-.828-.297-1.438-.297-.625-.812-1.046-.532-.407-1.25-.61-.72-.203-1.563-.203-.922 0-1.656.25-.719.25-1.219.656-.5.422-.781.953-.266.516-.266 1.047h1.688q0-.312.14-.593.157-.282.438-.5.265-.204.656-.329.406-.14.906-.14.547 0 .969.14.438.141.734.391.297.25.454.61.171.343.171.796v.782h-1.828q-1.031 0-1.875.203-.828.187-1.422.593-.593.407-.921 1.016-.313.61-.313 1.422 0 .625.234 1.156.25.531.688.906.437.407 1.062.641.641.219 1.438.219.469 0 .89-.11.438-.093.829-.265.375-.172.687-.39.313-.235.563-.5.03.312.093.609.063.28.157.468m-2.985-1.28q-.484 0-.86-.126-.374-.14-.624-.36-.234-.218-.36-.53-.124-.313-.124-.672 0-.391.14-.688t.406-.516q.391-.312 1.032-.453.656-.156 1.53-.156h1.563v2q-.14.281-.406.563-.25.265-.594.468t-.78.344q-.423.125-.923.125"/>
        <path fill="#efefef" fill-rule="evenodd" d="M182.173 95.068H729.26V417.4H182.173z"/>
        <path stroke="#000" stroke-linecap="butt" stroke-linejoin="round" d="M182.173 95.068H729.26V417.4H182.173z"/>
        <path fill="none" d="M501.635 368.533h227.118v47.15H501.635z"/>
        <path fill="#000" d="M519.811 395.453h1.688v-7.063q.171-.328.406-.593.234-.266.515-.454.329-.234.72-.359.405-.14.874-.14.547 0 .953.124.422.125.703.407.282.297.422.75.157.453.157 1.11v6.218h1.687v-6.266q0-.969-.25-1.687-.234-.72-.687-1.188-.438-.453-1.079-.672-.625-.218-1.406-.218-.562 0-1.078.171-.516.157-.953.438-.297.187-.563.453-.25.266-.468.563l-.125-1.454h-1.516zm22.657-14v1.469h3.36V394h-3.36v1.453h8.266V394h-3.22v-12.547zm17.414 14h1.75v-.14q-.156-.423-.25-.97t-.094-1.046v-4.579q0-.828-.296-1.437-.297-.625-.813-1.047-.531-.406-1.25-.61-.719-.202-1.562-.202-.922 0-1.657.25-.718.25-1.218.656-.5.422-.782.953-.265.516-.265 1.047h1.687q0-.313.14-.594.157-.281.438-.5.266-.203.657-.328.406-.14.906-.14.547 0 .969.14.437.14.734.39t.453.61q.172.344.172.797v.781h-1.828q-1.031 0-1.875.203-.828.188-1.422.594t-.922 1.016q-.312.609-.312 1.421 0 .625.234 1.157.25.53.687.906.438.406 1.063.64.64.22 1.437.22.47 0 .891-.11.438-.094.828-.266.375-.172.688-.39.312-.235.562-.5.031.312.094.61.062.28.156.468m-2.984-1.281q-.485 0-.86-.125-.375-.141-.625-.36-.234-.219-.359-.531t-.125-.672q0-.39.14-.687t.407-.516q.39-.313 1.031-.453.656-.156 1.531-.156h1.563v2q-.14.28-.406.562-.25.266-.594.469t-.781.344q-.422.125-.922.125m11.695-10.97h-1.703v2.391h-2.578v1.313h2.578v5.344q0 .922.235 1.562.25.64.672 1.047.421.406.984.594.578.187 1.234.187.39 0 .782-.047.406-.03.75-.109.359-.062.656-.156t.515-.219l-.234-1.203q-.156.047-.406.094-.235.047-.516.093-.281.047-.578.079-.281.03-.547.03-.375 0-.719-.093-.328-.094-.578-.312-.265-.22-.406-.594-.14-.375-.14-.953v-5.344h3.75v-1.313h-3.75zm11.555 12.438q1.438 0 2.422-.578t1.469-1.328l-1.031-.797q-.47.594-1.172.969-.688.36-1.594.36-.687 0-1.25-.25-.562-.266-.969-.72-.39-.406-.61-.953-.218-.546-.28-1.265V391h7.03v-.75q0-1.032-.265-1.907-.25-.89-.78-1.546-.532-.641-1.33-1-.796-.375-1.858-.375-.844 0-1.657.343-.797.344-1.437.985-.625.656-1.016 1.61-.375.937-.375 2.124v.39q0 1.032.344 1.907t.969 1.5q.61.64 1.484 1 .875.36 1.906.36m-.218-8.843q.656 0 1.125.234t.765.625q.313.375.485.906.171.516.171.985v.078h-5.296q.093-.688.343-1.203.266-.532.625-.891.36-.36.813-.547t.969-.187m7.055 8.656h1.687v-7.063q.172-.328.406-.593.235-.266.516-.454.328-.234.719-.359.406-.14.875-.14.547 0 .953.124.422.125.703.407.281.297.422.75.156.453.156 1.11v6.218h1.688v-6.266q0-.969-.25-1.687-.235-.72-.688-1.188-.437-.453-1.078-.672-.625-.218-1.406-.218-.563 0-1.078.171-.516.157-.954.438-.296.187-.562.453-.25.266-.469.563l-.125-1.454h-1.515zm15.195-12.25h-1.703v2.39h-2.578v1.313h2.578v5.344q0 .922.234 1.562.25.64.672 1.047t.985.594q.578.187 1.234.187.39 0 .781-.047.406-.03.75-.109.36-.062.656-.156t.516-.219l-.234-1.203q-.157.047-.407.094-.234.047-.515.093-.281.047-.578.079-.282.03-.547.03-.375 0-.719-.093-.328-.094-.578-.312-.266-.22-.406-.594-.14-.375-.14-.953v-5.344h3.75v-1.313h-3.75zm21.766 12.25h1.281l4.016-9.86h-1.719l-2.765 7.438-.157.61-.156-.61-2.828-7.438h-1.734zm14.305 0h1.75v-.14q-.156-.423-.25-.97t-.094-1.046v-4.579q0-.828-.296-1.437-.297-.625-.813-1.047-.531-.406-1.25-.61-.719-.202-1.562-.202-.922 0-1.657.25-.718.25-1.218.656-.5.422-.782.953-.265.516-.265 1.047h1.687q0-.313.14-.594.157-.281.438-.5.266-.203.657-.328.406-.14.906-.14.547 0 .969.14.437.14.734.39t.453.61q.172.344.172.797v.781h-1.828q-1.031 0-1.875.203-.828.188-1.422.594t-.922 1.016q-.312.609-.312 1.421 0 .625.234 1.157.25.53.687.906.438.406 1.063.64.64.22 1.437.22.47 0 .891-.11.438-.094.828-.266.375-.172.688-.39.312-.235.562-.5.031.312.094.61.062.28.156.468m-2.984-1.281q-.485 0-.86-.125-.375-.141-.625-.36-.234-.219-.359-.531t-.125-.672q0-.39.14-.687t.407-.516q.39-.313 1.031-.453.656-.156 1.531-.156h1.563v2q-.14.28-.406.562-.25.266-.594.469t-.781.344q-.422.125-.922.125m14.164-8.75q-1.078 0-1.922.468-.843.47-1.437 1.266l-.016-.234-.078-1.329h-1.594v9.86h1.688v-6.328q.172-.453.422-.813.25-.375.578-.625.375-.297.875-.437.5-.157 1.125-.157.484 0 .922.047.453.047.937.157l.235-1.641q-.266-.11-.766-.172t-.969-.062m4.993.171v1.47h3.359V394h-3.36v1.453h8.266V394h-3.219v-8.407zm3.14-2.578q0 .407.25.688.25.265.766.265.5 0 .75-.265.25-.281.25-.688 0-.234-.078-.422-.063-.187-.203-.328-.125-.11-.313-.172-.172-.078-.406-.078-.25 0-.438.078-.172.063-.297.172-.14.14-.218.344-.063.188-.063.406m14.274 12.438h1.75v-.14q-.156-.423-.25-.97t-.094-1.046v-4.579q0-.828-.297-1.437-.297-.625-.812-1.047-.531-.406-1.25-.61-.719-.202-1.563-.202-.922 0-1.656.25-.719.25-1.219.656-.5.422-.781.953-.266.516-.266 1.047h1.688q0-.313.14-.594.157-.281.438-.5.266-.203.656-.328.407-.14.907-.14.546 0 .968.14.438.14.735.39t.453.61q.172.344.172.797v.781h-1.828q-1.032 0-1.875.203-.829.188-1.422.594-.594.406-.922 1.016-.313.609-.313 1.421 0 .625.235 1.157.25.53.687.906.438.406 1.063.64.64.22 1.437.22.469 0 .89-.11.438-.094.829-.266.375-.172.687-.39.313-.235.563-.5.031.312.094.61.062.28.156.468m-2.984-1.281q-.485 0-.86-.125-.375-.141-.625-.36-.234-.219-.36-.531-.124-.313-.124-.672 0-.39.14-.687t.407-.516q.39-.313 1.03-.453.657-.156 1.532-.156h1.563v2q-.141.28-.407.562-.25.266-.593.469-.344.203-.782.344-.421.125-.921.125m16.055-3.532v-.203q0-.765-.125-1.453-.125-.703-.375-1.281-.235-.516-.547-.922-.313-.422-.703-.703-.438-.313-.985-.485-.531-.171-1.156-.171-.516 0-.953.093-.438.094-.797.297-.297.156-.563.375-.25.203-.453.469v-5.203h-1.687v14h1.547l.078-1.125q.172.219.344.39.187.172.39.313.422.297.938.453.53.156 1.172.156.546 0 1.015-.14.485-.14.89-.39.563-.345.954-.892.39-.546.64-1.218.188-.532.282-1.125.094-.594.094-1.235m-1.688-.203v.203q0 .438-.062.86-.047.406-.157.78-.156.47-.406.876-.234.39-.61.64-.265.204-.609.313-.343.094-.765.094-.438 0-.813-.11-.36-.109-.64-.328-.297-.203-.532-.484-.218-.281-.375-.61v-4.312q.157-.328.375-.594.219-.28.516-.5.281-.187.64-.297.376-.125.813-.125.39 0 .719.094t.594.25q.39.235.656.64.265.391.422.876.125.39.172.844.062.437.062.89m4.79-8.984v1.469h3.359V394h-3.36v1.453h8.266V394h-3.219v-12.547zM703.3 395.64q1.437 0 2.422-.578.984-.578 1.468-1.328l-1.031-.797q-.469.594-1.172.969-.687.36-1.594.36-.687 0-1.25-.25-.562-.266-.968-.72-.391-.406-.61-.953t-.281-1.265V391h7.031v-.75q0-1.032-.265-1.907-.25-.89-.782-1.546-.53-.641-1.328-1-.797-.375-1.86-.375-.843 0-1.655.343-.797.344-1.438.985-.625.656-1.015 1.61-.375.937-.375 2.124v.39q0 1.032.343 1.907t.969 1.5q.61.64 1.484 1 .875.36 1.907.36m-.22-8.843q.657 0 1.126.234t.766.625q.312.375.484.906.172.516.172.985v.078h-5.297q.094-.688.344-1.203.265-.532.625-.891.359-.36.812-.547t.969-.187m13.618 6.046q0 .235-.093.454-.094.203-.266.375-.281.28-.781.437t-1.172.156q-.438 0-.875-.078-.438-.094-.797-.312-.36-.22-.61-.578-.234-.36-.265-.875h-1.688q0 .625.282 1.218.297.578.843 1.016.532.437 1.313.719.781.265 1.797.265.875 0 1.61-.203.734-.219 1.265-.61.531-.374.812-.905.297-.547.297-1.204 0-.609-.265-1.062-.25-.469-.735-.828-.5-.344-1.219-.594-.718-.25-1.625-.453-.687-.125-1.14-.266-.453-.156-.719-.343-.281-.172-.39-.407-.11-.234-.11-.515t.14-.547.407-.469.672-.312q.406-.125.953-.125.516 0 .922.156.422.14.719.375.28.234.437.547.172.297.172.625h1.687q0-.657-.28-1.22-.266-.562-.782-.968-.516-.422-1.25-.656-.719-.234-1.625-.234-.86 0-1.563.234-.703.219-1.218.61-.5.39-.782.921-.28.516-.28 1.11 0 .609.265 1.078.281.453.781.797.484.343 1.172.593.703.235 1.562.422.688.125 1.141.297.469.172.75.375t.406.438.125.546"/>
        <path fill="none" d="M403.118 98.622h250.866v47.15H403.118z"/>
        <path fill="#000" d="M417.696 113.292h-1.703v2.39h-2.578v1.313h2.578v5.344q0 .922.234 1.562.25.641.672 1.047.422.407.985.594.578.188 1.234.188.39 0 .781-.047.407-.032.75-.11.36-.062.657-.156.296-.094.515-.219l-.234-1.203q-.156.047-.406.094-.235.047-.516.094t-.578.078q-.281.031-.547.031-.375 0-.719-.094-.328-.093-.578-.312-.266-.219-.406-.594t-.14-.953v-5.344h3.75v-1.312h-3.75zm13.54 8.813 1.046 3.437h1.672l-4.203-13.266h-1.422l-4.28 13.266h1.687l1.062-3.437zm-3.985-1.47 1.781-5.75 1.75 5.75zm17.149 4.907v-13.266h-1.703l-.032 9.891-5.14-9.89h-1.719v13.265h1.703l.031-9.906 5.157 9.906zm9.836-3.36q0 .548-.25.954-.234.39-.61.64-.359.266-.843.391t-.969.125q-.625 0-1.156-.156-.516-.172-.906-.516-.407-.328-.672-.797-.25-.484-.328-1.11h-1.719q.031.86.375 1.563.344.688.953 1.204.672.609 1.578.937.922.313 1.875.313.797 0 1.578-.22.797-.234 1.422-.671t1.016-1.11q.406-.671.406-1.562 0-.875-.375-1.547-.36-.687-.953-1.14-.625-.5-1.36-.829-.734-.328-1.468-.546-.453-.141-.953-.313-.5-.187-.938-.469-.437-.265-.719-.656-.28-.406-.296-.984 0-.532.218-.922.22-.406.578-.672.36-.281.813-.406.469-.141.953-.141.594 0 1.063.188.484.171.828.515.36.344.562.813t.281 1.03h1.735q-.016-.905-.39-1.64-.376-.734-1-1.265-.61-.516-1.423-.797-.797-.297-1.656-.297-.797 0-1.578.25-.766.234-1.375.703-.61.469-.984 1.14-.375.673-.375 1.532 0 .86.375 1.5.375.625.984 1.094.594.453 1.312.78.72.313 1.422.548.485.156 1 .344.532.187.97.468.437.297.718.719.281.406.281 1.016m22 .75q0 .235-.093.454-.094.203-.266.375-.281.281-.781.437-.5.157-1.172.157-.437 0-.875-.079-.437-.093-.797-.312t-.61-.578q-.234-.36-.265-.875h-1.687q0 .625.281 1.219.297.578.844 1.015.531.438 1.312.719.781.266 1.797.266.875 0 1.61-.204.734-.218 1.265-.609.531-.375.813-.906.296-.547.296-1.203 0-.61-.265-1.063-.25-.469-.735-.828-.5-.344-1.218-.594-.719-.25-1.625-.453-.688-.125-1.14-.265-.454-.157-.72-.344-.28-.172-.39-.406t-.11-.516q0-.281.141-.547t.406-.469.672-.312q.406-.125.953-.125.516 0 .922.156.422.14.719.375.281.234.437.547.172.297.172.625h1.688q0-.656-.282-1.219-.265-.562-.78-.969-.516-.421-1.25-.656-.72-.234-1.626-.234-.86 0-1.562.234-.703.219-1.219.61-.5.39-.781.921-.282.516-.282 1.11 0 .61.266 1.078.281.453.781.797.485.344 1.172.594.703.234 1.563.421.687.125 1.14.297.47.172.75.375.282.203.407.438t.125.547m4.9-7.25v1.47h3.359v6.937h-3.36v1.453h8.266v-1.453h-3.219v-8.406zm3.14-2.577q0 .406.25.687.25.266.766.266.5 0 .75-.266.25-.281.25-.687 0-.235-.079-.422-.062-.188-.203-.328-.125-.11-.312-.172-.172-.078-.406-.078-.25 0-.438.078-.172.062-.297.172-.14.14-.219.343-.062.188-.062.407m9.82 11.062 5.954-7.281v-1.203h-8.016v1.39h5.797l-5.89 7.235v1.234h8.437v-1.375zm13.524 1.563q1.438 0 2.422-.579.984-.578 1.469-1.328l-1.031-.797q-.47.594-1.172.97-.688.359-1.594.359-.688 0-1.25-.25-.563-.266-.969-.72-.39-.405-.61-.952-.218-.547-.28-1.266v-.078h7.03v-.75q0-1.031-.265-1.906-.25-.891-.781-1.547-.531-.64-1.328-1-.797-.375-1.86-.375-.843 0-1.656.344-.797.343-1.437.984-.625.656-1.016 1.61-.375.937-.375 2.124v.39q0 1.032.344 1.907t.969 1.5q.609.64 1.484 1t1.906.36m-.219-8.844q.657 0 1.125.234.47.235.766.625.313.375.484.906.172.516.172.985v.078h-5.297q.094-.688.344-1.203.266-.531.625-.89.36-.36.813-.548.453-.187.968-.187m18.517-5.344v1.469h3.359v11.078h-3.36v1.453h8.266v-1.453h-3.219v-12.547zm10.46 8.984v.204q0 1.062.313 1.968.313.907.89 1.594.579.672 1.407 1.063.844.375 1.89.375 1.032 0 1.86-.375.828-.391 1.406-1.063.579-.687.891-1.594.313-.906.313-1.968v-.204q0-1.062-.313-1.984-.312-.922-.89-1.594t-1.422-1.047q-.829-.39-1.875-.39-1.032 0-1.86.39-.828.375-1.406 1.047t-.89 1.594-.313 1.984m1.688.204v-.204q0-.718.172-1.375.172-.671.531-1.171.344-.5.86-.797.515-.297 1.219-.297.703 0 1.218.297.532.297.89.797.345.5.517 1.171.187.657.187 1.375v.204q0 .718-.172 1.39-.172.656-.515 1.156-.36.5-.891.797-.516.282-1.203.282-.703 0-1.235-.282-.53-.297-.875-.797-.359-.5-.53-1.156-.173-.672-.173-1.39m9.68-.204v.204q0 1.046.266 1.968.281.907.781 1.594.5.672 1.234 1.063.735.375 1.625.375.547 0 1-.125.47-.11.86-.313.234-.14.453-.312.219-.188.406-.407v.844q0 .64-.187 1.125-.172.5-.516.828t-.828.5-1.078.172q-.344 0-.688-.062-.328-.063-.672-.22-.328-.155-.656-.421-.328-.25-.64-.625l-.875 1q.343.484.812.812t.969.516q.5.203.984.281.5.094.89.094.923 0 1.688-.281.766-.266 1.328-.781.547-.532.844-1.297.313-.75.313-1.72v-9.655h-1.532l-.078 1.078q-.172-.219-.375-.39-.187-.188-.406-.329-.406-.266-.906-.39-.5-.141-1.094-.141-.906 0-1.64.375-.735.36-1.235 1.031-.516.656-.781 1.594-.266.922-.266 2.015m1.672.204v-.204q0-.718.156-1.359.157-.656.485-1.156.312-.5.812-.781.516-.297 1.219-.297.422 0 .766.109.343.094.625.281.296.188.515.453.219.25.375.563v4.516q-.156.312-.375.578t-.5.453q-.281.203-.64.312-.344.094-.782.094-.703 0-1.203-.281-.5-.297-.812-.781-.328-.5-.485-1.141-.156-.64-.156-1.36"/>
        <path fill="none" d="M403.123 136.423h196.41v47.15h-196.41z"/>
        <path fill="#000" d="M413.701 163.343h1.688v-7.063q.172-.328.406-.594t.516-.453q.328-.234.719-.36.406-.14.875-.14.546 0 .953.125.422.125.703.406.281.297.422.75.156.454.156 1.11v6.219h1.687v-6.266q0-.969-.25-1.688-.234-.718-.687-1.187-.438-.453-1.078-.672-.625-.219-1.406-.219-.563 0-1.079.172-.515.156-.953.438-.297.187-.562.453-.25.265-.469.562l-.125-1.453h-1.516zm30.751-4.813v-.203q0-.766-.125-1.453-.125-.703-.375-1.281-.234-.516-.547-.922-.312-.422-.703-.703-.438-.313-.984-.485-.532-.172-1.157-.172-.515 0-.953.094t-.797.297q-.297.156-.562.375-.25.203-.453.469v-5.203h-1.688v14h1.547l.078-1.125q.172.218.344.39.187.172.39.313.422.297.938.453.531.156 1.172.156.547 0 1.016-.14.484-.141.89-.391.563-.344.953-.89.391-.548.641-1.22.187-.53.281-1.125.094-.593.094-1.234m-1.688-.203v.203q0 .438-.062.86-.047.406-.156.78-.157.47-.407.876-.234.39-.609.64-.266.203-.61.313-.343.094-.765.094-.437 0-.812-.11-.36-.11-.641-.328-.297-.203-.531-.484-.219-.282-.375-.61v-4.312q.156-.328.375-.594.218-.281.515-.5.282-.187.641-.297.375-.125.812-.125.391 0 .72.094.327.094.593.25.39.234.656.64.266.391.422.876.125.39.172.843.062.438.062.891m4.79-4.844v1.469h3.36v6.937h-3.36v1.454h8.265v-1.454h-3.218v-8.406zm3.14-2.578q0 .406.25.688.25.265.766.265.5 0 .75-.265.25-.282.25-.688 0-.234-.078-.422-.063-.187-.203-.328-.125-.11-.313-.172-.172-.078-.406-.078-.25 0-.437.078-.172.063-.297.172-.14.14-.219.344-.063.187-.063.406m7.79 12.438h1.687v-7.063q.172-.328.407-.594t.515-.453q.328-.234.719-.36.406-.14.875-.14.547 0 .953.125.422.125.703.406.281.297.422.75.156.454.156 1.11v6.219h1.688v-6.266q0-.969-.25-1.688-.235-.718-.688-1.187-.437-.453-1.078-.672-.625-.219-1.406-.219-.563 0-1.078.172-.516.156-.953.438-.297.187-.563.453-.25.265-.469.562l-.125-1.453h-1.515zm17.758-2.61q0 .235-.094.453-.094.203-.266.375-.28.282-.78.438t-1.173.156q-.437 0-.875-.078-.437-.094-.797-.313-.359-.218-.609-.578-.234-.359-.266-.875h-1.687q0 .625.281 1.22.297.577.844 1.015.531.437 1.312.718.782.266 1.797.266.875 0 1.61-.203.734-.219 1.265-.61.532-.374.813-.906.297-.547.297-1.203 0-.61-.266-1.062-.25-.469-.734-.828-.5-.344-1.219-.594t-1.625-.453q-.688-.125-1.14-.266-.454-.156-.72-.344-.28-.172-.39-.406t-.11-.516q0-.28.141-.546t.406-.47.672-.312q.407-.125.953-.125.516 0 .922.157.422.14.72.375.28.234.437.546.171.297.171.625h1.688q0-.656-.281-1.218-.266-.563-.782-.969-.515-.422-1.25-.656-.718-.235-1.625-.235-.859 0-1.562.235-.703.218-1.219.61-.5.39-.781.921-.281.516-.281 1.11 0 .609.265 1.077.282.454.782.797.484.344 1.171.594.704.234 1.563.422.687.125 1.14.297.47.172.75.375.282.203.407.437.125.235.125.547"/>
        <path fill="#ccc" fill-rule="evenodd" d="M404.496 185.522H713.41v180.914H404.496z"/>
        <path stroke="#000" stroke-linecap="butt" stroke-linejoin="round" d="M404.496 185.522H713.41v180.914H404.496z"/>
        <path fill="none" d="M622.91 319.28H713.4v47.15H622.91z"/>
        <path fill="#000" d="M638.804 346.2h1.687v-7.062q.172-.328.406-.593.235-.266.516-.454.328-.234.719-.359.406-.14.875-.14.547 0 .953.124.422.125.703.407.281.297.422.75.156.453.156 1.11v6.218h1.688v-6.266q0-.969-.25-1.687-.235-.719-.688-1.188-.437-.453-1.078-.672-.625-.218-1.406-.218-.563 0-1.078.171-.516.157-.953.438-.297.187-.563.453-.25.266-.469.563l-.125-1.454h-1.515zm30.75-4.812v-.203q0-.765-.125-1.453-.125-.703-.375-1.281-.234-.516-.547-.922-.312-.422-.703-.703-.437-.313-.984-.485-.531-.171-1.156-.171-.516 0-.954.093-.437.094-.796.297-.297.156-.563.375-.25.203-.453.469v-5.203h-1.688v14h1.547l.078-1.125q.172.219.344.39.188.172.39.313.423.297.938.453.532.156 1.172.156.547 0 1.016-.14.484-.14.89-.39.563-.345.954-.892.39-.546.64-1.218.188-.532.281-1.125.094-.594.094-1.235m-1.687-.203v.203q0 .438-.063.86-.047.406-.156.781-.156.469-.406.875-.235.39-.61.64-.265.204-.61.313-.343.094-.765.094-.437 0-.812-.11-.36-.109-.64-.328-.298-.203-.532-.484-.219-.281-.375-.61v-4.312q.156-.328.375-.594.219-.28.516-.5.28-.187.64-.297.375-.125.813-.125.39 0 .718.094.329.094.594.25.39.235.656.64.266.391.422.876.125.39.172.844.063.437.063.89m4.789-4.844v1.47h3.36v6.937h-3.36v1.453h8.266v-1.453h-3.22v-8.407zm3.14-2.578q0 .407.25.688.25.265.766.265.5 0 .75-.265.25-.281.25-.688 0-.234-.078-.422-.062-.187-.203-.328-.125-.109-.312-.172-.172-.078-.407-.078-.25 0-.437.078-.172.063-.297.172-.14.141-.219.344-.062.188-.062.406m7.79 12.438h1.687v-7.063q.172-.328.407-.593.234-.266.515-.454.328-.234.72-.359.405-.14.874-.14.547 0 .953.124.422.125.703.407.282.297.422.75.156.453.156 1.11v6.218h1.688v-6.266q0-.969-.25-1.687-.234-.719-.688-1.188-.437-.453-1.078-.672-.625-.218-1.406-.218-.562 0-1.078.171-.516.157-.953.438-.297.187-.563.453-.25.266-.468.563l-.125-1.454h-1.516zm17.758-2.61q0 .235-.094.454-.094.203-.265.375-.282.28-.782.437t-1.172.156q-.437 0-.875-.078-.437-.094-.796-.312-.36-.219-.61-.578-.234-.36-.265-.875h-1.688q0 .625.281 1.218.297.578.844 1.016.531.437 1.313.719.78.265 1.796.265.875 0 1.61-.203.734-.219 1.265-.61.532-.374.813-.905.297-.547.297-1.204 0-.609-.266-1.062-.25-.469-.734-.828-.5-.344-1.219-.594t-1.625-.453q-.687-.125-1.14-.266-.454-.156-.72-.343-.28-.172-.39-.407t-.11-.515q0-.282.141-.547t.407-.469.671-.312q.407-.125.954-.125.515 0 .921.156.422.14.72.375.28.234.437.547.172.297.172.625h1.687q0-.657-.281-1.219-.266-.563-.781-.969-.516-.422-1.25-.656-.72-.234-1.625-.234-.86 0-1.563.234-.703.219-1.219.61-.5.39-.78.921-.282.516-.282 1.11 0 .609.265 1.078.282.453.782.797.484.343 1.172.593.703.235 1.562.422.688.125 1.14.297.47.172.75.375.282.203.407.438t.125.546"/>
        <path fill="none" d="M182.173 177.777h191.622v47.15H182.173z"/>
        <path fill="#000" d="M193.017 190.697v1.469h3.36v11.078h-3.36v1.453h8.266v-1.453h-3.22v-12.547zm17.414 14h1.75v-.14q-.156-.423-.25-.97-.093-.546-.093-1.046v-4.578q0-.829-.297-1.438-.297-.625-.813-1.047-.531-.406-1.25-.61-.719-.202-1.562-.202-.922 0-1.657.25-.718.25-1.218.656-.5.422-.782.953-.265.516-.265 1.047h1.687q0-.313.14-.594.157-.281.438-.5.266-.203.657-.328.406-.14.906-.14.547 0 .969.14.437.14.734.39t.453.61q.172.344.172.797v.781h-1.828q-1.031 0-1.875.203-.828.188-1.422.594t-.922 1.016q-.312.609-.312 1.422 0 .625.234 1.156.25.531.688.906.437.406 1.062.64.64.22 1.438.22.468 0 .89-.11.438-.094.828-.266.375-.171.688-.39.312-.235.562-.5.032.312.094.61.063.28.156.468m-2.984-1.281q-.484 0-.86-.125-.374-.141-.624-.36-.235-.218-.36-.531-.125-.312-.125-.672 0-.39.14-.687t.407-.516q.39-.312 1.031-.453.657-.156 1.532-.156h1.562v2q-.14.28-.406.562-.25.266-.594.469t-.781.344q-.422.125-.922.125m11.695-10.97h-1.703v2.392h-2.578v1.312h2.578v5.344q0 .922.235 1.562.25.64.672 1.047.421.406.984.594.578.187 1.234.187.391 0 .782-.046.406-.032.75-.11.359-.062.656-.156t.515-.219l-.234-1.203q-.156.047-.406.094-.235.047-.516.094-.281.046-.578.078-.281.03-.547.03-.375 0-.719-.093-.328-.094-.578-.312-.265-.22-.406-.594-.14-.375-.14-.953v-5.344h3.75v-1.312h-3.75zm11.555 12.438q1.438 0 2.422-.578t1.47-1.328l-1.032-.797q-.469.594-1.172.969-.688.36-1.594.36-.687 0-1.25-.25-.562-.266-.969-.72-.39-.406-.609-.952-.219-.547-.281-1.266v-.078h7.031v-.75q0-1.031-.266-1.906-.25-.891-.78-1.547-.532-.641-1.329-1-.797-.375-1.86-.375-.843 0-1.656.343-.796.344-1.437.985-.625.656-1.016 1.61-.375.937-.375 2.124v.39q0 1.032.344 1.907t.969 1.5q.61.64 1.484 1 .875.36 1.906.36m-.218-8.843q.656 0 1.125.234t.765.625q.313.375.485.906.172.516.172.985v.078h-5.297q.093-.688.343-1.203.266-.532.625-.891.36-.36.813-.547t.969-.187m7.055 8.656h1.687v-7.063q.172-.328.406-.593.235-.266.516-.453.328-.235.719-.36.406-.14.875-.14.547 0 .953.125.422.125.703.406.281.297.422.75.156.453.156 1.11v6.218h1.688v-6.266q0-.968-.25-1.687-.235-.719-.688-1.188-.437-.453-1.078-.672-.625-.218-1.406-.218-.563 0-1.078.172-.516.156-.953.437-.297.188-.563.453-.25.266-.469.563l-.125-1.453h-1.515zm15.195-12.25h-1.703v2.39h-2.578v1.313h2.578v5.344q0 .922.234 1.562.25.64.672 1.047t.985.594q.578.187 1.234.187.39 0 .781-.046.407-.032.75-.11.36-.062.657-.156.296-.094.515-.219l-.234-1.203q-.156.047-.406.094-.235.047-.516.094-.281.046-.578.078-.281.03-.547.03-.375 0-.719-.093-.328-.094-.578-.312-.266-.22-.406-.594-.14-.375-.14-.953v-5.344h3.75v-1.312h-3.75zm21.766 12.25h1.282l4.015-9.86h-1.719l-2.765 7.438-.156.61-.157-.61-2.828-7.437h-1.734zm14.305 0h1.75v-.14q-.156-.423-.25-.97-.093-.546-.093-1.046v-4.578q0-.829-.297-1.438-.297-.625-.813-1.047-.531-.406-1.25-.61-.719-.202-1.562-.202-.922 0-1.657.25-.718.25-1.218.656-.5.422-.782.953-.265.516-.265 1.047h1.687q0-.313.14-.594.157-.281.438-.5.266-.203.657-.328.406-.14.906-.14.547 0 .969.14.437.14.734.39t.453.61q.172.344.172.797v.781h-1.828q-1.031 0-1.875.203-.828.188-1.422.594t-.922 1.016q-.312.609-.312 1.422 0 .625.234 1.156.25.531.688.906.437.406 1.062.64.64.22 1.438.22.468 0 .89-.11.438-.094.828-.266.375-.171.688-.39.312-.235.562-.5.032.312.094.61.063.28.156.468m-2.984-1.281q-.484 0-.86-.125-.374-.141-.624-.36-.235-.218-.36-.531-.125-.312-.125-.672 0-.39.14-.687t.407-.516q.39-.312 1.031-.453.657-.156 1.532-.156h1.562v2q-.14.28-.406.562-.25.266-.594.469t-.781.344q-.422.125-.922.125m14.164-8.75q-1.078 0-1.922.468-.843.47-1.437 1.266l-.016-.234-.078-1.328h-1.594v9.859h1.688v-6.328q.172-.453.422-.813.25-.375.578-.625.375-.297.875-.437.5-.156 1.125-.156.484 0 .922.046.453.047.937.157l.235-1.641q-.266-.11-.766-.172t-.969-.062m4.993.172v1.468h3.36v6.938h-3.36v1.453h8.265v-1.453h-3.218v-8.406zm3.14-2.579q0 .407.25.688.25.266.766.266.5 0 .75-.266.25-.281.25-.688 0-.234-.078-.421-.063-.188-.203-.329-.125-.109-.313-.171-.172-.079-.406-.079-.25 0-.438.079-.171.062-.296.171-.141.141-.22.344-.062.188-.062.406m14.274 12.438h1.75v-.14q-.156-.423-.25-.97t-.094-1.046v-4.578q0-.829-.297-1.438-.296-.625-.812-1.047-.531-.406-1.25-.61-.719-.202-1.563-.202-.921 0-1.656.25-.719.25-1.219.656-.5.422-.78.953-.266.516-.266 1.047h1.687q0-.313.14-.594.157-.281.438-.5.266-.203.656-.328.407-.14.907-.14.547 0 .968.14.438.14.735.39t.453.61q.172.344.172.797v.781h-1.828q-1.032 0-1.875.203-.828.188-1.422.594t-.922 1.016q-.313.609-.313 1.422 0 .625.235 1.156.25.531.687.906.438.406 1.063.64.64.22 1.437.22.469 0 .89-.11.438-.094.829-.266.375-.171.688-.39.312-.235.562-.5.031.312.094.61.062.28.156.468m-2.984-1.281q-.485 0-.86-.125-.375-.141-.625-.36-.234-.218-.36-.531-.124-.312-.124-.672 0-.39.14-.687t.407-.516q.39-.312 1.031-.453.656-.156 1.531-.156h1.563v2q-.14.28-.406.562-.25.266-.594.469t-.781.344q-.422.125-.922.125m16.055-3.532v-.203q0-.765-.125-1.453-.125-.703-.375-1.281-.235-.516-.547-.922-.313-.422-.703-.703-.438-.313-.985-.484-.531-.172-1.156-.172-.516 0-.953.093-.438.094-.797.297-.297.157-.563.375-.25.203-.453.469v-5.203h-1.687v14h1.547l.078-1.125q.172.219.344.39.187.172.39.313.422.297.938.453.531.156 1.172.156.546 0 1.015-.14.485-.14.89-.39.563-.345.954-.891.39-.547.64-1.22.188-.53.282-1.124t.094-1.235m-1.688-.203v.203q0 .438-.062.86-.047.406-.157.781-.156.469-.406.875-.234.39-.61.64-.265.204-.609.313-.343.094-.765.094-.438 0-.813-.11-.36-.109-.64-.328-.297-.203-.532-.484-.218-.281-.375-.61v-4.312q.157-.328.375-.594.22-.28.516-.5.281-.187.64-.296.376-.125.813-.125.39 0 .719.093.328.094.594.25.39.235.656.64.265.392.422.876.125.39.172.844.062.437.062.89m4.79-8.984v1.469h3.359v11.078h-3.36v1.453h8.266v-1.453h-3.219v-12.547zm15.289 14.187q1.437 0 2.422-.578.984-.578 1.468-1.328l-1.03-.797q-.47.594-1.173.969-.687.36-1.594.36-.687 0-1.25-.25-.562-.266-.968-.72-.39-.406-.61-.952-.218-.547-.28-1.266v-.078h7.03v-.75q0-1.031-.265-1.906-.25-.891-.782-1.547-.53-.641-1.328-1-.797-.375-1.859-.375-.844 0-1.656.343-.797.344-1.438.985-.625.656-1.015 1.61-.375.937-.375 2.124v.39q0 1.032.343 1.907t.97 1.5q.608.64 1.483 1t1.907.36m-.219-8.843q.656 0 1.125.234t.766.625q.312.375.484.906.172.516.172.985v.078h-5.297q.094-.688.344-1.203.265-.532.625-.891.36-.36.812-.547t.969-.187"/>
        <path fill="none" d="M516.99 186.423h196.409v47.15h-196.41z"/>
        <path fill="#000" d="M531.568 201.093h-1.704v2.39h-2.578v1.313h2.578v5.343q0 .922.235 1.563.25.64.672 1.047t.984.594q.578.187 1.234.187.391 0 .782-.047.406-.031.75-.11.36-.062.656-.155.297-.094.516-.22l-.235-1.202q-.156.047-.406.093-.234.047-.516.094-.28.047-.578.078-.281.032-.547.032-.375 0-.718-.094-.329-.094-.579-.313-.265-.218-.406-.593-.14-.375-.14-.954v-5.343h3.75v-1.313h-3.75zm13.539 8.812 1.047 3.438h1.672l-4.203-13.266H542.2l-4.282 13.266h1.688l1.062-3.438zm-3.984-1.469 1.78-5.75 1.75 5.75zm17.148 4.907v-13.266h-1.703l-.031 9.89-5.14-9.89h-1.72v13.266h1.704l.03-9.907 5.157 9.907zm9.836-3.36q0 .547-.25.953-.234.391-.609.641-.36.266-.844.39-.484.126-.968.126-.625 0-1.157-.157-.515-.172-.906-.515-.406-.328-.672-.797-.25-.485-.328-1.11h-1.719q.032.86.375 1.563.344.687.953 1.203.672.61 1.579.938.921.312 1.875.312.796 0 1.578-.219.797-.234 1.422-.672.625-.437 1.015-1.109.406-.672.406-1.562 0-.875-.375-1.547-.359-.688-.953-1.14-.625-.5-1.359-.829t-1.469-.547q-.453-.14-.953-.312-.5-.188-.937-.47-.438-.265-.72-.655-.28-.407-.296-.985 0-.531.219-.922.218-.406.578-.672.36-.28.812-.406.47-.14.953-.14.594 0 1.063.187.484.172.828.516.36.343.563.812t.28 1.031h1.735q-.015-.906-.39-1.64-.375-.735-1-1.266-.61-.515-1.422-.797-.797-.297-1.657-.297-.796 0-1.578.25-.765.235-1.375.704-.609.468-.984 1.14t-.375 1.531q0 .86.375 1.5.375.625.984 1.094.594.453 1.313.781.719.313 1.422.547.484.157 1 .344.531.188.968.469.438.297.72.719.28.406.28 1.015m16.392 3.36h1.328l1.53-6.047.235-1.516.266 1.516 1.531 6.047h1.328l2.094-9.86h-1.484l-1.094 6.281-.25 1.563-.266-1.563-1.562-6.28h-1.094l-1.562 6.28-.25 1.422-.204-1.422-1.14-6.28h-1.5zm14.601.187q1.438 0 2.422-.578t1.469-1.328l-1.031-.797q-.469.594-1.172.969-.688.36-1.594.36-.687 0-1.25-.25-.562-.267-.969-.72-.39-.406-.609-.953t-.281-1.265v-.079h7.031v-.75q0-1.03-.266-1.906-.25-.89-.78-1.547-.532-.64-1.329-1-.797-.375-1.86-.375-.843 0-1.656.344-.796.344-1.437.984-.625.657-1.016 1.61-.375.937-.375 2.125v.39q0 1.032.344 1.907t.969 1.5q.61.64 1.484 1 .875.36 1.906.36m-.218-8.844q.656 0 1.125.235t.765.625q.313.375.485.906.172.516.172.984v.078h-5.297q.093-.687.343-1.203.266-.53.625-.89.36-.36.813-.547t.969-.188m7.32-1.203v1.469h3.36v6.937h-3.36v1.454h8.266v-1.454h-3.219v-8.406zm3.14-2.578q0 .406.25.688.25.265.766.265.5 0 .75-.265.25-.282.25-.688 0-.234-.078-.422-.062-.187-.203-.328-.125-.11-.312-.172-.172-.078-.407-.078-.25 0-.437.078-.172.063-.297.172-.14.14-.219.344-.062.187-.062.406m7.493 7.422v.203q0 1.047.266 1.969.281.906.781 1.594.5.671 1.235 1.062.734.375 1.625.375.546 0 1-.125.468-.11.859-.312.234-.141.453-.313.219-.187.406-.406v.844q0 .64-.187 1.125-.172.5-.516.828t-.828.5-1.078.172q-.344 0-.688-.063-.328-.062-.671-.219-.329-.156-.657-.422-.328-.25-.64-.625l-.875 1q.343.485.812.813t.969.516q.5.203.984.28.5.095.89.095.923 0 1.688-.282.766-.265 1.329-.78.546-.532.843-1.298.313-.75.313-1.719v-9.656h-1.531l-.079 1.078q-.171-.218-.375-.39-.187-.188-.406-.328-.406-.266-.906-.391-.5-.14-1.094-.14-.906 0-1.64.374-.735.36-1.235 1.032-.515.656-.781 1.593-.266.922-.266 2.016m1.672.203v-.203q0-.719.156-1.36.157-.656.485-1.156.312-.5.812-.78.516-.298 1.22-.298.42 0 .765.11.343.093.625.28.297.188.515.454.22.25.375.562v4.516q-.156.313-.375.578-.218.266-.5.453-.28.203-.64.313-.344.094-.782.094-.703 0-1.203-.282-.5-.297-.812-.78-.328-.5-.485-1.142-.156-.64-.156-1.359m11.508-3.578v-5.61h-1.687v14h1.687v-7.156q.188-.297.422-.53.234-.25.5-.423.344-.25.75-.375.422-.125.875-.125.563-.015.984.156.422.157.704.47.265.296.406.734.14.437.14 1.03v6.22h1.688v-6.204q0-1-.25-1.718-.234-.719-.688-1.203-.437-.47-1.078-.688-.625-.219-1.406-.219-.594 0-1.125.172-.516.156-.953.485-.266.187-.516.437t-.453.547m13.508-3.86h-1.703v2.391h-2.578v1.313h2.578v5.343q0 .922.235 1.563.25.64.671 1.047t.985.594q.578.187 1.234.187.39 0 .781-.047.407-.031.75-.11.36-.062.657-.155.297-.094.515-.22l-.234-1.202q-.156.047-.406.093-.235.047-.516.094t-.578.078q-.281.032-.547.032-.375 0-.719-.094-.328-.094-.578-.313-.265-.218-.406-.593-.14-.375-.14-.954v-5.343h3.75v-1.313h-3.75z"/>
        <path fill="none" d="M516.99 224.927h196.409v47.15h-196.41z"/>
        <path fill="#000" d="M527.833 237.847v1.468h3.36v11.078h-3.36v1.454h8.266v-1.454h-3.219v-12.546zm10.461 8.984v.203q0 1.063.313 1.969.312.906.89 1.594.579.671 1.407 1.062.844.375 1.89.375 1.032 0 1.86-.375.828-.39 1.406-1.062.578-.688.89-1.594t.313-1.969v-.203q0-1.063-.312-1.984-.313-.922-.89-1.594-.58-.672-1.423-1.047-.828-.39-1.875-.39-1.031 0-1.86.39-.827.375-1.405 1.047t-.891 1.594q-.313.921-.313 1.984m1.688.203v-.203q0-.719.172-1.375.172-.672.531-1.172.344-.5.86-.797.515-.297 1.218-.297t1.219.297q.531.297.89.797.344.5.516 1.172.188.656.188 1.375v.203q0 .719-.172 1.39-.172.657-.516 1.157-.36.5-.89.797-.516.281-1.204.281-.703 0-1.234-.281-.531-.297-.875-.797-.36-.5-.531-1.156-.172-.672-.172-1.391m10.93 4.813h1.328l1.531-6.047.235-1.516.265 1.516 1.531 6.047h1.329l2.093-9.86h-1.484l-1.094 6.281-.25 1.563-.265-1.563-1.563-6.28h-1.094l-1.562 6.28-.25 1.422-.203-1.422-1.14-6.28h-1.5zm14.602.187q1.437 0 2.422-.578.984-.578 1.468-1.328l-1.03-.797q-.47.594-1.173.969-.687.359-1.594.359-.687 0-1.25-.25-.562-.266-.968-.719-.39-.406-.61-.953-.218-.547-.28-1.265v-.079h7.03v-.75q0-1.03-.265-1.906-.25-.89-.782-1.547-.53-.64-1.328-1-.797-.375-1.859-.375-.844 0-1.656.344-.797.344-1.438.984-.625.657-1.015 1.61-.375.937-.375 2.125v.39q0 1.032.343 1.907t.97 1.5q.608.64 1.483 1 .875.359 1.907.359m-.219-8.844q.656 0 1.125.235t.766.625q.312.375.484.906.172.516.172.984v.078h-5.297q.094-.687.344-1.203.265-.531.625-.89.36-.36.812-.547t.969-.188m13.524-1.375q-1.078 0-1.922.469t-1.438 1.266l-.015-.235-.078-1.328h-1.594v9.86h1.687v-6.329q.172-.453.422-.812.25-.375.578-.625.375-.297.875-.438.5-.156 1.125-.156.485 0 .922.047.453.047.938.156l.234-1.64q-.266-.11-.766-.172-.5-.063-.968-.063m24.281 5.219v-.203q0-.766-.125-1.453-.125-.703-.375-1.281-.234-.516-.546-.922-.313-.422-.704-.703-.437-.313-.984-.485-.531-.172-1.156-.172-.516 0-.953.094-.438.094-.797.297-.297.156-.563.375-.25.203-.453.469v-5.203h-1.687v14h1.547l.078-1.125q.172.218.343.39.188.172.391.313.422.297.938.453.53.156 1.171.156.547 0 1.016-.14.484-.141.89-.391.563-.344.954-.89.39-.548.64-1.22.188-.53.282-1.125.093-.593.093-1.234m-1.687-.203v.203q0 .438-.063.86-.046.406-.156.78-.156.47-.406.876-.234.39-.61.64-.265.203-.609.313-.344.094-.765.094-.438 0-.813-.11-.36-.11-.64-.328-.297-.203-.532-.484-.219-.282-.375-.61v-4.312q.156-.328.375-.594.219-.281.516-.5.281-.187.64-.297.375-.125.813-.125.39 0 .719.094t.593.25q.391.234.657.64.265.391.422.876.125.39.171.843.063.438.063.89m4.055 0v.203q0 1.063.312 1.969.313.906.891 1.594.578.671 1.406 1.062.844.375 1.89.375 1.032 0 1.86-.375.828-.39 1.407-1.062.578-.688.89-1.594t.313-1.969v-.203q0-1.063-.313-1.984-.312-.922-.89-1.594t-1.422-1.047q-.828-.39-1.875-.39-1.032 0-1.86.39-.828.375-1.406 1.047t-.89 1.594-.313 1.984m1.687.203v-.203q0-.719.172-1.375.172-.672.532-1.172.343-.5.859-.797t1.219-.297 1.218.297q.532.297.891.797.344.5.516 1.172.187.656.187 1.375v.203q0 .719-.172 1.39-.172.657-.515 1.157-.36.5-.891.797-.516.281-1.203.281-.703 0-1.234-.281-.532-.297-.875-.797-.36-.5-.532-1.156-.172-.672-.172-1.391m16.477 4.813h1.531v-9.86h-1.687v7.078q-.14.313-.344.578-.203.266-.484.47-.328.234-.781.374-.438.125-1 .125-.485 0-.86-.125-.36-.14-.625-.453-.25-.312-.375-.828-.125-.531-.125-1.344v-5.875h-1.687v5.86q0 1.109.234 1.89.25.781.688 1.297.453.516 1.078.766.625.234 1.406.234.969 0 1.703-.406t1.234-1.14zm4.696 0h1.687v-7.063q.172-.328.407-.594t.515-.453q.328-.234.719-.36.406-.14.875-.14.547 0 .953.125.422.125.703.406.281.297.422.75.156.454.156 1.11v6.219h1.688v-6.266q0-.969-.25-1.688-.235-.718-.688-1.187-.437-.453-1.078-.672-.625-.219-1.406-.219-.563 0-1.078.172-.516.156-.953.438-.297.187-.563.453-.25.265-.469.562l-.125-1.453h-1.515zm10.883-5.016v.203q0 1.047.281 1.969.281.906.797 1.594.5.671 1.219 1.062.734.375 1.625.375.922 0 1.593-.312.688-.313 1.188-.907l.062 1.032h1.547v-14h-1.687v5.125q-.469-.579-1.14-.86-.657-.297-1.548-.297-.89 0-1.625.375-.734.36-1.234 1.032-.516.656-.797 1.593-.281.922-.281 2.016m1.687.203v-.203q0-.719.157-1.36.156-.656.484-1.156.312-.5.812-.781.516-.297 1.22-.297.827 0 1.374.39.563.391.89.985v4.578q-.327.64-.89 1.032-.547.375-1.39.375-.704 0-1.204-.282-.5-.297-.812-.781-.328-.5-.484-1.14-.157-.641-.157-1.36"/>
        <path fill="none" d="M516.99 265.9h196.409v47.15h-196.41z"/>
        <path fill="#000" d="M527.099 287.805v.203q0 1.062.312 1.969.313.906.891 1.593.578.672 1.406 1.063.844.375 1.89.375 1.032 0 1.86-.375.828-.39 1.407-1.063.578-.687.89-1.593.313-.907.313-1.97v-.202q0-1.063-.313-1.985-.312-.922-.89-1.593-.579-.672-1.422-1.047-.828-.391-1.875-.391-1.032 0-1.86.39-.828.376-1.406 1.048-.578.671-.89 1.593t-.313 1.985m1.687.203v-.203q0-.72.172-1.375.172-.672.532-1.172.343-.5.859-.797t1.219-.297 1.218.297q.532.297.891.797.344.5.516 1.172.187.656.187 1.375v.203q0 .719-.172 1.39-.172.657-.515 1.157-.36.5-.891.797-.516.28-1.203.28-.703 0-1.234-.28-.532-.297-.875-.797-.36-.5-.532-1.157-.172-.671-.172-1.39m12.493 4.812h1.703v-8.547h3.797v-1.312h-3.797v-.688q0-.625.156-1.078.156-.468.469-.765.297-.282.734-.422.438-.14 1.016-.14.562 0 1.062.093.5.094.875.219l.188-1.391q-.234-.062-.469-.11-.219-.046-.453-.093-.344-.063-.703-.11-.344-.046-.703-.046-.875 0-1.594.25-.703.25-1.203.734-.516.484-.797 1.203-.281.703-.281 1.656v.688h-2.703v1.312h2.703zm11.195 0h1.704v-8.547h3.796v-1.312h-3.796v-.688q0-.625.156-1.078.156-.468.469-.765.296-.282.734-.422.437-.14 1.016-.14.562 0 1.062.093.5.094.875.219l.188-1.391q-.235-.062-.47-.11-.218-.046-.452-.093-.344-.063-.703-.11-.344-.046-.704-.046-.875 0-1.593.25-.703.25-1.203.734-.516.484-.797 1.203-.282.703-.282 1.656v.688h-2.703v1.312h2.703zm15.243-2.61q0 .235-.094.454-.094.203-.265.375-.282.281-.782.438t-1.172.156q-.437 0-.875-.078-.437-.094-.796-.313t-.61-.578q-.234-.36-.265-.875h-1.688q0 .625.281 1.219.297.578.844 1.015.531.438 1.313.72.78.265 1.796.265.875 0 1.61-.203.734-.22 1.265-.61.532-.375.813-.906.297-.547.297-1.203 0-.61-.266-1.063-.25-.468-.734-.828-.5-.343-1.219-.593t-1.625-.454q-.687-.125-1.14-.265-.454-.156-.72-.344-.28-.172-.39-.406t-.11-.516q0-.281.141-.547.14-.265.407-.468.265-.204.671-.313.407-.125.954-.125.515 0 .921.156.422.14.72.375.28.235.437.547.172.297.172.625h1.687q0-.656-.281-1.219-.266-.562-.781-.968-.516-.422-1.25-.657-.72-.234-1.625-.234-.86 0-1.563.234-.703.22-1.219.61-.5.39-.781.922-.281.515-.281 1.109 0 .61.265 1.078.282.453.782.797.484.344 1.172.594.703.234 1.562.422.688.125 1.14.297.47.171.75.375.282.203.407.437t.125.547m8.992 2.798q1.438 0 2.422-.578t1.469-1.328l-1.031-.797q-.47.593-1.172.968-.688.36-1.594.36-.687 0-1.25-.25-.562-.266-.969-.719-.39-.406-.61-.953-.218-.547-.28-1.266v-.078h7.03v-.75q0-1.031-.265-1.906-.25-.89-.78-1.547-.532-.64-1.33-1-.796-.375-1.858-.375-.844 0-1.657.344-.797.344-1.437.984-.625.656-1.016 1.61-.375.937-.375 2.125v.39q0 1.031.344 1.906t.969 1.5q.61.641 1.484 1 .875.36 1.906.36m-.218-8.844q.656 0 1.125.234t.765.625q.313.375.485.907.171.515.171.984v.078h-5.296q.093-.687.343-1.203.266-.531.625-.89.36-.36.813-.547t.969-.188m11.054-3.594h-1.703v2.39h-2.578v1.313h2.578v5.344q0 .922.235 1.563.25.64.672 1.047.421.406.984.593.578.188 1.234.188.391 0 .782-.047.406-.031.75-.11.359-.062.656-.156.297-.093.515-.218l-.234-1.204q-.156.047-.406.094-.235.047-.516.094t-.578.078q-.281.031-.547.031-.375 0-.719-.093-.328-.094-.578-.313-.265-.219-.406-.594-.14-.375-.14-.953v-5.344h3.75v-1.312h-3.75zm26.751 7.438v-.203q0-.766-.125-1.453-.125-.704-.375-1.282-.234-.515-.547-.922-.312-.421-.703-.703-.437-.312-.984-.484-.532-.172-1.157-.172-.515 0-.953.094t-.797.297q-.296.156-.562.375-.25.203-.453.468v-5.203h-1.688v14h1.547l.078-1.125q.172.219.344.39.188.173.39.313.423.297.938.454.531.156 1.172.156.547 0 1.016-.14.484-.141.89-.391.563-.344.953-.891.391-.547.641-1.219.188-.531.281-1.125t.094-1.234m-1.687-.203v.203q0 .437-.063.86-.047.405-.156.78-.156.47-.406.875-.235.391-.61.641-.265.203-.61.313-.343.093-.765.093-.437 0-.812-.11-.36-.108-.641-.327-.297-.203-.531-.485-.219-.28-.375-.609v-4.312q.156-.329.375-.594.219-.281.515-.5.282-.188.641-.297.375-.125.813-.125.39 0 .718.094.328.093.594.25.39.234.656.64.266.39.422.875.125.39.172.844.063.438.063.89m4.789-4.844v1.469h3.36v6.937h-3.36v1.453h8.265v-1.453h-3.218v-8.406zm3.14-2.578q0 .406.25.687.25.266.766.266.5 0 .75-.266.25-.281.25-.687 0-.235-.078-.422-.063-.188-.203-.328-.125-.11-.313-.172-.172-.078-.406-.078-.25 0-.437.078-.172.062-.297.172-.14.14-.219.344-.063.187-.063.406m11.79.187h-1.703v2.39h-2.578v1.313h2.578v5.344q0 .922.234 1.563.25.64.672 1.047t.984.593q.578.188 1.235.188.39 0 .78-.047.407-.031.75-.11.36-.062.657-.156.297-.093.516-.218l-.235-1.204q-.156.047-.406.094-.234.047-.515.094t-.579.078q-.28.031-.546.031-.375 0-.72-.093-.327-.094-.577-.313-.266-.219-.407-.594t-.14-.953v-5.344h3.75v-1.312h-3.75zm13.758 9.64q0 .235-.094.454-.094.203-.266.375-.28.281-.78.438t-1.173.156q-.437 0-.875-.078-.437-.094-.797-.313-.359-.219-.609-.578-.234-.36-.266-.875h-1.687q0 .625.281 1.219.297.578.844 1.015.531.438 1.312.72.782.265 1.797.265.875 0 1.61-.203.734-.22 1.265-.61.532-.375.813-.906.297-.547.297-1.203 0-.61-.266-1.063-.25-.468-.734-.828-.5-.343-1.219-.593t-1.625-.454q-.688-.125-1.14-.265-.454-.156-.72-.344-.28-.172-.39-.406t-.11-.516q0-.281.141-.547.14-.265.406-.468t.672-.313q.407-.125.953-.125.516 0 .922.156.422.14.72.375.28.235.437.547.171.297.171.625h1.688q0-.656-.281-1.219-.266-.562-.782-.968-.515-.422-1.25-.657-.718-.234-1.625-.234-.859 0-1.562.234-.703.22-1.219.61-.5.39-.781.922-.281.515-.281 1.109 0 .61.265 1.078.282.453.782.797.484.344 1.171.594.704.234 1.563.422.687.125 1.14.297.47.171.75.375.282.203.407.437t.125.547"/>
        <path fill="none" d="M403.123 227.021h53.859v47.15h-53.859z"/>
        <path fill="#000" d="M422.06 249.129v-.204q0-.765-.124-1.453-.125-.703-.375-1.281-.235-.516-.547-.922-.313-.422-.703-.703-.438-.312-.985-.484-.53-.172-1.156-.172-.515 0-.953.094-.437.093-.797.296-.297.157-.562.375-.25.203-.453.47v-5.204h-1.688v14h1.547l.078-1.125q.172.219.344.39.187.173.39.313.422.297.938.453.531.156 1.172.156.547 0 1.015-.14.485-.14.891-.39.563-.345.953-.891.39-.547.64-1.22.188-.53.282-1.124t.094-1.234m-1.687-.204v.203q0 .438-.062.86-.047.406-.156.781-.157.469-.407.875-.234.39-.609.64-.266.204-.61.313-.343.094-.765.094-.438 0-.813-.11-.359-.109-.64-.327-.297-.204-.531-.485-.22-.281-.375-.61v-4.312q.156-.328.375-.594.218-.28.515-.5.281-.187.64-.296.376-.125.813-.125.391 0 .72.093.327.094.593.25.39.235.656.641.266.39.422.875.125.39.172.844.062.437.062.89m4.79-4.843v1.468h3.36v6.938h-3.36v1.453h8.265v-1.453h-3.218v-8.406zm3.14-2.578q0 .406.25.687.25.266.766.266.5 0 .75-.266.25-.281.25-.687 0-.235-.078-.422-.063-.188-.203-.328-.125-.11-.313-.172-.172-.078-.406-.078-.25 0-.438.078-.171.062-.296.172-.141.14-.22.343-.062.188-.062.406m7.79 12.437h1.687v-7.062q.172-.329.406-.594.235-.266.516-.453.328-.235.719-.36.406-.14.875-.14.547 0 .953.125.422.125.703.406.281.297.422.75.156.453.156 1.11v6.218h1.688v-6.266q0-.968-.25-1.687-.235-.719-.688-1.188-.437-.453-1.078-.672-.625-.218-1.406-.218-.563 0-1.078.172-.516.156-.954.437-.296.188-.562.453-.25.266-.469.563l-.125-1.453h-1.515z"/>
        <path fill="none" d="m134.205 154.202 47.968-130.614"/>
        <path stroke="#000" stroke-linecap="butt" stroke-linejoin="round" d="m134.205 154.202 45.9-124.982"/>
        <path fill="#000" fill-rule="evenodd" stroke="#000" stroke-linecap="butt" d="m181.655 29.79.014-4.83-3.115 3.69z"/>
        <path fill="none" d="m134.205 154.202 45.575-83.464"/>
        <path stroke="#000" stroke-linecap="butt" stroke-linejoin="round" d="m134.205 154.202 42.7-78.198"/>
        <path fill="#000" fill-rule="evenodd" stroke="#000" stroke-linecap="butt" d="m178.354 76.795.725-4.774-3.625 3.191z"/>
        <path fill="none" d="m134.205 154.202 47.968 47.15"/>
        <path stroke="#000" stroke-linecap="butt" stroke-linejoin="round" d="m134.205 154.202 43.69 42.944"/>
        <path fill="#000" fill-rule="evenodd" stroke="#000" stroke-linecap="butt" d="m176.736 198.324 4.395 2.003-2.079-4.36z"/>
        <path fill="none" d="m373.795 201.352 29.323 49.26"/>
        <path stroke="#000" stroke-linecap="butt" stroke-linejoin="round" d="m373.795 201.352 26.254 44.104"/>
        <path fill="#000" fill-rule="evenodd" stroke="#000" stroke-linecap="butt" d="m398.63 246.3 3.74 3.055-.902-4.744z"/>
        <path fill="none" d="m373.795 201.352 29.323-79.15"/>
        <path stroke="#000" stroke-linecap="butt" stroke-linejoin="round" d="m373.795 201.352 27.239-73.524"/>
        <path fill="#000" fill-rule="evenodd" stroke="#000" stroke-linecap="butt" d="m402.583 128.402.027-4.83-3.125 3.683z"/>
        <path fill="none" d="m373.795 201.352 29.323-41.355"/>
        <path stroke="#000" stroke-linecap="butt" stroke-linejoin="round" d="m373.795 201.352 25.853-36.46"/>
        <path fill="#000" fill-rule="evenodd" stroke="#000" stroke-linecap="butt" d="m400.995 165.847 1.278-4.657-3.973 2.746z"/>
        <path fill="none" d="m456.982 250.596 60-40.599"/>
        <path stroke="#000" stroke-linecap="butt" stroke-linejoin="round" d="m456.982 250.596 55.03-37.236"/>
        <path fill="#000" fill-rule="evenodd" stroke="#000" stroke-linecap="butt" d="m512.938 214.728 2.833-3.911-4.684 1.175z"/>
        <path fill="none" d="m456.982 250.596 60-2.079"/>
        <path stroke="#000" stroke-linecap="butt" stroke-linejoin="round" d="m456.982 250.596 54.003-1.871"/>
        <path fill="#000" fill-rule="evenodd" stroke="#000" stroke-linecap="butt" d="m511.042 250.376 4.479-1.808-4.593-1.494z"/>
        <path fill="none" d="m456.982 250.596 60 38.866"/>
        <path stroke="#000" stroke-linecap="butt" stroke-linejoin="round" d="m456.982 250.596 54.964 35.604"/>
        <path fill="#000" fill-rule="evenodd" stroke="#000" stroke-linecap="butt" d="m511.048 287.586 4.707 1.081-2.911-3.853z"/>
    </g>
</svg>
