<svg xmlns="http://www.w3.org/2000/svg" fill="none" stroke-linecap="square" stroke-miterlimit="10" viewBox="0 0 620.635 461.906">
    <clipPath id="a">
        <path d="M0 0h620.635v461.906H0z"/>
    </clipPath>
    <g clip-path="url(#a)">
        <path fill="#fff" fill-rule="evenodd" d="M0 0h620.635v461.906H0z"/>
        <path fill="none" d="M0 127.052h70.016v47.15H0z"/>
        <path fill="#000" d="M10.578 157.77h1.688v-4.75q.172.202.375.374.218.172.453.313.39.219.875.328.5.125 1.062.125.922 0 1.64-.375.735-.39 1.235-1.063.485-.687.735-1.593.265-.922.265-1.969v-.203q0-1.094-.265-2.016-.25-.937-.735-1.594-.5-.671-1.234-1.03-.719-.376-1.672-.376-.531 0-1 .11-.469.109-.86.328-.265.14-.515.36-.234.202-.422.452l-.094-1.078h-1.53zm6.64-8.813v.203q0 .719-.171 1.375-.156.656-.485 1.156t-.843.797q-.5.297-1.203.297-.438 0-.797-.11-.36-.109-.64-.312-.267-.156-.47-.39-.187-.235-.343-.516v-4.75q.172-.297.39-.547.235-.266.531-.438.266-.171.594-.265t.719-.094q.719 0 1.219.297.515.281.844.781t.484 1.156q.172.641.172 1.36m11.04 5.015h1.75v-.14q-.156-.422-.25-.969t-.094-1.047v-4.578q0-.828-.297-1.437-.296-.625-.812-1.047-.531-.407-1.25-.61t-1.563-.203q-.921 0-1.656.25-.719.25-1.219.656-.5.422-.78.954-.266.515-.266 1.046h1.687q0-.312.14-.593.157-.282.438-.5.266-.203.656-.328.407-.141.907-.141.547 0 .968.14.438.141.735.391t.453.61q.172.343.172.796v.782h-1.828q-1.032 0-1.875.203-.828.187-1.422.594t-.922 1.015q-.313.61-.313 1.422 0 .625.235 1.156.25.532.687.907.438.406 1.063.64.64.219 1.437.219.47 0 .89-.11.438-.093.83-.265.374-.172.687-.39.312-.235.562-.5.031.312.094.609.062.281.156.468m-2.984-1.28q-.485 0-.86-.126-.375-.14-.625-.36-.234-.218-.36-.53-.124-.313-.124-.672 0-.39.14-.688t.407-.515q.39-.313 1.031-.454.656-.156 1.531-.156h1.563v2q-.14.281-.406.563-.25.265-.594.468t-.781.344q-.422.125-.922.125m7.398-3.735v.203q0 1.047.266 1.969.281.906.781 1.593.5.672 1.235 1.063.734.375 1.625.375.547 0 1-.125.468-.11.859-.313.234-.14.453-.312.219-.188.406-.406v.843q0 .641-.187 1.125-.172.5-.516.829-.343.328-.828.5t-1.078.171q-.344 0-.687-.062-.329-.063-.672-.219-.328-.156-.657-.422-.328-.25-.64-.625l-.875 1q.344.485.812.813t.969.515q.5.204.984.282.5.093.891.093.922 0 1.688-.28.765-.266 1.328-.782.547-.531.843-1.297.313-.75.313-1.719v-9.656h-1.531l-.078 1.078q-.172-.219-.375-.39-.188-.188-.407-.329-.406-.265-.906-.39-.5-.14-1.094-.14-.906 0-1.64.374-.735.36-1.235 1.031-.515.657-.781 1.594-.266.922-.266 2.016m1.672.203v-.203q0-.719.157-1.36.156-.656.484-1.156.312-.5.812-.781.516-.297 1.22-.297.421 0 .765.11.344.093.625.28.297.188.515.454.22.25.375.562v4.516q-.156.312-.375.578-.218.266-.5.453-.28.203-.64.313-.344.093-.781.093-.704 0-1.204-.28-.5-.298-.812-.782-.328-.5-.484-1.14-.157-.641-.157-1.36m14.18 5q1.438 0 2.422-.578t1.469-1.328l-1.031-.797q-.47.594-1.172.969-.688.359-1.594.359-.688 0-1.25-.25-.563-.266-.969-.719-.39-.406-.61-.953-.218-.547-.28-1.266v-.078h7.03v-.75q0-1.03-.265-1.906-.25-.89-.781-1.547-.531-.64-1.328-1-.797-.375-1.86-.375-.843 0-1.656.344-.797.344-1.437.984-.625.657-1.016 1.61-.375.937-.375 2.125v.39q0 1.032.344 1.907t.969 1.5q.609.64 1.484 1 .875.359 1.906.359m-.219-8.844q.657 0 1.125.235.47.234.766.625.313.375.484.906.172.515.172.984v.078h-5.297q.094-.687.344-1.203.266-.531.625-.89.36-.36.813-.547t.968-.188"/>
        <path fill="#efefef" fill-rule="evenodd" d="M113.003 14h312.283v136.63H113.003z"/>
        <path stroke="#000" stroke-linecap="butt" stroke-linejoin="round" d="M113.003 14h312.283v136.63H113.003z"/>
        <path fill="none" d="M255.654 14H506.52v47.15H255.654z"/>
        <path fill="#000" d="M265.92 35.904v.203q0 1.047.28 1.97.282.905.797 1.593.5.672 1.219 1.062.734.375 1.625.375.922 0 1.594-.312.687-.313 1.187-.906l.063 1.031h1.547v-14h-1.688v5.125q-.469-.578-1.14-.86-.657-.296-1.547-.296-.891 0-1.625.375-.735.36-1.235 1.031-.515.656-.797 1.594-.28.922-.28 2.015m1.687.203v-.203q0-.718.156-1.359.156-.656.484-1.156.313-.5.813-.782.515-.296 1.219-.296.828 0 1.375.39.562.39.89.985v4.578q-.328.64-.89 1.031-.547.375-1.391.375-.703 0-1.203-.281-.5-.297-.813-.782-.328-.5-.484-1.14t-.156-1.36m14.18 5q1.437 0 2.421-.578.985-.578 1.47-1.328l-1.032-.797q-.469.594-1.172.97-.687.358-1.594.358-.687 0-1.25-.25-.562-.265-.968-.718-.391-.407-.61-.953-.219-.547-.281-1.266v-.078h7.031v-.75q0-1.031-.265-1.906-.25-.891-.782-1.547-.53-.64-1.328-1-.797-.375-1.86-.375-.843 0-1.655.343-.797.344-1.438.985-.625.656-1.016 1.61-.375.937-.375 2.124v.39q0 1.032.344 1.907t.969 1.5q.61.64 1.484 1 .875.36 1.907.36m-.22-8.843q.657 0 1.126.234t.765.625q.313.375.485.906.172.516.172.985v.078h-5.297q.094-.688.344-1.203.265-.532.625-.89.359-.36.812-.548.453-.187.969-.187m7.321-5.344v1.469h3.36v11.078h-3.36v1.453h8.266v-1.453h-3.219V26.92zm14.93 1.75h-1.703v2.39h-2.578v1.313h2.578v5.344q0 .922.235 1.562.25.641.672 1.047.421.406.984.594.578.187 1.234.187.39 0 .782-.046.406-.032.75-.11.359-.062.656-.156t.515-.219l-.234-1.203q-.156.047-.406.094-.235.047-.516.094-.281.046-.578.078-.281.031-.547.031-.375 0-.719-.094-.328-.094-.578-.312-.265-.219-.406-.594-.14-.375-.14-.953v-5.344h3.75v-1.312h-3.75zm13.68 12.25h1.75v-.14q-.156-.423-.25-.97-.093-.546-.093-1.046v-4.578q0-.829-.297-1.438-.297-.625-.813-1.047-.531-.406-1.25-.61-.719-.202-1.562-.202-.922 0-1.657.25-.718.25-1.218.656-.5.422-.782.953-.265.516-.265 1.047h1.687q0-.313.14-.594.157-.281.438-.5.266-.203.657-.328.406-.14.906-.14.547 0 .969.14.437.14.734.39t.453.61q.172.344.172.797v.781h-1.828q-1.031 0-1.875.203-.828.188-1.422.594t-.922 1.016q-.312.61-.312 1.422 0 .625.234 1.156.25.531.688.906.437.406 1.062.64.64.22 1.438.22.468 0 .89-.11.438-.094.828-.266.375-.171.688-.39.312-.235.562-.5.032.312.094.61.063.28.156.468m-2.984-1.281q-.484 0-.86-.125-.374-.14-.624-.36-.235-.218-.36-.53t-.125-.673q0-.39.14-.687t.407-.516q.39-.312 1.031-.453.657-.156 1.532-.156h1.562v2q-.14.281-.406.562-.25.266-.594.469t-.781.344q-.422.125-.922.125m25.454-1.328q0 .234-.094.453-.094.203-.266.375-.281.281-.781.437t-1.172.156q-.437 0-.875-.078-.437-.093-.797-.312t-.61-.578q-.234-.36-.265-.875h-1.687q0 .625.281 1.218.297.579.844 1.016.531.438 1.312.719.781.265 1.797.265.875 0 1.61-.203.734-.218 1.265-.609.531-.375.813-.906.296-.547.296-1.203 0-.61-.265-1.063-.25-.469-.735-.828-.5-.344-1.218-.594-.719-.25-1.625-.453-.688-.125-1.14-.266-.454-.156-.72-.343-.28-.172-.39-.407t-.11-.515q0-.281.141-.547t.406-.469.672-.312q.406-.125.953-.125.516 0 .922.156.422.14.719.375.281.234.437.547.172.297.172.625h1.688q0-.656-.282-1.219-.265-.562-.78-.969-.516-.422-1.25-.656-.72-.234-1.626-.234-.86 0-1.562.234-.703.219-1.219.61-.5.39-.781.921-.282.516-.282 1.11 0 .61.266 1.078.281.453.781.797.485.343 1.172.593.703.235 1.563.422.687.125 1.14.297.47.172.75.375.282.203.407.438t.125.547m8.633-9.641h-1.703v2.39h-2.579v1.313h2.579v5.344q0 .922.234 1.562.25.641.672 1.047t.984.594q.578.187 1.235.187.39 0 .78-.046.407-.032.75-.11.36-.062.657-.156t.516-.219l-.235-1.203q-.156.047-.406.094-.234.047-.516.094-.28.046-.578.078-.28.031-.547.031-.375 0-.718-.094-.328-.094-.578-.312-.266-.219-.407-.594t-.14-.953v-5.344h3.75v-1.312h-3.75zm13.68 12.25h1.75v-.14q-.157-.423-.25-.97-.094-.546-.094-1.046v-4.578q0-.829-.297-1.438-.297-.625-.813-1.047-.53-.406-1.25-.61-.718-.202-1.562-.202-.922 0-1.656.25-.719.25-1.219.656-.5.422-.781.953-.266.516-.266 1.047h1.688q0-.313.14-.594.156-.281.438-.5.265-.203.656-.328.406-.14.906-.14.547 0 .969.14.437.14.734.39t.453.61q.172.344.172.797v.781h-1.828q-1.031 0-1.875.203-.828.188-1.422.594-.593.406-.922 1.016-.312.61-.312 1.422 0 .625.234 1.156.25.531.688.906.437.406 1.062.64.641.22 1.438.22.469 0 .89-.11.438-.094.829-.266.375-.171.687-.39.313-.235.563-.5.03.312.093.61.063.28.157.468m-2.985-1.281q-.484 0-.86-.125-.374-.14-.624-.36-.235-.218-.36-.53t-.125-.673q0-.39.141-.687t.406-.516q.391-.312 1.032-.453.656-.156 1.53-.156H362v2q-.14.281-.406.562-.25.266-.594.469t-.78.344q-.423.125-.923.125m11.696-10.969h-1.703v2.39h-2.578v1.313h2.578v5.344q0 .922.234 1.562.25.641.672 1.047t.984.594q.578.187 1.235.187.39 0 .78-.046.407-.032.75-.11.36-.062.657-.156t.516-.219l-.235-1.203q-.156.047-.406.094-.234.047-.515.094-.282.046-.579.078-.28.031-.546.031-.375 0-.72-.094-.327-.094-.577-.312-.266-.219-.407-.594t-.14-.953v-5.344h3.75v-1.312h-3.75zm11.555 12.437q1.437 0 2.422-.578.984-.578 1.468-1.328l-1.03-.797q-.47.594-1.173.97-.687.358-1.593.358-.688 0-1.25-.25-.563-.265-.97-.718-.39-.407-.609-.953-.218-.547-.28-1.266v-.078h7.03v-.75q0-1.031-.265-1.906-.25-.891-.781-1.547-.532-.64-1.329-1-.796-.375-1.859-.375-.844 0-1.656.343-.797.344-1.438.985-.625.656-1.015 1.61-.375.937-.375 2.124v.39q0 1.032.343 1.907t.97 1.5q.609.64 1.484 1t1.906.36m-.219-8.843q.656 0 1.125.234t.766.625q.312.375.484.906.172.516.172.985v.078h-5.297q.094-.688.344-1.203.265-.532.625-.89.36-.36.812-.548.453-.187.969-.187"/>
        <path fill="none" d="M255.654 55.15h196.409v47.15h-196.41z"/>
        <path fill="#000" d="M270.232 69.82h-1.703v2.39h-2.579v1.313h2.579v5.343q0 .922.234 1.563.25.64.672 1.047t.984.594q.578.187 1.235.187.39 0 .78-.047.407-.031.75-.11.36-.062.657-.155.297-.094.516-.22l-.235-1.202q-.156.047-.406.093-.234.047-.516.094-.28.047-.578.078-.281.032-.547.032-.375 0-.718-.094-.328-.094-.578-.313-.266-.218-.407-.593t-.14-.954v-5.343h3.75V72.21h-3.75zm13.539 8.812 1.047 3.438h1.672l-4.203-13.266h-1.422l-4.282 13.266h1.688l1.062-3.438zm-3.984-1.469 1.78-5.75 1.75 5.75zm17.148 4.907V68.804h-1.703l-.031 9.89-5.14-9.89h-1.72V82.07h1.704l.03-9.907 5.157 9.907zm9.837-3.36q0 .547-.25.953-.235.391-.61.641-.36.266-.844.39-.484.126-.968.126-.625 0-1.157-.157-.515-.172-.906-.515-.406-.328-.672-.797-.25-.485-.328-1.11h-1.719q.032.86.375 1.563.344.687.954 1.203.671.61 1.578.938.922.312 1.875.312.797 0 1.578-.219.797-.234 1.422-.672.625-.437 1.015-1.109.407-.672.407-1.562 0-.875-.375-1.547-.36-.688-.954-1.14-.625-.5-1.359-.829t-1.469-.547q-.453-.14-.953-.312-.5-.188-.937-.47-.438-.265-.72-.655-.28-.407-.296-.985 0-.531.219-.922.219-.406.578-.672.36-.28.812-.406.47-.14.954-.14.593 0 1.062.187.484.172.828.516.36.343.563.812t.28 1.031h1.735q-.015-.906-.39-1.64-.375-.735-1-1.266-.61-.515-1.422-.797-.797-.297-1.656-.297-.797 0-1.579.25-.765.235-1.375.704-.609.468-.984 1.14t-.375 1.531q0 .86.375 1.5.375.625.984 1.094.594.453 1.313.781.719.313 1.422.547.484.157 1 .344.531.188.969.469.437.297.718.719.282.406.282 1.015m22 .75q0 .235-.094.453-.093.203-.265.375-.282.282-.782.438t-1.171.156q-.438 0-.875-.078-.438-.094-.797-.313-.36-.218-.61-.578-.234-.359-.265-.875h-1.688q0 .625.281 1.22.297.577.844 1.015.531.437 1.313.718.78.266 1.797.266.875 0 1.609-.203.734-.219 1.266-.61.53-.374.812-.906.297-.547.297-1.203 0-.61-.266-1.062-.25-.469-.734-.828-.5-.344-1.219-.594t-1.625-.453q-.687-.125-1.14-.266-.454-.156-.72-.344-.28-.172-.39-.406t-.11-.516q0-.28.141-.546t.407-.47.672-.312q.406-.125.953-.125.515 0 .922.157.421.14.718.375.282.234.438.546.172.297.172.625h1.687q0-.656-.281-1.218-.266-.563-.781-.969-.516-.422-1.25-.656-.72-.235-1.625-.235-.86 0-1.563.235-.703.218-1.219.61-.5.39-.78.921-.282.516-.282 1.11 0 .609.266 1.077.28.454.78.797.485.344 1.173.594.703.234 1.562.422.688.125 1.14.297.47.172.75.375.282.203.407.437.125.235.125.547m8.633-9.64h-1.703v2.39h-2.578v1.313h2.578v5.343q0 .922.234 1.563.25.64.672 1.047t.985.594q.578.187 1.234.187.39 0 .781-.047.406-.031.75-.11.36-.062.656-.155.297-.094.516-.22l-.234-1.202q-.157.047-.407.093-.234.047-.515.094t-.578.078q-.282.032-.547.032-.375 0-.719-.094-.328-.094-.578-.313-.266-.218-.406-.593t-.14-.954v-5.343h3.75V72.21h-3.75zm13.68 12.25h1.75v-.141q-.156-.422-.25-.969t-.094-1.047v-4.578q0-.828-.297-1.437-.296-.625-.812-1.047-.531-.406-1.25-.61t-1.563-.203q-.921 0-1.656.25-.719.25-1.219.657-.5.421-.78.953-.266.515-.266 1.047h1.687q0-.313.14-.594.157-.281.438-.5.266-.203.656-.328.407-.14.907-.14.547 0 .968.14.438.14.735.39t.453.61q.172.343.172.797v.78h-1.828q-1.032 0-1.875.204-.828.187-1.422.594t-.922 1.015q-.313.61-.313 1.422 0 .625.235 1.156.25.532.687.907.438.406 1.063.64.64.22 1.437.22.47 0 .89-.11.438-.094.83-.266.374-.172.687-.39.312-.235.562-.5.031.312.094.609.062.281.156.469m-2.984-1.282q-.485 0-.86-.125-.375-.14-.625-.359-.234-.219-.36-.531-.124-.313-.124-.672 0-.39.14-.688t.407-.515q.39-.313 1.031-.453.656-.157 1.531-.157h1.563v2q-.14.282-.406.563-.25.265-.594.469t-.781.343q-.422.125-.922.125m11.695-10.968h-1.703v2.39h-2.578v1.313h2.578v5.343q0 .922.234 1.563.25.64.672 1.047t.985.594q.578.187 1.234.187.39 0 .781-.047.407-.031.75-.11.36-.062.657-.155.296-.094.515-.22l-.234-1.202q-.156.047-.406.093-.235.047-.516.094t-.578.078q-.281.032-.547.032-.375 0-.719-.094-.328-.094-.578-.313-.266-.218-.406-.593t-.14-.954v-5.343h3.75V72.21h-3.75zm11.555 12.437q1.438 0 2.422-.578t1.469-1.328l-1.031-.797q-.47.594-1.172.969-.688.36-1.594.36-.688 0-1.25-.25-.563-.267-.969-.72-.39-.406-.61-.953-.218-.547-.28-1.265v-.079h7.03v-.75q0-1.03-.265-1.906-.25-.89-.781-1.547-.531-.64-1.328-1-.797-.375-1.86-.375-.843 0-1.656.344-.797.344-1.437.984-.625.657-1.016 1.61-.375.937-.375 2.125v.39q0 1.032.344 1.907t.969 1.5q.609.64 1.484 1t1.906.36m-.219-8.844q.657 0 1.125.235.47.234.766.625.313.375.484.906.172.516.172.984v.078h-5.297q.094-.687.344-1.203.266-.53.625-.89.36-.36.813-.547t.968-.188"/>
        <path fill="none" d="M113.003 35.178h128.819v47.15h-128.82z"/>
        <path fill="#000" d="M123.58 65.895h1.688v-4.75q.172.203.375.375.219.172.453.313.391.219.875.328.5.125 1.063.125.922 0 1.64-.375.735-.39 1.235-1.063.484-.687.734-1.593.266-.922.266-1.969v-.203q0-1.094-.266-2.016-.25-.937-.734-1.594-.5-.671-1.234-1.03-.72-.376-1.672-.376-.532 0-1 .11-.47.109-.86.328-.265.14-.515.36-.235.202-.422.452l-.094-1.078h-1.531zm6.641-8.812v.203q0 .719-.172 1.375-.156.656-.484 1.156t-.844.797q-.5.297-1.203.297-.437 0-.797-.11-.359-.109-.64-.312-.266-.156-.469-.39-.187-.235-.344-.516v-4.75q.172-.297.39-.547.235-.266.532-.438.266-.171.594-.265t.719-.094q.718 0 1.218.297.516.281.844.781t.484 1.156q.172.641.172 1.36m11.04 5.015h1.75v-.14q-.157-.422-.25-.969-.094-.547-.094-1.047v-4.578q0-.828-.297-1.437-.297-.625-.812-1.047-.532-.407-1.25-.61-.72-.203-1.563-.203-.922 0-1.656.25-.719.25-1.219.656-.5.422-.781.954-.266.515-.266 1.046h1.688q0-.312.14-.593.157-.282.438-.5.265-.203.656-.328.406-.141.906-.141.547 0 .97.14.437.141.733.391.297.25.454.61.171.343.171.796v.782h-1.828q-1.03 0-1.875.203-.828.187-1.422.594-.593.406-.921 1.015-.313.61-.313 1.422 0 .625.234 1.156.25.532.688.907.437.406 1.062.64.641.219 1.438.219.469 0 .89-.11.438-.093.829-.265.375-.172.687-.39.313-.235.563-.5.03.312.093.609.063.281.157.468m-2.985-1.28q-.484 0-.86-.126-.374-.14-.624-.36-.234-.218-.36-.53-.124-.313-.124-.672 0-.39.14-.688t.406-.515q.391-.313 1.032-.454.656-.156 1.53-.156h1.563v2q-.14.281-.406.563-.25.265-.594.468t-.78.344q-.423.125-.923.125m7.399-3.735v.203q0 1.047.266 1.969.28.906.78 1.593.5.672 1.235 1.063.735.375 1.625.375.547 0 1-.125.469-.11.86-.313.234-.14.453-.312.219-.188.406-.406v.843q0 .641-.187 1.125-.172.5-.516.829t-.828.5-1.078.171q-.344 0-.688-.062-.328-.063-.672-.219-.328-.156-.656-.422-.328-.25-.64-.625l-.876 1q.344.485.813.813t.969.515q.5.204.984.282.5.093.89.093.923 0 1.688-.28.766-.266 1.328-.782.547-.531.844-1.297.313-.75.313-1.719V52.24h-1.532l-.078 1.078q-.172-.219-.375-.39-.187-.188-.406-.329-.406-.265-.906-.39-.5-.14-1.094-.14-.906 0-1.64.374-.735.36-1.235 1.031-.516.657-.781 1.594-.266.922-.266 2.016m1.672.203v-.203q0-.719.156-1.36.156-.656.485-1.156.312-.5.812-.781.516-.297 1.219-.297.422 0 .765.11.344.093.625.28.297.188.516.454.219.25.375.562v4.516q-.156.312-.375.578t-.5.453q-.281.203-.64.313-.344.093-.782.093-.703 0-1.203-.28-.5-.298-.812-.782-.329-.5-.485-1.14-.156-.641-.156-1.36m14.18 5q1.437 0 2.422-.578.984-.578 1.468-1.328l-1.03-.797q-.47.594-1.173.969-.687.359-1.593.359-.688 0-1.25-.25-.563-.266-.97-.719-.39-.406-.609-.953t-.28-1.266v-.078h7.03v-.75q0-1.03-.265-1.906-.25-.89-.781-1.547-.532-.64-1.329-1-.796-.375-1.859-.375-.844 0-1.656.344-.797.344-1.438.984-.625.657-1.015 1.61-.375.937-.375 2.125v.39q0 1.032.343 1.907t.97 1.5q.609.64 1.484 1 .875.359 1.906.359m-.219-8.844q.656 0 1.125.235t.766.625q.312.375.484.906.172.515.172.984v.078h-5.297q.094-.687.344-1.203.265-.531.625-.89.36-.36.812-.547t.97-.188m19.032-1.203h-1.516v9.86h1.61v-7.844q.046-.14.125-.266.093-.14.218-.234.157-.125.375-.188.22-.078.532-.078.265 0 .468.078.203.063.344.203.156.157.219.391.062.234.062.547v7.39h1.61v-7.562q.031-.219.11-.406.077-.188.218-.344.156-.125.375-.203.219-.094.515-.094.282 0 .485.078.219.063.375.219.14.156.203.39.078.235.078.547v7.375h1.594V54.74q0-.719-.172-1.234-.156-.532-.453-.86-.281-.28-.703-.422-.407-.156-.922-.156-.36 0-.688.094-.312.094-.562.25-.203.125-.375.312-.172.188-.297.391-.11-.219-.25-.406t-.313-.313q-.234-.156-.546-.234-.313-.094-.704-.094-.687 0-1.187.297-.484.281-.781.813zm14.774 10.047q1.437 0 2.421-.578.985-.578 1.47-1.328l-1.032-.797q-.469.594-1.172.969-.687.359-1.594.359-.687 0-1.25-.25-.562-.266-.968-.719-.391-.406-.61-.953t-.281-1.266v-.078h7.031v-.75q0-1.03-.265-1.906-.25-.89-.782-1.547-.53-.64-1.328-1-.797-.375-1.86-.375-.843 0-1.655.344-.797.344-1.438.984-.625.657-1.016 1.61-.375.937-.375 2.125v.39q0 1.032.344 1.907t.969 1.5q.61.64 1.484 1 .875.359 1.907.359m-.22-8.844q.657 0 1.126.235t.765.625q.313.375.485.906.172.515.172.984v.078h-5.297q.094-.687.344-1.203.265-.531.625-.89.359-.36.812-.547t.969-.188m11.056-3.594h-1.703v2.391h-2.578v1.313h2.578v5.343q0 .922.234 1.563.25.64.672 1.047t.984.593q.578.188 1.235.188.39 0 .78-.047.407-.031.75-.11.36-.062.657-.156.297-.093.516-.218l-.235-1.203q-.156.046-.406.093-.234.047-.515.094t-.579.078q-.28.031-.546.031-.375 0-.72-.093-.327-.094-.577-.313-.266-.219-.407-.594t-.14-.953v-5.343h3.75v-1.313h-3.75zm13.68 12.25h1.75v-.14q-.157-.422-.25-.969-.094-.547-.094-1.047v-4.578q0-.828-.297-1.437-.297-.625-.812-1.047-.532-.407-1.25-.61-.72-.203-1.563-.203-.922 0-1.656.25-.719.25-1.219.656-.5.422-.781.954-.266.515-.266 1.046h1.688q0-.312.14-.593.157-.282.438-.5.265-.203.656-.328.406-.141.906-.141.547 0 .97.14.437.141.733.391.297.25.454.61.171.343.171.796v.782h-1.828q-1.03 0-1.875.203-.828.187-1.422.594-.593.406-.921 1.015-.313.61-.313 1.422 0 .625.234 1.156.25.532.688.907.437.406 1.062.64.641.219 1.438.219.469 0 .89-.11.438-.093.829-.265.375-.172.687-.39.313-.235.563-.5.031.312.093.609.063.281.157.468m-2.985-1.28q-.484 0-.859-.126-.375-.14-.625-.36-.234-.218-.36-.53-.124-.313-.124-.672 0-.39.14-.688t.406-.515q.391-.313 1.032-.454.656-.156 1.531-.156h1.562v2q-.14.281-.406.563-.25.265-.594.468t-.78.344q-.423.125-.923.125"/>
        <path fill="none" d="m70.016 150.627 42.992-91.874"/>
        <path stroke="#000" stroke-linecap="butt" stroke-linejoin="round" d="m70.016 150.627 40.449-86.44"/>
        <path fill="#000" fill-rule="evenodd" stroke="#000" stroke-linecap="butt" d="m111.96 64.888.428-4.81-3.42 3.41z"/>
        <path fill="none" d="m241.822 58.753 13.826-21.165"/>
        <path stroke="#000" stroke-linecap="butt" stroke-linejoin="round" d="m241.822 58.753 10.545-16.142"/>
        <path fill="#000" fill-rule="evenodd" stroke="#000" stroke-linecap="butt" d="m253.75 43.514 1.099-4.702-3.865 2.896z"/>
        <path fill="none" d="m241.822 58.753 13.826 19.969"/>
        <path stroke="#000" stroke-linecap="butt" stroke-linejoin="round" d="m241.822 58.753 10.41 15.036"/>
        <path fill="#000" fill-rule="evenodd" stroke="#000" stroke-linecap="butt" d="m250.875 74.73 3.941 2.79-1.225-4.671z"/>
        <path fill="#d9d9d9" fill-rule="evenodd" d="M113.003 188.654h495.401v258.74H113.003z"/>
        <path stroke="#000" stroke-linecap="butt" stroke-linejoin="round" d="M113.003 188.654h495.401v258.74H113.003z"/>
        <path fill="none" d="M381.286 414.05h227.118v33.386H381.286z"/>
        <path fill="#000" d="M500.222 440.97h1.688v-7.063q.172-.328.406-.593.234-.266.516-.453.328-.235.718-.36.407-.14.875-.14.547 0 .953.125.422.125.704.406.28.297.421.75.157.453.157 1.11v6.218h1.687v-6.266q0-.968-.25-1.687-.234-.719-.687-1.188-.438-.453-1.078-.672-.625-.218-1.407-.218-.562 0-1.078.172-.515.156-.953.437-.297.188-.562.453-.25.266-.47.563l-.124-1.453h-1.516zm30.75-4.813v-.203q0-.765-.124-1.453-.125-.703-.375-1.281-.235-.516-.547-.922-.313-.422-.703-.703-.438-.313-.985-.484-.53-.172-1.156-.172-.516 0-.953.093-.438.094-.797.297-.297.157-.562.375-.25.203-.454.469v-5.203h-1.687v14h1.547l.078-1.125q.172.219.344.39.187.172.39.313.422.297.938.453.531.156 1.172.156.547 0 1.015-.14.485-.14.891-.39.562-.345.953-.891.39-.547.64-1.22.188-.53.282-1.124t.094-1.235m-1.687-.203v.203q0 .438-.062.86-.047.406-.157.781-.156.469-.406.875-.234.39-.61.64-.265.204-.609.313-.343.094-.765.094-.438 0-.813-.11-.359-.109-.64-.328-.297-.203-.532-.484-.218-.281-.375-.61v-4.312q.157-.328.375-.594.22-.28.516-.5.281-.187.64-.296.376-.125.813-.125.39 0 .719.093.328.094.594.25.39.235.656.64.266.392.422.876.125.39.172.844.062.437.062.89m11.008 5.016h1.75v-.14q-.156-.423-.25-.97-.093-.546-.093-1.046v-4.578q0-.829-.297-1.438-.297-.625-.813-1.047-.531-.406-1.25-.61-.719-.202-1.562-.202-.922 0-1.657.25-.718.25-1.218.656-.5.422-.782.953-.265.516-.265 1.047h1.687q0-.313.14-.594.157-.281.438-.5.266-.203.657-.328.406-.14.906-.14.547 0 .969.14.437.14.734.39t.453.61q.172.344.172.797V435h-1.828q-1.031 0-1.875.203-.828.188-1.422.594t-.922 1.016q-.312.609-.312 1.422 0 .625.234 1.156.25.531.688.906.437.406 1.062.64.64.22 1.438.22.468 0 .89-.11.438-.094.828-.266.375-.171.688-.39.312-.235.562-.5.032.312.094.61.063.28.156.468m-2.984-1.281q-.484 0-.86-.125-.374-.141-.624-.36-.235-.218-.36-.531-.125-.312-.125-.672 0-.39.14-.687t.407-.516q.39-.312 1.031-.453.657-.156 1.532-.156h1.562v2q-.14.28-.406.562-.25.266-.594.469t-.781.344q-.422.125-.922.125m11.695-10.97h-1.703v2.392h-2.578v1.312h2.578v5.344q0 .922.235 1.562.25.64.672 1.047.421.406.984.594.578.187 1.234.187.391 0 .782-.046.406-.032.75-.11.359-.062.656-.156t.515-.219l-.234-1.203q-.156.047-.406.094-.235.047-.516.094-.281.046-.578.078-.281.03-.547.03-.375 0-.719-.093-.328-.094-.578-.312-.265-.22-.406-.594-.14-.375-.14-.953v-5.344h3.75v-1.312h-3.75zm11.4 11.063q-.798 0-1.329-.312-.531-.313-.844-.828-.328-.5-.468-1.125-.141-.64-.141-1.281v-.391q0-.625.14-1.25.141-.64.47-1.156.327-.5.859-.813.53-.312 1.312-.312.516 0 .953.172.438.171.766.484.312.297.5.687.187.391.203.844h1.594q0-.75-.313-1.406-.297-.656-.828-1.14-.531-.47-1.265-.735-.735-.281-1.61-.281-1.11 0-1.953.406-.844.39-1.39 1.062-.563.688-.86 1.579-.281.89-.281 1.859v.39q0 .985.281 1.876.297.875.86 1.562.546.672 1.39 1.078t1.953.406q.781 0 1.5-.265.719-.281 1.281-.735.563-.437.891-1.03.328-.61.344-1.266h-1.594q-.016.406-.219.765-.203.344-.547.61-.328.265-.765.406-.438.14-.89.14m8.68-7.203v-5.61h-1.688v14h1.687v-7.155q.188-.297.422-.532.234-.25.5-.421.344-.25.75-.375.422-.125.875-.125.563-.016.984.156.422.156.704.469.265.296.406.734.14.437.14 1.031v6.219h1.688v-6.203q0-1-.25-1.719-.234-.719-.688-1.203-.437-.469-1.078-.688-.625-.218-1.406-.218-.594 0-1.125.172-.516.156-.953.484-.266.187-.516.437t-.453.547m13.867 8.578q1.437 0 2.421-.578.985-.578 1.47-1.328l-1.032-.797q-.469.594-1.172.969-.687.36-1.594.36-.687 0-1.25-.25-.562-.266-.968-.72-.391-.406-.61-.952-.219-.547-.281-1.266v-.078h7.031v-.75q0-1.031-.265-1.906-.25-.891-.782-1.547-.53-.641-1.328-1-.797-.375-1.86-.375-.843 0-1.655.343-.797.344-1.438.985-.625.656-1.016 1.61-.375.937-.375 2.124v.39q0 1.032.344 1.907t.969 1.5q.61.64 1.484 1 .875.36 1.907.36m-.22-8.843q.657 0 1.126.234t.765.625q.313.375.485.906.172.516.172.985v.078h-5.297q.094-.688.344-1.203.265-.532.625-.891.359-.36.812-.547t.969-.187m13.618 6.047q0 .234-.094.453-.093.203-.265.375-.281.28-.781.437t-1.172.156q-.438 0-.875-.078-.438-.093-.797-.312t-.61-.578q-.234-.36-.265-.875h-1.688q0 .625.282 1.218.296.579.843 1.016.532.438 1.313.719.781.265 1.797.265.875 0 1.61-.203.733-.218 1.265-.61.531-.374.812-.905.297-.547.297-1.203 0-.61-.266-1.063-.25-.469-.734-.828-.5-.344-1.219-.594-.718-.25-1.625-.453-.687-.125-1.14-.266-.453-.156-.719-.343-.281-.172-.39-.407-.11-.234-.11-.515t.14-.547.407-.469q.265-.203.672-.312.406-.125.953-.125.515 0 .922.156.422.14.718.375.282.234.438.547.172.297.172.625h1.687q0-.656-.28-1.219-.267-.562-.782-.969-.516-.422-1.25-.656-.719-.234-1.625-.234-.86 0-1.563.234-.703.219-1.218.61-.5.39-.782.921-.28.516-.28 1.11 0 .609.265 1.078.281.453.781.797.484.343 1.172.593.703.235 1.562.422.688.125 1.141.297.469.172.75.375t.406.438.125.547"/>
        <path fill="none" d="M113.003 236.85h76.819V284h-76.82z"/>
        <path fill="#000" d="M131.94 258.958v-.203q0-.766-.125-1.453-.125-.703-.375-1.282-.234-.515-.547-.921-.312-.422-.703-.704-.437-.312-.984-.484-.532-.172-1.157-.172-.515 0-.953.094t-.797.297q-.296.156-.562.375-.25.203-.453.469v-5.204h-1.688v14h1.547l.078-1.125q.172.22.344.391.188.172.39.313.423.296.938.453.531.156 1.172.156.547 0 1.016-.14.484-.141.89-.391.563-.344.953-.891.391-.547.641-1.219.188-.531.281-1.125.094-.593.094-1.234m-1.687-.203v.203q0 .437-.063.86-.047.406-.156.78-.156.47-.406.876-.235.39-.61.64-.265.203-.61.313-.343.093-.765.093-.437 0-.812-.109-.36-.11-.64-.328-.298-.203-.532-.484-.219-.282-.375-.61v-4.312q.156-.328.375-.594.219-.281.515-.5.282-.188.641-.297.375-.125.813-.125.39 0 .718.094t.594.25q.39.234.656.64.266.391.422.875.125.391.172.844.063.438.063.89m11.008 5.015h1.75v-.14q-.157-.422-.25-.969-.094-.547-.094-1.047v-4.578q0-.828-.297-1.437-.297-.625-.812-1.047-.532-.407-1.25-.61-.72-.203-1.563-.203-.922 0-1.656.25-.719.25-1.219.656-.5.422-.781.954-.266.515-.266 1.046h1.688q0-.312.14-.593.157-.282.438-.5.265-.203.656-.328.406-.141.906-.141.547 0 .97.14.437.141.733.391.297.25.454.61.171.343.171.796v.782h-1.828q-1.03 0-1.875.203-.828.187-1.422.594-.593.406-.921 1.015-.313.61-.313 1.422 0 .625.234 1.156.25.532.688.907.437.406 1.062.64.641.219 1.438.219.469 0 .89-.11.438-.093.829-.265.375-.172.687-.39.313-.235.563-.5.03.312.093.609.063.28.157.468m-2.985-1.28q-.484 0-.86-.126-.374-.14-.624-.36-.234-.218-.36-.53-.124-.313-.124-.672 0-.391.14-.688t.406-.515q.391-.313 1.032-.454.656-.156 1.53-.156h1.563v2q-.14.281-.406.563-.25.265-.594.468t-.78.344q-.423.125-.923.125m11.696-10.97h-1.703v2.391h-2.578v1.313h2.578v5.343q0 .922.234 1.563.25.64.672 1.047t.984.593q.579.188 1.235.188.39 0 .781-.047.406-.031.75-.11.36-.062.656-.156.297-.093.516-.218l-.234-1.203q-.157.046-.407.093-.234.047-.515.094t-.578.078q-.282.031-.547.031-.375 0-.72-.093-.327-.094-.577-.313-.266-.219-.406-.594t-.141-.953v-5.343h3.75v-1.313h-3.75zm11.399 11.063q-.797 0-1.329-.313-.53-.312-.843-.828-.328-.5-.469-1.125-.14-.64-.14-1.281v-.39q0-.626.14-1.25.14-.641.469-1.157.328-.5.86-.812.53-.313 1.312-.313.515 0 .953.172t.765.484q.313.297.5.688.188.39.203.844h1.594q0-.75-.312-1.407-.297-.656-.828-1.14-.532-.469-1.266-.735-.734-.28-1.61-.28-1.109 0-1.953.405-.843.391-1.39 1.063-.563.687-.86 1.578-.28.89-.28 1.86v.39q0 .984.28 1.875.297.875.86 1.563.547.671 1.39 1.078.844.406 1.954.406.78 0 1.5-.266.718-.281 1.28-.734.563-.438.891-1.031.329-.61.344-1.266h-1.594q-.015.406-.218.766-.203.343-.547.609-.328.266-.766.406-.437.14-.89.14m8.68-7.203v-5.61h-1.688v14h1.688v-7.156q.187-.297.421-.531.235-.25.5-.422.344-.25.75-.375.422-.125.875-.125.563-.016.985.156.422.157.703.469.266.297.406.734.14.438.14 1.032v6.218h1.688v-6.203q0-1-.25-1.718-.234-.72-.687-1.204-.438-.468-1.078-.687-.625-.219-1.407-.219-.593 0-1.125.172-.515.156-.953.484-.265.188-.515.438t-.453.547"/>
        <path fill="#efefef" fill-rule="evenodd" d="M255.648 199.987h339.59v200.252h-339.59z"/>
        <path stroke="#000" stroke-linecap="butt" stroke-linejoin="round" d="M255.648 199.987h339.59v200.252h-339.59z"/>
        <path fill="#b7b7b7" fill-rule="evenodd" d="M388.404 216.528H580.94v132.126H388.404z"/>
        <path stroke="#000" stroke-linecap="butt" stroke-linejoin="round" d="M388.404 216.528H580.94v132.126H388.404z"/>
        <path fill="none" d="m70.016 150.627 42.992 109.796"/>
        <path stroke="#000" stroke-linecap="butt" stroke-linejoin="round" d="m70.016 150.627 40.804 104.209"/>
        <path fill="#000" fill-rule="evenodd" stroke="#000" stroke-linecap="butt" d="m109.282 255.438 3.193 3.623-.117-4.828z"/>
        <path fill="none" d="M255.654 220.96H367.81v78.93H255.654z"/>
        <path fill="#000" d="M274.591 243.068v-.203q0-.766-.125-1.453-.125-.703-.375-1.281-.234-.516-.547-.922-.312-.422-.703-.703-.437-.313-.984-.485-.532-.172-1.157-.172-.515 0-.953.094t-.797.297q-.296.156-.562.375-.25.203-.453.469v-5.203h-1.688v14h1.547l.078-1.125q.172.218.344.39.188.172.39.313.423.297.938.453.531.156 1.172.156.547 0 1.016-.14.484-.141.89-.391.563-.344.953-.89.391-.548.641-1.22.188-.53.281-1.124t.094-1.235m-1.687-.203v.203q0 .438-.063.86-.047.406-.156.78-.156.47-.406.876-.235.39-.61.64-.265.204-.61.313-.343.094-.765.094-.437 0-.812-.11-.36-.11-.641-.328-.297-.203-.531-.484-.219-.281-.375-.61v-4.312q.156-.328.375-.594.219-.281.515-.5.282-.187.641-.297.375-.125.813-.125.39 0 .718.094t.594.25q.39.234.656.64.266.391.422.876.125.39.172.843.063.438.063.891m11.008 5.016h1.75v-.141q-.157-.422-.25-.969-.094-.547-.094-1.047v-4.578q0-.828-.297-1.437-.297-.625-.813-1.047-.53-.406-1.25-.61-.718-.203-1.562-.203-.922 0-1.656.25-.719.25-1.219.657-.5.422-.781.953-.266.515-.266 1.047h1.688q0-.313.14-.594.156-.281.438-.5.265-.203.656-.328.406-.14.906-.14.547 0 .969.14.437.14.734.39t.453.61q.172.344.172.797v.78h-1.828q-1.031 0-1.875.204-.828.188-1.422.594-.593.406-.922 1.015-.312.61-.312 1.422 0 .625.234 1.157.25.53.688.906.437.406 1.062.64.641.22 1.438.22.469 0 .89-.11.438-.094.829-.266.375-.172.687-.39.313-.235.563-.5.03.312.093.609.063.281.157.469m-2.985-1.282q-.484 0-.86-.125-.374-.14-.624-.359-.235-.219-.36-.531t-.125-.672q0-.39.141-.688.14-.296.406-.515.391-.313 1.032-.453.656-.157 1.53-.157h1.563v2q-.14.282-.406.563-.25.266-.594.469t-.78.343q-.423.125-.923.125m11.696-10.968h-1.703v2.39h-2.578v1.313h2.578v5.344q0 .921.234 1.562.25.64.672 1.047t.984.594q.578.187 1.235.187.39 0 .78-.047.407-.031.75-.11.36-.062.657-.155.297-.094.516-.22l-.235-1.202q-.156.047-.406.094-.234.046-.515.093t-.579.078q-.28.032-.546.032-.375 0-.72-.094-.327-.094-.577-.313-.266-.218-.407-.593t-.14-.953v-5.344h3.75v-1.313h-3.75zm11.399 11.062q-.797 0-1.329-.312-.53-.313-.843-.828-.328-.5-.47-1.125-.14-.641-.14-1.282v-.39q0-.625.14-1.25.142-.641.47-1.157.328-.5.859-.812t1.313-.313q.515 0 .953.172t.765.485q.313.297.5.687.188.39.203.844h1.594q0-.75-.312-1.406-.297-.657-.828-1.141-.532-.469-1.266-.734-.734-.282-1.61-.282-1.109 0-1.953.407-.843.39-1.39 1.062-.563.688-.86 1.578-.28.89-.28 1.86v.39q0 .985.28 1.875.297.875.86 1.563.547.672 1.39 1.078.844.406 1.954.406.78 0 1.5-.265.718-.282 1.28-.735.563-.437.891-1.031.329-.61.344-1.266h-1.594q-.015.407-.218.766-.203.344-.547.61-.328.265-.766.406-.437.14-.89.14m8.68-7.203v-5.61h-1.688v14h1.687v-7.156q.188-.296.422-.53.235-.25.5-.423.344-.25.75-.375.422-.125.875-.125.563-.015.985.157.422.156.703.468.265.297.406.735.14.437.14 1.03v6.22h1.688v-6.203q0-1-.25-1.72-.234-.718-.687-1.202-.438-.47-1.078-.688-.625-.219-1.407-.219-.593 0-1.125.172-.515.157-.953.485-.265.187-.515.437t-.454.547M266.497 255.88v1.47h3.36v11.077h-3.36v1.454h8.266v-1.454h-3.219v-12.546zm17.415 14h1.75v-.14q-.157-.422-.25-.969-.094-.547-.094-1.047v-4.578q0-.828-.297-1.437-.297-.625-.813-1.047-.53-.406-1.25-.61-.718-.203-1.562-.203-.922 0-1.656.25-.719.25-1.219.657-.5.421-.781.953-.266.515-.266 1.047h1.688q0-.313.14-.594.156-.281.438-.5.265-.203.656-.328.406-.14.906-.14.547 0 .969.14.437.14.734.39t.453.61q.172.343.172.797v.78h-1.828q-1.031 0-1.875.204-.828.187-1.422.594-.593.406-.922 1.015-.312.61-.312 1.422 0 .625.234 1.156.25.532.688.907.437.406 1.062.64.641.22 1.438.22.469 0 .89-.11.438-.094.829-.266.375-.172.687-.39.313-.235.563-.5.03.312.093.609.063.281.157.469m-2.985-1.28q-.484 0-.86-.126-.374-.14-.624-.359-.235-.219-.36-.531t-.125-.672q0-.39.141-.688t.406-.515q.391-.313 1.032-.453.656-.157 1.53-.157h1.563v2q-.14.282-.406.563-.25.265-.594.469t-.78.343q-.423.125-.923.125m11.696-10.97h-1.703v2.391h-2.578v1.313h2.578v5.343q0 .922.234 1.563.25.64.672 1.047t.984.594q.578.187 1.235.187.39 0 .78-.047.407-.031.75-.11.36-.062.657-.155.297-.094.516-.22l-.235-1.202q-.156.047-.406.093-.234.047-.515.094t-.579.078q-.28.032-.546.032-.375 0-.72-.094-.327-.094-.577-.313-.266-.218-.407-.593t-.14-.954v-5.343h3.75v-1.313h-3.75zm11.555 12.438q1.437 0 2.422-.578.984-.578 1.468-1.328l-1.03-.797q-.47.594-1.173.969-.687.36-1.593.36-.688 0-1.25-.25-.563-.267-.97-.72-.39-.406-.609-.953t-.28-1.265v-.079h7.03v-.75q0-1.03-.265-1.906-.25-.89-.781-1.547-.532-.64-1.329-1-.796-.375-1.859-.375-.844 0-1.656.344-.797.344-1.438.984-.625.657-1.015 1.61-.375.937-.375 2.125v.39q0 1.032.343 1.907t.97 1.5q.609.64 1.484 1t1.906.36m-.219-8.844q.656 0 1.125.235t.766.625q.312.375.484.906.172.516.172.984v.078h-5.297q.094-.687.344-1.203.265-.53.625-.89t.812-.547q.453-.188.969-.188m7.055 8.657h1.687v-7.063q.172-.328.407-.594t.515-.453q.328-.234.72-.36.405-.14.874-.14.547 0 .953.125.422.125.703.406.282.297.422.75.156.454.156 1.11v6.219h1.688v-6.266q0-.969-.25-1.688-.234-.718-.688-1.187-.437-.453-1.078-.672-.625-.219-1.406-.219-.562 0-1.078.172-.516.156-.953.438-.297.187-.563.453-.25.265-.468.562l-.125-1.453h-1.516zm15.196-12.25h-1.704v2.39h-2.578v1.313h2.578v5.343q0 .922.235 1.563.25.64.672 1.047t.984.594q.578.187 1.234.187.391 0 .782-.047.406-.031.75-.11.359-.062.656-.155.297-.094.516-.22l-.235-1.202q-.156.047-.406.093-.234.047-.516.094-.281.047-.578.078-.281.032-.547.032-.375 0-.718-.094-.329-.094-.579-.313-.265-.218-.406-.593-.14-.375-.14-.954v-5.343h3.75v-1.313h-3.75zM269.607 291.88h1.28l4.017-9.859h-1.72l-2.765 7.438-.156.61-.156-.61-2.828-7.438h-1.735zm14.305 0h1.75v-.14q-.157-.422-.25-.969-.094-.547-.094-1.047v-4.578q0-.828-.297-1.437-.297-.625-.813-1.047-.53-.406-1.25-.61-.718-.203-1.562-.203-.922 0-1.656.25-.719.25-1.219.657-.5.421-.781.953-.266.515-.266 1.047h1.688q0-.313.14-.594.156-.281.438-.5.265-.203.656-.328.406-.14.906-.14.547 0 .969.14.437.14.734.39t.453.61q.172.343.172.797v.78h-1.828q-1.031 0-1.875.204-.828.187-1.422.594-.593.406-.922 1.015-.312.61-.312 1.422 0 .625.234 1.156.25.532.688.907.437.406 1.062.64.641.22 1.438.22.469 0 .89-.11.438-.094.829-.266.375-.172.687-.39.313-.235.563-.5.03.312.093.609.063.281.157.469m-2.985-1.28q-.484 0-.86-.126-.374-.14-.624-.359-.235-.219-.36-.531t-.125-.672q0-.39.141-.688t.406-.515q.391-.313 1.032-.453.656-.157 1.53-.157h1.563v2q-.14.282-.406.563-.25.265-.594.469t-.78.343q-.423.125-.923.125m14.165-8.75q-1.079 0-1.922.468-.844.469-1.438 1.266l-.015-.235-.079-1.328h-1.593v9.86h1.687v-6.329q.172-.453.422-.812.25-.375.578-.625.375-.297.875-.438.5-.156 1.125-.156.485 0 .922.047.453.047.938.156l.234-1.64q-.266-.11-.766-.172-.5-.063-.968-.063m4.992.171v1.469h3.36v6.937h-3.36v1.454h8.266v-1.454h-3.22v-8.406zm3.14-2.578q0 .406.25.688.25.265.766.265.5 0 .75-.265.25-.282.25-.688 0-.234-.078-.422-.062-.187-.203-.328-.125-.11-.312-.172-.172-.078-.407-.078-.25 0-.437.078-.172.063-.297.172-.14.14-.219.344-.062.187-.062.406m14.274 12.438h1.75v-.141q-.156-.422-.25-.969-.093-.547-.093-1.047v-4.578q0-.828-.297-1.437-.297-.625-.813-1.047-.531-.406-1.25-.61t-1.562-.203q-.922 0-1.657.25-.718.25-1.218.657-.5.421-.782.953-.265.515-.265 1.047h1.687q0-.313.14-.594.157-.281.438-.5.266-.203.657-.328.406-.14.906-.14.547 0 .969.14.437.14.734.39t.453.61q.172.343.172.797v.78h-1.828q-1.031 0-1.875.204-.828.187-1.422.594t-.922 1.015q-.312.61-.312 1.422 0 .625.234 1.156.25.532.688.907.437.406 1.062.64.64.22 1.438.22.468 0 .89-.11.438-.094.828-.266.375-.172.688-.39.312-.235.562-.5.032.312.094.609.063.281.156.469m-2.984-1.282q-.484 0-.86-.125-.374-.14-.624-.359-.235-.219-.36-.531t-.125-.672q0-.39.14-.688t.407-.515q.39-.313 1.031-.453.657-.157 1.532-.157h1.562v2q-.14.282-.406.563-.25.265-.594.469t-.781.343q-.422.125-.922.125m16.055-3.53v-.204q0-.766-.125-1.453-.125-.703-.375-1.281-.234-.516-.547-.922-.312-.422-.703-.703-.438-.313-.984-.485-.532-.172-1.157-.172-.515 0-.953.094t-.797.297q-.297.156-.562.375-.25.203-.453.469v-5.203h-1.688v14h1.547l.078-1.125q.172.218.344.39.187.172.39.313.422.297.938.453.531.156 1.172.156.547 0 1.016-.14.484-.141.89-.391.563-.344.953-.89.39-.548.64-1.22.188-.53.282-1.125.094-.593.094-1.234m-1.688-.204v.203q0 .438-.062.86-.047.406-.156.78-.157.47-.407.876-.234.39-.609.64-.266.203-.61.313-.343.094-.765.094-.437 0-.812-.11-.36-.11-.641-.328-.297-.203-.531-.484-.22-.282-.375-.61v-4.312q.156-.328.375-.594.218-.281.515-.5.282-.187.64-.297.376-.125.813-.125.391 0 .72.094.327.094.593.25.39.234.656.64.266.391.422.876.125.39.172.843.062.438.062.891m4.79-8.984v1.468h3.36v11.078h-3.36v1.454h8.265v-1.454h-3.218v-12.546zm15.29 14.187q1.437 0 2.42-.578.985-.578 1.47-1.328l-1.032-.797q-.468.594-1.171.969-.688.36-1.594.36-.688 0-1.25-.25-.563-.267-.969-.72-.39-.406-.61-.953-.218-.547-.28-1.265v-.079h7.03v-.75q0-1.03-.265-1.906-.25-.89-.781-1.547-.531-.64-1.328-1-.797-.375-1.86-.375-.843 0-1.656.344-.797.344-1.437.984-.625.657-1.016 1.61-.375.937-.375 2.125v.39q0 1.032.344 1.907t.968 1.5q.61.64 1.485 1t1.906.36m-.22-8.844q.657 0 1.125.235.47.234.766.625.312.375.484.906.172.516.172.984v.078h-5.297q.094-.687.344-1.203.266-.53.625-.89.36-.36.813-.547t.968-.188"/>
        <path fill="none" d="M387.696 216.759h187.968v47.15H387.696z"/>
        <path fill="#000" d="M406.633 238.866v-.203q0-.766-.125-1.453-.125-.703-.375-1.281-.234-.516-.547-.922-.312-.422-.703-.703-.437-.313-.984-.485-.532-.172-1.157-.172-.515 0-.953.094t-.797.297q-.296.156-.562.375-.25.203-.453.469v-5.203h-1.688v14h1.547l.078-1.125q.172.218.344.39.188.172.39.313.423.297.938.453.531.156 1.172.156.547 0 1.016-.14.484-.141.89-.391.563-.344.953-.89.391-.548.641-1.22.188-.53.281-1.125.094-.593.094-1.234m-1.687-.203v.203q0 .438-.063.86-.047.406-.156.78-.156.47-.406.876-.235.39-.61.64-.265.203-.61.313-.343.094-.765.094-.437 0-.812-.11-.36-.11-.641-.328-.297-.203-.531-.484-.219-.282-.375-.61v-4.312q.156-.328.375-.594.219-.281.515-.5.282-.187.641-.297.375-.125.813-.125.39 0 .718.094t.594.25q.39.234.656.64.266.391.422.876.125.39.172.843.063.438.063.89m4.789-4.844v1.469h3.36v6.937h-3.36v1.454H418v-1.454h-3.218v-8.406zm3.14-2.578q0 .406.25.688.25.265.766.265.5 0 .75-.265.25-.282.25-.688 0-.234-.078-.422-.063-.187-.203-.328-.125-.11-.313-.172-.172-.078-.406-.078-.25 0-.437.078-.172.063-.297.172-.14.14-.219.344-.063.187-.063.406m7.79 12.438h1.687v-7.063q.172-.328.407-.594t.515-.453q.328-.234.719-.36.406-.14.875-.14.547 0 .953.125.422.125.703.406.281.297.422.75.156.454.156 1.11v6.219h1.688v-6.266q0-.969-.25-1.688-.235-.718-.688-1.187-.437-.453-1.078-.672-.625-.219-1.406-.219-.563 0-1.078.172-.516.156-.953.438-.297.187-.563.453-.25.265-.469.562l-.125-1.453h-1.515zm26.39-12.25h-1.702v2.39h-2.578v1.313h2.578v5.343q0 .922.234 1.563.25.64.672 1.047t.984.594q.579.187 1.235.187.39 0 .781-.047.406-.031.75-.11.36-.062.656-.155.297-.094.516-.22l-.234-1.202q-.157.047-.407.093-.234.047-.515.094t-.578.078q-.282.032-.547.032-.375 0-.72-.094-.327-.094-.577-.313-.266-.218-.406-.593t-.141-.954v-5.343h3.75v-1.313h-3.75zm13.54 8.812 1.047 3.438h1.672l-4.203-13.266h-1.422l-4.281 13.266h1.687l1.063-3.438zm-3.984-1.469 1.781-5.75 1.75 5.75zm17.149 4.907v-13.266h-1.704l-.03 9.89-5.141-9.89h-1.72v13.266h1.704l.031-9.907 5.156 9.907zm9.836-3.36q0 .547-.25.953-.235.39-.61.64-.359.267-.843.392-.485.125-.97.125-.624 0-1.155-.157-.516-.172-.907-.515-.406-.328-.671-.797-.25-.485-.329-1.11h-1.718q.03.86.375 1.563.343.687.953 1.203.672.61 1.578.938.922.312 1.875.312.797 0 1.578-.219.797-.234 1.422-.672.625-.437 1.016-1.109.406-.672.406-1.562 0-.875-.375-1.547-.36-.688-.953-1.141-.625-.5-1.36-.828-.734-.328-1.468-.547-.454-.14-.954-.312-.5-.188-.937-.47-.438-.265-.719-.655-.281-.407-.297-.985 0-.531.219-.922.219-.406.578-.672.36-.28.813-.406.468-.14.953-.14.594 0 1.062.187.485.172.828.516.36.343.563.812t.281 1.031h1.735q-.016-.906-.391-1.64-.375-.735-1-1.266-.61-.515-1.422-.797-.797-.297-1.656-.297-.797 0-1.578.25-.766.235-1.375.704-.61.468-.985 1.14t-.375 1.531q0 .86.375 1.5.375.625.985 1.094.593.453 1.312.781.719.313 1.422.547.484.157 1 .344.531.188.969.469.437.297.719.719.28.406.28 1.015m19.64 2.172q-.796 0-1.327-.312-.531-.313-.844-.829-.328-.5-.469-1.125-.14-.64-.14-1.28v-.391q0-.625.14-1.25.14-.641.47-1.157.327-.5.858-.812.532-.313 1.313-.313.516 0 .953.172.438.172.766.485.312.296.5.687.187.39.203.844h1.594q0-.75-.313-1.406-.297-.657-.828-1.141-.531-.469-1.266-.734-.734-.282-1.61-.282-1.108 0-1.952.407-.844.39-1.39 1.062-.563.688-.86 1.578-.281.89-.281 1.86v.39q0 .985.28 1.875.298.875.86 1.563.547.672 1.39 1.078.845.406 1.954.406.781 0 1.5-.266.719-.28 1.281-.734.563-.437.89-1.031.329-.61.345-1.266h-1.594q-.016.406-.219.766-.203.344-.547.61-.328.265-.765.405-.438.141-.891.141m6.525-3.828v.203q0 1.063.312 1.969.313.906.89 1.594.579.671 1.407 1.062.844.375 1.89.375 1.032 0 1.86-.375.828-.39 1.406-1.062.578-.688.89-1.594t.313-1.969v-.203q0-1.063-.312-1.984-.313-.922-.89-1.594-.579-.672-1.423-1.047-.828-.39-1.875-.39-1.03 0-1.859.39-.828.375-1.406 1.047t-.89 1.594-.313 1.984m1.687.203v-.203q0-.719.172-1.375.172-.672.531-1.172.344-.5.86-.797.515-.297 1.218-.297t1.22.297q.53.297.89.797.343.5.515 1.172.188.656.188 1.375v.203q0 .719-.172 1.39-.172.657-.516 1.157-.359.5-.89.797-.516.281-1.203.281-.704 0-1.235-.281-.531-.297-.875-.797-.36-.5-.531-1.156-.172-.672-.172-1.391m9.664-.203v.203q0 1.047.282 1.969.28.906.797 1.594.5.671 1.218 1.062.735.375 1.625.375.922 0 1.594-.312.688-.313 1.188-.907l.062 1.032h1.547v-14h-1.688v5.125q-.468-.579-1.14-.86-.656-.297-1.547-.297t-1.625.375q-.734.36-1.234 1.032-.516.656-.797 1.593-.282.922-.282 2.016m1.688.203v-.203q0-.719.156-1.36.156-.656.485-1.156.312-.5.812-.781.516-.297 1.219-.297.828 0 1.375.39.562.391.89.985v4.578q-.328.64-.89 1.032-.547.375-1.39.375-.704 0-1.204-.282-.5-.297-.812-.781-.329-.5-.485-1.14-.156-.641-.156-1.36m14.18 5q1.437 0 2.422-.578.984-.578 1.469-1.328l-1.032-.797q-.468.594-1.172.969-.687.359-1.593.359-.688 0-1.25-.25-.563-.266-.97-.719-.39-.406-.608-.953-.22-.547-.282-1.265v-.079h7.032v-.75q0-1.03-.266-1.906-.25-.89-.781-1.547-.532-.64-1.328-1-.797-.375-1.86-.375-.844 0-1.656.344-.797.344-1.438.984-.625.657-1.015 1.61-.375.937-.375 2.125v.39q0 1.032.344 1.907t.968 1.5q.61.64 1.485 1 .875.359 1.906.359m-.219-8.844q.656 0 1.125.235t.766.625q.312.375.484.906.172.516.172.984v.078h-5.297q.094-.687.344-1.203.266-.531.625-.89.36-.36.812-.547.454-.188.97-.188m13.618 6.047q0 .235-.094.453-.094.203-.266.375-.281.282-.781.438t-1.172.156q-.437 0-.875-.078-.437-.094-.797-.313-.36-.218-.61-.578-.234-.36-.265-.875h-1.687q0 .625.281 1.219.297.578.844 1.016.531.437 1.312.718.781.266 1.797.266.875 0 1.61-.203.734-.219 1.265-.61.531-.374.813-.906.296-.547.296-1.203 0-.61-.265-1.062-.25-.47-.735-.828-.5-.344-1.218-.594-.719-.25-1.625-.453-.688-.125-1.14-.266-.454-.156-.72-.344-.28-.172-.39-.406t-.11-.516q0-.28.141-.546t.406-.47.672-.312q.406-.125.953-.125.516 0 .922.157.422.14.719.375.281.234.437.546.172.297.172.625h1.688q0-.656-.282-1.218-.265-.563-.78-.97-.516-.421-1.25-.655-.72-.235-1.626-.235-.86 0-1.562.235-.703.218-1.219.609-.5.39-.781.922-.282.516-.282 1.11 0 .609.266 1.077.281.454.781.797.485.344 1.172.594.703.234 1.563.422.687.125 1.14.297.47.172.75.375.282.203.407.437.125.235.125.547"/>
        <path fill="none" d="M387.696 259.362h101.89v47.15h-101.89z"/>
        <path fill="#000" d="M397.805 281.267v.203q0 1.062.312 1.968.313.907.891 1.594.578.672 1.406 1.063.844.375 1.89.375 1.032 0 1.86-.375.828-.39 1.407-1.063.578-.687.89-1.594.313-.906.313-1.968v-.203q0-1.063-.313-1.985-.312-.922-.89-1.594-.579-.671-1.422-1.046-.828-.391-1.875-.391-1.032 0-1.86.39-.828.376-1.406 1.047-.578.672-.89 1.594t-.313 1.985m1.687.203v-.203q0-.72.172-1.375.172-.672.532-1.172.343-.5.859-.797t1.219-.297 1.218.297q.532.297.891.797.344.5.516 1.172.187.656.187 1.375v.203q0 .718-.172 1.39-.172.657-.515 1.157-.36.5-.891.796-.516.282-1.203.282-.703 0-1.234-.282-.532-.296-.875-.796-.36-.5-.532-1.157-.172-.672-.172-1.39m12.493 4.812h1.703v-8.547h3.797v-1.312h-3.797v-.688q0-.625.156-1.078.156-.469.469-.765.297-.282.734-.422.438-.14 1.016-.14.562 0 1.062.093.5.094.875.219l.188-1.391q-.234-.063-.469-.11-.219-.046-.453-.093-.344-.063-.703-.11-.344-.046-.703-.046-.875 0-1.594.25-.703.25-1.203.734-.516.484-.797 1.203-.281.703-.281 1.656v.688h-2.703v1.312h2.703zm11.195 0h1.704v-8.547h3.796v-1.312h-3.796v-.688q0-.625.156-1.078.156-.469.469-.765.296-.282.734-.422.437-.14 1.016-.14.562 0 1.062.093.5.094.875.219l.188-1.391q-.235-.063-.47-.11-.218-.046-.452-.093-.344-.063-.703-.11-.344-.046-.704-.046-.875 0-1.593.25-.703.25-1.203.734-.516.484-.797 1.203-.282.703-.282 1.656v.688h-2.703v1.312h2.703zm15.243-2.61q0 .235-.094.454-.094.203-.265.375-.282.281-.782.437-.5.157-1.172.157-.437 0-.875-.078-.437-.094-.796-.313t-.61-.578q-.234-.36-.265-.875h-1.688q0 .625.281 1.219.297.578.844 1.015.531.438 1.313.72.78.265 1.796.265.875 0 1.61-.203.734-.22 1.265-.61.532-.375.813-.906.297-.547.297-1.203 0-.61-.266-1.063-.25-.468-.734-.828-.5-.344-1.219-.594t-1.625-.453q-.687-.125-1.14-.265-.454-.157-.72-.344-.28-.172-.39-.406t-.11-.516q0-.281.141-.547.14-.265.407-.469.265-.203.671-.312.407-.125.954-.125.515 0 .921.156.422.14.72.375.28.235.437.547.172.297.172.625H440q0-.656-.281-1.219-.266-.562-.781-.968-.516-.422-1.25-.657-.72-.234-1.625-.234-.86 0-1.563.234-.703.22-1.219.61-.5.39-.781.922-.281.515-.281 1.109 0 .61.265 1.078.282.453.782.797.484.344 1.172.594.703.234 1.562.422.688.125 1.14.296.47.172.75.375.282.204.407.438t.125.547m8.992 2.798q1.438 0 2.422-.578.985-.579 1.469-1.329l-1.031-.796q-.47.593-1.172.968-.688.36-1.594.36-.687 0-1.25-.25-.562-.266-.969-.72-.39-.405-.61-.952-.218-.547-.28-1.266v-.078h7.03v-.75q0-1.031-.265-1.906-.25-.89-.78-1.547-.532-.64-1.33-1-.796-.375-1.858-.375-.844 0-1.657.344-.797.343-1.437.984-.625.656-1.016 1.61-.375.937-.375 2.124v.391q0 1.031.344 1.906t.969 1.5q.61.64 1.484 1 .875.36 1.906.36m-.218-8.844q.656 0 1.125.234t.765.625q.313.375.485.907.171.515.171.984v.078h-5.296q.093-.687.343-1.203.266-.531.625-.89.36-.36.813-.548.453-.187.969-.187m11.055-3.594h-1.704v2.39h-2.578v1.313h2.578v5.344q0 .922.235 1.563.25.64.672 1.046t.984.594q.578.188 1.234.188.391 0 .782-.047.406-.031.75-.11.359-.062.656-.156t.516-.219l-.235-1.203q-.156.047-.406.094-.234.047-.516.094-.281.047-.578.078-.281.031-.547.031-.375 0-.718-.094-.329-.093-.579-.312-.265-.219-.406-.594-.14-.375-.14-.953v-5.344h3.75v-1.312h-3.75zm13.758 9.64q0 .235-.094.454-.094.203-.266.375-.281.281-.781.437-.5.157-1.172.157-.437 0-.875-.078-.437-.094-.797-.313t-.61-.578q-.234-.36-.265-.875h-1.687q0 .625.281 1.219.297.578.844 1.015.531.438 1.312.72.781.265 1.797.265.875 0 1.61-.203.734-.22 1.265-.61.531-.375.813-.906.296-.547.296-1.203 0-.61-.265-1.063-.25-.468-.735-.828-.5-.344-1.218-.594-.719-.25-1.625-.453-.688-.125-1.14-.265-.454-.157-.72-.344-.28-.172-.39-.406t-.11-.516q0-.281.141-.547.14-.265.406-.469t.672-.312q.406-.125.953-.125.516 0 .922.156.422.14.719.375.281.235.437.547.172.297.172.625h1.688q0-.656-.282-1.219-.265-.562-.78-.968-.516-.422-1.25-.657-.72-.234-1.626-.234-.86 0-1.562.234-.703.22-1.219.61-.5.39-.781.922-.282.515-.282 1.109 0 .61.266 1.078.281.453.781.797.485.344 1.172.594.703.234 1.563.422.687.125 1.14.296.47.172.75.375.282.204.407.438t.125.547"/>
        <path fill="none" d="M189.822 260.425h65.826"/>
        <path stroke="#000" stroke-linecap="butt" stroke-linejoin="round" d="M189.822 260.425h59.826"/>
        <path fill="#000" fill-rule="evenodd" stroke="#000" stroke-linecap="butt" d="m249.648 262.077 4.538-1.652-4.538-1.652z"/>
        <path fill="none" d="m367.811 260.425 19.874-20.094"/>
        <path stroke="#000" stroke-linecap="butt" stroke-linejoin="round" d="m367.811 260.425 15.655-15.828"/>
        <path fill="#000" fill-rule="evenodd" stroke="#000" stroke-linecap="butt" d="m384.64 245.758 2.017-4.388-4.365 2.065z"/>
        <path fill="none" d="m367.811 260.425 19.874 22.52"/>
        <path stroke="#000" stroke-linecap="butt" stroke-linejoin="round" d="m367.811 260.425 15.904 18.021"/>
        <path fill="#000" fill-rule="evenodd" stroke="#000" stroke-linecap="butt" d="m382.476 279.54 4.242 2.309-1.765-4.496z"/>
        <path fill="none" d="M368.12 366.853H595.24v33.386H368.12z"/>
        <path fill="#000" d="M386.297 393.773h1.687v-7.062q.172-.329.406-.594.235-.266.516-.453.328-.235.719-.36.406-.14.875-.14.547 0 .953.125.422.125.703.406.281.297.422.75.156.453.156 1.11v6.218h1.688v-6.266q0-.968-.25-1.687-.235-.719-.688-1.188-.437-.453-1.078-.671-.625-.22-1.406-.22-.563 0-1.078.173-.516.156-.953.437-.297.188-.563.453-.25.266-.469.563l-.125-1.453h-1.515zm22.656-14v1.469h3.36v11.078h-3.36v1.453h8.266v-1.453H414v-12.547zm17.415 14h1.75v-.14q-.156-.422-.25-.97-.094-.546-.094-1.046v-4.578q0-.828-.297-1.438-.297-.625-.812-1.047-.532-.406-1.25-.61-.72-.202-1.563-.202-.922 0-1.656.25-.719.25-1.219.656-.5.422-.781.953-.266.516-.266 1.047h1.688q0-.312.14-.594.157-.281.438-.5.266-.203.656-.328.406-.14.906-.14.547 0 .97.14.437.14.734.39.296.25.453.61.172.344.172.797v.781h-1.829q-1.03 0-1.875.203-.828.188-1.421.594t-.922 1.016q-.313.61-.313 1.422 0 .625.235 1.156.25.531.687.906.438.406 1.063.64.64.22 1.437.22.469 0 .89-.11.438-.094.829-.265.375-.172.687-.391.313-.234.563-.5.031.312.094.61.062.28.156.468m-2.985-1.281q-.484 0-.859-.125-.375-.14-.625-.36-.234-.218-.36-.53-.124-.313-.124-.673 0-.39.14-.687t.407-.516q.39-.312 1.03-.453.657-.156 1.532-.156h1.563v2q-.141.281-.407.562-.25.266-.593.469-.344.203-.782.344-.422.125-.922.125m11.696-10.969h-1.703v2.39h-2.578v1.313h2.578v5.344q0 .922.234 1.562.25.641.672 1.047.422.407.984.594.579.188 1.235.188.39 0 .781-.047.406-.032.75-.11.36-.062.656-.156t.516-.219l-.234-1.203q-.157.047-.407.094-.234.047-.515.094t-.578.078q-.282.031-.547.031-.375 0-.72-.094-.327-.093-.577-.312-.266-.219-.406-.594t-.141-.953v-5.344h3.75v-1.312h-3.75zm11.555 12.438q1.437 0 2.422-.579.984-.578 1.469-1.328l-1.032-.797q-.468.594-1.172.97-.687.359-1.593.359-.688 0-1.25-.25-.563-.266-.97-.72-.39-.405-.608-.952-.22-.547-.282-1.266v-.078h7.032v-.75q0-1.031-.266-1.906-.25-.891-.781-1.547-.532-.64-1.328-1-.797-.375-1.86-.375-.844 0-1.656.344-.797.343-1.438.984-.625.656-1.015 1.61-.375.937-.375 2.124v.39q0 1.032.344 1.907t.968 1.5q.61.64 1.485 1t1.906.36m-.219-8.844q.656 0 1.125.234t.766.625q.312.375.484.906.172.516.172.985v.078h-5.297q.094-.688.344-1.203.266-.531.625-.89.36-.36.812-.548.454-.187.97-.187m7.055 8.656h1.688v-7.062q.171-.329.406-.594.234-.266.515-.453.329-.235.72-.36.405-.14.874-.14.547 0 .953.125.422.125.703.406.282.297.422.75.157.453.157 1.11v6.218h1.687v-6.266q0-.968-.25-1.687-.234-.719-.687-1.188-.438-.453-1.079-.671-.625-.22-1.406-.22-.562 0-1.078.173-.516.156-.953.437-.297.188-.563.453-.25.266-.468.563l-.125-1.453h-1.516zm15.196-12.25h-1.703v2.39h-2.579v1.313h2.579v5.344q0 .922.234 1.562.25.641.672 1.047.422.407.984.594.578.188 1.235.188.39 0 .78-.047.407-.032.75-.11.36-.062.657-.156t.516-.219l-.235-1.203q-.156.047-.406.094-.234.047-.516.094-.28.047-.578.078-.28.031-.547.031-.375 0-.718-.094-.328-.093-.578-.312-.266-.219-.407-.594t-.14-.953v-5.344h3.75v-1.312h-3.75zm21.766 12.25h1.281l4.016-9.86h-1.72l-2.765 7.438-.156.61-.156-.61-2.828-7.437h-1.735zm14.305 0h1.75v-.14q-.156-.422-.25-.97-.094-.546-.094-1.046v-4.578q0-.828-.297-1.438-.297-.625-.812-1.047-.532-.406-1.25-.61-.72-.202-1.563-.202-.922 0-1.656.25-.719.25-1.219.656-.5.422-.781.953-.266.516-.266 1.047h1.688q0-.312.14-.594.157-.281.438-.5.266-.203.656-.328.406-.14.906-.14.547 0 .97.14.437.14.734.39.296.25.453.61.172.344.172.797v.781h-1.829q-1.03 0-1.875.203-.828.188-1.421.594t-.922 1.016q-.313.61-.313 1.422 0 .625.235 1.156.25.531.687.906.438.406 1.063.64.64.22 1.437.22.469 0 .89-.11.438-.094.829-.265.375-.172.687-.391.313-.234.563-.5.031.312.094.61.062.28.156.468m-2.985-1.281q-.484 0-.859-.125-.375-.14-.625-.36-.234-.218-.36-.53-.124-.313-.124-.673 0-.39.14-.687t.407-.516q.39-.312 1.03-.453.657-.156 1.532-.156h1.563v2q-.141.281-.407.562-.25.266-.593.469-.344.203-.782.344-.422.125-.922.125m14.165-8.75q-1.078 0-1.922.469t-1.438 1.265l-.015-.234-.078-1.328h-1.594v9.859h1.687v-6.328q.172-.453.422-.813.25-.375.578-.625.375-.296.875-.437.5-.156 1.125-.156.485 0 .922.047.453.046.938.156l.234-1.64q-.266-.11-.766-.173t-.968-.062m4.992.172v1.468h3.36v6.938h-3.36v1.453h8.266v-1.453h-3.219v-8.406zm3.14-2.578q0 .406.25.687.25.266.766.266.5 0 .75-.266.25-.281.25-.687 0-.235-.078-.422-.062-.188-.203-.328-.125-.11-.312-.172-.172-.078-.407-.078-.25 0-.437.078-.172.062-.297.172-.14.14-.219.343-.062.188-.062.407m14.274 12.437h1.75v-.14q-.156-.422-.25-.97-.093-.546-.093-1.046v-4.578q0-.828-.297-1.438-.297-.625-.813-1.047-.53-.406-1.25-.61-.718-.202-1.562-.202-.922 0-1.656.25-.72.25-1.22.656-.5.422-.78.953-.266.516-.266 1.047h1.687q0-.312.141-.594.156-.281.438-.5.265-.203.656-.328.406-.14.906-.14.547 0 .969.14.437.14.734.39t.453.61q.172.344.172.797v.781h-1.828q-1.031 0-1.875.203-.828.188-1.422.594t-.922 1.016q-.312.61-.312 1.422 0 .625.234 1.156.25.531.688.906.437.406 1.062.64.64.22 1.438.22.468 0 .89-.11.438-.094.828-.265.375-.172.688-.391.312-.234.562-.5.032.312.094.61.063.28.156.468m-2.984-1.281q-.484 0-.86-.125-.374-.14-.624-.36-.235-.218-.36-.53t-.125-.673q0-.39.141-.687t.406-.516q.39-.312 1.031-.453.657-.156 1.532-.156h1.562v2q-.14.281-.406.562-.25.266-.594.469t-.781.344q-.422.125-.922.125m16.055-3.531v-.204q0-.765-.125-1.453-.125-.703-.375-1.281-.234-.516-.547-.922-.312-.422-.703-.703-.437-.312-.984-.484-.532-.172-1.157-.172-.515 0-.953.094-.437.093-.797.296-.296.157-.562.375-.25.204-.453.47v-5.204h-1.688v14h1.547l.078-1.125q.172.219.344.39.188.173.39.313.423.297.938.453.531.157 1.172.157.547 0 1.016-.141.484-.14.89-.39.563-.344.953-.891.391-.547.641-1.22.188-.53.281-1.124t.094-1.234m-1.687-.204v.204q0 .437-.063.859-.047.406-.156.781-.156.469-.406.875-.235.39-.61.64-.265.204-.61.313-.343.094-.765.094-.437 0-.812-.11-.36-.109-.641-.327-.297-.204-.531-.485-.219-.281-.375-.61v-4.312q.156-.328.375-.593.219-.282.515-.5.282-.188.641-.297.375-.125.813-.125.39 0 .718.093.328.094.594.25.39.235.656.641.266.39.422.875.125.39.172.844.063.437.063.89m4.789-8.984v1.469h3.36v11.078h-3.36v1.453h8.265v-1.453h-3.218v-12.547zm15.29 14.188q1.437 0 2.421-.579.984-.578 1.469-1.328l-1.031-.797q-.47.594-1.172.97-.688.359-1.594.359-.688 0-1.25-.25-.563-.266-.969-.72-.39-.405-.61-.952-.218-.547-.28-1.266v-.078h7.03v-.75q0-1.031-.265-1.906-.25-.891-.781-1.547-.531-.64-1.328-1-.797-.375-1.86-.375-.843 0-1.656.344-.797.343-1.437.984-.625.656-1.016 1.61-.375.937-.375 2.124v.39q0 1.032.344 1.907t.969 1.5q.609.64 1.484 1t1.906.36m-.22-8.844q.657 0 1.125.234.47.235.766.625.313.375.484.906.172.516.172.985v.078h-5.297q.094-.688.344-1.203.266-.531.625-.89.36-.36.813-.548.453-.187.968-.187m13.618 6.047q0 .234-.094.453-.094.203-.265.375-.282.281-.782.437-.5.157-1.172.157-.437 0-.875-.079-.437-.093-.796-.312t-.61-.578q-.234-.36-.265-.875h-1.688q0 .625.281 1.219.297.578.844 1.015.531.438 1.313.719.78.266 1.796.266.875 0 1.61-.204.734-.218 1.265-.609.532-.375.813-.906.297-.547.297-1.203 0-.61-.266-1.063-.25-.469-.734-.828-.5-.344-1.219-.594t-1.625-.453q-.687-.125-1.14-.265-.454-.157-.72-.344-.28-.172-.39-.406t-.11-.516q0-.281.141-.547t.407-.469.671-.312q.407-.125.954-.125.515 0 .921.156.422.14.72.375.28.234.437.547.172.297.172.625h1.687q0-.656-.281-1.219-.266-.562-.781-.969-.516-.421-1.25-.656-.72-.234-1.625-.234-.86 0-1.563.234-.703.219-1.219.61-.5.39-.781.921-.281.516-.281 1.11 0 .61.265 1.078.282.453.782.797.484.344 1.172.594.703.234 1.562.421.688.125 1.14.297.47.172.75.375.282.203.407.438t.125.547"/>
        <path fill="none" d="M353.822 314.298H580.94v33.386H353.822z"/>
        <path fill="#000" d="M503.508 336.405v-.203q0-.765-.125-1.453-.125-.703-.375-1.281-.234-.516-.547-.922-.312-.422-.703-.703-.437-.313-.984-.484-.532-.172-1.157-.172-.515 0-.953.093-.437.094-.797.297-.296.157-.562.375-.25.203-.453.469v-5.203h-1.688v14h1.547l.078-1.125q.172.219.344.39.188.172.39.313.423.297.938.453.531.156 1.172.156.547 0 1.016-.14.484-.14.89-.39.563-.345.953-.891.391-.547.641-1.22.188-.53.281-1.124t.094-1.235m-1.687-.203v.203q0 .438-.063.86-.047.406-.156.781-.156.469-.406.875-.235.39-.61.64-.265.204-.61.313-.343.094-.765.094-.437 0-.812-.11-.36-.109-.64-.328-.298-.203-.532-.484-.219-.281-.375-.61v-4.312q.156-.328.375-.594.219-.28.515-.5.282-.187.641-.296.375-.125.813-.125.39 0 .718.093.328.094.594.25.39.235.656.64.266.392.422.876.125.39.172.844.063.437.063.89m11.008 5.016h1.75v-.14q-.157-.423-.25-.97-.094-.546-.094-1.046v-4.578q0-.829-.297-1.438-.297-.625-.812-1.047-.532-.406-1.25-.61-.72-.202-1.563-.202-.922 0-1.656.25-.719.25-1.219.656-.5.422-.781.953-.266.516-.266 1.047h1.688q0-.313.14-.594.157-.281.438-.5.265-.203.656-.328.406-.14.906-.14.547 0 .97.14.437.14.733.39.297.25.454.61.171.344.171.797v.781h-1.828q-1.03 0-1.875.203-.828.188-1.422.594-.593.406-.921 1.016-.313.609-.313 1.422 0 .625.234 1.156.25.531.688.906.437.406 1.062.64.641.22 1.438.22.469 0 .89-.11.438-.094.829-.266.375-.171.687-.39.313-.235.563-.5.03.312.093.61.063.28.157.468m-2.985-1.281q-.484 0-.859-.125-.375-.141-.625-.36-.234-.218-.36-.531-.124-.312-.124-.672 0-.39.14-.687t.406-.516q.391-.312 1.032-.453.656-.156 1.531-.156h1.562v2q-.14.28-.406.562-.25.266-.594.469t-.78.344q-.423.125-.923.125m11.696-10.97h-1.703v2.392h-2.578v1.312h2.578v5.344q0 .922.234 1.562.25.64.672 1.047t.984.594q.579.187 1.235.187.39 0 .781-.046.406-.032.75-.11.36-.062.656-.156t.516-.219l-.234-1.203q-.157.047-.407.094-.234.047-.515.094-.282.046-.578.078-.282.03-.547.03-.375 0-.72-.093-.327-.094-.577-.312-.266-.22-.406-.594-.141-.375-.141-.953v-5.344h3.75v-1.312h-3.75zm11.399 11.063q-.797 0-1.329-.312-.53-.313-.843-.828-.328-.5-.469-1.125-.14-.64-.14-1.281v-.391q0-.625.14-1.25.14-.64.469-1.156.328-.5.86-.813.53-.312 1.312-.312.515 0 .953.172t.765.484q.313.297.5.687.188.391.203.844h1.594q0-.75-.312-1.406-.297-.656-.828-1.14-.532-.47-1.266-.735-.734-.281-1.61-.281-1.109 0-1.953.406-.843.39-1.39 1.062-.563.688-.86 1.579-.28.89-.28 1.859v.39q0 .985.28 1.876.297.875.86 1.562.547.672 1.39 1.078.844.406 1.954.406.78 0 1.5-.265.718-.281 1.28-.735.563-.437.891-1.03.329-.61.344-1.266h-1.594q-.015.406-.218.765-.203.344-.547.61-.328.265-.766.406-.437.14-.89.14m8.68-7.203v-5.61h-1.688v14h1.688v-7.155q.187-.297.421-.532.235-.25.5-.421.344-.25.75-.375.422-.125.875-.125.563-.016.985.156.422.156.703.469.266.296.406.734.14.437.14 1.031v6.219h1.688v-6.203q0-1-.25-1.719-.234-.719-.687-1.203-.438-.469-1.078-.688-.625-.218-1.407-.218-.593 0-1.125.172-.515.156-.953.484-.265.187-.515.437t-.453.547m20.703 8.39h1.688v-7.062q.172-.328.406-.593.234-.266.516-.453.328-.235.718-.36.407-.14.875-.14.547 0 .953.125.422.125.704.406.28.297.421.75.157.453.157 1.11v6.218h1.687v-6.266q0-.968-.25-1.687-.234-.719-.687-1.188-.438-.453-1.078-.672-.625-.218-1.407-.218-.562 0-1.078.172-.515.156-.953.437-.297.188-.562.453-.25.266-.47.563l-.124-1.453h-1.516z"/>
        <path fill="none" d="M198.173 116.995h227.118v33.386H198.173z"/>
        <path fill="#000" d="M216.35 143.915h1.687v-7.063q.172-.328.406-.594t.516-.453q.328-.234.718-.359.407-.14.875-.14.547 0 .953.124.422.125.704.407.28.297.421.75.157.453.157 1.109v6.219h1.687v-6.266q0-.969-.25-1.687-.234-.72-.687-1.188-.438-.453-1.078-.672-.625-.219-1.407-.219-.562 0-1.078.172-.515.157-.953.438-.297.187-.562.453-.25.266-.47.563l-.124-1.454h-1.516zm22.656-14v1.469h3.36v11.078h-3.36v1.453h8.266v-1.453h-3.22v-12.547zm17.414 14h1.75v-.14q-.156-.423-.25-.97-.093-.547-.093-1.047v-4.578q0-.828-.297-1.437-.297-.625-.813-1.047-.531-.406-1.25-.61t-1.562-.203q-.922 0-1.657.25-.718.25-1.218.657-.5.422-.782.953-.265.516-.265 1.047h1.687q0-.313.14-.594.157-.281.438-.5.266-.203.657-.328.406-.14.906-.14.547 0 .969.14.437.14.734.39t.453.61q.172.344.172.797v.781h-1.828q-1.031 0-1.875.203-.828.188-1.422.594t-.922 1.016q-.312.609-.312 1.421 0 .625.234 1.157.25.53.688.906.437.406 1.062.64.64.22 1.438.22.468 0 .89-.11.438-.094.828-.266.375-.172.688-.39.312-.235.562-.5.032.312.094.609.063.281.156.469m-2.984-1.281q-.484 0-.86-.125-.374-.141-.624-.36-.235-.219-.36-.531t-.125-.672q0-.39.14-.687t.407-.516q.39-.313 1.031-.453.657-.156 1.532-.156h1.562v2q-.14.28-.406.562-.25.266-.594.469t-.781.344q-.422.125-.922.125m11.695-10.97h-1.703v2.391h-2.578v1.313h2.578v5.344q0 .922.235 1.562.25.64.672 1.047.421.406.984.594.578.187 1.234.187.39 0 .782-.047.406-.03.75-.109.359-.062.656-.156t.515-.219l-.234-1.203q-.156.047-.406.094-.235.047-.516.093-.281.047-.578.078-.281.032-.547.032-.375 0-.719-.094-.328-.094-.578-.312-.265-.22-.406-.594-.14-.375-.14-.953v-5.344h3.75v-1.313h-3.75zm11.555 12.438q1.438 0 2.422-.578t1.469-1.328l-1.031-.797q-.469.594-1.172.969-.688.36-1.594.36-.687 0-1.25-.25-.562-.266-.969-.72-.39-.406-.609-.953t-.281-1.265v-.078h7.031v-.75q0-1.032-.266-1.907-.25-.89-.78-1.547-.532-.64-1.329-1-.797-.375-1.86-.375-.843 0-1.656.344-.796.344-1.437.985-.625.656-1.016 1.609-.375.938-.375 2.125v.39q0 1.032.344 1.907t.969 1.5q.61.64 1.484 1 .875.36 1.906.36m-.218-8.844q.656 0 1.125.235t.765.625q.313.375.485.906.172.516.172.984v.079h-5.297q.093-.688.343-1.203.266-.532.625-.891.36-.36.813-.547t.969-.187m7.055 8.657h1.687v-7.063q.172-.328.406-.594t.516-.453q.328-.234.719-.359.406-.14.875-.14.547 0 .953.124.422.125.703.407.281.297.422.75.156.453.156 1.109v6.219h1.688v-6.266q0-.969-.25-1.687-.235-.72-.688-1.188-.437-.453-1.078-.672-.625-.219-1.406-.219-.563 0-1.078.172-.516.157-.954.438-.296.187-.562.453-.25.266-.469.563l-.125-1.454h-1.515zm15.195-12.25h-1.703v2.39h-2.578v1.313h2.578v5.344q0 .922.234 1.562.25.64.672 1.047t.985.594q.578.187 1.234.187.39 0 .781-.047.407-.03.75-.109.36-.062.657-.156.296-.094.515-.219l-.234-1.203q-.156.047-.406.094-.235.047-.516.093-.281.047-.578.078-.281.032-.547.032-.375 0-.719-.094-.328-.094-.578-.312-.266-.22-.406-.594-.14-.375-.14-.953v-5.344h3.75v-1.313h-3.75zm21.766 12.25h1.282l4.015-9.86h-1.719l-2.765 7.438-.156.61-.157-.61-2.828-7.438h-1.734zm14.305 0h1.75v-.14q-.156-.423-.25-.97t-.094-1.047v-4.578q0-.828-.296-1.437-.297-.625-.813-1.047-.531-.406-1.25-.61t-1.562-.203q-.922 0-1.657.25-.718.25-1.218.657-.5.422-.782.953-.265.516-.265 1.047h1.687q0-.313.14-.594.157-.281.438-.5.266-.203.657-.328.406-.14.906-.14.547 0 .969.14.437.14.734.39t.453.61q.172.344.172.797v.781h-1.828q-1.031 0-1.875.203-.828.188-1.422.594t-.922 1.016q-.312.609-.312 1.421 0 .625.234 1.157.25.53.687.906.438.406 1.063.64.64.22 1.437.22.47 0 .891-.11.438-.094.828-.266.375-.172.688-.39.312-.235.562-.5.031.312.094.609.062.281.156.469m-2.984-1.281q-.485 0-.86-.125-.375-.141-.625-.36-.234-.219-.359-.531t-.125-.672q0-.39.14-.687t.407-.516q.39-.313 1.031-.453.656-.156 1.531-.156h1.563v2q-.14.28-.406.562-.25.266-.594.469t-.781.344q-.422.125-.922.125m14.164-8.75q-1.078 0-1.922.468t-1.437 1.266l-.016-.234-.078-1.329h-1.594v9.86h1.688v-6.328q.172-.453.422-.813.25-.375.578-.625.375-.297.875-.437.5-.157 1.125-.157.484 0 .922.047.453.047.937.156l.235-1.64q-.266-.11-.766-.172t-.969-.062m4.993.171v1.47h3.359v6.937h-3.36v1.453h8.266v-1.453h-3.218v-8.407zm3.14-2.578q0 .406.25.688.25.265.766.265.5 0 .75-.265.25-.281.25-.688 0-.234-.078-.422-.063-.187-.203-.328-.125-.11-.313-.172-.172-.078-.406-.078-.25 0-.438.078-.171.063-.296.172-.141.14-.22.344-.062.188-.062.406m14.274 12.438h1.75v-.14q-.156-.423-.25-.97t-.094-1.047v-4.578q0-.828-.297-1.437-.297-.625-.812-1.047-.531-.406-1.25-.61t-1.563-.203q-.922 0-1.656.25-.719.25-1.219.657-.5.422-.78.953-.267.516-.267 1.047h1.688q0-.313.14-.594.157-.281.438-.5.266-.203.656-.328.407-.14.907-.14.546 0 .968.14.438.14.735.39t.453.61q.172.344.172.797v.781h-1.828q-1.032 0-1.875.203-.829.188-1.422.594-.594.406-.922 1.016-.313.609-.313 1.421 0 .625.235 1.157.25.53.687.906.438.406 1.063.64.64.22 1.437.22.469 0 .89-.11.438-.094.829-.266.375-.172.687-.39.313-.235.563-.5.031.312.094.609.062.281.156.469m-2.984-1.281q-.485 0-.86-.125-.375-.141-.625-.36-.234-.219-.36-.531-.124-.313-.124-.672 0-.39.14-.687t.407-.516q.39-.313 1.031-.453.656-.156 1.531-.156h1.563v2q-.14.28-.407.562-.25.266-.593.469-.344.203-.782.344-.421.125-.921.125m16.055-3.532v-.203q0-.766-.125-1.453-.125-.703-.375-1.281-.235-.516-.547-.922-.313-.422-.703-.703-.438-.313-.985-.485-.531-.172-1.156-.172-.516 0-.953.094-.438.094-.797.297-.297.156-.563.375-.25.203-.453.469v-5.203h-1.687v14h1.547l.078-1.125q.172.219.344.39.187.172.39.313.422.297.938.453.53.156 1.172.156.546 0 1.015-.14.485-.141.89-.391.563-.344.954-.89.39-.548.64-1.22.188-.53.282-1.124t.094-1.235m-1.688-.203v.203q0 .438-.062.86-.047.406-.157.78-.156.47-.406.876-.234.39-.61.64-.265.204-.609.313-.343.094-.765.094-.438 0-.813-.11-.36-.109-.64-.328-.297-.203-.532-.484-.218-.281-.375-.61v-4.312q.157-.328.375-.594.219-.281.516-.5.281-.187.64-.297.376-.125.813-.125.39 0 .719.094t.594.25q.39.234.656.64.265.391.422.876.125.39.172.844.062.437.062.89m4.79-8.984v1.469h3.359v11.078h-3.36v1.453h8.266v-1.453h-3.219v-12.547zm15.289 14.187q1.437 0 2.422-.578.984-.578 1.468-1.328l-1.03-.797q-.47.594-1.173.969-.687.36-1.594.36-.687 0-1.25-.25-.562-.266-.968-.72-.39-.406-.61-.953-.218-.547-.28-1.265v-.078h7.03v-.75q0-1.032-.265-1.907-.25-.89-.782-1.547-.53-.64-1.328-1-.797-.375-1.86-.375-.843 0-1.655.344-.797.344-1.438.985-.625.656-1.015 1.609-.375.938-.375 2.125v.39q0 1.032.343 1.907t.97 1.5q.608.64 1.483 1t1.907.36m-.22-8.844q.657 0 1.126.235t.766.625q.312.375.484.906.172.516.172.984v.079h-5.297q.094-.688.344-1.203.265-.532.625-.891.36-.36.812-.547t.969-.187m13.618 6.047q0 .235-.093.453-.094.204-.266.375-.281.282-.781.438t-1.172.156q-.438 0-.875-.078-.438-.094-.797-.312-.36-.22-.61-.578-.234-.36-.265-.875h-1.687q0 .625.28 1.218.298.578.845 1.016.53.437 1.312.719.781.265 1.797.265.875 0 1.61-.203.734-.219 1.265-.61.531-.374.812-.905.297-.547.297-1.204 0-.609-.265-1.062-.25-.469-.735-.828-.5-.344-1.218-.594-.72-.25-1.625-.453-.688-.125-1.141-.266-.453-.156-.719-.344-.281-.171-.39-.406-.11-.234-.11-.515t.14-.547q.141-.266.407-.469t.672-.312q.406-.125.953-.125.516 0 .922.156.422.14.719.375.28.234.437.547.172.297.172.625h1.688q0-.657-.282-1.22-.265-.562-.781-.968-.516-.422-1.25-.656-.719-.234-1.625-.234-.86 0-1.562.234-.704.219-1.22.61-.5.39-.78.921-.282.516-.282 1.11 0 .609.266 1.078.281.453.781.797.485.343 1.172.593.703.235 1.563.422.687.125 1.14.297.469.172.75.375t.406.438.125.546"/>
    </g>
</svg>
