<svg xmlns="http://www.w3.org/2000/svg" fill="none" stroke-linecap="square" stroke-miterlimit="10" viewBox="0 0 653 446">
    <clipPath id="a">
        <path d="M0 0h653v446H0z"/>
    </clipPath>
    <g clip-path="url(#a)">
        <path fill="#fff" fill-rule="evenodd" d="M0 0h653v446H0z"/>
        <path fill="none" d="M0 127.052h70.016v47.15H0z"/>
        <path fill="#000" d="M10.578 157.77h1.688v-4.75q.172.202.375.374.218.172.453.313.39.219.875.328.5.125 1.062.125.922 0 1.64-.375.735-.39 1.235-1.063.485-.687.735-1.593.265-.922.265-1.969v-.203q0-1.094-.265-2.016-.25-.937-.735-1.594-.5-.671-1.234-1.03-.719-.376-1.672-.376-.531 0-1 .11-.469.109-.86.328-.265.14-.515.36-.234.202-.422.452l-.094-1.078h-1.53zm6.64-8.813v.203q0 .719-.171 1.375-.156.656-.485 1.156t-.843.797q-.5.297-1.203.297-.438 0-.797-.11-.36-.109-.64-.312-.267-.156-.47-.39-.187-.235-.343-.516v-4.75q.172-.297.39-.547.235-.266.531-.438.266-.171.594-.265t.719-.094q.719 0 1.219.297.515.281.844.781t.484 1.156q.172.641.172 1.36m11.04 5.015h1.75v-.14q-.156-.422-.25-.969t-.094-1.047v-4.578q0-.828-.297-1.437-.296-.625-.812-1.047-.531-.407-1.25-.61t-1.563-.203q-.921 0-1.656.25-.719.25-1.219.656-.5.422-.78.954-.266.515-.266 1.046h1.687q0-.312.14-.593.157-.282.438-.5.266-.203.656-.328.407-.141.907-.141.547 0 .968.14.438.141.735.391t.453.61q.172.343.172.796v.782h-1.828q-1.032 0-1.875.203-.828.187-1.422.594t-.922 1.015q-.313.61-.313 1.422 0 .625.235 1.156.25.532.687.907.438.406 1.063.64.64.219 1.437.219.47 0 .89-.11.438-.093.83-.265.374-.172.687-.39.312-.235.562-.5.031.312.094.609.062.281.156.468m-2.984-1.28q-.485 0-.86-.126-.375-.14-.625-.36-.234-.218-.36-.53-.124-.313-.124-.672 0-.39.14-.688t.407-.515q.39-.313 1.031-.454.656-.156 1.531-.156h1.563v2q-.14.281-.406.563-.25.265-.594.468t-.781.344q-.422.125-.922.125m7.398-3.735v.203q0 1.047.266 1.969.281.906.781 1.593.5.672 1.235 1.063.734.375 1.625.375.547 0 1-.125.468-.11.859-.313.234-.14.453-.312.219-.188.406-.406v.843q0 .641-.187 1.125-.172.5-.516.829-.343.328-.828.5t-1.078.171q-.344 0-.687-.062-.329-.063-.672-.219-.328-.156-.657-.422-.328-.25-.64-.625l-.875 1q.344.485.812.813t.969.515q.5.204.984.282.5.093.891.093.922 0 1.688-.28.765-.266 1.328-.782.547-.531.843-1.297.313-.75.313-1.719v-9.656h-1.531l-.078 1.078q-.172-.219-.375-.39-.188-.188-.407-.329-.406-.265-.906-.39-.5-.14-1.094-.14-.906 0-1.64.374-.735.36-1.235 1.031-.515.657-.781 1.594-.266.922-.266 2.016m1.672.203v-.203q0-.719.157-1.36.156-.656.484-1.156.312-.5.812-.781.516-.297 1.22-.297.421 0 .765.11.344.093.625.28.297.188.515.454.22.25.375.562v4.516q-.156.312-.375.578-.218.266-.5.453-.28.203-.64.313-.344.093-.781.093-.704 0-1.204-.28-.5-.298-.812-.782-.328-.5-.484-1.14-.157-.641-.157-1.36m14.18 5q1.438 0 2.422-.578t1.469-1.328l-1.031-.797q-.47.594-1.172.969-.688.359-1.594.359-.688 0-1.25-.25-.563-.266-.969-.719-.39-.406-.61-.953-.218-.547-.28-1.266v-.078h7.03v-.75q0-1.03-.265-1.906-.25-.89-.781-1.547-.531-.64-1.328-1-.797-.375-1.86-.375-.843 0-1.656.344-.797.344-1.437.984-.625.657-1.016 1.61-.375.937-.375 2.125v.39q0 1.032.344 1.907t.969 1.5q.609.64 1.484 1 .875.359 1.906.359m-.219-8.844q.657 0 1.125.235.47.234.766.625.313.375.484.906.172.515.172.984v.078h-5.297q.094-.687.344-1.203.266-.531.625-.89.36-.36.813-.547t.968-.188"/>
        <path fill="#ccc" fill-rule="evenodd" d="M182.173 14H576v154.205H182.173z"/>
        <path stroke="#000" stroke-linecap="butt" stroke-linejoin="round" d="M182.173 14H576v154.205H182.173z"/>
        <path fill="none" d="M348.882 121.052H576v47.15H348.882z"/>
        <path fill="#000" d="M367.058 147.972h1.687v-7.062q.172-.328.407-.594t.515-.453q.328-.234.719-.36.406-.14.875-.14.547 0 .953.125.422.125.703.406.281.297.422.75.156.453.156 1.11v6.218h1.688v-6.265q0-.969-.25-1.688-.235-.718-.688-1.187-.437-.453-1.078-.672-.625-.219-1.406-.219-.563 0-1.078.172-.516.156-.953.438-.297.187-.563.453-.25.265-.469.562l-.125-1.453h-1.515zm22.657-14v1.47h3.359v11.077h-3.36v1.453h8.266v-1.453h-3.219v-12.547zm17.414 14h1.75v-.14q-.156-.422-.25-.969t-.094-1.047v-4.578q0-.828-.297-1.437-.297-.625-.812-1.047-.531-.407-1.25-.61t-1.563-.203q-.922 0-1.656.25-.719.25-1.219.656-.5.422-.781.954-.266.515-.266 1.046h1.688q0-.312.14-.593.157-.282.438-.5.266-.203.656-.328.407-.141.907-.141.546 0 .968.14.438.141.735.391t.453.61q.172.343.172.796v.782h-1.828q-1.032 0-1.875.203-.829.187-1.422.594-.594.406-.922 1.015-.313.61-.313 1.422 0 .625.235 1.156.25.532.687.907.438.406 1.063.64.64.219 1.437.219.469 0 .89-.11.438-.093.829-.265.375-.172.687-.39.313-.235.563-.5.031.312.094.609.062.281.156.468m-2.984-1.28q-.485 0-.86-.126-.375-.14-.625-.36-.234-.218-.36-.53-.124-.313-.124-.672 0-.39.14-.688t.407-.515q.39-.313 1.03-.454.657-.156 1.532-.156h1.563v2q-.141.281-.407.563-.25.265-.593.468-.344.204-.782.344-.421.125-.921.125m11.695-10.97h-1.703v2.391h-2.578v1.313h2.578v5.343q0 .922.234 1.563.25.64.672 1.047t.985.593q.578.188 1.234.188.39 0 .781-.047.406-.031.75-.11.36-.062.656-.156.297-.093.516-.218l-.234-1.203q-.157.046-.407.093-.234.047-.515.094t-.578.078q-.282.031-.547.031-.375 0-.719-.093-.328-.094-.578-.313-.266-.219-.406-.594t-.14-.953v-5.343h3.75v-1.313h-3.75zm11.555 12.438q1.438 0 2.422-.578t1.469-1.328l-1.032-.797q-.468.594-1.171.969-.688.359-1.594.359-.688 0-1.25-.25-.563-.266-.969-.719-.39-.406-.61-.953-.218-.547-.28-1.266v-.078h7.03v-.75q0-1.03-.265-1.906-.25-.89-.781-1.547-.531-.64-1.328-1-.797-.375-1.86-.375-.843 0-1.656.344-.797.344-1.437.984-.625.657-1.016 1.61-.375.937-.375 2.125v.39q0 1.032.344 1.907t.968 1.5q.61.64 1.485 1 .875.359 1.906.359m-.219-8.844q.657 0 1.125.235.47.234.766.625.312.375.484.906.172.515.172.984v.078h-5.297q.094-.687.344-1.203.266-.531.625-.89.36-.36.813-.547t.968-.188m7.055 8.656h1.688v-7.062q.172-.328.406-.594t.516-.453q.328-.234.718-.36.407-.14.875-.14.547 0 .954.125.421.125.703.406.28.297.422.75.156.453.156 1.11v6.218h1.687v-6.265q0-.969-.25-1.688-.234-.718-.687-1.187-.438-.453-1.078-.672-.625-.219-1.407-.219-.562 0-1.078.172-.515.156-.953.438-.297.187-.562.453-.25.265-.47.562l-.124-1.453h-1.516zm15.196-12.25h-1.703v2.391h-2.578v1.313h2.578v5.343q0 .922.234 1.563.25.64.672 1.047t.984.593q.578.188 1.235.188.39 0 .78-.047.407-.031.75-.11.36-.062.657-.156.297-.093.516-.218l-.235-1.203q-.156.046-.406.093-.234.047-.515.094t-.579.078q-.28.031-.546.031-.375 0-.72-.093-.327-.094-.577-.313-.266-.219-.407-.594t-.14-.953v-5.343h3.75v-1.313h-3.75zm21.766 12.25h1.281l4.016-9.859h-1.719l-2.766 7.438-.156.609-.156-.61-2.828-7.437h-1.735zm14.305 0h1.75v-.14q-.156-.422-.25-.969t-.094-1.047v-4.578q0-.828-.297-1.437-.297-.625-.812-1.047-.531-.407-1.25-.61t-1.563-.203q-.922 0-1.656.25-.719.25-1.219.656-.5.422-.781.954-.266.515-.266 1.046h1.688q0-.312.14-.593.157-.282.438-.5.266-.203.656-.328.407-.141.907-.141.546 0 .968.14.438.141.735.391t.453.61q.172.343.172.796v.782h-1.828q-1.032 0-1.875.203-.829.187-1.422.594-.594.406-.922 1.015-.313.61-.313 1.422 0 .625.235 1.156.25.532.687.907.438.406 1.063.64.64.219 1.437.219.469 0 .89-.11.438-.093.829-.265.375-.172.687-.39.313-.235.563-.5.031.312.094.609.062.281.156.468m-2.984-1.28q-.485 0-.86-.126-.375-.14-.625-.36-.234-.218-.36-.53-.124-.313-.124-.672 0-.39.14-.688t.407-.515q.39-.313 1.03-.454.657-.156 1.532-.156h1.563v2q-.14.281-.407.563-.25.265-.593.468-.344.204-.782.344-.421.125-.921.125m14.164-8.75q-1.078 0-1.922.468t-1.438 1.266l-.015-.235-.078-1.328h-1.594v9.86h1.687v-6.329q.172-.453.422-.812.25-.375.578-.625.375-.297.875-.438.5-.156 1.125-.156.485 0 .922.047.453.047.938.156l.234-1.64q-.265-.11-.765-.172-.5-.063-.97-.063m4.992.171v1.469h3.36v6.937h-3.36v1.453h8.266v-1.453h-3.219v-8.406zm3.14-2.578q0 .406.25.687.25.266.767.266.5 0 .75-.266.25-.28.25-.687 0-.234-.079-.422-.062-.187-.203-.328-.125-.11-.312-.172-.172-.078-.406-.078-.25 0-.438.078-.172.063-.297.172-.14.14-.219.344-.062.187-.062.406m14.275 12.437h1.75v-.14q-.157-.422-.25-.969-.094-.547-.094-1.047v-4.578q0-.828-.297-1.437-.297-.625-.812-1.047-.532-.407-1.25-.61-.72-.203-1.563-.203-.922 0-1.656.25-.719.25-1.219.656-.5.422-.781.954-.266.515-.266 1.046h1.688q0-.312.14-.593.157-.282.438-.5.265-.203.656-.328.406-.141.906-.141.547 0 .969.14.438.141.734.391.297.25.454.61.171.343.171.796v.782h-1.828q-1.031 0-1.875.203-.828.187-1.422.594-.593.406-.921 1.015-.313.61-.313 1.422 0 .625.234 1.156.25.532.688.907.437.406 1.062.64.641.219 1.438.219.469 0 .89-.11.438-.093.829-.265.375-.172.687-.39.313-.235.563-.5.03.312.093.609.063.281.157.468m-2.985-1.28q-.484 0-.86-.126-.374-.14-.624-.36-.234-.218-.36-.53-.124-.313-.124-.672 0-.39.14-.688t.406-.515q.391-.313 1.032-.454.656-.156 1.53-.156h1.563v2q-.14.281-.406.563-.25.265-.594.468t-.78.344q-.423.125-.923.125m16.055-3.532v-.203q0-.766-.125-1.453-.125-.703-.375-1.282-.234-.515-.547-.921-.312-.422-.703-.704-.437-.312-.984-.484-.531-.172-1.156-.172-.516 0-.954.094t-.796.297q-.297.156-.563.375-.25.203-.453.469v-5.204h-1.688v14h1.547l.078-1.125q.172.22.344.391.188.172.39.313.423.296.938.453.532.156 1.172.156.547 0 1.016-.14.484-.141.89-.391.563-.344.954-.89.39-.548.64-1.22.188-.53.281-1.125.094-.593.094-1.234m-1.687-.203v.203q0 .437-.063.86-.047.406-.156.78-.156.47-.406.876-.235.39-.61.64-.265.203-.609.313-.344.093-.766.093-.437 0-.812-.109-.36-.11-.64-.328-.298-.203-.532-.484-.219-.282-.375-.61v-4.312q.156-.328.375-.594.219-.281.516-.5.28-.188.64-.297.375-.125.813-.125.39 0 .718.094.329.094.594.25.39.234.656.64.266.391.422.875.125.391.172.844.063.438.063.89m4.789-8.985v1.47h3.36v11.077h-3.36v1.453h8.266v-1.453h-3.22v-12.547zm15.29 14.188q1.437 0 2.421-.578.985-.578 1.469-1.328l-1.031-.797q-.469.594-1.172.969-.688.359-1.594.359-.687 0-1.25-.25-.562-.266-.969-.719-.39-.406-.609-.953t-.281-1.266v-.078h7.031v-.75q0-1.03-.266-1.906-.25-.89-.78-1.547-.532-.64-1.329-1-.797-.375-1.86-.375-.843 0-1.656.344-.797.344-1.437.984-.625.657-1.016 1.61-.375.937-.375 2.125v.39q0 1.032.344 1.907t.969 1.5q.61.64 1.484 1 .875.359 1.906.359m-.22-8.844q.657 0 1.126.235t.765.625q.313.375.485.906.171.515.171.984v.078h-5.296q.093-.687.343-1.203.266-.531.625-.89.36-.36.813-.547t.969-.188m13.618 6.047q0 .234-.094.453-.093.203-.265.375-.282.281-.782.438t-1.171.156q-.438 0-.875-.078-.438-.094-.797-.313-.36-.218-.61-.578-.234-.36-.265-.875h-1.688q0 .625.281 1.219.297.578.844 1.016.531.437 1.313.718.78.266 1.797.266.875 0 1.609-.203.734-.219 1.266-.61.53-.375.812-.906.297-.547.297-1.203 0-.61-.266-1.062-.25-.47-.734-.829-.5-.343-1.219-.593t-1.625-.453q-.687-.125-1.14-.266-.454-.156-.72-.344-.28-.172-.39-.406t-.11-.516q0-.28.141-.547.141-.265.407-.468.265-.203.672-.313.406-.125.953-.125.515 0 .922.156.421.141.718.375.282.235.438.547.172.297.172.625h1.687q0-.656-.281-1.218-.266-.563-.781-.97-.516-.421-1.25-.655-.72-.235-1.625-.235-.86 0-1.563.235-.703.218-1.219.609-.5.39-.78.922-.282.515-.282 1.11 0 .609.266 1.077.28.453.78.797.485.344 1.173.594.703.234 1.562.422.688.125 1.14.297.47.172.75.375.282.203.407.437.125.235.125.547"/>
        <path fill="none" d="M403.118 14h250.866v47.15H403.118z"/>
        <path fill="#000" d="M413.384 35.904v.203q0 1.047.281 1.97.281.905.797 1.593.5.672 1.219 1.062.734.375 1.625.375.921 0 1.593-.312.688-.313 1.188-.906l.062 1.031h1.547v-14h-1.687v5.125q-.469-.578-1.14-.86-.657-.296-1.548-.296-.89 0-1.625.375-.734.36-1.234 1.031-.516.656-.797 1.594-.281.922-.281 2.015m1.687.203v-.203q0-.718.156-1.359.157-.656.485-1.156.312-.5.812-.782.516-.296 1.22-.296.827 0 1.374.39.563.39.89.985v4.578q-.327.64-.89 1.031-.547.375-1.39.375-.704 0-1.204-.281-.5-.297-.812-.782-.328-.5-.485-1.14t-.156-1.36m14.18 5q1.438 0 2.422-.578t1.469-1.328l-1.031-.797q-.47.594-1.172.97-.688.358-1.594.358-.688 0-1.25-.25-.563-.265-.969-.718-.39-.407-.61-.953-.218-.547-.28-1.266v-.078h7.03v-.75q0-1.031-.265-1.906-.25-.891-.781-1.547-.531-.64-1.328-1-.797-.375-1.86-.375-.843 0-1.656.343-.797.344-1.437.985-.625.656-1.016 1.61-.375.937-.375 2.124v.39q0 1.032.344 1.907t.969 1.5q.609.64 1.484 1t1.906.36m-.219-8.843q.657 0 1.125.234.47.234.766.625.313.375.484.906.172.516.172.985v.078h-5.297q.094-.688.344-1.203.266-.532.625-.89.36-.36.813-.548.453-.187.968-.187m7.321-5.344v1.469h3.36v11.078h-3.36v1.453h8.266v-1.453h-3.22V26.92zm14.93 1.75h-1.703v2.39h-2.578v1.313h2.578v5.344q0 .922.234 1.562.25.641.672 1.047t.984.594q.579.187 1.235.187.39 0 .781-.046.406-.032.75-.11.36-.062.656-.156t.516-.219l-.234-1.203q-.157.047-.407.094-.234.047-.515.094-.282.046-.578.078-.282.031-.547.031-.375 0-.719-.094-.328-.094-.578-.312-.266-.219-.406-.594t-.141-.953v-5.344h3.75v-1.312h-3.75zm13.68 12.25h1.75v-.14q-.156-.423-.25-.97t-.094-1.046v-4.578q0-.829-.297-1.438-.297-.625-.812-1.047-.531-.406-1.25-.61-.719-.202-1.563-.202-.922 0-1.656.25-.719.25-1.219.656-.5.422-.781.953-.266.516-.266 1.047h1.688q0-.313.14-.594.157-.281.438-.5.266-.203.656-.328.407-.14.907-.14.546 0 .968.14.438.14.735.39t.453.61q.172.344.172.797v.781h-1.828q-1.032 0-1.875.203-.829.188-1.422.594-.594.406-.922 1.016-.313.61-.313 1.422 0 .625.235 1.156.25.531.687.906.438.406 1.063.64.64.22 1.437.22.469 0 .89-.11.438-.094.829-.266.375-.171.687-.39.313-.235.563-.5.031.312.094.61.062.28.156.468m-2.984-1.281q-.485 0-.86-.125-.375-.14-.625-.36-.234-.218-.36-.53-.124-.313-.124-.673 0-.39.14-.687t.407-.516q.39-.312 1.03-.453.657-.156 1.532-.156h1.563v2q-.141.281-.407.562-.25.266-.593.469-.344.203-.782.344-.421.125-.921.125m25.453-1.328q0 .234-.094.453-.093.203-.265.375-.281.281-.781.437t-1.172.156q-.438 0-.875-.078-.438-.093-.797-.312t-.61-.578q-.234-.36-.265-.875h-1.688q0 .625.282 1.218.296.579.843 1.016.532.438 1.313.719.781.265 1.797.265.875 0 1.609-.203.734-.218 1.266-.609.53-.375.812-.906.297-.547.297-1.203 0-.61-.266-1.063-.25-.469-.734-.828-.5-.344-1.219-.594-.718-.25-1.625-.453-.687-.125-1.14-.266-.453-.156-.72-.343-.28-.172-.39-.407t-.11-.515q0-.281.142-.547.14-.266.406-.469.265-.203.672-.312.406-.125.953-.125.515 0 .922.156.422.14.718.375.282.234.438.547.172.297.172.625h1.687q0-.656-.281-1.219-.266-.562-.781-.969-.516-.422-1.25-.656-.719-.234-1.625-.234-.86 0-1.563.234-.703.219-1.218.61-.5.39-.782.921-.281.516-.281 1.11 0 .61.266 1.078.28.453.78.797.485.343 1.173.593.703.235 1.562.422.688.125 1.14.297.47.172.75.375.282.203.407.438t.125.547m8.633-9.641h-1.703v2.39h-2.578v1.313h2.578v5.344q0 .922.234 1.562.25.641.672 1.047t.985.594q.578.187 1.234.187.39 0 .781-.046.407-.032.75-.11.36-.062.657-.156.296-.094.515-.219l-.234-1.203q-.156.047-.406.094-.235.047-.516.094-.281.046-.578.078-.281.031-.547.031-.375 0-.719-.094-.328-.094-.578-.312-.266-.219-.406-.594t-.14-.953v-5.344h3.75v-1.312h-3.75zm13.68 12.25h1.75v-.14q-.156-.423-.25-.97t-.094-1.046v-4.578q0-.829-.296-1.438-.297-.625-.813-1.047-.531-.406-1.25-.61-.719-.202-1.562-.202-.922 0-1.657.25-.718.25-1.218.656-.5.422-.782.953-.265.516-.265 1.047h1.687q0-.313.14-.594.157-.281.438-.5.266-.203.657-.328.406-.14.906-.14.547 0 .969.14.437.14.734.39t.453.61q.172.344.172.797v.781h-1.828q-1.031 0-1.875.203-.828.188-1.422.594t-.922 1.016q-.312.61-.312 1.422 0 .625.234 1.156.25.531.687.906.438.406 1.063.64.64.22 1.437.22.47 0 .891-.11.438-.094.828-.266.375-.171.688-.39.312-.235.562-.5.031.312.094.61.062.28.156.468m-2.984-1.281q-.485 0-.86-.125-.375-.14-.625-.36-.234-.218-.359-.53t-.125-.673q0-.39.14-.687t.407-.516q.39-.312 1.031-.453.656-.156 1.531-.156h1.563v2q-.14.281-.406.562-.25.266-.594.469t-.781.344q-.422.125-.922.125m11.695-10.969h-1.703v2.39h-2.578v1.313h2.578v5.344q0 .922.235 1.562.25.641.671 1.047t.985.594q.578.187 1.234.187.39 0 .781-.046.407-.032.75-.11.36-.062.657-.156t.515-.219l-.234-1.203q-.156.047-.406.094-.235.047-.516.094-.281.046-.578.078-.281.031-.547.031-.375 0-.719-.094-.328-.094-.578-.312-.265-.219-.406-.594-.14-.375-.14-.953v-5.344h3.75v-1.312h-3.75zm11.555 12.437q1.438 0 2.422-.578t1.469-1.328l-1.031-.797q-.469.594-1.172.97-.688.358-1.594.358-.687 0-1.25-.25-.562-.265-.969-.718-.39-.407-.609-.953-.219-.547-.281-1.266v-.078h7.031v-.75q0-1.031-.266-1.906-.25-.891-.78-1.547-.532-.64-1.329-1-.797-.375-1.86-.375-.843 0-1.656.343-.797.344-1.437.985-.625.656-1.016 1.61-.375.937-.375 2.124v.39q0 1.032.344 1.907t.969 1.5q.61.64 1.484 1 .875.36 1.906.36m-.218-8.843q.656 0 1.125.234t.765.625q.313.375.485.906.171.516.171.985v.078h-5.296q.093-.688.343-1.203.266-.532.625-.89.36-.36.813-.548.453-.187.969-.187"/>
        <path fill="none" d="M403.118 54.357h196.41v47.15h-196.41z"/>
        <path fill="#000" d="M417.696 69.027h-1.703v2.39h-2.578v1.313h2.578v5.344q0 .922.234 1.562.25.641.672 1.047t.985.594q.578.187 1.234.187.39 0 .781-.046.407-.032.75-.11.36-.062.657-.156.296-.094.515-.219l-.234-1.203q-.156.047-.406.094-.235.047-.516.094-.281.046-.578.078-.281.031-.547.031-.375 0-.719-.094-.328-.094-.578-.312-.266-.219-.406-.594t-.14-.953V72.73h3.75v-1.312h-3.75zm13.54 8.812 1.046 3.438h1.672l-4.203-13.266h-1.422l-4.28 13.266h1.687l1.062-3.438zm-3.985-1.468 1.781-5.75 1.75 5.75zm17.149 4.906V68.011h-1.703l-.032 9.891-5.14-9.89h-1.719v13.265h1.703l.031-9.906 5.157 9.906zm9.836-3.36q0 .547-.25.954-.234.39-.61.64-.359.266-.843.391t-.969.125q-.625 0-1.156-.156-.516-.172-.906-.516-.407-.328-.672-.797-.25-.484-.328-1.11h-1.719q.031.86.375 1.563.344.688.953 1.203.672.61 1.578.938.922.312 1.875.312.797 0 1.578-.218.797-.235 1.422-.672t1.016-1.11q.406-.671.406-1.562 0-.875-.375-1.547-.36-.687-.953-1.14-.625-.5-1.36-.829-.734-.328-1.468-.547-.453-.14-.953-.312-.5-.188-.938-.469-.437-.265-.719-.656-.28-.406-.296-.984 0-.532.218-.922.22-.407.578-.672.36-.281.813-.406.469-.141.953-.141.594 0 1.063.187.484.172.828.516.36.344.562.813t.281 1.03h1.735q-.016-.905-.39-1.64-.376-.734-1-1.265-.61-.516-1.423-.797-.797-.297-1.656-.297-.797 0-1.578.25-.766.234-1.375.703-.61.469-.984 1.14-.375.672-.375 1.532t.375 1.5q.375.625.984 1.094.594.453 1.312.78.72.313 1.422.548.485.156 1 .343.532.188.97.47.437.296.718.718.281.406.281 1.016m22 .75q0 .235-.093.454-.094.203-.266.375-.281.281-.781.437t-1.172.156q-.437 0-.875-.078-.437-.093-.797-.312t-.61-.578q-.234-.36-.265-.875h-1.687q0 .625.281 1.218.297.579.844 1.016.531.438 1.312.719.781.265 1.797.265.875 0 1.61-.203.734-.218 1.265-.609.531-.375.813-.906.296-.547.296-1.203 0-.61-.265-1.063-.25-.469-.735-.828-.5-.344-1.218-.594-.719-.25-1.625-.453-.688-.125-1.14-.266-.454-.156-.72-.343-.28-.172-.39-.407t-.11-.515q0-.281.141-.547t.406-.469.672-.312q.406-.125.953-.125.516 0 .922.156.422.14.719.375.281.234.437.547.172.297.172.625h1.688q0-.656-.282-1.219-.265-.562-.78-.969-.516-.422-1.25-.656-.72-.234-1.626-.234-.86 0-1.562.234-.703.219-1.219.61-.5.39-.781.921-.282.516-.282 1.11 0 .61.266 1.078.281.453.781.797.485.343 1.172.593.703.235 1.563.422.687.125 1.14.297.47.172.75.375.282.203.407.438t.125.547m8.634-9.64h-1.703v2.39h-2.579v1.313h2.579v5.344q0 .922.234 1.562.25.641.672 1.047t.984.594q.578.187 1.235.187.39 0 .78-.046.407-.032.75-.11.36-.062.657-.156t.516-.219l-.235-1.203q-.156.047-.406.094-.234.047-.516.094-.28.046-.578.078-.281.031-.547.031-.375 0-.718-.094-.328-.094-.578-.312-.266-.219-.407-.594t-.14-.953V72.73h3.75v-1.312h-3.75zm13.68 12.25h1.75v-.14q-.157-.423-.25-.97-.094-.546-.094-1.046v-4.578q0-.829-.297-1.438-.297-.625-.813-1.047-.53-.406-1.25-.61-.718-.202-1.562-.202-.922 0-1.656.25-.719.25-1.219.656-.5.422-.781.953-.266.516-.266 1.047h1.688q0-.313.14-.594.156-.281.438-.5.265-.203.656-.328.406-.14.906-.14.547 0 .969.14.437.14.734.39t.453.61q.172.344.172.797v.781h-1.828q-1.031 0-1.875.203-.828.188-1.422.594-.593.406-.922 1.016-.312.61-.312 1.422 0 .625.234 1.156.25.531.688.906.437.406 1.062.64.641.22 1.438.22.469 0 .89-.11.438-.094.829-.266.375-.171.687-.39.313-.235.563-.5.03.312.093.61.063.28.157.468m-2.985-1.281q-.484 0-.86-.125-.374-.14-.624-.36-.235-.218-.36-.53t-.125-.673q0-.39.141-.687t.406-.516q.391-.312 1.032-.453.656-.156 1.53-.156h1.563v2q-.14.281-.406.562-.25.266-.594.469t-.78.344q-.423.125-.923.125m11.696-10.969h-1.703v2.39h-2.578v1.313h2.578v5.344q0 .922.234 1.562.25.641.672 1.047t.984.594q.578.187 1.235.187.39 0 .78-.046.407-.032.75-.11.36-.062.657-.156t.516-.219l-.235-1.203q-.156.047-.406.094-.234.047-.515.094-.282.046-.579.078-.28.031-.546.031-.375 0-.72-.094-.327-.094-.577-.312-.266-.219-.407-.594t-.14-.953V72.73h3.75v-1.312h-3.75zm11.555 12.437q1.437 0 2.422-.578.984-.578 1.468-1.328l-1.03-.797q-.47.594-1.173.97-.687.358-1.594.358-.687 0-1.25-.25-.562-.265-.968-.718-.39-.407-.61-.953-.218-.547-.28-1.266v-.078h7.03v-.75q0-1.031-.265-1.906-.25-.891-.782-1.547-.53-.64-1.328-1-.797-.375-1.859-.375-.844 0-1.656.343-.797.344-1.438.985-.625.656-1.015 1.61-.375.937-.375 2.124v.39q0 1.032.343 1.907t.97 1.5q.608.64 1.483 1t1.907.36m-.219-8.843q.656 0 1.125.234t.766.625q.312.375.484.906.172.516.172.985v.078h-5.297q.094-.688.344-1.203.265-.532.625-.89.36-.36.812-.548.453-.187.969-.187"/>
        <path fill="none" d="M182.173 37.56h128.82v47.149h-128.82z"/>
        <path fill="#000" d="M192.751 68.276h1.688v-4.75q.172.203.375.375.219.172.453.312.39.22.875.329.5.125 1.062.125.922 0 1.641-.375.734-.391 1.234-1.063.485-.687.735-1.594.265-.922.265-1.968v-.204q0-1.093-.265-2.015-.25-.938-.735-1.594-.5-.672-1.234-1.031-.719-.375-1.672-.375-.531 0-1 .11-.469.109-.86.327-.265.14-.515.36-.234.203-.422.453l-.093-1.078h-1.532zm6.641-8.813v.204q0 .718-.172 1.375-.156.656-.484 1.156t-.844.797q-.5.297-1.203.297-.438 0-.797-.11t-.64-.312q-.266-.157-.47-.39-.187-.235-.343-.517v-4.75q.172-.296.39-.546.235-.266.532-.438.265-.172.593-.266.329-.093.72-.093.718 0 1.218.297.516.28.844.78t.484 1.157q.172.64.172 1.36m11.04 5.016h1.75v-.14q-.157-.422-.25-.97-.094-.546-.094-1.046v-4.578q0-.828-.297-1.438-.297-.625-.813-1.047-.531-.406-1.25-.61-.719-.202-1.562-.202-.922 0-1.657.25-.718.25-1.218.656-.5.422-.782.953-.265.516-.265 1.047h1.687q0-.312.14-.594.157-.28.438-.5.266-.203.657-.328.406-.14.906-.14.547 0 .969.14.437.14.734.39t.453.61q.172.344.172.797v.781h-1.828q-1.031 0-1.875.203-.828.188-1.422.594t-.922 1.016q-.312.61-.312 1.422 0 .625.234 1.156.25.531.688.906.437.406 1.062.64.64.22 1.438.22.468 0 .89-.11.438-.094.828-.265.375-.172.688-.391.312-.234.562-.5.032.312.094.61.063.28.156.468m-2.985-1.281q-.484 0-.86-.125-.374-.14-.624-.36-.235-.218-.36-.53t-.125-.673q0-.39.14-.687t.407-.516q.39-.312 1.031-.453.657-.156 1.532-.156h1.562v2q-.14.281-.406.562-.25.266-.594.47-.344.202-.781.343-.422.125-.922.125m7.399-3.735v.204q0 1.046.265 1.968.282.907.782 1.594.5.672 1.234 1.063.734.375 1.625.375.547 0 1-.125.469-.11.86-.313.234-.14.452-.312.22-.188.407-.407v.844q0 .64-.188 1.125-.172.5-.515.828t-.829.5-1.078.172q-.343 0-.687-.062-.328-.063-.672-.22-.328-.155-.656-.421-.328-.25-.641-.625l-.875 1q.344.484.813.812t.968.516q.5.203.985.281.5.094.89.094.922 0 1.688-.281.765-.266 1.328-.781.547-.532.844-1.297.312-.75.312-1.72V54.62h-1.531l-.078 1.078q-.172-.219-.375-.39-.188-.188-.406-.329-.407-.266-.907-.39-.5-.141-1.093-.141-.907 0-1.641.375-.734.36-1.234 1.031-.516.656-.782 1.594-.265.922-.265 2.015m1.672.204v-.204q0-.718.156-1.359.156-.656.484-1.156.313-.5.813-.781.515-.297 1.218-.297.422 0 .766.11.344.093.625.28.297.188.516.453.218.25.375.563v4.516q-.157.312-.375.578-.22.265-.5.453-.282.203-.641.312-.344.094-.781.094-.703 0-1.203-.281-.5-.297-.813-.781-.328-.5-.484-1.141-.156-.64-.156-1.36m14.18 5q1.437 0 2.421-.579.985-.578 1.47-1.328l-1.032-.797q-.469.594-1.172.97-.688.359-1.594.359-.687 0-1.25-.25-.562-.266-.969-.72-.39-.405-.609-.952t-.281-1.266v-.078h7.031v-.75q0-1.031-.266-1.906-.25-.89-.78-1.547-.532-.64-1.329-1-.797-.375-1.86-.375-.843 0-1.656.344-.796.343-1.437.984-.625.656-1.016 1.61-.375.937-.375 2.124v.39q0 1.032.344 1.907t.969 1.5q.61.64 1.484 1 .875.36 1.906.36m-.22-8.844q.657 0 1.126.234t.765.625q.313.375.485.906.172.516.172.985v.078h-5.297q.093-.688.343-1.203.266-.531.625-.89.36-.36.813-.548.453-.187.969-.187m19.032-1.203h-1.515v9.859h1.61v-7.844q.046-.14.124-.265.094-.14.219-.235.156-.125.375-.187.219-.078.531-.078.266 0 .469.078.203.062.344.203.156.156.218.39.063.235.063.547v7.391h1.61v-7.562q.03-.22.109-.407.078-.187.218-.343.157-.125.375-.204.22-.093.516-.093.281 0 .484.078.22.062.375.219.141.156.204.39.078.235.078.547v7.375h1.593v-7.36q0-.718-.171-1.234-.157-.53-.454-.86-.28-.28-.703-.42-.406-.157-.922-.157-.359 0-.687.094-.313.093-.563.25-.203.125-.375.312-.171.188-.296.39-.11-.218-.25-.406-.141-.187-.313-.312-.234-.156-.547-.234-.312-.094-.703-.094-.687 0-1.187.297-.485.28-.782.812zm14.774 10.047q1.438 0 2.422-.579.984-.578 1.469-1.328l-1.031-.797q-.47.594-1.172.97-.688.359-1.594.359-.688 0-1.25-.25-.563-.266-.969-.72-.39-.405-.61-.952-.218-.547-.28-1.266v-.078h7.03v-.75q0-1.031-.265-1.906-.25-.89-.781-1.547-.531-.64-1.328-1-.797-.375-1.86-.375-.843 0-1.656.344-.797.343-1.437.984-.625.656-1.016 1.61-.375.937-.375 2.124v.39q0 1.032.344 1.907t.969 1.5q.609.64 1.484 1t1.906.36m-.219-8.844q.657 0 1.125.234.47.235.766.625.313.375.484.906.172.516.172.985v.078h-5.297q.094-.688.344-1.203.266-.531.625-.89.36-.36.813-.548.453-.187.968-.187m11.055-3.594h-1.703v2.39h-2.578v1.313h2.578v5.344q0 .922.235 1.562.25.641.671 1.047.422.407.985.594.578.188 1.234.188.39 0 .781-.047.407-.032.75-.11.36-.062.657-.156t.515-.219l-.234-1.203q-.156.047-.406.094-.235.047-.516.094t-.578.078q-.281.031-.547.031-.375 0-.719-.094-.328-.093-.578-.312-.265-.219-.406-.594-.14-.375-.14-.953v-5.344h3.75V54.62h-3.75zm13.68 12.25h1.75v-.14q-.156-.422-.25-.97-.093-.546-.093-1.046v-4.578q0-.828-.297-1.438-.297-.625-.813-1.047-.531-.406-1.25-.61-.719-.202-1.562-.202-.922 0-1.657.25-.718.25-1.218.656-.5.422-.782.953-.265.516-.265 1.047h1.687q0-.312.14-.594.157-.28.438-.5.266-.203.657-.328.406-.14.906-.14.547 0 .969.14.437.14.734.39t.453.61q.172.344.172.797v.781h-1.828q-1.031 0-1.875.203-.828.188-1.422.594t-.922 1.016q-.312.61-.312 1.422 0 .625.234 1.156.25.531.688.906.437.406 1.062.64.64.22 1.438.22.468 0 .89-.11.438-.094.828-.265.375-.172.688-.391.312-.234.562-.5.032.312.094.61.063.28.156.468m-2.984-1.281q-.484 0-.86-.125-.374-.14-.624-.36-.235-.218-.36-.53t-.125-.673q0-.39.14-.687t.407-.516q.39-.312 1.031-.453.657-.156 1.532-.156h1.562v2q-.14.281-.406.562-.25.266-.594.47-.344.202-.781.343-.422.125-.922.125"/>
        <path fill="none" d="m70.016 150.627 112.157-89.48"/>
        <path stroke="#000" stroke-linecap="butt" stroke-linejoin="round" d="M70.016 150.627 177.483 64.89"/>
        <path fill="#000" fill-rule="evenodd" stroke="#000" stroke-linecap="butt" d="m178.513 66.18 2.517-4.121-4.577 1.539z"/>
        <path fill="none" d="m310.992 61.134 92.126-23.56"/>
        <path stroke="#000" stroke-linecap="butt" stroke-linejoin="round" d="m310.992 61.134 86.313-22.073"/>
        <path fill="#000" fill-rule="evenodd" stroke="#000" stroke-linecap="butt" d="m397.714 40.662 3.988-2.725-4.806-.476z"/>
        <path fill="none" d="m310.992 61.134 92.126 16.787"/>
        <path stroke="#000" stroke-linecap="butt" stroke-linejoin="round" d="m310.992 61.134 86.223 15.712"/>
        <path fill="#000" fill-rule="evenodd" stroke="#000" stroke-linecap="butt" d="m396.92 78.47 4.76-.81-4.169-2.44z"/>
        <path fill="#efefef" fill-rule="evenodd" d="M182.173 200h459.843v228H182.173z"/>
        <path stroke="#000" stroke-linecap="butt" stroke-linejoin="round" d="M182.173 200h459.843v228H182.173z"/>
        <path fill="none" d="M414.992 380.85H642.11V428H414.992z"/>
        <path fill="#000" d="M533.928 407.77h1.688v-7.062q.172-.328.406-.594t.516-.453q.328-.234.718-.36.407-.14.875-.14.547 0 .953.125.422.125.704.406.28.297.421.75.157.453.157 1.11v6.218h1.687v-6.265q0-.969-.25-1.688-.234-.718-.687-1.187-.438-.453-1.078-.672-.625-.219-1.407-.219-.562 0-1.078.172-.515.156-.953.438-.297.187-.562.453-.25.265-.47.562l-.124-1.453h-1.516zm30.75-4.812v-.203q0-.766-.124-1.453-.125-.703-.375-1.282-.235-.515-.547-.921-.313-.422-.703-.704-.438-.312-.985-.484-.53-.172-1.156-.172-.516 0-.953.094-.438.094-.797.297-.297.156-.562.375-.25.203-.454.469v-5.204h-1.687v14h1.547l.078-1.125q.172.22.344.391.187.172.39.313.422.296.938.453.531.156 1.172.156.547 0 1.015-.14.485-.141.89-.391.563-.344.954-.891.39-.547.64-1.219.188-.531.282-1.125.094-.593.094-1.234m-1.687-.203v.203q0 .437-.062.86-.047.406-.157.78-.156.47-.406.876-.234.39-.61.64-.265.203-.609.313-.343.093-.765.093-.438 0-.813-.109-.36-.11-.64-.328-.297-.203-.532-.484-.218-.282-.375-.61v-4.312q.157-.328.375-.594.22-.281.516-.5.281-.188.64-.297.376-.125.813-.125.39 0 .719.094t.594.25q.39.234.656.64.266.391.422.875.125.391.172.844.062.438.062.89M574 407.77h1.75v-.14q-.156-.422-.25-.969t-.094-1.047v-4.578q0-.828-.296-1.437-.297-.625-.813-1.047-.531-.407-1.25-.61t-1.562-.203q-.922 0-1.657.25-.718.25-1.218.656-.5.422-.782.954-.265.515-.265 1.046h1.687q0-.312.14-.593.157-.282.438-.5.266-.203.657-.328.406-.141.906-.141.547 0 .969.14.437.141.734.391t.453.61q.172.343.172.796v.782h-1.828q-1.031 0-1.875.203-.828.187-1.422.594t-.922 1.015q-.312.61-.312 1.422 0 .625.234 1.156.25.532.687.907.438.406 1.063.64.64.219 1.437.219.47 0 .891-.11.438-.093.828-.265.375-.172.688-.39.312-.235.562-.5.031.312.094.609.062.28.156.468m-2.984-1.28q-.485 0-.86-.126-.375-.14-.625-.36-.234-.218-.359-.53t-.125-.672q0-.391.14-.688t.407-.515q.39-.313 1.031-.454.656-.156 1.531-.156h1.563v2q-.14.281-.406.563-.25.265-.594.468t-.781.344q-.422.125-.922.125m11.695-10.97h-1.703v2.391h-2.578v1.313h2.578v5.343q0 .922.235 1.563.25.64.672 1.047.421.406.984.593.578.188 1.234.188.391 0 .782-.047.406-.031.75-.11.359-.062.656-.156.297-.093.515-.218l-.234-1.203q-.156.046-.406.093-.235.047-.516.094t-.578.078q-.281.031-.547.031-.375 0-.719-.093-.328-.094-.578-.313-.265-.219-.406-.594-.14-.375-.14-.953v-5.343h3.75v-1.313h-3.75zm11.4 11.063q-.798 0-1.329-.313-.531-.312-.844-.828-.328-.5-.468-1.125-.141-.64-.141-1.281v-.39q0-.626.14-1.25.141-.641.47-1.157.327-.5.859-.812.53-.313 1.312-.313.516 0 .953.172.438.172.766.484.312.297.5.688.187.39.203.844h1.594q0-.75-.313-1.407-.297-.656-.828-1.14-.531-.469-1.265-.735-.735-.28-1.61-.28-1.11 0-1.953.405-.844.391-1.39 1.063-.563.687-.86 1.578-.281.89-.281 1.86v.39q0 .984.281 1.875.297.875.86 1.563.546.671 1.39 1.078.844.406 1.953.406.781 0 1.5-.266.719-.281 1.281-.734.563-.438.891-1.031.328-.61.344-1.266h-1.594q-.016.406-.219.766-.203.343-.547.609-.328.266-.765.406-.438.14-.89.14m8.68-7.203v-5.61h-1.688v14h1.687v-7.156q.188-.297.422-.531.234-.25.5-.422.344-.25.75-.375.422-.125.875-.125.562-.016.984.156.422.157.703.469.266.297.407.734.14.438.14 1.032v6.218h1.688v-6.203q0-1-.25-1.718-.235-.72-.688-1.204-.437-.468-1.078-.687-.625-.219-1.406-.219-.594 0-1.125.172-.516.156-.953.484-.266.188-.516.438t-.453.547m13.867 8.578q1.437 0 2.421-.578.985-.578 1.47-1.328l-1.032-.797q-.469.594-1.172.969-.687.359-1.594.359-.687 0-1.25-.25-.562-.266-.968-.719-.391-.406-.61-.953t-.281-1.266v-.078h7.031v-.75q0-1.031-.265-1.906-.25-.89-.782-1.547-.531-.64-1.328-1-.797-.375-1.86-.375-.843 0-1.655.344-.797.344-1.438.984-.625.657-1.016 1.61-.375.937-.375 2.125v.39q0 1.032.344 1.907t.969 1.5q.61.64 1.484 1 .875.359 1.907.359m-.22-8.844q.657 0 1.126.235t.765.625q.313.375.485.906.172.515.172.984v.078h-5.297q.094-.687.344-1.203.265-.531.625-.89.359-.36.812-.547t.969-.188m13.618 6.047q0 .234-.093.453-.094.203-.266.375-.281.281-.781.438t-1.172.156q-.438 0-.875-.078-.438-.094-.797-.313-.36-.218-.61-.578-.234-.36-.265-.875h-1.688q0 .625.282 1.219.297.578.843 1.016.532.437 1.313.718.781.266 1.797.266.875 0 1.61-.203.734-.219 1.265-.61.531-.375.812-.906.297-.547.297-1.203 0-.61-.265-1.062-.25-.47-.735-.829-.5-.343-1.219-.593-.718-.25-1.625-.453-.687-.125-1.14-.266-.453-.156-.719-.344-.281-.172-.39-.406-.11-.234-.11-.516 0-.281.14-.547.141-.265.407-.468t.672-.313q.406-.125.953-.125.516 0 .922.156.422.141.719.375.28.235.437.547.172.297.172.625h1.687q0-.656-.28-1.218-.266-.563-.782-.97-.516-.421-1.25-.655-.719-.235-1.625-.235-.86 0-1.563.235-.703.218-1.218.609-.5.39-.782.922-.28.515-.28 1.11 0 .609.265 1.077.281.453.781.797.484.344 1.172.594.703.234 1.562.422.688.125 1.141.297.469.172.75.375t.406.437.125.547"/>
        <path fill="none" d="M182.173 223.56h76.82v47.149h-76.82z"/>
        <path fill="#000" d="M201.11 245.667v-.204q0-.765-.124-1.453-.125-.703-.375-1.28-.235-.517-.547-.923-.313-.422-.703-.703-.438-.312-.985-.484-.53-.172-1.156-.172-.516 0-.953.094-.438.093-.797.296-.297.157-.562.375-.25.204-.454.47v-5.204h-1.687v14h1.547l.078-1.125q.172.219.344.39.187.173.39.313.422.297.938.453.531.157 1.172.157.547 0 1.015-.141.485-.14.891-.39.562-.344.953-.891t.64-1.22q.188-.53.282-1.124t.094-1.234m-1.687-.204v.204q0 .437-.062.859-.047.406-.157.781-.156.469-.406.875-.234.39-.61.64-.265.204-.609.313-.343.094-.765.094-.438 0-.813-.11-.359-.109-.64-.327-.297-.204-.532-.485-.218-.281-.375-.61v-4.312q.157-.328.375-.593.22-.282.516-.5.281-.188.64-.297.376-.125.813-.125.39 0 .719.093.328.094.594.25.39.235.656.641.266.39.422.875.125.39.172.844.062.437.062.89m11.008 5.016h1.75v-.14q-.156-.422-.25-.97-.093-.546-.093-1.046v-4.578q0-.828-.297-1.438-.297-.625-.813-1.047-.531-.406-1.25-.61-.719-.202-1.562-.202-.922 0-1.657.25-.718.25-1.218.656-.5.422-.782.953-.265.516-.265 1.047h1.687q0-.312.14-.594.157-.28.438-.5.266-.203.657-.328.406-.14.906-.14.547 0 .969.14.437.14.734.39t.453.61q.172.344.172.797v.781h-1.828q-1.031 0-1.875.203-.828.188-1.422.594t-.922 1.016q-.312.61-.312 1.422 0 .625.234 1.156.25.531.688.906.437.406 1.062.64.64.22 1.438.22.468 0 .89-.11.438-.094.828-.265.375-.172.688-.391.312-.234.562-.5.032.312.094.61.063.28.156.468m-2.984-1.281q-.484 0-.86-.125-.374-.14-.624-.36-.235-.218-.36-.53t-.125-.673q0-.39.14-.687t.407-.516q.39-.312 1.031-.453.657-.156 1.532-.156h1.562v2q-.14.281-.406.562-.25.266-.594.47-.344.202-.781.343-.422.125-.922.125m11.695-10.969h-1.703v2.39h-2.578v1.313h2.578v5.344q0 .922.235 1.562.25.641.672 1.047.421.407.984.594.578.188 1.234.188.391 0 .782-.047.406-.032.75-.11.359-.062.656-.156t.515-.219l-.234-1.203q-.156.047-.406.094-.235.047-.516.094t-.578.078q-.281.031-.547.031-.375 0-.719-.094-.328-.093-.578-.312-.265-.219-.406-.594-.14-.375-.14-.953v-5.344h3.75v-1.312h-3.75zm11.4 11.063q-.798 0-1.329-.313-.531-.312-.844-.828-.328-.5-.468-1.125-.141-.64-.141-1.281v-.391q0-.625.14-1.25.141-.64.47-1.156.327-.5.859-.813.53-.312 1.312-.312.516 0 .953.172.438.172.766.484.312.297.5.688.187.39.203.843h1.594q0-.75-.313-1.406-.297-.656-.828-1.14-.531-.47-1.265-.735-.735-.281-1.61-.281-1.11 0-1.953.406-.844.39-1.39 1.063-.563.687-.86 1.578-.281.89-.281 1.859v.39q0 .985.281 1.876.297.875.86 1.562.546.672 1.39 1.078t1.953.407q.781 0 1.5-.266.719-.281 1.281-.734.563-.438.891-1.032.328-.61.344-1.265h-1.594q-.016.406-.219.765-.203.344-.547.61-.328.265-.765.406-.438.14-.89.14m8.68-7.204v-5.609h-1.688v14h1.687v-7.156q.188-.297.422-.531.234-.25.5-.422.344-.25.75-.375.422-.125.875-.125.563-.016.984.156.422.156.704.469.265.297.406.734.14.438.14 1.031v6.22h1.688v-6.204q0-1-.25-1.719-.234-.719-.688-1.203-.437-.469-1.078-.687-.625-.22-1.406-.22-.594 0-1.125.173-.516.156-.953.484-.266.188-.516.438t-.453.546"/>
        <path fill="#ccc" fill-rule="evenodd" d="M293 211.333h332V374.01H293z"/>
        <path stroke="#000" stroke-linecap="butt" stroke-linejoin="round" d="M293 211.333h332V374.01H293z"/>
        <path fill="none" d="M397.882 326.85H625V374H397.882z"/>
        <path fill="#000" d="M416.058 353.77h1.687v-7.062q.172-.328.407-.594t.515-.453q.328-.234.719-.36.406-.14.875-.14.547 0 .953.125.422.125.703.406.281.297.422.75.156.453.156 1.11v6.218h1.688v-6.265q0-.969-.25-1.688-.235-.718-.688-1.187-.437-.453-1.078-.672-.625-.219-1.406-.219-.563 0-1.078.172-.516.156-.953.438-.297.187-.563.453-.25.265-.469.562l-.125-1.453h-1.515zm22.657-14v1.47h3.359v11.077h-3.36v1.453h8.266v-1.453h-3.219V339.77zm17.414 14h1.75v-.14q-.156-.422-.25-.969t-.094-1.047v-4.578q0-.828-.297-1.437-.297-.625-.812-1.047-.531-.407-1.25-.61t-1.563-.203q-.922 0-1.656.25-.719.25-1.219.656-.5.422-.781.954-.266.515-.266 1.046h1.688q0-.312.14-.593.157-.282.438-.5.266-.203.656-.328.407-.141.907-.141.546 0 .968.14.438.141.735.391t.453.61q.172.343.172.796v.782h-1.828q-1.032 0-1.875.203-.829.187-1.422.594-.594.406-.922 1.015-.313.61-.313 1.422 0 .625.235 1.156.25.532.687.907.438.406 1.063.64.64.219 1.437.219.469 0 .89-.11.438-.093.829-.265.375-.172.687-.39.313-.235.563-.5.031.312.094.609.062.28.156.468m-2.984-1.28q-.485 0-.86-.126-.375-.14-.625-.36-.234-.218-.36-.53-.124-.313-.124-.672 0-.391.14-.688t.407-.515q.39-.313 1.03-.454.657-.156 1.532-.156h1.563v2q-.141.281-.407.563-.25.265-.593.468-.344.204-.782.344-.421.125-.921.125m11.695-10.97h-1.703v2.391h-2.578v1.313h2.578v5.343q0 .922.234 1.563.25.64.672 1.047t.985.593q.578.188 1.234.188.39 0 .781-.047.406-.031.75-.11.36-.062.656-.156.297-.093.516-.218l-.234-1.203q-.157.046-.407.093-.234.047-.515.094t-.578.078q-.282.031-.547.031-.375 0-.719-.093-.328-.094-.578-.313-.266-.219-.406-.594t-.14-.953v-5.343h3.75v-1.313h-3.75zm11.555 12.438q1.438 0 2.422-.578t1.469-1.328l-1.032-.797q-.468.594-1.171.969-.688.359-1.594.359-.688 0-1.25-.25-.563-.266-.969-.719-.39-.406-.61-.953-.218-.547-.28-1.266v-.078h7.03v-.75q0-1.031-.265-1.906-.25-.89-.781-1.547-.531-.64-1.328-1-.797-.375-1.86-.375-.843 0-1.656.344-.797.344-1.437.984-.625.657-1.016 1.61-.375.937-.375 2.125v.39q0 1.032.344 1.907t.968 1.5q.61.64 1.485 1 .875.359 1.906.359m-.219-8.844q.657 0 1.125.235.47.234.766.625.312.375.484.906.172.515.172.984v.078h-5.297q.094-.687.344-1.203.266-.531.625-.89.36-.36.813-.547t.968-.188m7.055 8.656h1.688v-7.062q.172-.328.406-.594t.516-.453q.328-.234.718-.36.407-.14.875-.14.547 0 .954.125.421.125.703.406.28.297.422.75.156.453.156 1.11v6.218h1.687v-6.265q0-.969-.25-1.688-.234-.718-.687-1.187-.438-.453-1.078-.672-.625-.219-1.407-.219-.562 0-1.078.172-.515.156-.953.438-.297.187-.562.453-.25.265-.47.562l-.124-1.453h-1.516zm15.196-12.25h-1.703v2.391h-2.578v1.313h2.578v5.343q0 .922.234 1.563.25.64.672 1.047t.984.593q.578.188 1.235.188.39 0 .78-.047.407-.031.75-.11.36-.062.657-.156.297-.093.516-.218l-.235-1.203q-.156.046-.406.093-.234.047-.515.094t-.579.078q-.28.031-.546.031-.375 0-.72-.093-.327-.094-.577-.313-.266-.219-.407-.594t-.14-.953v-5.343h3.75v-1.313h-3.75zm21.766 12.25h1.281l4.016-9.859h-1.719l-2.766 7.438-.156.609-.156-.61-2.828-7.437h-1.735zm14.305 0h1.75v-.14q-.156-.422-.25-.969t-.094-1.047v-4.578q0-.828-.297-1.437-.297-.625-.812-1.047-.531-.407-1.25-.61t-1.563-.203q-.922 0-1.656.25-.719.25-1.219.656-.5.422-.78.954-.267.515-.267 1.046h1.688q0-.312.14-.593.157-.282.438-.5.266-.203.656-.328.407-.141.907-.141.546 0 .968.14.438.141.735.391t.453.61q.172.343.172.796v.782h-1.828q-1.032 0-1.875.203-.829.187-1.422.594-.594.406-.922 1.015-.313.61-.313 1.422 0 .625.235 1.156.25.532.687.907.438.406 1.063.64.64.219 1.437.219.469 0 .89-.11.438-.093.829-.265.375-.172.687-.39.313-.235.563-.5.031.312.094.609.062.28.156.468m-2.984-1.28q-.485 0-.86-.126-.375-.14-.625-.36-.234-.218-.36-.53-.124-.313-.124-.672 0-.391.14-.688t.407-.515q.39-.313 1.03-.454.657-.156 1.532-.156h1.563v2q-.14.281-.407.563-.25.265-.593.468-.344.204-.782.344-.421.125-.921.125m14.164-8.75q-1.078 0-1.922.468t-1.438 1.266l-.015-.235-.078-1.328h-1.594v9.86h1.687v-6.329q.172-.453.422-.812.25-.375.578-.625.375-.297.875-.438.5-.156 1.125-.156.485 0 .922.047.453.047.938.156l.234-1.64q-.265-.11-.765-.172-.5-.063-.97-.063m4.992.171v1.469h3.36v6.937h-3.36v1.453h8.266v-1.453h-3.219v-8.406zm3.14-2.578q0 .406.25.687.25.266.767.266.5 0 .75-.266.25-.28.25-.687 0-.234-.079-.422-.062-.187-.203-.328-.125-.11-.312-.172-.172-.078-.406-.078-.25 0-.438.078-.172.063-.297.172-.14.14-.219.344-.062.187-.062.406m14.275 12.437h1.75v-.14q-.157-.422-.25-.969-.094-.547-.094-1.047v-4.578q0-.828-.297-1.437-.297-.625-.812-1.047-.532-.407-1.25-.61-.72-.203-1.563-.203-.922 0-1.656.25-.719.25-1.219.656-.5.422-.781.954-.266.515-.266 1.046h1.688q0-.312.14-.593.157-.282.438-.5.265-.203.656-.328.406-.141.906-.141.547 0 .969.14.438.141.734.391.297.25.454.61.171.343.171.796v.782h-1.828q-1.031 0-1.875.203-.828.187-1.422.594-.593.406-.921 1.015-.313.61-.313 1.422 0 .625.234 1.156.25.532.688.907.437.406 1.062.64.641.219 1.438.219.469 0 .89-.11.438-.093.829-.265.375-.172.687-.39.313-.235.563-.5.03.312.093.609.063.28.157.468m-2.985-1.28q-.484 0-.86-.126-.374-.14-.624-.36-.234-.218-.36-.53-.124-.313-.124-.672 0-.391.14-.688t.406-.515q.391-.313 1.032-.454.656-.156 1.53-.156h1.563v2q-.14.281-.406.563-.25.265-.594.468t-.78.344q-.423.125-.923.125m16.055-3.532v-.203q0-.766-.125-1.453-.125-.703-.375-1.282-.234-.515-.547-.921-.312-.422-.703-.704-.437-.312-.984-.484-.531-.172-1.156-.172-.516 0-.954.094t-.796.297q-.297.156-.563.375-.25.203-.453.469v-5.204h-1.688v14h1.547l.078-1.125q.172.22.344.391.188.172.39.313.423.296.938.453.532.156 1.172.156.547 0 1.016-.14.484-.141.89-.391.563-.344.954-.891.39-.547.64-1.219.188-.531.281-1.125.094-.593.094-1.234m-1.687-.203v.203q0 .437-.063.86-.047.406-.156.78-.156.47-.406.876-.235.39-.61.64-.265.203-.609.313-.344.093-.766.093-.437 0-.812-.109-.36-.11-.64-.328-.298-.203-.532-.484-.219-.282-.375-.61v-4.312q.156-.328.375-.594.219-.281.516-.5.28-.188.64-.297.375-.125.813-.125.39 0 .718.094.329.094.594.25.39.234.656.64.266.391.422.875.125.391.172.844.063.438.063.89m4.789-8.985v1.47h3.36v11.077h-3.36v1.453h8.266v-1.453h-3.22V339.77zm15.29 14.188q1.437 0 2.421-.578.985-.578 1.469-1.328l-1.031-.797q-.469.594-1.172.969-.688.359-1.594.359-.687 0-1.25-.25-.562-.266-.969-.719-.39-.406-.609-.953t-.281-1.266v-.078h7.031v-.75q0-1.031-.266-1.906-.25-.89-.78-1.547-.532-.64-1.329-1-.797-.375-1.86-.375-.843 0-1.656.344-.797.344-1.437.984-.625.657-1.016 1.61-.375.937-.375 2.125v.39q0 1.032.344 1.907t.969 1.5q.61.64 1.484 1 .875.359 1.906.359m-.22-8.844q.657 0 1.126.235t.765.625q.313.375.485.906.171.515.171.984v.078h-5.296q.093-.687.343-1.203.266-.531.625-.89.36-.36.813-.547t.969-.188m13.618 6.047q0 .234-.094.453-.093.203-.265.375-.282.281-.782.438t-1.171.156q-.438 0-.875-.078-.438-.094-.797-.313-.36-.218-.61-.578-.234-.36-.265-.875h-1.688q0 .625.281 1.219.297.578.844 1.016.531.437 1.313.718.78.266 1.797.266.875 0 1.609-.203.734-.219 1.266-.61.53-.375.812-.906.297-.547.297-1.203 0-.61-.266-1.062-.25-.47-.734-.829-.5-.343-1.219-.593t-1.625-.453q-.687-.125-1.14-.266-.454-.156-.72-.344-.28-.172-.39-.406t-.11-.516q0-.281.141-.547.141-.265.407-.468.265-.203.672-.313.406-.125.953-.125.515 0 .922.156.421.141.718.375.282.235.438.547.172.297.172.625h1.687q0-.656-.281-1.218-.266-.563-.781-.97-.516-.421-1.25-.655-.72-.235-1.625-.235-.86 0-1.563.235-.703.218-1.219.609-.5.39-.78.922-.282.515-.282 1.11 0 .609.266 1.077.28.453.78.797.485.344 1.173.594.703.234 1.562.422.688.125 1.14.297.47.172.75.375.282.203.407.437.125.235.125.547"/>
        <path fill="none" d="m70.016 150.627 112.157 96.504"/>
        <path stroke="#000" stroke-linecap="butt" stroke-linejoin="round" d="m70.016 150.627 107.61 92.59"/>
        <path fill="#000" fill-rule="evenodd" stroke="#000" stroke-linecap="butt" d="m176.548 244.47 4.517 1.708-2.363-4.212z"/>
        <path fill="none" d="M292.83 216.417h112.157v78.93H292.829z"/>
        <path fill="#000" d="M311.767 238.525v-.203q0-.766-.125-1.453-.125-.704-.375-1.282-.234-.515-.547-.922-.312-.421-.703-.703-.438-.312-.984-.484-.532-.172-1.157-.172-.515 0-.953.094t-.797.297q-.297.156-.562.375-.25.203-.453.468v-5.203h-1.688v14h1.547l.078-1.125q.172.22.344.391.187.172.39.312.422.297.938.454.531.156 1.172.156.547 0 1.016-.14.484-.141.89-.391.563-.344.953-.891t.64-1.219q.188-.531.282-1.125t.094-1.234m-1.688-.203v.203q0 .437-.062.86-.047.405-.156.78-.157.47-.407.875-.234.391-.609.641-.266.203-.61.313-.343.093-.765.093-.437 0-.812-.109-.36-.11-.641-.328-.297-.203-.531-.485-.22-.28-.375-.609v-4.312q.156-.329.375-.594.218-.281.515-.5.282-.188.64-.297.376-.125.813-.125.391 0 .72.094.327.093.593.25.39.234.656.64.266.391.422.875.125.391.172.844.062.438.062.89m11.008 5.015h1.75v-.14q-.156-.422-.25-.969-.093-.547-.093-1.047v-4.578q0-.828-.297-1.438-.297-.625-.813-1.046-.53-.407-1.25-.61-.718-.203-1.562-.203-.922 0-1.656.25-.72.25-1.22.656-.5.422-.78.953-.266.516-.266 1.047h1.687q0-.312.141-.593.156-.282.438-.5.265-.204.656-.329.406-.14.906-.14.547 0 .969.14.437.141.734.391t.453.61q.172.343.172.796v.782h-1.828q-1.031 0-1.875.203-.828.187-1.422.593-.594.407-.922 1.016-.312.61-.312 1.422 0 .625.234 1.156.25.531.688.906.437.407 1.062.641.64.219 1.438.219.468 0 .89-.11.438-.093.828-.265.375-.172.688-.39.312-.235.562-.5.032.312.094.609.063.28.156.468m-2.984-1.28q-.484 0-.86-.126-.374-.14-.624-.36-.235-.218-.36-.53t-.125-.672q0-.391.141-.688t.406-.516q.39-.312 1.031-.453.657-.156 1.532-.156h1.562v2q-.14.281-.406.563-.25.265-.594.468t-.781.344q-.422.125-.922.125m11.696-10.97h-1.703v2.391h-2.579v1.312h2.579v5.344q0 .922.234 1.563.25.64.672 1.047t.984.593q.578.188 1.235.188.39 0 .78-.047.407-.031.75-.11.36-.062.657-.156.297-.093.516-.218l-.235-1.204q-.156.047-.406.094-.234.047-.516.094-.28.047-.578.078-.281.031-.547.031-.375 0-.718-.093-.328-.094-.578-.313-.266-.219-.407-.594t-.14-.953v-5.344h3.75v-1.312h-3.75zm11.398 11.063q-.797 0-1.328-.313-.531-.312-.844-.828-.328-.5-.468-1.125-.14-.64-.14-1.281v-.39q0-.626.14-1.25.14-.641.468-1.157.329-.5.86-.812t1.312-.313q.516 0 .953.172.438.172.766.484.313.297.5.688.188.39.203.844h1.594q0-.75-.313-1.407-.296-.656-.828-1.14-.53-.469-1.265-.735-.735-.28-1.61-.28-1.109 0-1.953.405-.844.391-1.39 1.063-.563.687-.86 1.578-.281.89-.281 1.86v.39q0 .984.281 1.875.297.875.86 1.562.546.672 1.39 1.079t1.953.406q.782 0 1.5-.266.72-.281 1.282-.734.562-.438.89-1.031.328-.61.344-1.266h-1.594q-.015.406-.219.766-.203.343-.546.609-.329.266-.766.406-.438.14-.89.14m8.68-7.203v-5.61h-1.687v14h1.687v-7.156q.188-.297.422-.531.235-.25.5-.422.344-.25.75-.375.422-.125.875-.125.563-.016.985.156.421.156.703.469.265.297.406.734.14.438.14 1.032v6.218h1.688v-6.203q0-1-.25-1.719-.234-.718-.687-1.203-.438-.468-1.079-.687-.625-.219-1.406-.219-.594 0-1.125.172-.515.156-.953.484-.266.188-.516.438t-.453.547M303.673 251.337v1.47h3.36v11.077h-3.36v1.453h8.266v-1.453h-3.219v-12.547zm17.414 14h1.75v-.14q-.156-.422-.25-.97-.093-.546-.093-1.046v-4.578q0-.828-.297-1.438-.297-.625-.813-1.046-.53-.407-1.25-.61-.718-.203-1.562-.203-.922 0-1.656.25-.72.25-1.22.656-.5.422-.78.953-.266.516-.266 1.047h1.687q0-.312.141-.593.156-.282.438-.5.265-.204.656-.329.406-.14.906-.14.547 0 .969.14.437.141.734.391t.453.61q.172.343.172.796v.782h-1.828q-1.031 0-1.875.203-.828.187-1.422.593-.594.407-.922 1.016-.312.61-.312 1.422 0 .625.234 1.156.25.531.688.906.437.407 1.062.641.64.219 1.438.219.468 0 .89-.11.438-.093.828-.265.375-.172.688-.39.312-.235.562-.5.032.312.094.609.063.28.156.468m-2.984-1.28q-.484 0-.86-.126-.374-.14-.624-.36-.235-.218-.36-.53t-.125-.672q0-.391.141-.688t.406-.516q.39-.312 1.031-.453.657-.156 1.532-.156h1.562v2q-.14.281-.406.563-.25.265-.594.468t-.781.344q-.422.125-.922.125m11.696-10.97h-1.703v2.391h-2.579v1.312h2.579v5.344q0 .922.234 1.563.25.64.672 1.047t.984.593q.578.188 1.235.188.39 0 .78-.047.407-.031.75-.11.36-.062.657-.156.297-.093.516-.218l-.235-1.204q-.156.047-.406.094-.234.047-.516.094-.28.047-.578.078-.28.031-.547.031-.375 0-.718-.093-.328-.094-.578-.313-.266-.219-.407-.594t-.14-.953v-5.344h3.75v-1.312h-3.75zm11.555 12.438q1.437 0 2.421-.578.985-.578 1.47-1.328l-1.032-.797q-.469.593-1.172.968-.687.36-1.594.36-.687 0-1.25-.25-.562-.266-.968-.719-.391-.406-.61-.953t-.281-1.266v-.078h7.031v-.75q0-1.031-.265-1.906-.25-.89-.782-1.547-.53-.64-1.328-1-.797-.375-1.86-.375-.843 0-1.655.344-.797.344-1.438.984-.625.656-1.016 1.61-.375.937-.375 2.125v.39q0 1.031.344 1.906t.969 1.5q.61.641 1.484 1 .875.36 1.907.36m-.22-8.844q.657 0 1.126.234t.765.625q.313.375.485.907.172.515.172.984v.078h-5.297q.094-.687.344-1.203.265-.531.625-.89.359-.36.812-.547t.969-.188m7.056 8.656h1.687v-7.062q.172-.328.407-.594t.515-.453q.328-.234.719-.36.406-.14.875-.14.547 0 .953.125.422.125.703.406.281.297.422.75.156.453.156 1.11v6.218h1.688v-6.265q0-.97-.25-1.688-.235-.719-.688-1.187-.437-.453-1.078-.672-.625-.219-1.406-.219-.563 0-1.078.172-.516.156-.953.437-.297.188-.563.454-.25.265-.469.562l-.125-1.453h-1.515zm15.195-12.25h-1.703v2.391h-2.578v1.312h2.578v5.344q0 .922.235 1.563.25.64.672 1.047.421.406.984.593.578.188 1.234.188.39 0 .782-.047.406-.031.75-.11.359-.062.656-.156.297-.093.515-.218l-.234-1.204q-.156.047-.406.094-.235.047-.516.094t-.578.078q-.281.031-.547.031-.375 0-.719-.093-.328-.094-.578-.313-.265-.219-.406-.594-.14-.375-.14-.953v-5.344h3.75v-1.312h-3.75zM306.783 287.337h1.28l4.016-9.86h-1.718l-2.766 7.438-.156.61-.156-.61-2.829-7.437h-1.734zm14.304 0h1.75v-.14q-.156-.422-.25-.97-.093-.546-.093-1.046v-4.578q0-.828-.297-1.438-.297-.625-.813-1.046-.53-.407-1.25-.61-.718-.203-1.562-.203-.922 0-1.656.25-.72.25-1.22.656-.5.422-.78.953-.266.516-.266 1.047h1.687q0-.312.141-.593.156-.282.438-.5.265-.204.656-.329.406-.14.906-.14.547 0 .969.14.437.141.734.391t.453.61q.172.343.172.796v.782h-1.828q-1.031 0-1.875.203-.828.187-1.422.593-.594.407-.922 1.016-.312.61-.312 1.422 0 .625.234 1.156.25.531.688.906.437.407 1.062.641.64.219 1.438.219.468 0 .89-.11.438-.093.828-.265.375-.172.688-.39.312-.235.562-.5.032.312.094.609.063.28.156.468m-2.984-1.28q-.484 0-.86-.126-.374-.14-.624-.36-.235-.218-.36-.53t-.125-.672q0-.391.141-.688t.406-.516q.39-.312 1.031-.453.657-.156 1.532-.156h1.562v2q-.14.281-.406.563-.25.265-.594.468t-.781.344q-.422.125-.922.125m14.164-8.75q-1.078 0-1.921.468-.844.469-1.438 1.265l-.016-.234-.078-1.328h-1.593v9.86h1.687v-6.329q.172-.453.422-.812.25-.375.578-.625.375-.297.875-.438.5-.156 1.125-.156.484 0 .922.047.453.047.937.156l.235-1.64q-.266-.11-.766-.172-.5-.063-.969-.063m4.993.17v1.47h3.36v6.937h-3.36v1.453h8.265v-1.453h-3.218v-8.406zm3.14-2.577q0 .406.25.687.25.266.766.266.5 0 .75-.266.25-.28.25-.687 0-.235-.078-.422-.063-.188-.203-.328-.125-.11-.313-.172-.172-.078-.406-.078-.25 0-.437.078-.172.062-.297.172-.14.14-.219.344-.063.187-.063.406m14.274 12.437h1.75v-.14q-.156-.422-.25-.97-.094-.546-.094-1.046v-4.578q0-.828-.296-1.438-.297-.625-.813-1.046-.531-.407-1.25-.61t-1.562-.203q-.922 0-1.657.25-.718.25-1.218.656-.5.422-.782.953-.265.516-.265 1.047h1.687q0-.312.14-.593.157-.282.438-.5.266-.204.657-.329.406-.14.906-.14.547 0 .969.14.437.141.734.391t.453.61q.172.343.172.796v.782h-1.828q-1.031 0-1.875.203-.828.187-1.422.593-.594.407-.922 1.016-.312.61-.312 1.422 0 .625.234 1.156.25.531.687.906.438.407 1.063.641.64.219 1.437.219.47 0 .891-.11.438-.093.828-.265.375-.172.688-.39.312-.235.562-.5.031.312.094.609.062.28.156.468m-2.984-1.28q-.485 0-.86-.126-.375-.14-.625-.36-.234-.218-.359-.53t-.125-.672q0-.391.14-.688t.407-.516q.39-.312 1.031-.453.656-.156 1.531-.156h1.563v2q-.14.281-.406.563-.25.265-.594.468t-.781.344q-.422.125-.922.125m16.055-3.532v-.203q0-.766-.125-1.453-.125-.704-.375-1.282-.235-.515-.547-.922-.313-.421-.703-.703-.438-.312-.985-.484-.53-.172-1.156-.172-.516 0-.953.094-.438.094-.797.297-.297.156-.562.375-.25.203-.454.468v-5.203h-1.687v14h1.547l.078-1.125q.172.22.344.39.187.173.39.313.422.297.938.454.531.156 1.172.156.547 0 1.015-.14.485-.141.891-.391.562-.344.953-.891t.64-1.219q.188-.531.282-1.125t.094-1.234m-1.688-.203v.203q0 .437-.062.86-.047.405-.157.78-.156.47-.406.875-.234.391-.61.641-.265.203-.609.313-.343.093-.765.093-.438 0-.813-.11-.359-.108-.64-.327-.297-.203-.532-.485-.218-.28-.375-.609v-4.312q.157-.329.375-.594.22-.281.516-.5.281-.188.64-.297.376-.125.813-.125.39 0 .719.094.328.093.594.25.39.234.656.64.266.39.422.875.125.39.172.844.062.438.062.89m4.79-8.985v1.47h3.359v11.077h-3.36v1.453h8.266v-1.453h-3.219v-12.547zm15.289 14.188q1.437 0 2.422-.578.984-.578 1.469-1.328l-1.032-.797q-.468.593-1.172.968-.687.36-1.593.36-.688 0-1.25-.25-.563-.266-.97-.719-.39-.406-.608-.953-.22-.547-.282-1.266v-.078h7.032v-.75q0-1.031-.266-1.906-.25-.89-.781-1.547-.532-.64-1.328-1-.797-.375-1.86-.375-.844 0-1.656.344-.797.344-1.438.984-.625.656-1.015 1.61-.375.937-.375 2.125v.39q0 1.031.344 1.906t.968 1.5q.61.641 1.485 1 .875.36 1.906.36m-.219-8.844q.656 0 1.125.234t.766.625q.312.375.484.907.172.515.172.984v.078h-5.297q.094-.687.344-1.203.266-.531.625-.89.36-.36.812-.547.454-.188.97-.188"/>
        <path fill="none" d="M438.827 211.333h187.968v47.15H438.827z"/>
        <path fill="#000" d="M457.764 233.44v-.202q0-.766-.125-1.453-.125-.704-.375-1.282-.234-.515-.547-.922-.312-.421-.703-.703-.437-.312-.984-.484-.531-.172-1.156-.172-.516 0-.953.094-.438.094-.797.297-.297.156-.563.375-.25.203-.453.468v-5.203h-1.687v14h1.546l.079-1.125q.171.22.343.391.188.172.39.312.423.297.938.454.532.156 1.172.156.547 0 1.016-.14.484-.141.89-.391.563-.344.954-.891.39-.547.64-1.219.188-.531.282-1.125t.093-1.234m-1.687-.202v.203q0 .437-.063.86-.047.405-.156.78-.156.47-.406.875-.235.391-.61.641-.265.203-.609.313-.344.093-.766.093-.437 0-.812-.109-.36-.11-.64-.328-.298-.203-.532-.485-.219-.28-.375-.609v-4.312q.156-.329.375-.594.219-.281.516-.5.28-.188.64-.297.375-.125.813-.125.39 0 .719.094.328.093.593.25.39.234.657.64.265.391.421.875.125.391.172.844.063.438.063.89m4.79-4.844v1.469h3.358v6.937h-3.359v1.453h8.266V236.8h-3.219v-8.406zm3.14-2.578q0 .406.25.687.25.266.765.266.5 0 .75-.266.25-.28.25-.687 0-.235-.078-.422-.062-.188-.203-.328-.125-.11-.312-.172-.172-.078-.407-.078-.25 0-.437.078-.172.062-.297.172-.14.14-.219.344-.062.187-.062.406m7.789 12.437h1.688v-7.062q.171-.328.406-.594.234-.266.515-.453.329-.234.72-.36.405-.14.874-.14.547 0 .953.125.422.125.703.406.282.297.422.75.157.453.157 1.11v6.218h1.687v-6.265q0-.969-.25-1.688-.234-.719-.687-1.187-.438-.453-1.079-.672-.625-.219-1.406-.219-.562 0-1.078.172-.516.156-.953.437-.297.188-.563.454-.25.265-.468.562l-.125-1.453h-1.516zm26.391-12.25h-1.703v2.391h-2.578v1.312h2.578v5.344q0 .922.234 1.563.25.64.672 1.047t.985.593q.578.188 1.234.188.39 0 .781-.047.407-.031.75-.11.36-.062.657-.156.296-.093.515-.218l-.234-1.204q-.156.047-.406.094-.235.047-.516.094t-.578.078q-.281.031-.547.031-.375 0-.719-.093-.328-.094-.578-.313-.266-.219-.406-.594t-.14-.953v-5.344h3.75v-1.312h-3.75zm13.54 8.813 1.046 3.437h1.672l-4.203-13.265h-1.422l-4.281 13.265h1.687l1.063-3.437zm-3.985-1.469 1.781-5.75 1.75 5.75zm17.149 4.906v-13.265h-1.703l-.032 9.89-5.14-9.89h-1.719v13.265H518l.031-9.906 5.157 9.906zm9.836-3.359q0 .547-.25.953-.234.39-.61.64-.359.266-.843.391t-.969.125q-.625 0-1.156-.156-.516-.172-.906-.516-.407-.328-.672-.796-.25-.485-.328-1.11h-1.72q.032.86.376 1.563.344.687.953 1.203.672.61 1.578.937.922.313 1.875.313.797 0 1.578-.219.797-.234 1.422-.672.625-.437 1.016-1.11.406-.671.406-1.562 0-.875-.375-1.547-.36-.687-.953-1.14-.625-.5-1.36-.828-.734-.328-1.468-.547-.453-.14-.953-.313-.5-.187-.938-.468-.437-.266-.719-.657-.28-.406-.296-.984 0-.531.218-.922.219-.406.578-.672.36-.281.813-.406.469-.14.953-.14.594 0 1.063.187.484.172.828.515.359.344.562.813t.281 1.031h1.735q-.016-.906-.39-1.64-.376-.735-1-1.266-.61-.516-1.423-.797-.797-.297-1.656-.297-.797 0-1.578.25-.766.235-1.375.703-.61.47-.984 1.141-.375.672-.375 1.531 0 .86.375 1.5.375.625.984 1.094.594.453 1.312.781.72.313 1.422.547.485.156 1 .344.532.187.969.469.438.296.719.718.281.407.281 1.016m19.641 2.172q-.797 0-1.328-.313-.531-.312-.844-.828-.328-.5-.468-1.125-.141-.64-.141-1.281v-.39q0-.626.14-1.25.141-.641.47-1.157.327-.5.859-.812.53-.313 1.312-.313.516 0 .953.172.438.172.766.484.312.297.5.688.187.39.203.844h1.594q0-.75-.313-1.407-.297-.656-.828-1.14-.531-.469-1.265-.735-.735-.28-1.61-.28-1.11 0-1.953.405-.844.391-1.39 1.063-.563.687-.86 1.578-.281.89-.281 1.86v.39q0 .984.281 1.875.297.875.86 1.562.546.672 1.39 1.079t1.953.406q.781 0 1.5-.266.719-.281 1.281-.734.563-.438.891-1.031.328-.61.344-1.266h-1.594q-.016.406-.219.766-.203.343-.547.609-.328.266-.765.406-.438.14-.89.14m6.524-3.828v.203q0 1.062.312 1.969.313.906.891 1.593.578.672 1.406 1.063.844.375 1.89.375 1.032 0 1.86-.375.828-.39 1.406-1.063.579-.687.891-1.593.313-.907.313-1.97v-.202q0-1.063-.313-1.985-.312-.922-.89-1.593-.579-.672-1.422-1.047-.829-.39-1.875-.39-1.032 0-1.86.39-.828.375-1.406 1.047t-.89 1.593-.313 1.985m1.687.203v-.203q0-.719.172-1.375.172-.672.531-1.172.344-.5.86-.797.515-.297 1.219-.297.703 0 1.218.297.532.297.891.797.344.5.516 1.172.187.656.187 1.375v.203q0 .719-.172 1.39-.172.657-.515 1.157-.36.5-.891.797-.516.28-1.203.28-.703 0-1.235-.28-.53-.297-.875-.797-.359-.5-.53-1.157-.173-.671-.173-1.39m9.665-.203v.203q0 1.047.281 1.969.281.906.797 1.593.5.672 1.219 1.063.734.375 1.625.375.921 0 1.593-.313.688-.312 1.188-.906l.062 1.031h1.547v-14h-1.687v5.125q-.469-.578-1.14-.859-.657-.297-1.548-.297-.89 0-1.625.375-.734.36-1.234 1.031-.516.657-.797 1.594-.281.922-.281 2.016m1.687.203v-.203q0-.719.156-1.36.157-.656.485-1.156.312-.5.812-.781.516-.297 1.22-.297.827 0 1.374.39.563.391.89.985v4.578q-.327.64-.89 1.031-.547.375-1.39.375-.704 0-1.204-.28-.5-.298-.812-.782-.328-.5-.485-1.14-.156-.641-.156-1.36m14.18 5q1.438 0 2.422-.578t1.469-1.328l-1.031-.797q-.47.593-1.172.968-.688.36-1.594.36-.688 0-1.25-.25-.563-.266-.969-.719-.39-.406-.61-.953-.218-.547-.28-1.266v-.078h7.03v-.75q0-1.031-.265-1.906-.25-.89-.781-1.547-.531-.64-1.328-1-.797-.375-1.86-.375-.843 0-1.656.344-.797.344-1.437.984-.625.656-1.016 1.61-.375.937-.375 2.125v.39q0 1.031.344 1.906t.969 1.5q.609.641 1.484 1 .875.36 1.906.36m-.219-8.844q.657 0 1.125.234.47.235.766.625.313.375.484.907.172.515.172.984v.078h-5.297q.094-.687.344-1.203.266-.531.625-.89.36-.36.813-.547t.968-.188m13.618 6.047q0 .234-.094.453-.094.203-.266.375-.28.281-.78.438t-1.173.156q-.437 0-.875-.078-.437-.094-.797-.313-.359-.219-.609-.578-.234-.36-.266-.875h-1.687q0 .625.281 1.219.297.578.844 1.015.531.438 1.312.72.782.265 1.797.265.875 0 1.61-.203.734-.219 1.265-.61.532-.375.813-.906.297-.547.297-1.203 0-.61-.266-1.063-.25-.468-.734-.828-.5-.343-1.219-.593t-1.625-.454q-.688-.125-1.14-.265-.454-.156-.72-.344-.28-.172-.39-.406t-.11-.516q0-.281.141-.547.14-.265.406-.468t.672-.313q.407-.125.953-.125.516 0 .922.156.422.141.72.375.28.235.437.547.171.297.171.625h1.688q0-.656-.281-1.219-.266-.562-.782-.968-.515-.422-1.25-.657-.718-.234-1.625-.234-.859 0-1.562.234-.703.22-1.219.61-.5.39-.781.922-.281.515-.281 1.11 0 .608.265 1.077.282.453.782.797.484.344 1.171.594.704.234 1.563.422.687.125 1.14.297.47.171.75.375.282.203.407.437t.125.547"/>
        <path fill="none" d="M438.827 250.953h101.89v47.15h-101.89z"/>
        <path fill="#000" d="M448.936 272.857v.203q0 1.063.313 1.969.312.906.89 1.594.578.672 1.407 1.062.843.375 1.89.375 1.031 0 1.86-.375.828-.39 1.406-1.062.578-.688.89-1.594t.313-1.969v-.203q0-1.062-.313-1.984-.312-.922-.89-1.594t-1.422-1.047q-.828-.39-1.875-.39-1.031 0-1.86.39-.828.375-1.406 1.047t-.89 1.594-.313 1.984m1.688.203v-.203q0-.719.172-1.375.171-.672.53-1.172.345-.5.86-.797.516-.297 1.219-.297t1.219.297q.53.297.89.797.344.5.516 1.172.187.656.187 1.375v.203q0 .719-.171 1.39-.172.657-.516 1.157-.36.5-.89.797-.516.281-1.204.281-.703 0-1.234-.281-.531-.297-.875-.797-.36-.5-.531-1.156-.172-.672-.172-1.39m12.492 4.813h1.703v-8.547h3.797v-1.313h-3.797v-.687q0-.625.156-1.078.157-.469.47-.766.296-.281.734-.422.437-.14 1.015-.14.563 0 1.063.093.5.094.875.22l.187-1.392q-.234-.062-.469-.109-.218-.047-.453-.094-.343-.062-.703-.109-.344-.047-.703-.047-.875 0-1.594.25-.703.25-1.203.734-.515.485-.797 1.204-.28.703-.28 1.656v.687h-2.704v1.313h2.703zm11.196 0h1.703v-8.547h3.797v-1.313h-3.797v-.687q0-.625.156-1.078.156-.469.469-.766.297-.281.734-.422.438-.14 1.016-.14.562 0 1.062.093.5.094.875.22l.188-1.392q-.235-.062-.469-.109-.219-.047-.453-.094-.344-.062-.703-.109-.344-.047-.703-.047-.875 0-1.594.25-.703.25-1.203.734-.516.485-.797 1.204-.281.703-.281 1.656v.687h-2.703v1.313h2.703zm15.242-2.61q0 .235-.094.453-.093.204-.265.375-.282.282-.782.438t-1.171.156q-.438 0-.875-.078-.438-.094-.797-.312-.36-.22-.61-.579-.234-.359-.265-.875h-1.688q0 .625.281 1.22.297.577.844 1.015.531.437 1.313.719.781.265 1.797.265.875 0 1.609-.203.734-.219 1.266-.61.53-.374.812-.906.297-.546.297-1.203 0-.609-.266-1.062-.25-.469-.734-.828-.5-.344-1.219-.594t-1.625-.453q-.687-.125-1.14-.266-.454-.156-.72-.344-.28-.171-.39-.406-.11-.234-.11-.515t.141-.547q.141-.266.407-.469.265-.203.672-.313.406-.125.953-.125.515 0 .922.157.421.14.718.375.282.234.438.547.172.296.172.625h1.687q0-.657-.281-1.22-.266-.562-.781-.968-.516-.422-1.25-.656-.719-.235-1.625-.235-.86 0-1.563.235-.703.219-1.219.61-.5.39-.78.921-.282.516-.282 1.11 0 .609.266 1.078.28.453.78.796.485.344 1.173.594.703.235 1.562.422.688.125 1.14.297.47.172.75.375.282.203.407.437.125.235.125.547m8.993 2.797q1.437 0 2.421-.578.985-.578 1.47-1.328l-1.032-.797q-.469.594-1.172.969-.687.36-1.594.36-.687 0-1.25-.25-.562-.266-.968-.72-.391-.406-.61-.953t-.281-1.265v-.078h7.031v-.75q0-1.032-.265-1.907-.25-.89-.782-1.547-.53-.64-1.328-1-.797-.375-1.86-.375-.843 0-1.655.344-.797.344-1.438.985-.625.656-1.016 1.609-.375.937-.375 2.125v.39q0 1.032.344 1.907t.969 1.5q.61.64 1.484 1 .875.36 1.907.36m-.22-8.844q.657 0 1.126.235t.765.625q.313.375.485.906.172.516.172.984v.079h-5.297q.094-.688.344-1.204.265-.53.625-.89.359-.36.812-.547t.969-.188m11.056-3.593h-1.703v2.39h-2.578v1.313h2.578v5.344q0 .921.234 1.562.25.64.672 1.047t.984.594q.578.187 1.235.187.39 0 .78-.047.407-.03.75-.109.36-.063.657-.156.297-.094.516-.219l-.235-1.203q-.156.047-.406.094-.234.046-.515.093t-.579.078q-.28.032-.546.032-.375 0-.72-.094-.327-.094-.577-.313-.266-.218-.407-.593t-.14-.953v-5.344h3.75v-1.313h-3.75zm13.758 9.64q0 .235-.094.453-.094.204-.266.375-.28.282-.78.438t-1.173.156q-.437 0-.875-.078-.437-.094-.797-.312-.359-.22-.609-.579-.234-.359-.266-.875h-1.687q0 .625.281 1.22.297.577.844 1.015.531.437 1.312.719.782.265 1.797.265.875 0 1.61-.203.734-.219 1.265-.61.532-.374.813-.906.297-.546.297-1.203 0-.609-.266-1.062-.25-.469-.734-.828-.5-.344-1.22-.594-.718-.25-1.624-.453-.688-.125-1.14-.266-.454-.156-.72-.344-.28-.171-.39-.406-.11-.234-.11-.515t.141-.547.406-.469.672-.313q.407-.125.953-.125.516 0 .922.157.422.14.72.375.28.234.437.547.171.296.171.625h1.688q0-.657-.281-1.22-.266-.562-.782-.968-.515-.422-1.25-.656-.718-.235-1.625-.235-.859 0-1.562.235-.703.219-1.219.61-.5.39-.781.921-.281.516-.281 1.11 0 .609.265 1.078.282.453.782.796.484.344 1.171.594.704.235 1.563.422.687.125 1.14.297.47.172.75.375.282.203.407.437.125.235.125.547"/>
        <path fill="none" d="m258.992 247.134 33.827 8.756"/>
        <path stroke="#000" stroke-linecap="butt" stroke-linejoin="round" d="m258.992 247.134 28.018 7.252"/>
        <path fill="#000" fill-rule="evenodd" stroke="#000" stroke-linecap="butt" d="m286.596 255.985 4.808-.462-3.98-2.736z"/>
        <path fill="none" d="m404.987 255.882 33.827-20.976"/>
        <path stroke="#000" stroke-linecap="butt" stroke-linejoin="round" d="m404.987 255.882 28.727-17.814"/>
        <path fill="#000" fill-rule="evenodd" stroke="#000" stroke-linecap="butt" d="m434.585 239.471 2.986-3.795-4.727.988z"/>
        <path fill="none" d="m404.987 255.882 33.827 18.646"/>
        <path stroke="#000" stroke-linecap="butt" stroke-linejoin="round" d="m404.987 255.882 28.572 15.75"/>
        <path fill="#000" fill-rule="evenodd" stroke="#000" stroke-linecap="butt" d="m432.762 273.078 4.771.744-3.177-3.637z"/>
    </g>
</svg>
